%TF.GenerationSoftware,KiCad,Pcbnew,(5.1.5)-3*%
%TF.CreationDate,2020-11-20T20:43:37+01:00*%
%TF.ProjectId,PCB,5043422e-6b69-4636-9164-5f7063625858,rev?*%
%TF.SameCoordinates,Original*%
%TF.FileFunction,Paste,Bot*%
%TF.FilePolarity,Positive*%
%FSLAX46Y46*%
G04 Gerber Fmt 4.6, Leading zero omitted, Abs format (unit mm)*
G04 Created by KiCad (PCBNEW (5.1.5)-3) date 2020-11-20 20:43:37*
%MOMM*%
%LPD*%
G04 APERTURE LIST*
%ADD10R,0.350000X1.200000*%
%ADD11R,0.400000X1.000000*%
%ADD12C,0.100000*%
G04 APERTURE END LIST*
D10*
%TO.C,U2*%
X92292000Y-159532300D03*
X91642000Y-159532300D03*
X90992000Y-159532300D03*
X90342000Y-159532300D03*
X89692000Y-159532300D03*
X89042000Y-159532300D03*
X88392000Y-159532300D03*
X92292000Y-153531000D03*
X91642000Y-153531000D03*
X90992000Y-153531000D03*
X90342000Y-153531000D03*
X89692000Y-153531000D03*
X89042000Y-153531000D03*
X88392000Y-153531000D03*
%TD*%
D11*
%TO.C,U4*%
X106875000Y-126150000D03*
X106225000Y-126150000D03*
X105575000Y-126150000D03*
X104925000Y-126150000D03*
X104275000Y-126150000D03*
X103625000Y-126150000D03*
X102975000Y-126150000D03*
X102325000Y-126150000D03*
X102325000Y-132250000D03*
X102975000Y-132250000D03*
X103625000Y-132250000D03*
X104275000Y-132250000D03*
X104925000Y-132250000D03*
X105575000Y-132250000D03*
X106225000Y-132250000D03*
X106875000Y-132250000D03*
%TD*%
D12*
%TO.C,R5*%
G36*
X91873404Y-145394704D02*
G01*
X91897673Y-145398304D01*
X91921471Y-145404265D01*
X91944571Y-145412530D01*
X91966749Y-145423020D01*
X91987793Y-145435633D01*
X92007498Y-145450247D01*
X92025677Y-145466723D01*
X92042153Y-145484902D01*
X92056767Y-145504607D01*
X92069380Y-145525651D01*
X92079870Y-145547829D01*
X92088135Y-145570929D01*
X92094096Y-145594727D01*
X92097696Y-145618996D01*
X92098900Y-145643500D01*
X92098900Y-146568500D01*
X92097696Y-146593004D01*
X92094096Y-146617273D01*
X92088135Y-146641071D01*
X92079870Y-146664171D01*
X92069380Y-146686349D01*
X92056767Y-146707393D01*
X92042153Y-146727098D01*
X92025677Y-146745277D01*
X92007498Y-146761753D01*
X91987793Y-146776367D01*
X91966749Y-146788980D01*
X91944571Y-146799470D01*
X91921471Y-146807735D01*
X91897673Y-146813696D01*
X91873404Y-146817296D01*
X91848900Y-146818500D01*
X90598900Y-146818500D01*
X90574396Y-146817296D01*
X90550127Y-146813696D01*
X90526329Y-146807735D01*
X90503229Y-146799470D01*
X90481051Y-146788980D01*
X90460007Y-146776367D01*
X90440302Y-146761753D01*
X90422123Y-146745277D01*
X90405647Y-146727098D01*
X90391033Y-146707393D01*
X90378420Y-146686349D01*
X90367930Y-146664171D01*
X90359665Y-146641071D01*
X90353704Y-146617273D01*
X90350104Y-146593004D01*
X90348900Y-146568500D01*
X90348900Y-145643500D01*
X90350104Y-145618996D01*
X90353704Y-145594727D01*
X90359665Y-145570929D01*
X90367930Y-145547829D01*
X90378420Y-145525651D01*
X90391033Y-145504607D01*
X90405647Y-145484902D01*
X90422123Y-145466723D01*
X90440302Y-145450247D01*
X90460007Y-145435633D01*
X90481051Y-145423020D01*
X90503229Y-145412530D01*
X90526329Y-145404265D01*
X90550127Y-145398304D01*
X90574396Y-145394704D01*
X90598900Y-145393500D01*
X91848900Y-145393500D01*
X91873404Y-145394704D01*
G37*
G36*
X91873404Y-148369704D02*
G01*
X91897673Y-148373304D01*
X91921471Y-148379265D01*
X91944571Y-148387530D01*
X91966749Y-148398020D01*
X91987793Y-148410633D01*
X92007498Y-148425247D01*
X92025677Y-148441723D01*
X92042153Y-148459902D01*
X92056767Y-148479607D01*
X92069380Y-148500651D01*
X92079870Y-148522829D01*
X92088135Y-148545929D01*
X92094096Y-148569727D01*
X92097696Y-148593996D01*
X92098900Y-148618500D01*
X92098900Y-149543500D01*
X92097696Y-149568004D01*
X92094096Y-149592273D01*
X92088135Y-149616071D01*
X92079870Y-149639171D01*
X92069380Y-149661349D01*
X92056767Y-149682393D01*
X92042153Y-149702098D01*
X92025677Y-149720277D01*
X92007498Y-149736753D01*
X91987793Y-149751367D01*
X91966749Y-149763980D01*
X91944571Y-149774470D01*
X91921471Y-149782735D01*
X91897673Y-149788696D01*
X91873404Y-149792296D01*
X91848900Y-149793500D01*
X90598900Y-149793500D01*
X90574396Y-149792296D01*
X90550127Y-149788696D01*
X90526329Y-149782735D01*
X90503229Y-149774470D01*
X90481051Y-149763980D01*
X90460007Y-149751367D01*
X90440302Y-149736753D01*
X90422123Y-149720277D01*
X90405647Y-149702098D01*
X90391033Y-149682393D01*
X90378420Y-149661349D01*
X90367930Y-149639171D01*
X90359665Y-149616071D01*
X90353704Y-149592273D01*
X90350104Y-149568004D01*
X90348900Y-149543500D01*
X90348900Y-148618500D01*
X90350104Y-148593996D01*
X90353704Y-148569727D01*
X90359665Y-148545929D01*
X90367930Y-148522829D01*
X90378420Y-148500651D01*
X90391033Y-148479607D01*
X90405647Y-148459902D01*
X90422123Y-148441723D01*
X90440302Y-148425247D01*
X90460007Y-148410633D01*
X90481051Y-148398020D01*
X90503229Y-148387530D01*
X90526329Y-148379265D01*
X90550127Y-148373304D01*
X90574396Y-148369704D01*
X90598900Y-148368500D01*
X91848900Y-148368500D01*
X91873404Y-148369704D01*
G37*
%TD*%
%TO.C,R6*%
G36*
X88914504Y-145310104D02*
G01*
X88938773Y-145313704D01*
X88962571Y-145319665D01*
X88985671Y-145327930D01*
X89007849Y-145338420D01*
X89028893Y-145351033D01*
X89048598Y-145365647D01*
X89066777Y-145382123D01*
X89083253Y-145400302D01*
X89097867Y-145420007D01*
X89110480Y-145441051D01*
X89120970Y-145463229D01*
X89129235Y-145486329D01*
X89135196Y-145510127D01*
X89138796Y-145534396D01*
X89140000Y-145558900D01*
X89140000Y-146483900D01*
X89138796Y-146508404D01*
X89135196Y-146532673D01*
X89129235Y-146556471D01*
X89120970Y-146579571D01*
X89110480Y-146601749D01*
X89097867Y-146622793D01*
X89083253Y-146642498D01*
X89066777Y-146660677D01*
X89048598Y-146677153D01*
X89028893Y-146691767D01*
X89007849Y-146704380D01*
X88985671Y-146714870D01*
X88962571Y-146723135D01*
X88938773Y-146729096D01*
X88914504Y-146732696D01*
X88890000Y-146733900D01*
X87640000Y-146733900D01*
X87615496Y-146732696D01*
X87591227Y-146729096D01*
X87567429Y-146723135D01*
X87544329Y-146714870D01*
X87522151Y-146704380D01*
X87501107Y-146691767D01*
X87481402Y-146677153D01*
X87463223Y-146660677D01*
X87446747Y-146642498D01*
X87432133Y-146622793D01*
X87419520Y-146601749D01*
X87409030Y-146579571D01*
X87400765Y-146556471D01*
X87394804Y-146532673D01*
X87391204Y-146508404D01*
X87390000Y-146483900D01*
X87390000Y-145558900D01*
X87391204Y-145534396D01*
X87394804Y-145510127D01*
X87400765Y-145486329D01*
X87409030Y-145463229D01*
X87419520Y-145441051D01*
X87432133Y-145420007D01*
X87446747Y-145400302D01*
X87463223Y-145382123D01*
X87481402Y-145365647D01*
X87501107Y-145351033D01*
X87522151Y-145338420D01*
X87544329Y-145327930D01*
X87567429Y-145319665D01*
X87591227Y-145313704D01*
X87615496Y-145310104D01*
X87640000Y-145308900D01*
X88890000Y-145308900D01*
X88914504Y-145310104D01*
G37*
G36*
X88914504Y-148285104D02*
G01*
X88938773Y-148288704D01*
X88962571Y-148294665D01*
X88985671Y-148302930D01*
X89007849Y-148313420D01*
X89028893Y-148326033D01*
X89048598Y-148340647D01*
X89066777Y-148357123D01*
X89083253Y-148375302D01*
X89097867Y-148395007D01*
X89110480Y-148416051D01*
X89120970Y-148438229D01*
X89129235Y-148461329D01*
X89135196Y-148485127D01*
X89138796Y-148509396D01*
X89140000Y-148533900D01*
X89140000Y-149458900D01*
X89138796Y-149483404D01*
X89135196Y-149507673D01*
X89129235Y-149531471D01*
X89120970Y-149554571D01*
X89110480Y-149576749D01*
X89097867Y-149597793D01*
X89083253Y-149617498D01*
X89066777Y-149635677D01*
X89048598Y-149652153D01*
X89028893Y-149666767D01*
X89007849Y-149679380D01*
X88985671Y-149689870D01*
X88962571Y-149698135D01*
X88938773Y-149704096D01*
X88914504Y-149707696D01*
X88890000Y-149708900D01*
X87640000Y-149708900D01*
X87615496Y-149707696D01*
X87591227Y-149704096D01*
X87567429Y-149698135D01*
X87544329Y-149689870D01*
X87522151Y-149679380D01*
X87501107Y-149666767D01*
X87481402Y-149652153D01*
X87463223Y-149635677D01*
X87446747Y-149617498D01*
X87432133Y-149597793D01*
X87419520Y-149576749D01*
X87409030Y-149554571D01*
X87400765Y-149531471D01*
X87394804Y-149507673D01*
X87391204Y-149483404D01*
X87390000Y-149458900D01*
X87390000Y-148533900D01*
X87391204Y-148509396D01*
X87394804Y-148485127D01*
X87400765Y-148461329D01*
X87409030Y-148438229D01*
X87419520Y-148416051D01*
X87432133Y-148395007D01*
X87446747Y-148375302D01*
X87463223Y-148357123D01*
X87481402Y-148340647D01*
X87501107Y-148326033D01*
X87522151Y-148313420D01*
X87544329Y-148302930D01*
X87567429Y-148294665D01*
X87591227Y-148288704D01*
X87615496Y-148285104D01*
X87640000Y-148283900D01*
X88890000Y-148283900D01*
X88914504Y-148285104D01*
G37*
%TD*%
%TO.C,R21*%
G36*
X97712004Y-124526204D02*
G01*
X97736273Y-124529804D01*
X97760071Y-124535765D01*
X97783171Y-124544030D01*
X97805349Y-124554520D01*
X97826393Y-124567133D01*
X97846098Y-124581747D01*
X97864277Y-124598223D01*
X97880753Y-124616402D01*
X97895367Y-124636107D01*
X97907980Y-124657151D01*
X97918470Y-124679329D01*
X97926735Y-124702429D01*
X97932696Y-124726227D01*
X97936296Y-124750496D01*
X97937500Y-124775000D01*
X97937500Y-126025000D01*
X97936296Y-126049504D01*
X97932696Y-126073773D01*
X97926735Y-126097571D01*
X97918470Y-126120671D01*
X97907980Y-126142849D01*
X97895367Y-126163893D01*
X97880753Y-126183598D01*
X97864277Y-126201777D01*
X97846098Y-126218253D01*
X97826393Y-126232867D01*
X97805349Y-126245480D01*
X97783171Y-126255970D01*
X97760071Y-126264235D01*
X97736273Y-126270196D01*
X97712004Y-126273796D01*
X97687500Y-126275000D01*
X96762500Y-126275000D01*
X96737996Y-126273796D01*
X96713727Y-126270196D01*
X96689929Y-126264235D01*
X96666829Y-126255970D01*
X96644651Y-126245480D01*
X96623607Y-126232867D01*
X96603902Y-126218253D01*
X96585723Y-126201777D01*
X96569247Y-126183598D01*
X96554633Y-126163893D01*
X96542020Y-126142849D01*
X96531530Y-126120671D01*
X96523265Y-126097571D01*
X96517304Y-126073773D01*
X96513704Y-126049504D01*
X96512500Y-126025000D01*
X96512500Y-124775000D01*
X96513704Y-124750496D01*
X96517304Y-124726227D01*
X96523265Y-124702429D01*
X96531530Y-124679329D01*
X96542020Y-124657151D01*
X96554633Y-124636107D01*
X96569247Y-124616402D01*
X96585723Y-124598223D01*
X96603902Y-124581747D01*
X96623607Y-124567133D01*
X96644651Y-124554520D01*
X96666829Y-124544030D01*
X96689929Y-124535765D01*
X96713727Y-124529804D01*
X96737996Y-124526204D01*
X96762500Y-124525000D01*
X97687500Y-124525000D01*
X97712004Y-124526204D01*
G37*
G36*
X100687004Y-124526204D02*
G01*
X100711273Y-124529804D01*
X100735071Y-124535765D01*
X100758171Y-124544030D01*
X100780349Y-124554520D01*
X100801393Y-124567133D01*
X100821098Y-124581747D01*
X100839277Y-124598223D01*
X100855753Y-124616402D01*
X100870367Y-124636107D01*
X100882980Y-124657151D01*
X100893470Y-124679329D01*
X100901735Y-124702429D01*
X100907696Y-124726227D01*
X100911296Y-124750496D01*
X100912500Y-124775000D01*
X100912500Y-126025000D01*
X100911296Y-126049504D01*
X100907696Y-126073773D01*
X100901735Y-126097571D01*
X100893470Y-126120671D01*
X100882980Y-126142849D01*
X100870367Y-126163893D01*
X100855753Y-126183598D01*
X100839277Y-126201777D01*
X100821098Y-126218253D01*
X100801393Y-126232867D01*
X100780349Y-126245480D01*
X100758171Y-126255970D01*
X100735071Y-126264235D01*
X100711273Y-126270196D01*
X100687004Y-126273796D01*
X100662500Y-126275000D01*
X99737500Y-126275000D01*
X99712996Y-126273796D01*
X99688727Y-126270196D01*
X99664929Y-126264235D01*
X99641829Y-126255970D01*
X99619651Y-126245480D01*
X99598607Y-126232867D01*
X99578902Y-126218253D01*
X99560723Y-126201777D01*
X99544247Y-126183598D01*
X99529633Y-126163893D01*
X99517020Y-126142849D01*
X99506530Y-126120671D01*
X99498265Y-126097571D01*
X99492304Y-126073773D01*
X99488704Y-126049504D01*
X99487500Y-126025000D01*
X99487500Y-124775000D01*
X99488704Y-124750496D01*
X99492304Y-124726227D01*
X99498265Y-124702429D01*
X99506530Y-124679329D01*
X99517020Y-124657151D01*
X99529633Y-124636107D01*
X99544247Y-124616402D01*
X99560723Y-124598223D01*
X99578902Y-124581747D01*
X99598607Y-124567133D01*
X99619651Y-124554520D01*
X99641829Y-124544030D01*
X99664929Y-124535765D01*
X99688727Y-124529804D01*
X99712996Y-124526204D01*
X99737500Y-124525000D01*
X100662500Y-124525000D01*
X100687004Y-124526204D01*
G37*
%TD*%
%TO.C,R9*%
G36*
X86450704Y-148361304D02*
G01*
X86474973Y-148364904D01*
X86498771Y-148370865D01*
X86521871Y-148379130D01*
X86544049Y-148389620D01*
X86565093Y-148402233D01*
X86584798Y-148416847D01*
X86602977Y-148433323D01*
X86619453Y-148451502D01*
X86634067Y-148471207D01*
X86646680Y-148492251D01*
X86657170Y-148514429D01*
X86665435Y-148537529D01*
X86671396Y-148561327D01*
X86674996Y-148585596D01*
X86676200Y-148610100D01*
X86676200Y-149535100D01*
X86674996Y-149559604D01*
X86671396Y-149583873D01*
X86665435Y-149607671D01*
X86657170Y-149630771D01*
X86646680Y-149652949D01*
X86634067Y-149673993D01*
X86619453Y-149693698D01*
X86602977Y-149711877D01*
X86584798Y-149728353D01*
X86565093Y-149742967D01*
X86544049Y-149755580D01*
X86521871Y-149766070D01*
X86498771Y-149774335D01*
X86474973Y-149780296D01*
X86450704Y-149783896D01*
X86426200Y-149785100D01*
X85176200Y-149785100D01*
X85151696Y-149783896D01*
X85127427Y-149780296D01*
X85103629Y-149774335D01*
X85080529Y-149766070D01*
X85058351Y-149755580D01*
X85037307Y-149742967D01*
X85017602Y-149728353D01*
X84999423Y-149711877D01*
X84982947Y-149693698D01*
X84968333Y-149673993D01*
X84955720Y-149652949D01*
X84945230Y-149630771D01*
X84936965Y-149607671D01*
X84931004Y-149583873D01*
X84927404Y-149559604D01*
X84926200Y-149535100D01*
X84926200Y-148610100D01*
X84927404Y-148585596D01*
X84931004Y-148561327D01*
X84936965Y-148537529D01*
X84945230Y-148514429D01*
X84955720Y-148492251D01*
X84968333Y-148471207D01*
X84982947Y-148451502D01*
X84999423Y-148433323D01*
X85017602Y-148416847D01*
X85037307Y-148402233D01*
X85058351Y-148389620D01*
X85080529Y-148379130D01*
X85103629Y-148370865D01*
X85127427Y-148364904D01*
X85151696Y-148361304D01*
X85176200Y-148360100D01*
X86426200Y-148360100D01*
X86450704Y-148361304D01*
G37*
G36*
X86450704Y-151336304D02*
G01*
X86474973Y-151339904D01*
X86498771Y-151345865D01*
X86521871Y-151354130D01*
X86544049Y-151364620D01*
X86565093Y-151377233D01*
X86584798Y-151391847D01*
X86602977Y-151408323D01*
X86619453Y-151426502D01*
X86634067Y-151446207D01*
X86646680Y-151467251D01*
X86657170Y-151489429D01*
X86665435Y-151512529D01*
X86671396Y-151536327D01*
X86674996Y-151560596D01*
X86676200Y-151585100D01*
X86676200Y-152510100D01*
X86674996Y-152534604D01*
X86671396Y-152558873D01*
X86665435Y-152582671D01*
X86657170Y-152605771D01*
X86646680Y-152627949D01*
X86634067Y-152648993D01*
X86619453Y-152668698D01*
X86602977Y-152686877D01*
X86584798Y-152703353D01*
X86565093Y-152717967D01*
X86544049Y-152730580D01*
X86521871Y-152741070D01*
X86498771Y-152749335D01*
X86474973Y-152755296D01*
X86450704Y-152758896D01*
X86426200Y-152760100D01*
X85176200Y-152760100D01*
X85151696Y-152758896D01*
X85127427Y-152755296D01*
X85103629Y-152749335D01*
X85080529Y-152741070D01*
X85058351Y-152730580D01*
X85037307Y-152717967D01*
X85017602Y-152703353D01*
X84999423Y-152686877D01*
X84982947Y-152668698D01*
X84968333Y-152648993D01*
X84955720Y-152627949D01*
X84945230Y-152605771D01*
X84936965Y-152582671D01*
X84931004Y-152558873D01*
X84927404Y-152534604D01*
X84926200Y-152510100D01*
X84926200Y-151585100D01*
X84927404Y-151560596D01*
X84931004Y-151536327D01*
X84936965Y-151512529D01*
X84945230Y-151489429D01*
X84955720Y-151467251D01*
X84968333Y-151446207D01*
X84982947Y-151426502D01*
X84999423Y-151408323D01*
X85017602Y-151391847D01*
X85037307Y-151377233D01*
X85058351Y-151364620D01*
X85080529Y-151354130D01*
X85103629Y-151345865D01*
X85127427Y-151339904D01*
X85151696Y-151336304D01*
X85176200Y-151335100D01*
X86426200Y-151335100D01*
X86450704Y-151336304D01*
G37*
%TD*%
%TO.C,R4*%
G36*
X116149504Y-140988704D02*
G01*
X116173773Y-140992304D01*
X116197571Y-140998265D01*
X116220671Y-141006530D01*
X116242849Y-141017020D01*
X116263893Y-141029633D01*
X116283598Y-141044247D01*
X116301777Y-141060723D01*
X116318253Y-141078902D01*
X116332867Y-141098607D01*
X116345480Y-141119651D01*
X116355970Y-141141829D01*
X116364235Y-141164929D01*
X116370196Y-141188727D01*
X116373796Y-141212996D01*
X116375000Y-141237500D01*
X116375000Y-142162500D01*
X116373796Y-142187004D01*
X116370196Y-142211273D01*
X116364235Y-142235071D01*
X116355970Y-142258171D01*
X116345480Y-142280349D01*
X116332867Y-142301393D01*
X116318253Y-142321098D01*
X116301777Y-142339277D01*
X116283598Y-142355753D01*
X116263893Y-142370367D01*
X116242849Y-142382980D01*
X116220671Y-142393470D01*
X116197571Y-142401735D01*
X116173773Y-142407696D01*
X116149504Y-142411296D01*
X116125000Y-142412500D01*
X114875000Y-142412500D01*
X114850496Y-142411296D01*
X114826227Y-142407696D01*
X114802429Y-142401735D01*
X114779329Y-142393470D01*
X114757151Y-142382980D01*
X114736107Y-142370367D01*
X114716402Y-142355753D01*
X114698223Y-142339277D01*
X114681747Y-142321098D01*
X114667133Y-142301393D01*
X114654520Y-142280349D01*
X114644030Y-142258171D01*
X114635765Y-142235071D01*
X114629804Y-142211273D01*
X114626204Y-142187004D01*
X114625000Y-142162500D01*
X114625000Y-141237500D01*
X114626204Y-141212996D01*
X114629804Y-141188727D01*
X114635765Y-141164929D01*
X114644030Y-141141829D01*
X114654520Y-141119651D01*
X114667133Y-141098607D01*
X114681747Y-141078902D01*
X114698223Y-141060723D01*
X114716402Y-141044247D01*
X114736107Y-141029633D01*
X114757151Y-141017020D01*
X114779329Y-141006530D01*
X114802429Y-140998265D01*
X114826227Y-140992304D01*
X114850496Y-140988704D01*
X114875000Y-140987500D01*
X116125000Y-140987500D01*
X116149504Y-140988704D01*
G37*
G36*
X116149504Y-143963704D02*
G01*
X116173773Y-143967304D01*
X116197571Y-143973265D01*
X116220671Y-143981530D01*
X116242849Y-143992020D01*
X116263893Y-144004633D01*
X116283598Y-144019247D01*
X116301777Y-144035723D01*
X116318253Y-144053902D01*
X116332867Y-144073607D01*
X116345480Y-144094651D01*
X116355970Y-144116829D01*
X116364235Y-144139929D01*
X116370196Y-144163727D01*
X116373796Y-144187996D01*
X116375000Y-144212500D01*
X116375000Y-145137500D01*
X116373796Y-145162004D01*
X116370196Y-145186273D01*
X116364235Y-145210071D01*
X116355970Y-145233171D01*
X116345480Y-145255349D01*
X116332867Y-145276393D01*
X116318253Y-145296098D01*
X116301777Y-145314277D01*
X116283598Y-145330753D01*
X116263893Y-145345367D01*
X116242849Y-145357980D01*
X116220671Y-145368470D01*
X116197571Y-145376735D01*
X116173773Y-145382696D01*
X116149504Y-145386296D01*
X116125000Y-145387500D01*
X114875000Y-145387500D01*
X114850496Y-145386296D01*
X114826227Y-145382696D01*
X114802429Y-145376735D01*
X114779329Y-145368470D01*
X114757151Y-145357980D01*
X114736107Y-145345367D01*
X114716402Y-145330753D01*
X114698223Y-145314277D01*
X114681747Y-145296098D01*
X114667133Y-145276393D01*
X114654520Y-145255349D01*
X114644030Y-145233171D01*
X114635765Y-145210071D01*
X114629804Y-145186273D01*
X114626204Y-145162004D01*
X114625000Y-145137500D01*
X114625000Y-144212500D01*
X114626204Y-144187996D01*
X114629804Y-144163727D01*
X114635765Y-144139929D01*
X114644030Y-144116829D01*
X114654520Y-144094651D01*
X114667133Y-144073607D01*
X114681747Y-144053902D01*
X114698223Y-144035723D01*
X114716402Y-144019247D01*
X114736107Y-144004633D01*
X114757151Y-143992020D01*
X114779329Y-143981530D01*
X114802429Y-143973265D01*
X114826227Y-143967304D01*
X114850496Y-143963704D01*
X114875000Y-143962500D01*
X116125000Y-143962500D01*
X116149504Y-143963704D01*
G37*
%TD*%
%TO.C,C40*%
G36*
X100149504Y-127001204D02*
G01*
X100173773Y-127004804D01*
X100197571Y-127010765D01*
X100220671Y-127019030D01*
X100242849Y-127029520D01*
X100263893Y-127042133D01*
X100283598Y-127056747D01*
X100301777Y-127073223D01*
X100318253Y-127091402D01*
X100332867Y-127111107D01*
X100345480Y-127132151D01*
X100355970Y-127154329D01*
X100364235Y-127177429D01*
X100370196Y-127201227D01*
X100373796Y-127225496D01*
X100375000Y-127250000D01*
X100375000Y-128175000D01*
X100373796Y-128199504D01*
X100370196Y-128223773D01*
X100364235Y-128247571D01*
X100355970Y-128270671D01*
X100345480Y-128292849D01*
X100332867Y-128313893D01*
X100318253Y-128333598D01*
X100301777Y-128351777D01*
X100283598Y-128368253D01*
X100263893Y-128382867D01*
X100242849Y-128395480D01*
X100220671Y-128405970D01*
X100197571Y-128414235D01*
X100173773Y-128420196D01*
X100149504Y-128423796D01*
X100125000Y-128425000D01*
X98875000Y-128425000D01*
X98850496Y-128423796D01*
X98826227Y-128420196D01*
X98802429Y-128414235D01*
X98779329Y-128405970D01*
X98757151Y-128395480D01*
X98736107Y-128382867D01*
X98716402Y-128368253D01*
X98698223Y-128351777D01*
X98681747Y-128333598D01*
X98667133Y-128313893D01*
X98654520Y-128292849D01*
X98644030Y-128270671D01*
X98635765Y-128247571D01*
X98629804Y-128223773D01*
X98626204Y-128199504D01*
X98625000Y-128175000D01*
X98625000Y-127250000D01*
X98626204Y-127225496D01*
X98629804Y-127201227D01*
X98635765Y-127177429D01*
X98644030Y-127154329D01*
X98654520Y-127132151D01*
X98667133Y-127111107D01*
X98681747Y-127091402D01*
X98698223Y-127073223D01*
X98716402Y-127056747D01*
X98736107Y-127042133D01*
X98757151Y-127029520D01*
X98779329Y-127019030D01*
X98802429Y-127010765D01*
X98826227Y-127004804D01*
X98850496Y-127001204D01*
X98875000Y-127000000D01*
X100125000Y-127000000D01*
X100149504Y-127001204D01*
G37*
G36*
X100149504Y-129976204D02*
G01*
X100173773Y-129979804D01*
X100197571Y-129985765D01*
X100220671Y-129994030D01*
X100242849Y-130004520D01*
X100263893Y-130017133D01*
X100283598Y-130031747D01*
X100301777Y-130048223D01*
X100318253Y-130066402D01*
X100332867Y-130086107D01*
X100345480Y-130107151D01*
X100355970Y-130129329D01*
X100364235Y-130152429D01*
X100370196Y-130176227D01*
X100373796Y-130200496D01*
X100375000Y-130225000D01*
X100375000Y-131150000D01*
X100373796Y-131174504D01*
X100370196Y-131198773D01*
X100364235Y-131222571D01*
X100355970Y-131245671D01*
X100345480Y-131267849D01*
X100332867Y-131288893D01*
X100318253Y-131308598D01*
X100301777Y-131326777D01*
X100283598Y-131343253D01*
X100263893Y-131357867D01*
X100242849Y-131370480D01*
X100220671Y-131380970D01*
X100197571Y-131389235D01*
X100173773Y-131395196D01*
X100149504Y-131398796D01*
X100125000Y-131400000D01*
X98875000Y-131400000D01*
X98850496Y-131398796D01*
X98826227Y-131395196D01*
X98802429Y-131389235D01*
X98779329Y-131380970D01*
X98757151Y-131370480D01*
X98736107Y-131357867D01*
X98716402Y-131343253D01*
X98698223Y-131326777D01*
X98681747Y-131308598D01*
X98667133Y-131288893D01*
X98654520Y-131267849D01*
X98644030Y-131245671D01*
X98635765Y-131222571D01*
X98629804Y-131198773D01*
X98626204Y-131174504D01*
X98625000Y-131150000D01*
X98625000Y-130225000D01*
X98626204Y-130200496D01*
X98629804Y-130176227D01*
X98635765Y-130152429D01*
X98644030Y-130129329D01*
X98654520Y-130107151D01*
X98667133Y-130086107D01*
X98681747Y-130066402D01*
X98698223Y-130048223D01*
X98716402Y-130031747D01*
X98736107Y-130017133D01*
X98757151Y-130004520D01*
X98779329Y-129994030D01*
X98802429Y-129985765D01*
X98826227Y-129979804D01*
X98850496Y-129976204D01*
X98875000Y-129975000D01*
X100125000Y-129975000D01*
X100149504Y-129976204D01*
G37*
%TD*%
%TO.C,C39*%
G36*
X95349504Y-127013704D02*
G01*
X95373773Y-127017304D01*
X95397571Y-127023265D01*
X95420671Y-127031530D01*
X95442849Y-127042020D01*
X95463893Y-127054633D01*
X95483598Y-127069247D01*
X95501777Y-127085723D01*
X95518253Y-127103902D01*
X95532867Y-127123607D01*
X95545480Y-127144651D01*
X95555970Y-127166829D01*
X95564235Y-127189929D01*
X95570196Y-127213727D01*
X95573796Y-127237996D01*
X95575000Y-127262500D01*
X95575000Y-128187500D01*
X95573796Y-128212004D01*
X95570196Y-128236273D01*
X95564235Y-128260071D01*
X95555970Y-128283171D01*
X95545480Y-128305349D01*
X95532867Y-128326393D01*
X95518253Y-128346098D01*
X95501777Y-128364277D01*
X95483598Y-128380753D01*
X95463893Y-128395367D01*
X95442849Y-128407980D01*
X95420671Y-128418470D01*
X95397571Y-128426735D01*
X95373773Y-128432696D01*
X95349504Y-128436296D01*
X95325000Y-128437500D01*
X94075000Y-128437500D01*
X94050496Y-128436296D01*
X94026227Y-128432696D01*
X94002429Y-128426735D01*
X93979329Y-128418470D01*
X93957151Y-128407980D01*
X93936107Y-128395367D01*
X93916402Y-128380753D01*
X93898223Y-128364277D01*
X93881747Y-128346098D01*
X93867133Y-128326393D01*
X93854520Y-128305349D01*
X93844030Y-128283171D01*
X93835765Y-128260071D01*
X93829804Y-128236273D01*
X93826204Y-128212004D01*
X93825000Y-128187500D01*
X93825000Y-127262500D01*
X93826204Y-127237996D01*
X93829804Y-127213727D01*
X93835765Y-127189929D01*
X93844030Y-127166829D01*
X93854520Y-127144651D01*
X93867133Y-127123607D01*
X93881747Y-127103902D01*
X93898223Y-127085723D01*
X93916402Y-127069247D01*
X93936107Y-127054633D01*
X93957151Y-127042020D01*
X93979329Y-127031530D01*
X94002429Y-127023265D01*
X94026227Y-127017304D01*
X94050496Y-127013704D01*
X94075000Y-127012500D01*
X95325000Y-127012500D01*
X95349504Y-127013704D01*
G37*
G36*
X95349504Y-129988704D02*
G01*
X95373773Y-129992304D01*
X95397571Y-129998265D01*
X95420671Y-130006530D01*
X95442849Y-130017020D01*
X95463893Y-130029633D01*
X95483598Y-130044247D01*
X95501777Y-130060723D01*
X95518253Y-130078902D01*
X95532867Y-130098607D01*
X95545480Y-130119651D01*
X95555970Y-130141829D01*
X95564235Y-130164929D01*
X95570196Y-130188727D01*
X95573796Y-130212996D01*
X95575000Y-130237500D01*
X95575000Y-131162500D01*
X95573796Y-131187004D01*
X95570196Y-131211273D01*
X95564235Y-131235071D01*
X95555970Y-131258171D01*
X95545480Y-131280349D01*
X95532867Y-131301393D01*
X95518253Y-131321098D01*
X95501777Y-131339277D01*
X95483598Y-131355753D01*
X95463893Y-131370367D01*
X95442849Y-131382980D01*
X95420671Y-131393470D01*
X95397571Y-131401735D01*
X95373773Y-131407696D01*
X95349504Y-131411296D01*
X95325000Y-131412500D01*
X94075000Y-131412500D01*
X94050496Y-131411296D01*
X94026227Y-131407696D01*
X94002429Y-131401735D01*
X93979329Y-131393470D01*
X93957151Y-131382980D01*
X93936107Y-131370367D01*
X93916402Y-131355753D01*
X93898223Y-131339277D01*
X93881747Y-131321098D01*
X93867133Y-131301393D01*
X93854520Y-131280349D01*
X93844030Y-131258171D01*
X93835765Y-131235071D01*
X93829804Y-131211273D01*
X93826204Y-131187004D01*
X93825000Y-131162500D01*
X93825000Y-130237500D01*
X93826204Y-130212996D01*
X93829804Y-130188727D01*
X93835765Y-130164929D01*
X93844030Y-130141829D01*
X93854520Y-130119651D01*
X93867133Y-130098607D01*
X93881747Y-130078902D01*
X93898223Y-130060723D01*
X93916402Y-130044247D01*
X93936107Y-130029633D01*
X93957151Y-130017020D01*
X93979329Y-130006530D01*
X94002429Y-129998265D01*
X94026227Y-129992304D01*
X94050496Y-129988704D01*
X94075000Y-129987500D01*
X95325000Y-129987500D01*
X95349504Y-129988704D01*
G37*
%TD*%
%TO.C,C38*%
G36*
X97749504Y-127001204D02*
G01*
X97773773Y-127004804D01*
X97797571Y-127010765D01*
X97820671Y-127019030D01*
X97842849Y-127029520D01*
X97863893Y-127042133D01*
X97883598Y-127056747D01*
X97901777Y-127073223D01*
X97918253Y-127091402D01*
X97932867Y-127111107D01*
X97945480Y-127132151D01*
X97955970Y-127154329D01*
X97964235Y-127177429D01*
X97970196Y-127201227D01*
X97973796Y-127225496D01*
X97975000Y-127250000D01*
X97975000Y-128175000D01*
X97973796Y-128199504D01*
X97970196Y-128223773D01*
X97964235Y-128247571D01*
X97955970Y-128270671D01*
X97945480Y-128292849D01*
X97932867Y-128313893D01*
X97918253Y-128333598D01*
X97901777Y-128351777D01*
X97883598Y-128368253D01*
X97863893Y-128382867D01*
X97842849Y-128395480D01*
X97820671Y-128405970D01*
X97797571Y-128414235D01*
X97773773Y-128420196D01*
X97749504Y-128423796D01*
X97725000Y-128425000D01*
X96475000Y-128425000D01*
X96450496Y-128423796D01*
X96426227Y-128420196D01*
X96402429Y-128414235D01*
X96379329Y-128405970D01*
X96357151Y-128395480D01*
X96336107Y-128382867D01*
X96316402Y-128368253D01*
X96298223Y-128351777D01*
X96281747Y-128333598D01*
X96267133Y-128313893D01*
X96254520Y-128292849D01*
X96244030Y-128270671D01*
X96235765Y-128247571D01*
X96229804Y-128223773D01*
X96226204Y-128199504D01*
X96225000Y-128175000D01*
X96225000Y-127250000D01*
X96226204Y-127225496D01*
X96229804Y-127201227D01*
X96235765Y-127177429D01*
X96244030Y-127154329D01*
X96254520Y-127132151D01*
X96267133Y-127111107D01*
X96281747Y-127091402D01*
X96298223Y-127073223D01*
X96316402Y-127056747D01*
X96336107Y-127042133D01*
X96357151Y-127029520D01*
X96379329Y-127019030D01*
X96402429Y-127010765D01*
X96426227Y-127004804D01*
X96450496Y-127001204D01*
X96475000Y-127000000D01*
X97725000Y-127000000D01*
X97749504Y-127001204D01*
G37*
G36*
X97749504Y-129976204D02*
G01*
X97773773Y-129979804D01*
X97797571Y-129985765D01*
X97820671Y-129994030D01*
X97842849Y-130004520D01*
X97863893Y-130017133D01*
X97883598Y-130031747D01*
X97901777Y-130048223D01*
X97918253Y-130066402D01*
X97932867Y-130086107D01*
X97945480Y-130107151D01*
X97955970Y-130129329D01*
X97964235Y-130152429D01*
X97970196Y-130176227D01*
X97973796Y-130200496D01*
X97975000Y-130225000D01*
X97975000Y-131150000D01*
X97973796Y-131174504D01*
X97970196Y-131198773D01*
X97964235Y-131222571D01*
X97955970Y-131245671D01*
X97945480Y-131267849D01*
X97932867Y-131288893D01*
X97918253Y-131308598D01*
X97901777Y-131326777D01*
X97883598Y-131343253D01*
X97863893Y-131357867D01*
X97842849Y-131370480D01*
X97820671Y-131380970D01*
X97797571Y-131389235D01*
X97773773Y-131395196D01*
X97749504Y-131398796D01*
X97725000Y-131400000D01*
X96475000Y-131400000D01*
X96450496Y-131398796D01*
X96426227Y-131395196D01*
X96402429Y-131389235D01*
X96379329Y-131380970D01*
X96357151Y-131370480D01*
X96336107Y-131357867D01*
X96316402Y-131343253D01*
X96298223Y-131326777D01*
X96281747Y-131308598D01*
X96267133Y-131288893D01*
X96254520Y-131267849D01*
X96244030Y-131245671D01*
X96235765Y-131222571D01*
X96229804Y-131198773D01*
X96226204Y-131174504D01*
X96225000Y-131150000D01*
X96225000Y-130225000D01*
X96226204Y-130200496D01*
X96229804Y-130176227D01*
X96235765Y-130152429D01*
X96244030Y-130129329D01*
X96254520Y-130107151D01*
X96267133Y-130086107D01*
X96281747Y-130066402D01*
X96298223Y-130048223D01*
X96316402Y-130031747D01*
X96336107Y-130017133D01*
X96357151Y-130004520D01*
X96379329Y-129994030D01*
X96402429Y-129985765D01*
X96426227Y-129979804D01*
X96450496Y-129976204D01*
X96475000Y-129975000D01*
X97725000Y-129975000D01*
X97749504Y-129976204D01*
G37*
%TD*%
%TO.C,C36*%
G36*
X109649504Y-127188704D02*
G01*
X109673773Y-127192304D01*
X109697571Y-127198265D01*
X109720671Y-127206530D01*
X109742849Y-127217020D01*
X109763893Y-127229633D01*
X109783598Y-127244247D01*
X109801777Y-127260723D01*
X109818253Y-127278902D01*
X109832867Y-127298607D01*
X109845480Y-127319651D01*
X109855970Y-127341829D01*
X109864235Y-127364929D01*
X109870196Y-127388727D01*
X109873796Y-127412996D01*
X109875000Y-127437500D01*
X109875000Y-128362500D01*
X109873796Y-128387004D01*
X109870196Y-128411273D01*
X109864235Y-128435071D01*
X109855970Y-128458171D01*
X109845480Y-128480349D01*
X109832867Y-128501393D01*
X109818253Y-128521098D01*
X109801777Y-128539277D01*
X109783598Y-128555753D01*
X109763893Y-128570367D01*
X109742849Y-128582980D01*
X109720671Y-128593470D01*
X109697571Y-128601735D01*
X109673773Y-128607696D01*
X109649504Y-128611296D01*
X109625000Y-128612500D01*
X108375000Y-128612500D01*
X108350496Y-128611296D01*
X108326227Y-128607696D01*
X108302429Y-128601735D01*
X108279329Y-128593470D01*
X108257151Y-128582980D01*
X108236107Y-128570367D01*
X108216402Y-128555753D01*
X108198223Y-128539277D01*
X108181747Y-128521098D01*
X108167133Y-128501393D01*
X108154520Y-128480349D01*
X108144030Y-128458171D01*
X108135765Y-128435071D01*
X108129804Y-128411273D01*
X108126204Y-128387004D01*
X108125000Y-128362500D01*
X108125000Y-127437500D01*
X108126204Y-127412996D01*
X108129804Y-127388727D01*
X108135765Y-127364929D01*
X108144030Y-127341829D01*
X108154520Y-127319651D01*
X108167133Y-127298607D01*
X108181747Y-127278902D01*
X108198223Y-127260723D01*
X108216402Y-127244247D01*
X108236107Y-127229633D01*
X108257151Y-127217020D01*
X108279329Y-127206530D01*
X108302429Y-127198265D01*
X108326227Y-127192304D01*
X108350496Y-127188704D01*
X108375000Y-127187500D01*
X109625000Y-127187500D01*
X109649504Y-127188704D01*
G37*
G36*
X109649504Y-130163704D02*
G01*
X109673773Y-130167304D01*
X109697571Y-130173265D01*
X109720671Y-130181530D01*
X109742849Y-130192020D01*
X109763893Y-130204633D01*
X109783598Y-130219247D01*
X109801777Y-130235723D01*
X109818253Y-130253902D01*
X109832867Y-130273607D01*
X109845480Y-130294651D01*
X109855970Y-130316829D01*
X109864235Y-130339929D01*
X109870196Y-130363727D01*
X109873796Y-130387996D01*
X109875000Y-130412500D01*
X109875000Y-131337500D01*
X109873796Y-131362004D01*
X109870196Y-131386273D01*
X109864235Y-131410071D01*
X109855970Y-131433171D01*
X109845480Y-131455349D01*
X109832867Y-131476393D01*
X109818253Y-131496098D01*
X109801777Y-131514277D01*
X109783598Y-131530753D01*
X109763893Y-131545367D01*
X109742849Y-131557980D01*
X109720671Y-131568470D01*
X109697571Y-131576735D01*
X109673773Y-131582696D01*
X109649504Y-131586296D01*
X109625000Y-131587500D01*
X108375000Y-131587500D01*
X108350496Y-131586296D01*
X108326227Y-131582696D01*
X108302429Y-131576735D01*
X108279329Y-131568470D01*
X108257151Y-131557980D01*
X108236107Y-131545367D01*
X108216402Y-131530753D01*
X108198223Y-131514277D01*
X108181747Y-131496098D01*
X108167133Y-131476393D01*
X108154520Y-131455349D01*
X108144030Y-131433171D01*
X108135765Y-131410071D01*
X108129804Y-131386273D01*
X108126204Y-131362004D01*
X108125000Y-131337500D01*
X108125000Y-130412500D01*
X108126204Y-130387996D01*
X108129804Y-130363727D01*
X108135765Y-130339929D01*
X108144030Y-130316829D01*
X108154520Y-130294651D01*
X108167133Y-130273607D01*
X108181747Y-130253902D01*
X108198223Y-130235723D01*
X108216402Y-130219247D01*
X108236107Y-130204633D01*
X108257151Y-130192020D01*
X108279329Y-130181530D01*
X108302429Y-130173265D01*
X108326227Y-130167304D01*
X108350496Y-130163704D01*
X108375000Y-130162500D01*
X109625000Y-130162500D01*
X109649504Y-130163704D01*
G37*
%TD*%
%TO.C,C35*%
G36*
X112349504Y-127213704D02*
G01*
X112373773Y-127217304D01*
X112397571Y-127223265D01*
X112420671Y-127231530D01*
X112442849Y-127242020D01*
X112463893Y-127254633D01*
X112483598Y-127269247D01*
X112501777Y-127285723D01*
X112518253Y-127303902D01*
X112532867Y-127323607D01*
X112545480Y-127344651D01*
X112555970Y-127366829D01*
X112564235Y-127389929D01*
X112570196Y-127413727D01*
X112573796Y-127437996D01*
X112575000Y-127462500D01*
X112575000Y-128387500D01*
X112573796Y-128412004D01*
X112570196Y-128436273D01*
X112564235Y-128460071D01*
X112555970Y-128483171D01*
X112545480Y-128505349D01*
X112532867Y-128526393D01*
X112518253Y-128546098D01*
X112501777Y-128564277D01*
X112483598Y-128580753D01*
X112463893Y-128595367D01*
X112442849Y-128607980D01*
X112420671Y-128618470D01*
X112397571Y-128626735D01*
X112373773Y-128632696D01*
X112349504Y-128636296D01*
X112325000Y-128637500D01*
X111075000Y-128637500D01*
X111050496Y-128636296D01*
X111026227Y-128632696D01*
X111002429Y-128626735D01*
X110979329Y-128618470D01*
X110957151Y-128607980D01*
X110936107Y-128595367D01*
X110916402Y-128580753D01*
X110898223Y-128564277D01*
X110881747Y-128546098D01*
X110867133Y-128526393D01*
X110854520Y-128505349D01*
X110844030Y-128483171D01*
X110835765Y-128460071D01*
X110829804Y-128436273D01*
X110826204Y-128412004D01*
X110825000Y-128387500D01*
X110825000Y-127462500D01*
X110826204Y-127437996D01*
X110829804Y-127413727D01*
X110835765Y-127389929D01*
X110844030Y-127366829D01*
X110854520Y-127344651D01*
X110867133Y-127323607D01*
X110881747Y-127303902D01*
X110898223Y-127285723D01*
X110916402Y-127269247D01*
X110936107Y-127254633D01*
X110957151Y-127242020D01*
X110979329Y-127231530D01*
X111002429Y-127223265D01*
X111026227Y-127217304D01*
X111050496Y-127213704D01*
X111075000Y-127212500D01*
X112325000Y-127212500D01*
X112349504Y-127213704D01*
G37*
G36*
X112349504Y-130188704D02*
G01*
X112373773Y-130192304D01*
X112397571Y-130198265D01*
X112420671Y-130206530D01*
X112442849Y-130217020D01*
X112463893Y-130229633D01*
X112483598Y-130244247D01*
X112501777Y-130260723D01*
X112518253Y-130278902D01*
X112532867Y-130298607D01*
X112545480Y-130319651D01*
X112555970Y-130341829D01*
X112564235Y-130364929D01*
X112570196Y-130388727D01*
X112573796Y-130412996D01*
X112575000Y-130437500D01*
X112575000Y-131362500D01*
X112573796Y-131387004D01*
X112570196Y-131411273D01*
X112564235Y-131435071D01*
X112555970Y-131458171D01*
X112545480Y-131480349D01*
X112532867Y-131501393D01*
X112518253Y-131521098D01*
X112501777Y-131539277D01*
X112483598Y-131555753D01*
X112463893Y-131570367D01*
X112442849Y-131582980D01*
X112420671Y-131593470D01*
X112397571Y-131601735D01*
X112373773Y-131607696D01*
X112349504Y-131611296D01*
X112325000Y-131612500D01*
X111075000Y-131612500D01*
X111050496Y-131611296D01*
X111026227Y-131607696D01*
X111002429Y-131601735D01*
X110979329Y-131593470D01*
X110957151Y-131582980D01*
X110936107Y-131570367D01*
X110916402Y-131555753D01*
X110898223Y-131539277D01*
X110881747Y-131521098D01*
X110867133Y-131501393D01*
X110854520Y-131480349D01*
X110844030Y-131458171D01*
X110835765Y-131435071D01*
X110829804Y-131411273D01*
X110826204Y-131387004D01*
X110825000Y-131362500D01*
X110825000Y-130437500D01*
X110826204Y-130412996D01*
X110829804Y-130388727D01*
X110835765Y-130364929D01*
X110844030Y-130341829D01*
X110854520Y-130319651D01*
X110867133Y-130298607D01*
X110881747Y-130278902D01*
X110898223Y-130260723D01*
X110916402Y-130244247D01*
X110936107Y-130229633D01*
X110957151Y-130217020D01*
X110979329Y-130206530D01*
X111002429Y-130198265D01*
X111026227Y-130192304D01*
X111050496Y-130188704D01*
X111075000Y-130187500D01*
X112325000Y-130187500D01*
X112349504Y-130188704D01*
G37*
%TD*%
%TO.C,C34*%
G36*
X114749504Y-127201204D02*
G01*
X114773773Y-127204804D01*
X114797571Y-127210765D01*
X114820671Y-127219030D01*
X114842849Y-127229520D01*
X114863893Y-127242133D01*
X114883598Y-127256747D01*
X114901777Y-127273223D01*
X114918253Y-127291402D01*
X114932867Y-127311107D01*
X114945480Y-127332151D01*
X114955970Y-127354329D01*
X114964235Y-127377429D01*
X114970196Y-127401227D01*
X114973796Y-127425496D01*
X114975000Y-127450000D01*
X114975000Y-128375000D01*
X114973796Y-128399504D01*
X114970196Y-128423773D01*
X114964235Y-128447571D01*
X114955970Y-128470671D01*
X114945480Y-128492849D01*
X114932867Y-128513893D01*
X114918253Y-128533598D01*
X114901777Y-128551777D01*
X114883598Y-128568253D01*
X114863893Y-128582867D01*
X114842849Y-128595480D01*
X114820671Y-128605970D01*
X114797571Y-128614235D01*
X114773773Y-128620196D01*
X114749504Y-128623796D01*
X114725000Y-128625000D01*
X113475000Y-128625000D01*
X113450496Y-128623796D01*
X113426227Y-128620196D01*
X113402429Y-128614235D01*
X113379329Y-128605970D01*
X113357151Y-128595480D01*
X113336107Y-128582867D01*
X113316402Y-128568253D01*
X113298223Y-128551777D01*
X113281747Y-128533598D01*
X113267133Y-128513893D01*
X113254520Y-128492849D01*
X113244030Y-128470671D01*
X113235765Y-128447571D01*
X113229804Y-128423773D01*
X113226204Y-128399504D01*
X113225000Y-128375000D01*
X113225000Y-127450000D01*
X113226204Y-127425496D01*
X113229804Y-127401227D01*
X113235765Y-127377429D01*
X113244030Y-127354329D01*
X113254520Y-127332151D01*
X113267133Y-127311107D01*
X113281747Y-127291402D01*
X113298223Y-127273223D01*
X113316402Y-127256747D01*
X113336107Y-127242133D01*
X113357151Y-127229520D01*
X113379329Y-127219030D01*
X113402429Y-127210765D01*
X113426227Y-127204804D01*
X113450496Y-127201204D01*
X113475000Y-127200000D01*
X114725000Y-127200000D01*
X114749504Y-127201204D01*
G37*
G36*
X114749504Y-130176204D02*
G01*
X114773773Y-130179804D01*
X114797571Y-130185765D01*
X114820671Y-130194030D01*
X114842849Y-130204520D01*
X114863893Y-130217133D01*
X114883598Y-130231747D01*
X114901777Y-130248223D01*
X114918253Y-130266402D01*
X114932867Y-130286107D01*
X114945480Y-130307151D01*
X114955970Y-130329329D01*
X114964235Y-130352429D01*
X114970196Y-130376227D01*
X114973796Y-130400496D01*
X114975000Y-130425000D01*
X114975000Y-131350000D01*
X114973796Y-131374504D01*
X114970196Y-131398773D01*
X114964235Y-131422571D01*
X114955970Y-131445671D01*
X114945480Y-131467849D01*
X114932867Y-131488893D01*
X114918253Y-131508598D01*
X114901777Y-131526777D01*
X114883598Y-131543253D01*
X114863893Y-131557867D01*
X114842849Y-131570480D01*
X114820671Y-131580970D01*
X114797571Y-131589235D01*
X114773773Y-131595196D01*
X114749504Y-131598796D01*
X114725000Y-131600000D01*
X113475000Y-131600000D01*
X113450496Y-131598796D01*
X113426227Y-131595196D01*
X113402429Y-131589235D01*
X113379329Y-131580970D01*
X113357151Y-131570480D01*
X113336107Y-131557867D01*
X113316402Y-131543253D01*
X113298223Y-131526777D01*
X113281747Y-131508598D01*
X113267133Y-131488893D01*
X113254520Y-131467849D01*
X113244030Y-131445671D01*
X113235765Y-131422571D01*
X113229804Y-131398773D01*
X113226204Y-131374504D01*
X113225000Y-131350000D01*
X113225000Y-130425000D01*
X113226204Y-130400496D01*
X113229804Y-130376227D01*
X113235765Y-130352429D01*
X113244030Y-130329329D01*
X113254520Y-130307151D01*
X113267133Y-130286107D01*
X113281747Y-130266402D01*
X113298223Y-130248223D01*
X113316402Y-130231747D01*
X113336107Y-130217133D01*
X113357151Y-130204520D01*
X113379329Y-130194030D01*
X113402429Y-130185765D01*
X113426227Y-130179804D01*
X113450496Y-130176204D01*
X113475000Y-130175000D01*
X114725000Y-130175000D01*
X114749504Y-130176204D01*
G37*
%TD*%
%TO.C,C33*%
G36*
X102574504Y-139726204D02*
G01*
X102598773Y-139729804D01*
X102622571Y-139735765D01*
X102645671Y-139744030D01*
X102667849Y-139754520D01*
X102688893Y-139767133D01*
X102708598Y-139781747D01*
X102726777Y-139798223D01*
X102743253Y-139816402D01*
X102757867Y-139836107D01*
X102770480Y-139857151D01*
X102780970Y-139879329D01*
X102789235Y-139902429D01*
X102795196Y-139926227D01*
X102798796Y-139950496D01*
X102800000Y-139975000D01*
X102800000Y-141225000D01*
X102798796Y-141249504D01*
X102795196Y-141273773D01*
X102789235Y-141297571D01*
X102780970Y-141320671D01*
X102770480Y-141342849D01*
X102757867Y-141363893D01*
X102743253Y-141383598D01*
X102726777Y-141401777D01*
X102708598Y-141418253D01*
X102688893Y-141432867D01*
X102667849Y-141445480D01*
X102645671Y-141455970D01*
X102622571Y-141464235D01*
X102598773Y-141470196D01*
X102574504Y-141473796D01*
X102550000Y-141475000D01*
X101625000Y-141475000D01*
X101600496Y-141473796D01*
X101576227Y-141470196D01*
X101552429Y-141464235D01*
X101529329Y-141455970D01*
X101507151Y-141445480D01*
X101486107Y-141432867D01*
X101466402Y-141418253D01*
X101448223Y-141401777D01*
X101431747Y-141383598D01*
X101417133Y-141363893D01*
X101404520Y-141342849D01*
X101394030Y-141320671D01*
X101385765Y-141297571D01*
X101379804Y-141273773D01*
X101376204Y-141249504D01*
X101375000Y-141225000D01*
X101375000Y-139975000D01*
X101376204Y-139950496D01*
X101379804Y-139926227D01*
X101385765Y-139902429D01*
X101394030Y-139879329D01*
X101404520Y-139857151D01*
X101417133Y-139836107D01*
X101431747Y-139816402D01*
X101448223Y-139798223D01*
X101466402Y-139781747D01*
X101486107Y-139767133D01*
X101507151Y-139754520D01*
X101529329Y-139744030D01*
X101552429Y-139735765D01*
X101576227Y-139729804D01*
X101600496Y-139726204D01*
X101625000Y-139725000D01*
X102550000Y-139725000D01*
X102574504Y-139726204D01*
G37*
G36*
X99599504Y-139726204D02*
G01*
X99623773Y-139729804D01*
X99647571Y-139735765D01*
X99670671Y-139744030D01*
X99692849Y-139754520D01*
X99713893Y-139767133D01*
X99733598Y-139781747D01*
X99751777Y-139798223D01*
X99768253Y-139816402D01*
X99782867Y-139836107D01*
X99795480Y-139857151D01*
X99805970Y-139879329D01*
X99814235Y-139902429D01*
X99820196Y-139926227D01*
X99823796Y-139950496D01*
X99825000Y-139975000D01*
X99825000Y-141225000D01*
X99823796Y-141249504D01*
X99820196Y-141273773D01*
X99814235Y-141297571D01*
X99805970Y-141320671D01*
X99795480Y-141342849D01*
X99782867Y-141363893D01*
X99768253Y-141383598D01*
X99751777Y-141401777D01*
X99733598Y-141418253D01*
X99713893Y-141432867D01*
X99692849Y-141445480D01*
X99670671Y-141455970D01*
X99647571Y-141464235D01*
X99623773Y-141470196D01*
X99599504Y-141473796D01*
X99575000Y-141475000D01*
X98650000Y-141475000D01*
X98625496Y-141473796D01*
X98601227Y-141470196D01*
X98577429Y-141464235D01*
X98554329Y-141455970D01*
X98532151Y-141445480D01*
X98511107Y-141432867D01*
X98491402Y-141418253D01*
X98473223Y-141401777D01*
X98456747Y-141383598D01*
X98442133Y-141363893D01*
X98429520Y-141342849D01*
X98419030Y-141320671D01*
X98410765Y-141297571D01*
X98404804Y-141273773D01*
X98401204Y-141249504D01*
X98400000Y-141225000D01*
X98400000Y-139975000D01*
X98401204Y-139950496D01*
X98404804Y-139926227D01*
X98410765Y-139902429D01*
X98419030Y-139879329D01*
X98429520Y-139857151D01*
X98442133Y-139836107D01*
X98456747Y-139816402D01*
X98473223Y-139798223D01*
X98491402Y-139781747D01*
X98511107Y-139767133D01*
X98532151Y-139754520D01*
X98554329Y-139744030D01*
X98577429Y-139735765D01*
X98601227Y-139729804D01*
X98625496Y-139726204D01*
X98650000Y-139725000D01*
X99575000Y-139725000D01*
X99599504Y-139726204D01*
G37*
%TD*%
%TO.C,C32*%
G36*
X101299504Y-137326204D02*
G01*
X101323773Y-137329804D01*
X101347571Y-137335765D01*
X101370671Y-137344030D01*
X101392849Y-137354520D01*
X101413893Y-137367133D01*
X101433598Y-137381747D01*
X101451777Y-137398223D01*
X101468253Y-137416402D01*
X101482867Y-137436107D01*
X101495480Y-137457151D01*
X101505970Y-137479329D01*
X101514235Y-137502429D01*
X101520196Y-137526227D01*
X101523796Y-137550496D01*
X101525000Y-137575000D01*
X101525000Y-138825000D01*
X101523796Y-138849504D01*
X101520196Y-138873773D01*
X101514235Y-138897571D01*
X101505970Y-138920671D01*
X101495480Y-138942849D01*
X101482867Y-138963893D01*
X101468253Y-138983598D01*
X101451777Y-139001777D01*
X101433598Y-139018253D01*
X101413893Y-139032867D01*
X101392849Y-139045480D01*
X101370671Y-139055970D01*
X101347571Y-139064235D01*
X101323773Y-139070196D01*
X101299504Y-139073796D01*
X101275000Y-139075000D01*
X100350000Y-139075000D01*
X100325496Y-139073796D01*
X100301227Y-139070196D01*
X100277429Y-139064235D01*
X100254329Y-139055970D01*
X100232151Y-139045480D01*
X100211107Y-139032867D01*
X100191402Y-139018253D01*
X100173223Y-139001777D01*
X100156747Y-138983598D01*
X100142133Y-138963893D01*
X100129520Y-138942849D01*
X100119030Y-138920671D01*
X100110765Y-138897571D01*
X100104804Y-138873773D01*
X100101204Y-138849504D01*
X100100000Y-138825000D01*
X100100000Y-137575000D01*
X100101204Y-137550496D01*
X100104804Y-137526227D01*
X100110765Y-137502429D01*
X100119030Y-137479329D01*
X100129520Y-137457151D01*
X100142133Y-137436107D01*
X100156747Y-137416402D01*
X100173223Y-137398223D01*
X100191402Y-137381747D01*
X100211107Y-137367133D01*
X100232151Y-137354520D01*
X100254329Y-137344030D01*
X100277429Y-137335765D01*
X100301227Y-137329804D01*
X100325496Y-137326204D01*
X100350000Y-137325000D01*
X101275000Y-137325000D01*
X101299504Y-137326204D01*
G37*
G36*
X104274504Y-137326204D02*
G01*
X104298773Y-137329804D01*
X104322571Y-137335765D01*
X104345671Y-137344030D01*
X104367849Y-137354520D01*
X104388893Y-137367133D01*
X104408598Y-137381747D01*
X104426777Y-137398223D01*
X104443253Y-137416402D01*
X104457867Y-137436107D01*
X104470480Y-137457151D01*
X104480970Y-137479329D01*
X104489235Y-137502429D01*
X104495196Y-137526227D01*
X104498796Y-137550496D01*
X104500000Y-137575000D01*
X104500000Y-138825000D01*
X104498796Y-138849504D01*
X104495196Y-138873773D01*
X104489235Y-138897571D01*
X104480970Y-138920671D01*
X104470480Y-138942849D01*
X104457867Y-138963893D01*
X104443253Y-138983598D01*
X104426777Y-139001777D01*
X104408598Y-139018253D01*
X104388893Y-139032867D01*
X104367849Y-139045480D01*
X104345671Y-139055970D01*
X104322571Y-139064235D01*
X104298773Y-139070196D01*
X104274504Y-139073796D01*
X104250000Y-139075000D01*
X103325000Y-139075000D01*
X103300496Y-139073796D01*
X103276227Y-139070196D01*
X103252429Y-139064235D01*
X103229329Y-139055970D01*
X103207151Y-139045480D01*
X103186107Y-139032867D01*
X103166402Y-139018253D01*
X103148223Y-139001777D01*
X103131747Y-138983598D01*
X103117133Y-138963893D01*
X103104520Y-138942849D01*
X103094030Y-138920671D01*
X103085765Y-138897571D01*
X103079804Y-138873773D01*
X103076204Y-138849504D01*
X103075000Y-138825000D01*
X103075000Y-137575000D01*
X103076204Y-137550496D01*
X103079804Y-137526227D01*
X103085765Y-137502429D01*
X103094030Y-137479329D01*
X103104520Y-137457151D01*
X103117133Y-137436107D01*
X103131747Y-137416402D01*
X103148223Y-137398223D01*
X103166402Y-137381747D01*
X103186107Y-137367133D01*
X103207151Y-137354520D01*
X103229329Y-137344030D01*
X103252429Y-137335765D01*
X103276227Y-137329804D01*
X103300496Y-137326204D01*
X103325000Y-137325000D01*
X104250000Y-137325000D01*
X104274504Y-137326204D01*
G37*
%TD*%
%TO.C,C31*%
G36*
X104274504Y-134826204D02*
G01*
X104298773Y-134829804D01*
X104322571Y-134835765D01*
X104345671Y-134844030D01*
X104367849Y-134854520D01*
X104388893Y-134867133D01*
X104408598Y-134881747D01*
X104426777Y-134898223D01*
X104443253Y-134916402D01*
X104457867Y-134936107D01*
X104470480Y-134957151D01*
X104480970Y-134979329D01*
X104489235Y-135002429D01*
X104495196Y-135026227D01*
X104498796Y-135050496D01*
X104500000Y-135075000D01*
X104500000Y-136325000D01*
X104498796Y-136349504D01*
X104495196Y-136373773D01*
X104489235Y-136397571D01*
X104480970Y-136420671D01*
X104470480Y-136442849D01*
X104457867Y-136463893D01*
X104443253Y-136483598D01*
X104426777Y-136501777D01*
X104408598Y-136518253D01*
X104388893Y-136532867D01*
X104367849Y-136545480D01*
X104345671Y-136555970D01*
X104322571Y-136564235D01*
X104298773Y-136570196D01*
X104274504Y-136573796D01*
X104250000Y-136575000D01*
X103325000Y-136575000D01*
X103300496Y-136573796D01*
X103276227Y-136570196D01*
X103252429Y-136564235D01*
X103229329Y-136555970D01*
X103207151Y-136545480D01*
X103186107Y-136532867D01*
X103166402Y-136518253D01*
X103148223Y-136501777D01*
X103131747Y-136483598D01*
X103117133Y-136463893D01*
X103104520Y-136442849D01*
X103094030Y-136420671D01*
X103085765Y-136397571D01*
X103079804Y-136373773D01*
X103076204Y-136349504D01*
X103075000Y-136325000D01*
X103075000Y-135075000D01*
X103076204Y-135050496D01*
X103079804Y-135026227D01*
X103085765Y-135002429D01*
X103094030Y-134979329D01*
X103104520Y-134957151D01*
X103117133Y-134936107D01*
X103131747Y-134916402D01*
X103148223Y-134898223D01*
X103166402Y-134881747D01*
X103186107Y-134867133D01*
X103207151Y-134854520D01*
X103229329Y-134844030D01*
X103252429Y-134835765D01*
X103276227Y-134829804D01*
X103300496Y-134826204D01*
X103325000Y-134825000D01*
X104250000Y-134825000D01*
X104274504Y-134826204D01*
G37*
G36*
X101299504Y-134826204D02*
G01*
X101323773Y-134829804D01*
X101347571Y-134835765D01*
X101370671Y-134844030D01*
X101392849Y-134854520D01*
X101413893Y-134867133D01*
X101433598Y-134881747D01*
X101451777Y-134898223D01*
X101468253Y-134916402D01*
X101482867Y-134936107D01*
X101495480Y-134957151D01*
X101505970Y-134979329D01*
X101514235Y-135002429D01*
X101520196Y-135026227D01*
X101523796Y-135050496D01*
X101525000Y-135075000D01*
X101525000Y-136325000D01*
X101523796Y-136349504D01*
X101520196Y-136373773D01*
X101514235Y-136397571D01*
X101505970Y-136420671D01*
X101495480Y-136442849D01*
X101482867Y-136463893D01*
X101468253Y-136483598D01*
X101451777Y-136501777D01*
X101433598Y-136518253D01*
X101413893Y-136532867D01*
X101392849Y-136545480D01*
X101370671Y-136555970D01*
X101347571Y-136564235D01*
X101323773Y-136570196D01*
X101299504Y-136573796D01*
X101275000Y-136575000D01*
X100350000Y-136575000D01*
X100325496Y-136573796D01*
X100301227Y-136570196D01*
X100277429Y-136564235D01*
X100254329Y-136555970D01*
X100232151Y-136545480D01*
X100211107Y-136532867D01*
X100191402Y-136518253D01*
X100173223Y-136501777D01*
X100156747Y-136483598D01*
X100142133Y-136463893D01*
X100129520Y-136442849D01*
X100119030Y-136420671D01*
X100110765Y-136397571D01*
X100104804Y-136373773D01*
X100101204Y-136349504D01*
X100100000Y-136325000D01*
X100100000Y-135075000D01*
X100101204Y-135050496D01*
X100104804Y-135026227D01*
X100110765Y-135002429D01*
X100119030Y-134979329D01*
X100129520Y-134957151D01*
X100142133Y-134936107D01*
X100156747Y-134916402D01*
X100173223Y-134898223D01*
X100191402Y-134881747D01*
X100211107Y-134867133D01*
X100232151Y-134854520D01*
X100254329Y-134844030D01*
X100277429Y-134835765D01*
X100301227Y-134829804D01*
X100325496Y-134826204D01*
X100350000Y-134825000D01*
X101275000Y-134825000D01*
X101299504Y-134826204D01*
G37*
%TD*%
%TO.C,C23*%
G36*
X88349504Y-127088704D02*
G01*
X88373773Y-127092304D01*
X88397571Y-127098265D01*
X88420671Y-127106530D01*
X88442849Y-127117020D01*
X88463893Y-127129633D01*
X88483598Y-127144247D01*
X88501777Y-127160723D01*
X88518253Y-127178902D01*
X88532867Y-127198607D01*
X88545480Y-127219651D01*
X88555970Y-127241829D01*
X88564235Y-127264929D01*
X88570196Y-127288727D01*
X88573796Y-127312996D01*
X88575000Y-127337500D01*
X88575000Y-128262500D01*
X88573796Y-128287004D01*
X88570196Y-128311273D01*
X88564235Y-128335071D01*
X88555970Y-128358171D01*
X88545480Y-128380349D01*
X88532867Y-128401393D01*
X88518253Y-128421098D01*
X88501777Y-128439277D01*
X88483598Y-128455753D01*
X88463893Y-128470367D01*
X88442849Y-128482980D01*
X88420671Y-128493470D01*
X88397571Y-128501735D01*
X88373773Y-128507696D01*
X88349504Y-128511296D01*
X88325000Y-128512500D01*
X87075000Y-128512500D01*
X87050496Y-128511296D01*
X87026227Y-128507696D01*
X87002429Y-128501735D01*
X86979329Y-128493470D01*
X86957151Y-128482980D01*
X86936107Y-128470367D01*
X86916402Y-128455753D01*
X86898223Y-128439277D01*
X86881747Y-128421098D01*
X86867133Y-128401393D01*
X86854520Y-128380349D01*
X86844030Y-128358171D01*
X86835765Y-128335071D01*
X86829804Y-128311273D01*
X86826204Y-128287004D01*
X86825000Y-128262500D01*
X86825000Y-127337500D01*
X86826204Y-127312996D01*
X86829804Y-127288727D01*
X86835765Y-127264929D01*
X86844030Y-127241829D01*
X86854520Y-127219651D01*
X86867133Y-127198607D01*
X86881747Y-127178902D01*
X86898223Y-127160723D01*
X86916402Y-127144247D01*
X86936107Y-127129633D01*
X86957151Y-127117020D01*
X86979329Y-127106530D01*
X87002429Y-127098265D01*
X87026227Y-127092304D01*
X87050496Y-127088704D01*
X87075000Y-127087500D01*
X88325000Y-127087500D01*
X88349504Y-127088704D01*
G37*
G36*
X88349504Y-130063704D02*
G01*
X88373773Y-130067304D01*
X88397571Y-130073265D01*
X88420671Y-130081530D01*
X88442849Y-130092020D01*
X88463893Y-130104633D01*
X88483598Y-130119247D01*
X88501777Y-130135723D01*
X88518253Y-130153902D01*
X88532867Y-130173607D01*
X88545480Y-130194651D01*
X88555970Y-130216829D01*
X88564235Y-130239929D01*
X88570196Y-130263727D01*
X88573796Y-130287996D01*
X88575000Y-130312500D01*
X88575000Y-131237500D01*
X88573796Y-131262004D01*
X88570196Y-131286273D01*
X88564235Y-131310071D01*
X88555970Y-131333171D01*
X88545480Y-131355349D01*
X88532867Y-131376393D01*
X88518253Y-131396098D01*
X88501777Y-131414277D01*
X88483598Y-131430753D01*
X88463893Y-131445367D01*
X88442849Y-131457980D01*
X88420671Y-131468470D01*
X88397571Y-131476735D01*
X88373773Y-131482696D01*
X88349504Y-131486296D01*
X88325000Y-131487500D01*
X87075000Y-131487500D01*
X87050496Y-131486296D01*
X87026227Y-131482696D01*
X87002429Y-131476735D01*
X86979329Y-131468470D01*
X86957151Y-131457980D01*
X86936107Y-131445367D01*
X86916402Y-131430753D01*
X86898223Y-131414277D01*
X86881747Y-131396098D01*
X86867133Y-131376393D01*
X86854520Y-131355349D01*
X86844030Y-131333171D01*
X86835765Y-131310071D01*
X86829804Y-131286273D01*
X86826204Y-131262004D01*
X86825000Y-131237500D01*
X86825000Y-130312500D01*
X86826204Y-130287996D01*
X86829804Y-130263727D01*
X86835765Y-130239929D01*
X86844030Y-130216829D01*
X86854520Y-130194651D01*
X86867133Y-130173607D01*
X86881747Y-130153902D01*
X86898223Y-130135723D01*
X86916402Y-130119247D01*
X86936107Y-130104633D01*
X86957151Y-130092020D01*
X86979329Y-130081530D01*
X87002429Y-130073265D01*
X87026227Y-130067304D01*
X87050496Y-130063704D01*
X87075000Y-130062500D01*
X88325000Y-130062500D01*
X88349504Y-130063704D01*
G37*
%TD*%
%TO.C,C12*%
G36*
X123649504Y-132063704D02*
G01*
X123673773Y-132067304D01*
X123697571Y-132073265D01*
X123720671Y-132081530D01*
X123742849Y-132092020D01*
X123763893Y-132104633D01*
X123783598Y-132119247D01*
X123801777Y-132135723D01*
X123818253Y-132153902D01*
X123832867Y-132173607D01*
X123845480Y-132194651D01*
X123855970Y-132216829D01*
X123864235Y-132239929D01*
X123870196Y-132263727D01*
X123873796Y-132287996D01*
X123875000Y-132312500D01*
X123875000Y-133237500D01*
X123873796Y-133262004D01*
X123870196Y-133286273D01*
X123864235Y-133310071D01*
X123855970Y-133333171D01*
X123845480Y-133355349D01*
X123832867Y-133376393D01*
X123818253Y-133396098D01*
X123801777Y-133414277D01*
X123783598Y-133430753D01*
X123763893Y-133445367D01*
X123742849Y-133457980D01*
X123720671Y-133468470D01*
X123697571Y-133476735D01*
X123673773Y-133482696D01*
X123649504Y-133486296D01*
X123625000Y-133487500D01*
X122375000Y-133487500D01*
X122350496Y-133486296D01*
X122326227Y-133482696D01*
X122302429Y-133476735D01*
X122279329Y-133468470D01*
X122257151Y-133457980D01*
X122236107Y-133445367D01*
X122216402Y-133430753D01*
X122198223Y-133414277D01*
X122181747Y-133396098D01*
X122167133Y-133376393D01*
X122154520Y-133355349D01*
X122144030Y-133333171D01*
X122135765Y-133310071D01*
X122129804Y-133286273D01*
X122126204Y-133262004D01*
X122125000Y-133237500D01*
X122125000Y-132312500D01*
X122126204Y-132287996D01*
X122129804Y-132263727D01*
X122135765Y-132239929D01*
X122144030Y-132216829D01*
X122154520Y-132194651D01*
X122167133Y-132173607D01*
X122181747Y-132153902D01*
X122198223Y-132135723D01*
X122216402Y-132119247D01*
X122236107Y-132104633D01*
X122257151Y-132092020D01*
X122279329Y-132081530D01*
X122302429Y-132073265D01*
X122326227Y-132067304D01*
X122350496Y-132063704D01*
X122375000Y-132062500D01*
X123625000Y-132062500D01*
X123649504Y-132063704D01*
G37*
G36*
X123649504Y-129088704D02*
G01*
X123673773Y-129092304D01*
X123697571Y-129098265D01*
X123720671Y-129106530D01*
X123742849Y-129117020D01*
X123763893Y-129129633D01*
X123783598Y-129144247D01*
X123801777Y-129160723D01*
X123818253Y-129178902D01*
X123832867Y-129198607D01*
X123845480Y-129219651D01*
X123855970Y-129241829D01*
X123864235Y-129264929D01*
X123870196Y-129288727D01*
X123873796Y-129312996D01*
X123875000Y-129337500D01*
X123875000Y-130262500D01*
X123873796Y-130287004D01*
X123870196Y-130311273D01*
X123864235Y-130335071D01*
X123855970Y-130358171D01*
X123845480Y-130380349D01*
X123832867Y-130401393D01*
X123818253Y-130421098D01*
X123801777Y-130439277D01*
X123783598Y-130455753D01*
X123763893Y-130470367D01*
X123742849Y-130482980D01*
X123720671Y-130493470D01*
X123697571Y-130501735D01*
X123673773Y-130507696D01*
X123649504Y-130511296D01*
X123625000Y-130512500D01*
X122375000Y-130512500D01*
X122350496Y-130511296D01*
X122326227Y-130507696D01*
X122302429Y-130501735D01*
X122279329Y-130493470D01*
X122257151Y-130482980D01*
X122236107Y-130470367D01*
X122216402Y-130455753D01*
X122198223Y-130439277D01*
X122181747Y-130421098D01*
X122167133Y-130401393D01*
X122154520Y-130380349D01*
X122144030Y-130358171D01*
X122135765Y-130335071D01*
X122129804Y-130311273D01*
X122126204Y-130287004D01*
X122125000Y-130262500D01*
X122125000Y-129337500D01*
X122126204Y-129312996D01*
X122129804Y-129288727D01*
X122135765Y-129264929D01*
X122144030Y-129241829D01*
X122154520Y-129219651D01*
X122167133Y-129198607D01*
X122181747Y-129178902D01*
X122198223Y-129160723D01*
X122216402Y-129144247D01*
X122236107Y-129129633D01*
X122257151Y-129117020D01*
X122279329Y-129106530D01*
X122302429Y-129098265D01*
X122326227Y-129092304D01*
X122350496Y-129088704D01*
X122375000Y-129087500D01*
X123625000Y-129087500D01*
X123649504Y-129088704D01*
G37*
%TD*%
%TO.C,C10*%
G36*
X128449504Y-132076204D02*
G01*
X128473773Y-132079804D01*
X128497571Y-132085765D01*
X128520671Y-132094030D01*
X128542849Y-132104520D01*
X128563893Y-132117133D01*
X128583598Y-132131747D01*
X128601777Y-132148223D01*
X128618253Y-132166402D01*
X128632867Y-132186107D01*
X128645480Y-132207151D01*
X128655970Y-132229329D01*
X128664235Y-132252429D01*
X128670196Y-132276227D01*
X128673796Y-132300496D01*
X128675000Y-132325000D01*
X128675000Y-133250000D01*
X128673796Y-133274504D01*
X128670196Y-133298773D01*
X128664235Y-133322571D01*
X128655970Y-133345671D01*
X128645480Y-133367849D01*
X128632867Y-133388893D01*
X128618253Y-133408598D01*
X128601777Y-133426777D01*
X128583598Y-133443253D01*
X128563893Y-133457867D01*
X128542849Y-133470480D01*
X128520671Y-133480970D01*
X128497571Y-133489235D01*
X128473773Y-133495196D01*
X128449504Y-133498796D01*
X128425000Y-133500000D01*
X127175000Y-133500000D01*
X127150496Y-133498796D01*
X127126227Y-133495196D01*
X127102429Y-133489235D01*
X127079329Y-133480970D01*
X127057151Y-133470480D01*
X127036107Y-133457867D01*
X127016402Y-133443253D01*
X126998223Y-133426777D01*
X126981747Y-133408598D01*
X126967133Y-133388893D01*
X126954520Y-133367849D01*
X126944030Y-133345671D01*
X126935765Y-133322571D01*
X126929804Y-133298773D01*
X126926204Y-133274504D01*
X126925000Y-133250000D01*
X126925000Y-132325000D01*
X126926204Y-132300496D01*
X126929804Y-132276227D01*
X126935765Y-132252429D01*
X126944030Y-132229329D01*
X126954520Y-132207151D01*
X126967133Y-132186107D01*
X126981747Y-132166402D01*
X126998223Y-132148223D01*
X127016402Y-132131747D01*
X127036107Y-132117133D01*
X127057151Y-132104520D01*
X127079329Y-132094030D01*
X127102429Y-132085765D01*
X127126227Y-132079804D01*
X127150496Y-132076204D01*
X127175000Y-132075000D01*
X128425000Y-132075000D01*
X128449504Y-132076204D01*
G37*
G36*
X128449504Y-129101204D02*
G01*
X128473773Y-129104804D01*
X128497571Y-129110765D01*
X128520671Y-129119030D01*
X128542849Y-129129520D01*
X128563893Y-129142133D01*
X128583598Y-129156747D01*
X128601777Y-129173223D01*
X128618253Y-129191402D01*
X128632867Y-129211107D01*
X128645480Y-129232151D01*
X128655970Y-129254329D01*
X128664235Y-129277429D01*
X128670196Y-129301227D01*
X128673796Y-129325496D01*
X128675000Y-129350000D01*
X128675000Y-130275000D01*
X128673796Y-130299504D01*
X128670196Y-130323773D01*
X128664235Y-130347571D01*
X128655970Y-130370671D01*
X128645480Y-130392849D01*
X128632867Y-130413893D01*
X128618253Y-130433598D01*
X128601777Y-130451777D01*
X128583598Y-130468253D01*
X128563893Y-130482867D01*
X128542849Y-130495480D01*
X128520671Y-130505970D01*
X128497571Y-130514235D01*
X128473773Y-130520196D01*
X128449504Y-130523796D01*
X128425000Y-130525000D01*
X127175000Y-130525000D01*
X127150496Y-130523796D01*
X127126227Y-130520196D01*
X127102429Y-130514235D01*
X127079329Y-130505970D01*
X127057151Y-130495480D01*
X127036107Y-130482867D01*
X127016402Y-130468253D01*
X126998223Y-130451777D01*
X126981747Y-130433598D01*
X126967133Y-130413893D01*
X126954520Y-130392849D01*
X126944030Y-130370671D01*
X126935765Y-130347571D01*
X126929804Y-130323773D01*
X126926204Y-130299504D01*
X126925000Y-130275000D01*
X126925000Y-129350000D01*
X126926204Y-129325496D01*
X126929804Y-129301227D01*
X126935765Y-129277429D01*
X126944030Y-129254329D01*
X126954520Y-129232151D01*
X126967133Y-129211107D01*
X126981747Y-129191402D01*
X126998223Y-129173223D01*
X127016402Y-129156747D01*
X127036107Y-129142133D01*
X127057151Y-129129520D01*
X127079329Y-129119030D01*
X127102429Y-129110765D01*
X127126227Y-129104804D01*
X127150496Y-129101204D01*
X127175000Y-129100000D01*
X128425000Y-129100000D01*
X128449504Y-129101204D01*
G37*
%TD*%
%TO.C,C9*%
G36*
X126049504Y-132063704D02*
G01*
X126073773Y-132067304D01*
X126097571Y-132073265D01*
X126120671Y-132081530D01*
X126142849Y-132092020D01*
X126163893Y-132104633D01*
X126183598Y-132119247D01*
X126201777Y-132135723D01*
X126218253Y-132153902D01*
X126232867Y-132173607D01*
X126245480Y-132194651D01*
X126255970Y-132216829D01*
X126264235Y-132239929D01*
X126270196Y-132263727D01*
X126273796Y-132287996D01*
X126275000Y-132312500D01*
X126275000Y-133237500D01*
X126273796Y-133262004D01*
X126270196Y-133286273D01*
X126264235Y-133310071D01*
X126255970Y-133333171D01*
X126245480Y-133355349D01*
X126232867Y-133376393D01*
X126218253Y-133396098D01*
X126201777Y-133414277D01*
X126183598Y-133430753D01*
X126163893Y-133445367D01*
X126142849Y-133457980D01*
X126120671Y-133468470D01*
X126097571Y-133476735D01*
X126073773Y-133482696D01*
X126049504Y-133486296D01*
X126025000Y-133487500D01*
X124775000Y-133487500D01*
X124750496Y-133486296D01*
X124726227Y-133482696D01*
X124702429Y-133476735D01*
X124679329Y-133468470D01*
X124657151Y-133457980D01*
X124636107Y-133445367D01*
X124616402Y-133430753D01*
X124598223Y-133414277D01*
X124581747Y-133396098D01*
X124567133Y-133376393D01*
X124554520Y-133355349D01*
X124544030Y-133333171D01*
X124535765Y-133310071D01*
X124529804Y-133286273D01*
X124526204Y-133262004D01*
X124525000Y-133237500D01*
X124525000Y-132312500D01*
X124526204Y-132287996D01*
X124529804Y-132263727D01*
X124535765Y-132239929D01*
X124544030Y-132216829D01*
X124554520Y-132194651D01*
X124567133Y-132173607D01*
X124581747Y-132153902D01*
X124598223Y-132135723D01*
X124616402Y-132119247D01*
X124636107Y-132104633D01*
X124657151Y-132092020D01*
X124679329Y-132081530D01*
X124702429Y-132073265D01*
X124726227Y-132067304D01*
X124750496Y-132063704D01*
X124775000Y-132062500D01*
X126025000Y-132062500D01*
X126049504Y-132063704D01*
G37*
G36*
X126049504Y-129088704D02*
G01*
X126073773Y-129092304D01*
X126097571Y-129098265D01*
X126120671Y-129106530D01*
X126142849Y-129117020D01*
X126163893Y-129129633D01*
X126183598Y-129144247D01*
X126201777Y-129160723D01*
X126218253Y-129178902D01*
X126232867Y-129198607D01*
X126245480Y-129219651D01*
X126255970Y-129241829D01*
X126264235Y-129264929D01*
X126270196Y-129288727D01*
X126273796Y-129312996D01*
X126275000Y-129337500D01*
X126275000Y-130262500D01*
X126273796Y-130287004D01*
X126270196Y-130311273D01*
X126264235Y-130335071D01*
X126255970Y-130358171D01*
X126245480Y-130380349D01*
X126232867Y-130401393D01*
X126218253Y-130421098D01*
X126201777Y-130439277D01*
X126183598Y-130455753D01*
X126163893Y-130470367D01*
X126142849Y-130482980D01*
X126120671Y-130493470D01*
X126097571Y-130501735D01*
X126073773Y-130507696D01*
X126049504Y-130511296D01*
X126025000Y-130512500D01*
X124775000Y-130512500D01*
X124750496Y-130511296D01*
X124726227Y-130507696D01*
X124702429Y-130501735D01*
X124679329Y-130493470D01*
X124657151Y-130482980D01*
X124636107Y-130470367D01*
X124616402Y-130455753D01*
X124598223Y-130439277D01*
X124581747Y-130421098D01*
X124567133Y-130401393D01*
X124554520Y-130380349D01*
X124544030Y-130358171D01*
X124535765Y-130335071D01*
X124529804Y-130311273D01*
X124526204Y-130287004D01*
X124525000Y-130262500D01*
X124525000Y-129337500D01*
X124526204Y-129312996D01*
X124529804Y-129288727D01*
X124535765Y-129264929D01*
X124544030Y-129241829D01*
X124554520Y-129219651D01*
X124567133Y-129198607D01*
X124581747Y-129178902D01*
X124598223Y-129160723D01*
X124616402Y-129144247D01*
X124636107Y-129129633D01*
X124657151Y-129117020D01*
X124679329Y-129106530D01*
X124702429Y-129098265D01*
X124726227Y-129092304D01*
X124750496Y-129088704D01*
X124775000Y-129087500D01*
X126025000Y-129087500D01*
X126049504Y-129088704D01*
G37*
%TD*%
%TO.C,C8*%
G36*
X98064304Y-122138404D02*
G01*
X98088573Y-122142004D01*
X98112371Y-122147965D01*
X98135471Y-122156230D01*
X98157649Y-122166720D01*
X98178693Y-122179333D01*
X98198398Y-122193947D01*
X98216577Y-122210423D01*
X98233053Y-122228602D01*
X98247667Y-122248307D01*
X98260280Y-122269351D01*
X98270770Y-122291529D01*
X98279035Y-122314629D01*
X98284996Y-122338427D01*
X98288596Y-122362696D01*
X98289800Y-122387200D01*
X98289800Y-123637200D01*
X98288596Y-123661704D01*
X98284996Y-123685973D01*
X98279035Y-123709771D01*
X98270770Y-123732871D01*
X98260280Y-123755049D01*
X98247667Y-123776093D01*
X98233053Y-123795798D01*
X98216577Y-123813977D01*
X98198398Y-123830453D01*
X98178693Y-123845067D01*
X98157649Y-123857680D01*
X98135471Y-123868170D01*
X98112371Y-123876435D01*
X98088573Y-123882396D01*
X98064304Y-123885996D01*
X98039800Y-123887200D01*
X97114800Y-123887200D01*
X97090296Y-123885996D01*
X97066027Y-123882396D01*
X97042229Y-123876435D01*
X97019129Y-123868170D01*
X96996951Y-123857680D01*
X96975907Y-123845067D01*
X96956202Y-123830453D01*
X96938023Y-123813977D01*
X96921547Y-123795798D01*
X96906933Y-123776093D01*
X96894320Y-123755049D01*
X96883830Y-123732871D01*
X96875565Y-123709771D01*
X96869604Y-123685973D01*
X96866004Y-123661704D01*
X96864800Y-123637200D01*
X96864800Y-122387200D01*
X96866004Y-122362696D01*
X96869604Y-122338427D01*
X96875565Y-122314629D01*
X96883830Y-122291529D01*
X96894320Y-122269351D01*
X96906933Y-122248307D01*
X96921547Y-122228602D01*
X96938023Y-122210423D01*
X96956202Y-122193947D01*
X96975907Y-122179333D01*
X96996951Y-122166720D01*
X97019129Y-122156230D01*
X97042229Y-122147965D01*
X97066027Y-122142004D01*
X97090296Y-122138404D01*
X97114800Y-122137200D01*
X98039800Y-122137200D01*
X98064304Y-122138404D01*
G37*
G36*
X95089304Y-122138404D02*
G01*
X95113573Y-122142004D01*
X95137371Y-122147965D01*
X95160471Y-122156230D01*
X95182649Y-122166720D01*
X95203693Y-122179333D01*
X95223398Y-122193947D01*
X95241577Y-122210423D01*
X95258053Y-122228602D01*
X95272667Y-122248307D01*
X95285280Y-122269351D01*
X95295770Y-122291529D01*
X95304035Y-122314629D01*
X95309996Y-122338427D01*
X95313596Y-122362696D01*
X95314800Y-122387200D01*
X95314800Y-123637200D01*
X95313596Y-123661704D01*
X95309996Y-123685973D01*
X95304035Y-123709771D01*
X95295770Y-123732871D01*
X95285280Y-123755049D01*
X95272667Y-123776093D01*
X95258053Y-123795798D01*
X95241577Y-123813977D01*
X95223398Y-123830453D01*
X95203693Y-123845067D01*
X95182649Y-123857680D01*
X95160471Y-123868170D01*
X95137371Y-123876435D01*
X95113573Y-123882396D01*
X95089304Y-123885996D01*
X95064800Y-123887200D01*
X94139800Y-123887200D01*
X94115296Y-123885996D01*
X94091027Y-123882396D01*
X94067229Y-123876435D01*
X94044129Y-123868170D01*
X94021951Y-123857680D01*
X94000907Y-123845067D01*
X93981202Y-123830453D01*
X93963023Y-123813977D01*
X93946547Y-123795798D01*
X93931933Y-123776093D01*
X93919320Y-123755049D01*
X93908830Y-123732871D01*
X93900565Y-123709771D01*
X93894604Y-123685973D01*
X93891004Y-123661704D01*
X93889800Y-123637200D01*
X93889800Y-122387200D01*
X93891004Y-122362696D01*
X93894604Y-122338427D01*
X93900565Y-122314629D01*
X93908830Y-122291529D01*
X93919320Y-122269351D01*
X93931933Y-122248307D01*
X93946547Y-122228602D01*
X93963023Y-122210423D01*
X93981202Y-122193947D01*
X94000907Y-122179333D01*
X94021951Y-122166720D01*
X94044129Y-122156230D01*
X94067229Y-122147965D01*
X94091027Y-122142004D01*
X94115296Y-122138404D01*
X94139800Y-122137200D01*
X95064800Y-122137200D01*
X95089304Y-122138404D01*
G37*
%TD*%
%TO.C,C6*%
G36*
X75008004Y-130860704D02*
G01*
X75032273Y-130864304D01*
X75056071Y-130870265D01*
X75079171Y-130878530D01*
X75101349Y-130889020D01*
X75122393Y-130901633D01*
X75142098Y-130916247D01*
X75160277Y-130932723D01*
X75176753Y-130950902D01*
X75191367Y-130970607D01*
X75203980Y-130991651D01*
X75214470Y-131013829D01*
X75222735Y-131036929D01*
X75228696Y-131060727D01*
X75232296Y-131084996D01*
X75233500Y-131109500D01*
X75233500Y-132034500D01*
X75232296Y-132059004D01*
X75228696Y-132083273D01*
X75222735Y-132107071D01*
X75214470Y-132130171D01*
X75203980Y-132152349D01*
X75191367Y-132173393D01*
X75176753Y-132193098D01*
X75160277Y-132211277D01*
X75142098Y-132227753D01*
X75122393Y-132242367D01*
X75101349Y-132254980D01*
X75079171Y-132265470D01*
X75056071Y-132273735D01*
X75032273Y-132279696D01*
X75008004Y-132283296D01*
X74983500Y-132284500D01*
X73733500Y-132284500D01*
X73708996Y-132283296D01*
X73684727Y-132279696D01*
X73660929Y-132273735D01*
X73637829Y-132265470D01*
X73615651Y-132254980D01*
X73594607Y-132242367D01*
X73574902Y-132227753D01*
X73556723Y-132211277D01*
X73540247Y-132193098D01*
X73525633Y-132173393D01*
X73513020Y-132152349D01*
X73502530Y-132130171D01*
X73494265Y-132107071D01*
X73488304Y-132083273D01*
X73484704Y-132059004D01*
X73483500Y-132034500D01*
X73483500Y-131109500D01*
X73484704Y-131084996D01*
X73488304Y-131060727D01*
X73494265Y-131036929D01*
X73502530Y-131013829D01*
X73513020Y-130991651D01*
X73525633Y-130970607D01*
X73540247Y-130950902D01*
X73556723Y-130932723D01*
X73574902Y-130916247D01*
X73594607Y-130901633D01*
X73615651Y-130889020D01*
X73637829Y-130878530D01*
X73660929Y-130870265D01*
X73684727Y-130864304D01*
X73708996Y-130860704D01*
X73733500Y-130859500D01*
X74983500Y-130859500D01*
X75008004Y-130860704D01*
G37*
G36*
X75008004Y-127885704D02*
G01*
X75032273Y-127889304D01*
X75056071Y-127895265D01*
X75079171Y-127903530D01*
X75101349Y-127914020D01*
X75122393Y-127926633D01*
X75142098Y-127941247D01*
X75160277Y-127957723D01*
X75176753Y-127975902D01*
X75191367Y-127995607D01*
X75203980Y-128016651D01*
X75214470Y-128038829D01*
X75222735Y-128061929D01*
X75228696Y-128085727D01*
X75232296Y-128109996D01*
X75233500Y-128134500D01*
X75233500Y-129059500D01*
X75232296Y-129084004D01*
X75228696Y-129108273D01*
X75222735Y-129132071D01*
X75214470Y-129155171D01*
X75203980Y-129177349D01*
X75191367Y-129198393D01*
X75176753Y-129218098D01*
X75160277Y-129236277D01*
X75142098Y-129252753D01*
X75122393Y-129267367D01*
X75101349Y-129279980D01*
X75079171Y-129290470D01*
X75056071Y-129298735D01*
X75032273Y-129304696D01*
X75008004Y-129308296D01*
X74983500Y-129309500D01*
X73733500Y-129309500D01*
X73708996Y-129308296D01*
X73684727Y-129304696D01*
X73660929Y-129298735D01*
X73637829Y-129290470D01*
X73615651Y-129279980D01*
X73594607Y-129267367D01*
X73574902Y-129252753D01*
X73556723Y-129236277D01*
X73540247Y-129218098D01*
X73525633Y-129198393D01*
X73513020Y-129177349D01*
X73502530Y-129155171D01*
X73494265Y-129132071D01*
X73488304Y-129108273D01*
X73484704Y-129084004D01*
X73483500Y-129059500D01*
X73483500Y-128134500D01*
X73484704Y-128109996D01*
X73488304Y-128085727D01*
X73494265Y-128061929D01*
X73502530Y-128038829D01*
X73513020Y-128016651D01*
X73525633Y-127995607D01*
X73540247Y-127975902D01*
X73556723Y-127957723D01*
X73574902Y-127941247D01*
X73594607Y-127926633D01*
X73615651Y-127914020D01*
X73637829Y-127903530D01*
X73660929Y-127895265D01*
X73684727Y-127889304D01*
X73708996Y-127885704D01*
X73733500Y-127884500D01*
X74983500Y-127884500D01*
X75008004Y-127885704D01*
G37*
%TD*%
%TO.C,C5*%
G36*
X70397904Y-130860704D02*
G01*
X70422173Y-130864304D01*
X70445971Y-130870265D01*
X70469071Y-130878530D01*
X70491249Y-130889020D01*
X70512293Y-130901633D01*
X70531998Y-130916247D01*
X70550177Y-130932723D01*
X70566653Y-130950902D01*
X70581267Y-130970607D01*
X70593880Y-130991651D01*
X70604370Y-131013829D01*
X70612635Y-131036929D01*
X70618596Y-131060727D01*
X70622196Y-131084996D01*
X70623400Y-131109500D01*
X70623400Y-132034500D01*
X70622196Y-132059004D01*
X70618596Y-132083273D01*
X70612635Y-132107071D01*
X70604370Y-132130171D01*
X70593880Y-132152349D01*
X70581267Y-132173393D01*
X70566653Y-132193098D01*
X70550177Y-132211277D01*
X70531998Y-132227753D01*
X70512293Y-132242367D01*
X70491249Y-132254980D01*
X70469071Y-132265470D01*
X70445971Y-132273735D01*
X70422173Y-132279696D01*
X70397904Y-132283296D01*
X70373400Y-132284500D01*
X69123400Y-132284500D01*
X69098896Y-132283296D01*
X69074627Y-132279696D01*
X69050829Y-132273735D01*
X69027729Y-132265470D01*
X69005551Y-132254980D01*
X68984507Y-132242367D01*
X68964802Y-132227753D01*
X68946623Y-132211277D01*
X68930147Y-132193098D01*
X68915533Y-132173393D01*
X68902920Y-132152349D01*
X68892430Y-132130171D01*
X68884165Y-132107071D01*
X68878204Y-132083273D01*
X68874604Y-132059004D01*
X68873400Y-132034500D01*
X68873400Y-131109500D01*
X68874604Y-131084996D01*
X68878204Y-131060727D01*
X68884165Y-131036929D01*
X68892430Y-131013829D01*
X68902920Y-130991651D01*
X68915533Y-130970607D01*
X68930147Y-130950902D01*
X68946623Y-130932723D01*
X68964802Y-130916247D01*
X68984507Y-130901633D01*
X69005551Y-130889020D01*
X69027729Y-130878530D01*
X69050829Y-130870265D01*
X69074627Y-130864304D01*
X69098896Y-130860704D01*
X69123400Y-130859500D01*
X70373400Y-130859500D01*
X70397904Y-130860704D01*
G37*
G36*
X70397904Y-127885704D02*
G01*
X70422173Y-127889304D01*
X70445971Y-127895265D01*
X70469071Y-127903530D01*
X70491249Y-127914020D01*
X70512293Y-127926633D01*
X70531998Y-127941247D01*
X70550177Y-127957723D01*
X70566653Y-127975902D01*
X70581267Y-127995607D01*
X70593880Y-128016651D01*
X70604370Y-128038829D01*
X70612635Y-128061929D01*
X70618596Y-128085727D01*
X70622196Y-128109996D01*
X70623400Y-128134500D01*
X70623400Y-129059500D01*
X70622196Y-129084004D01*
X70618596Y-129108273D01*
X70612635Y-129132071D01*
X70604370Y-129155171D01*
X70593880Y-129177349D01*
X70581267Y-129198393D01*
X70566653Y-129218098D01*
X70550177Y-129236277D01*
X70531998Y-129252753D01*
X70512293Y-129267367D01*
X70491249Y-129279980D01*
X70469071Y-129290470D01*
X70445971Y-129298735D01*
X70422173Y-129304696D01*
X70397904Y-129308296D01*
X70373400Y-129309500D01*
X69123400Y-129309500D01*
X69098896Y-129308296D01*
X69074627Y-129304696D01*
X69050829Y-129298735D01*
X69027729Y-129290470D01*
X69005551Y-129279980D01*
X68984507Y-129267367D01*
X68964802Y-129252753D01*
X68946623Y-129236277D01*
X68930147Y-129218098D01*
X68915533Y-129198393D01*
X68902920Y-129177349D01*
X68892430Y-129155171D01*
X68884165Y-129132071D01*
X68878204Y-129108273D01*
X68874604Y-129084004D01*
X68873400Y-129059500D01*
X68873400Y-128134500D01*
X68874604Y-128109996D01*
X68878204Y-128085727D01*
X68884165Y-128061929D01*
X68892430Y-128038829D01*
X68902920Y-128016651D01*
X68915533Y-127995607D01*
X68930147Y-127975902D01*
X68946623Y-127957723D01*
X68964802Y-127941247D01*
X68984507Y-127926633D01*
X69005551Y-127914020D01*
X69027729Y-127903530D01*
X69050829Y-127895265D01*
X69074627Y-127889304D01*
X69098896Y-127885704D01*
X69123400Y-127884500D01*
X70373400Y-127884500D01*
X70397904Y-127885704D01*
G37*
%TD*%
%TO.C,C4*%
G36*
X72696604Y-130860704D02*
G01*
X72720873Y-130864304D01*
X72744671Y-130870265D01*
X72767771Y-130878530D01*
X72789949Y-130889020D01*
X72810993Y-130901633D01*
X72830698Y-130916247D01*
X72848877Y-130932723D01*
X72865353Y-130950902D01*
X72879967Y-130970607D01*
X72892580Y-130991651D01*
X72903070Y-131013829D01*
X72911335Y-131036929D01*
X72917296Y-131060727D01*
X72920896Y-131084996D01*
X72922100Y-131109500D01*
X72922100Y-132034500D01*
X72920896Y-132059004D01*
X72917296Y-132083273D01*
X72911335Y-132107071D01*
X72903070Y-132130171D01*
X72892580Y-132152349D01*
X72879967Y-132173393D01*
X72865353Y-132193098D01*
X72848877Y-132211277D01*
X72830698Y-132227753D01*
X72810993Y-132242367D01*
X72789949Y-132254980D01*
X72767771Y-132265470D01*
X72744671Y-132273735D01*
X72720873Y-132279696D01*
X72696604Y-132283296D01*
X72672100Y-132284500D01*
X71422100Y-132284500D01*
X71397596Y-132283296D01*
X71373327Y-132279696D01*
X71349529Y-132273735D01*
X71326429Y-132265470D01*
X71304251Y-132254980D01*
X71283207Y-132242367D01*
X71263502Y-132227753D01*
X71245323Y-132211277D01*
X71228847Y-132193098D01*
X71214233Y-132173393D01*
X71201620Y-132152349D01*
X71191130Y-132130171D01*
X71182865Y-132107071D01*
X71176904Y-132083273D01*
X71173304Y-132059004D01*
X71172100Y-132034500D01*
X71172100Y-131109500D01*
X71173304Y-131084996D01*
X71176904Y-131060727D01*
X71182865Y-131036929D01*
X71191130Y-131013829D01*
X71201620Y-130991651D01*
X71214233Y-130970607D01*
X71228847Y-130950902D01*
X71245323Y-130932723D01*
X71263502Y-130916247D01*
X71283207Y-130901633D01*
X71304251Y-130889020D01*
X71326429Y-130878530D01*
X71349529Y-130870265D01*
X71373327Y-130864304D01*
X71397596Y-130860704D01*
X71422100Y-130859500D01*
X72672100Y-130859500D01*
X72696604Y-130860704D01*
G37*
G36*
X72696604Y-127885704D02*
G01*
X72720873Y-127889304D01*
X72744671Y-127895265D01*
X72767771Y-127903530D01*
X72789949Y-127914020D01*
X72810993Y-127926633D01*
X72830698Y-127941247D01*
X72848877Y-127957723D01*
X72865353Y-127975902D01*
X72879967Y-127995607D01*
X72892580Y-128016651D01*
X72903070Y-128038829D01*
X72911335Y-128061929D01*
X72917296Y-128085727D01*
X72920896Y-128109996D01*
X72922100Y-128134500D01*
X72922100Y-129059500D01*
X72920896Y-129084004D01*
X72917296Y-129108273D01*
X72911335Y-129132071D01*
X72903070Y-129155171D01*
X72892580Y-129177349D01*
X72879967Y-129198393D01*
X72865353Y-129218098D01*
X72848877Y-129236277D01*
X72830698Y-129252753D01*
X72810993Y-129267367D01*
X72789949Y-129279980D01*
X72767771Y-129290470D01*
X72744671Y-129298735D01*
X72720873Y-129304696D01*
X72696604Y-129308296D01*
X72672100Y-129309500D01*
X71422100Y-129309500D01*
X71397596Y-129308296D01*
X71373327Y-129304696D01*
X71349529Y-129298735D01*
X71326429Y-129290470D01*
X71304251Y-129279980D01*
X71283207Y-129267367D01*
X71263502Y-129252753D01*
X71245323Y-129236277D01*
X71228847Y-129218098D01*
X71214233Y-129198393D01*
X71201620Y-129177349D01*
X71191130Y-129155171D01*
X71182865Y-129132071D01*
X71176904Y-129108273D01*
X71173304Y-129084004D01*
X71172100Y-129059500D01*
X71172100Y-128134500D01*
X71173304Y-128109996D01*
X71176904Y-128085727D01*
X71182865Y-128061929D01*
X71191130Y-128038829D01*
X71201620Y-128016651D01*
X71214233Y-127995607D01*
X71228847Y-127975902D01*
X71245323Y-127957723D01*
X71263502Y-127941247D01*
X71283207Y-127926633D01*
X71304251Y-127914020D01*
X71326429Y-127903530D01*
X71349529Y-127895265D01*
X71373327Y-127889304D01*
X71397596Y-127885704D01*
X71422100Y-127884500D01*
X72672100Y-127884500D01*
X72696604Y-127885704D01*
G37*
%TD*%
%TO.C,C1*%
G36*
X115521004Y-148513704D02*
G01*
X115545273Y-148517304D01*
X115569071Y-148523265D01*
X115592171Y-148531530D01*
X115614349Y-148542020D01*
X115635393Y-148554633D01*
X115655098Y-148569247D01*
X115673277Y-148585723D01*
X115689753Y-148603902D01*
X115704367Y-148623607D01*
X115716980Y-148644651D01*
X115727470Y-148666829D01*
X115735735Y-148689929D01*
X115741696Y-148713727D01*
X115745296Y-148737996D01*
X115746500Y-148762500D01*
X115746500Y-149687500D01*
X115745296Y-149712004D01*
X115741696Y-149736273D01*
X115735735Y-149760071D01*
X115727470Y-149783171D01*
X115716980Y-149805349D01*
X115704367Y-149826393D01*
X115689753Y-149846098D01*
X115673277Y-149864277D01*
X115655098Y-149880753D01*
X115635393Y-149895367D01*
X115614349Y-149907980D01*
X115592171Y-149918470D01*
X115569071Y-149926735D01*
X115545273Y-149932696D01*
X115521004Y-149936296D01*
X115496500Y-149937500D01*
X114246500Y-149937500D01*
X114221996Y-149936296D01*
X114197727Y-149932696D01*
X114173929Y-149926735D01*
X114150829Y-149918470D01*
X114128651Y-149907980D01*
X114107607Y-149895367D01*
X114087902Y-149880753D01*
X114069723Y-149864277D01*
X114053247Y-149846098D01*
X114038633Y-149826393D01*
X114026020Y-149805349D01*
X114015530Y-149783171D01*
X114007265Y-149760071D01*
X114001304Y-149736273D01*
X113997704Y-149712004D01*
X113996500Y-149687500D01*
X113996500Y-148762500D01*
X113997704Y-148737996D01*
X114001304Y-148713727D01*
X114007265Y-148689929D01*
X114015530Y-148666829D01*
X114026020Y-148644651D01*
X114038633Y-148623607D01*
X114053247Y-148603902D01*
X114069723Y-148585723D01*
X114087902Y-148569247D01*
X114107607Y-148554633D01*
X114128651Y-148542020D01*
X114150829Y-148531530D01*
X114173929Y-148523265D01*
X114197727Y-148517304D01*
X114221996Y-148513704D01*
X114246500Y-148512500D01*
X115496500Y-148512500D01*
X115521004Y-148513704D01*
G37*
G36*
X115521004Y-151488704D02*
G01*
X115545273Y-151492304D01*
X115569071Y-151498265D01*
X115592171Y-151506530D01*
X115614349Y-151517020D01*
X115635393Y-151529633D01*
X115655098Y-151544247D01*
X115673277Y-151560723D01*
X115689753Y-151578902D01*
X115704367Y-151598607D01*
X115716980Y-151619651D01*
X115727470Y-151641829D01*
X115735735Y-151664929D01*
X115741696Y-151688727D01*
X115745296Y-151712996D01*
X115746500Y-151737500D01*
X115746500Y-152662500D01*
X115745296Y-152687004D01*
X115741696Y-152711273D01*
X115735735Y-152735071D01*
X115727470Y-152758171D01*
X115716980Y-152780349D01*
X115704367Y-152801393D01*
X115689753Y-152821098D01*
X115673277Y-152839277D01*
X115655098Y-152855753D01*
X115635393Y-152870367D01*
X115614349Y-152882980D01*
X115592171Y-152893470D01*
X115569071Y-152901735D01*
X115545273Y-152907696D01*
X115521004Y-152911296D01*
X115496500Y-152912500D01*
X114246500Y-152912500D01*
X114221996Y-152911296D01*
X114197727Y-152907696D01*
X114173929Y-152901735D01*
X114150829Y-152893470D01*
X114128651Y-152882980D01*
X114107607Y-152870367D01*
X114087902Y-152855753D01*
X114069723Y-152839277D01*
X114053247Y-152821098D01*
X114038633Y-152801393D01*
X114026020Y-152780349D01*
X114015530Y-152758171D01*
X114007265Y-152735071D01*
X114001304Y-152711273D01*
X113997704Y-152687004D01*
X113996500Y-152662500D01*
X113996500Y-151737500D01*
X113997704Y-151712996D01*
X114001304Y-151688727D01*
X114007265Y-151664929D01*
X114015530Y-151641829D01*
X114026020Y-151619651D01*
X114038633Y-151598607D01*
X114053247Y-151578902D01*
X114069723Y-151560723D01*
X114087902Y-151544247D01*
X114107607Y-151529633D01*
X114128651Y-151517020D01*
X114150829Y-151506530D01*
X114173929Y-151498265D01*
X114197727Y-151492304D01*
X114221996Y-151488704D01*
X114246500Y-151487500D01*
X115496500Y-151487500D01*
X115521004Y-151488704D01*
G37*
%TD*%
M02*
