%TF.GenerationSoftware,KiCad,Pcbnew,(5.1.5)-3*%
%TF.CreationDate,2020-11-20T20:43:40+01:00*%
%TF.ProjectId,PCB,5043422e-6b69-4636-9164-5f7063625858,rev?*%
%TF.SameCoordinates,Original*%
%TF.FileFunction,Legend,Bot*%
%TF.FilePolarity,Positive*%
%FSLAX46Y46*%
G04 Gerber Fmt 4.6, Leading zero omitted, Abs format (unit mm)*
G04 Created by KiCad (PCBNEW (5.1.5)-3) date 2020-11-20 20:43:40*
%MOMM*%
%LPD*%
G04 APERTURE LIST*
%ADD10C,0.150000*%
%ADD11C,0.250000*%
%ADD12C,0.120000*%
G04 APERTURE END LIST*
D10*
X129360680Y-145787052D02*
X130074966Y-145787052D01*
X130217823Y-145739433D01*
X130313061Y-145644195D01*
X130360680Y-145501338D01*
X130360680Y-145406100D01*
X130360680Y-146739433D02*
X130360680Y-146263242D01*
X129360680Y-146263242D01*
X130265442Y-147644195D02*
X130313061Y-147596576D01*
X130360680Y-147453719D01*
X130360680Y-147358480D01*
X130313061Y-147215623D01*
X130217823Y-147120385D01*
X130122585Y-147072766D01*
X129932109Y-147025147D01*
X129789252Y-147025147D01*
X129598776Y-147072766D01*
X129503538Y-147120385D01*
X129408300Y-147215623D01*
X129360680Y-147358480D01*
X129360680Y-147453719D01*
X129408300Y-147596576D01*
X129455919Y-147644195D01*
X129360680Y-148358480D02*
X130074966Y-148358480D01*
X130217823Y-148310861D01*
X130313061Y-148215623D01*
X130360680Y-148072766D01*
X130360680Y-147977528D01*
X130360680Y-149310861D02*
X130360680Y-148834671D01*
X129360680Y-148834671D01*
X130265442Y-150215623D02*
X130313061Y-150168004D01*
X130360680Y-150025147D01*
X130360680Y-149929909D01*
X130313061Y-149787052D01*
X130217823Y-149691814D01*
X130122585Y-149644195D01*
X129932109Y-149596576D01*
X129789252Y-149596576D01*
X129598776Y-149644195D01*
X129503538Y-149691814D01*
X129408300Y-149787052D01*
X129360680Y-149929909D01*
X129360680Y-150025147D01*
X129408300Y-150168004D01*
X129455919Y-150215623D01*
X129360680Y-150929909D02*
X130074966Y-150929909D01*
X130217823Y-150882290D01*
X130313061Y-150787052D01*
X130360680Y-150644195D01*
X130360680Y-150548957D01*
X130360680Y-151882290D02*
X130360680Y-151406100D01*
X129360680Y-151406100D01*
X130265442Y-152787052D02*
X130313061Y-152739433D01*
X130360680Y-152596576D01*
X130360680Y-152501338D01*
X130313061Y-152358480D01*
X130217823Y-152263242D01*
X130122585Y-152215623D01*
X129932109Y-152168004D01*
X129789252Y-152168004D01*
X129598776Y-152215623D01*
X129503538Y-152263242D01*
X129408300Y-152358480D01*
X129360680Y-152501338D01*
X129360680Y-152596576D01*
X129408300Y-152739433D01*
X129455919Y-152787052D01*
X129360680Y-153501338D02*
X130074966Y-153501338D01*
X130217823Y-153453719D01*
X130313061Y-153358480D01*
X130360680Y-153215623D01*
X130360680Y-153120385D01*
X130360680Y-154453719D02*
X130360680Y-153977528D01*
X129360680Y-153977528D01*
X130265442Y-155358480D02*
X130313061Y-155310861D01*
X130360680Y-155168004D01*
X130360680Y-155072766D01*
X130313061Y-154929909D01*
X130217823Y-154834671D01*
X130122585Y-154787052D01*
X129932109Y-154739433D01*
X129789252Y-154739433D01*
X129598776Y-154787052D01*
X129503538Y-154834671D01*
X129408300Y-154929909D01*
X129360680Y-155072766D01*
X129360680Y-155168004D01*
X129408300Y-155310861D01*
X129455919Y-155358480D01*
D11*
X99905771Y-163545271D02*
X100405771Y-162830985D01*
X100762914Y-163545271D02*
X100762914Y-162045271D01*
X100191485Y-162045271D01*
X100048628Y-162116700D01*
X99977200Y-162188128D01*
X99905771Y-162330985D01*
X99905771Y-162545271D01*
X99977200Y-162688128D01*
X100048628Y-162759557D01*
X100191485Y-162830985D01*
X100762914Y-162830985D01*
X98691485Y-163473842D02*
X98834342Y-163545271D01*
X99120057Y-163545271D01*
X99262914Y-163473842D01*
X99334342Y-163330985D01*
X99334342Y-162759557D01*
X99262914Y-162616700D01*
X99120057Y-162545271D01*
X98834342Y-162545271D01*
X98691485Y-162616700D01*
X98620057Y-162759557D01*
X98620057Y-162902414D01*
X99334342Y-163045271D01*
X97977200Y-162545271D02*
X97977200Y-163545271D01*
X97977200Y-162688128D02*
X97905771Y-162616700D01*
X97762914Y-162545271D01*
X97548628Y-162545271D01*
X97405771Y-162616700D01*
X97334342Y-162759557D01*
X97334342Y-163545271D01*
X96048628Y-163473842D02*
X96191485Y-163545271D01*
X96477200Y-163545271D01*
X96620057Y-163473842D01*
X96691485Y-163330985D01*
X96691485Y-162759557D01*
X96620057Y-162616700D01*
X96477200Y-162545271D01*
X96191485Y-162545271D01*
X96048628Y-162616700D01*
X95977200Y-162759557D01*
X95977200Y-162902414D01*
X96691485Y-163045271D01*
X96191485Y-161973842D02*
X96405771Y-162188128D01*
X94262914Y-163473842D02*
X94048628Y-163545271D01*
X93691485Y-163545271D01*
X93548628Y-163473842D01*
X93477200Y-163402414D01*
X93405771Y-163259557D01*
X93405771Y-163116700D01*
X93477200Y-162973842D01*
X93548628Y-162902414D01*
X93691485Y-162830985D01*
X93977200Y-162759557D01*
X94120057Y-162688128D01*
X94191485Y-162616700D01*
X94262914Y-162473842D01*
X94262914Y-162330985D01*
X94191485Y-162188128D01*
X94120057Y-162116700D01*
X93977200Y-162045271D01*
X93620057Y-162045271D01*
X93405771Y-162116700D01*
X92762914Y-162545271D02*
X92762914Y-164045271D01*
X92762914Y-162616700D02*
X92620057Y-162545271D01*
X92334342Y-162545271D01*
X92191485Y-162616700D01*
X92120057Y-162688128D01*
X92048628Y-162830985D01*
X92048628Y-163259557D01*
X92120057Y-163402414D01*
X92191485Y-163473842D01*
X92334342Y-163545271D01*
X92620057Y-163545271D01*
X92762914Y-163473842D01*
X90762914Y-163545271D02*
X90762914Y-162759557D01*
X90834342Y-162616700D01*
X90977200Y-162545271D01*
X91262914Y-162545271D01*
X91405771Y-162616700D01*
X90762914Y-163473842D02*
X90905771Y-163545271D01*
X91262914Y-163545271D01*
X91405771Y-163473842D01*
X91477200Y-163330985D01*
X91477200Y-163188128D01*
X91405771Y-163045271D01*
X91262914Y-162973842D01*
X90905771Y-162973842D01*
X90762914Y-162902414D01*
X90048628Y-162545271D02*
X90048628Y-163545271D01*
X90048628Y-162688128D02*
X89977200Y-162616700D01*
X89834342Y-162545271D01*
X89620057Y-162545271D01*
X89477200Y-162616700D01*
X89405771Y-162759557D01*
X89405771Y-163545271D01*
X88477200Y-163545271D02*
X88620057Y-163473842D01*
X88691485Y-163330985D01*
X88691485Y-162045271D01*
X114334342Y-165259557D02*
X114834342Y-165259557D01*
X114834342Y-166045271D02*
X114834342Y-164545271D01*
X114120057Y-164545271D01*
X113548628Y-166045271D02*
X113548628Y-165045271D01*
X113548628Y-165330985D02*
X113477200Y-165188128D01*
X113405771Y-165116700D01*
X113262914Y-165045271D01*
X113120057Y-165045271D01*
X112620057Y-166045271D02*
X112620057Y-165045271D01*
X112620057Y-164545271D02*
X112691485Y-164616700D01*
X112620057Y-164688128D01*
X112548628Y-164616700D01*
X112620057Y-164545271D01*
X112620057Y-164688128D01*
X111334342Y-165973842D02*
X111477200Y-166045271D01*
X111762914Y-166045271D01*
X111905771Y-165973842D01*
X111977200Y-165830985D01*
X111977200Y-165259557D01*
X111905771Y-165116700D01*
X111762914Y-165045271D01*
X111477200Y-165045271D01*
X111334342Y-165116700D01*
X111262914Y-165259557D01*
X111262914Y-165402414D01*
X111977200Y-165545271D01*
X109977200Y-166045271D02*
X109977200Y-164545271D01*
X109977200Y-165973842D02*
X110120057Y-166045271D01*
X110405771Y-166045271D01*
X110548628Y-165973842D01*
X110620057Y-165902414D01*
X110691485Y-165759557D01*
X110691485Y-165330985D01*
X110620057Y-165188128D01*
X110548628Y-165116700D01*
X110405771Y-165045271D01*
X110120057Y-165045271D01*
X109977200Y-165116700D01*
X109262914Y-166045271D02*
X109262914Y-165045271D01*
X109262914Y-165330985D02*
X109191485Y-165188128D01*
X109120057Y-165116700D01*
X108977200Y-165045271D01*
X108834342Y-165045271D01*
X108334342Y-166045271D02*
X108334342Y-165045271D01*
X108334342Y-164545271D02*
X108405771Y-164616700D01*
X108334342Y-164688128D01*
X108262914Y-164616700D01*
X108334342Y-164545271D01*
X108334342Y-164688128D01*
X106977200Y-165973842D02*
X107120057Y-166045271D01*
X107405771Y-166045271D01*
X107548628Y-165973842D01*
X107620057Y-165902414D01*
X107691485Y-165759557D01*
X107691485Y-165330985D01*
X107620057Y-165188128D01*
X107548628Y-165116700D01*
X107405771Y-165045271D01*
X107120057Y-165045271D01*
X106977200Y-165116700D01*
X106334342Y-166045271D02*
X106334342Y-164545271D01*
X105691485Y-166045271D02*
X105691485Y-165259557D01*
X105762914Y-165116700D01*
X105905771Y-165045271D01*
X106120057Y-165045271D01*
X106262914Y-165116700D01*
X106334342Y-165188128D01*
X104977200Y-165473842D02*
X103834342Y-165473842D01*
X103191485Y-165616700D02*
X102477200Y-165616700D01*
X103334342Y-166045271D02*
X102834342Y-164545271D01*
X102334342Y-166045271D01*
X101620057Y-166045271D02*
X101762914Y-165973842D01*
X101834342Y-165830985D01*
X101834342Y-164545271D01*
X100477200Y-165973842D02*
X100620057Y-166045271D01*
X100905771Y-166045271D01*
X101048628Y-165973842D01*
X101120057Y-165830985D01*
X101120057Y-165259557D01*
X101048628Y-165116700D01*
X100905771Y-165045271D01*
X100620057Y-165045271D01*
X100477200Y-165116700D01*
X100405771Y-165259557D01*
X100405771Y-165402414D01*
X101120057Y-165545271D01*
X99905771Y-166045271D02*
X99120057Y-165045271D01*
X99905771Y-165045271D02*
X99120057Y-166045271D01*
X97905771Y-166045271D02*
X97905771Y-165259557D01*
X97977200Y-165116700D01*
X98120057Y-165045271D01*
X98405771Y-165045271D01*
X98548628Y-165116700D01*
X97905771Y-165973842D02*
X98048628Y-166045271D01*
X98405771Y-166045271D01*
X98548628Y-165973842D01*
X98620057Y-165830985D01*
X98620057Y-165688128D01*
X98548628Y-165545271D01*
X98405771Y-165473842D01*
X98048628Y-165473842D01*
X97905771Y-165402414D01*
X97191485Y-165045271D02*
X97191485Y-166045271D01*
X97191485Y-165188128D02*
X97120057Y-165116700D01*
X96977200Y-165045271D01*
X96762914Y-165045271D01*
X96620057Y-165116700D01*
X96548628Y-165259557D01*
X96548628Y-166045271D01*
X95191485Y-166045271D02*
X95191485Y-164545271D01*
X95191485Y-165973842D02*
X95334342Y-166045271D01*
X95620057Y-166045271D01*
X95762914Y-165973842D01*
X95834342Y-165902414D01*
X95905771Y-165759557D01*
X95905771Y-165330985D01*
X95834342Y-165188128D01*
X95762914Y-165116700D01*
X95620057Y-165045271D01*
X95334342Y-165045271D01*
X95191485Y-165116700D01*
X93905771Y-165973842D02*
X94048628Y-166045271D01*
X94334342Y-166045271D01*
X94477200Y-165973842D01*
X94548628Y-165830985D01*
X94548628Y-165259557D01*
X94477200Y-165116700D01*
X94334342Y-165045271D01*
X94048628Y-165045271D01*
X93905771Y-165116700D01*
X93834342Y-165259557D01*
X93834342Y-165402414D01*
X94548628Y-165545271D01*
X93191485Y-166045271D02*
X93191485Y-165045271D01*
X93191485Y-165330985D02*
X93120057Y-165188128D01*
X93048628Y-165116700D01*
X92905771Y-165045271D01*
X92762914Y-165045271D01*
X92262914Y-165473842D02*
X91120057Y-165473842D01*
X90405771Y-164545271D02*
X90405771Y-165759557D01*
X90334342Y-165902414D01*
X90262914Y-165973842D01*
X90120057Y-166045271D01*
X89834342Y-166045271D01*
X89691485Y-165973842D01*
X89620057Y-165902414D01*
X89548628Y-165759557D01*
X89548628Y-164545271D01*
X88834342Y-165045271D02*
X88834342Y-166045271D01*
X88834342Y-165188128D02*
X88762914Y-165116700D01*
X88620057Y-165045271D01*
X88405771Y-165045271D01*
X88262914Y-165116700D01*
X88191485Y-165259557D01*
X88191485Y-166045271D01*
X87477200Y-166045271D02*
X87477200Y-165045271D01*
X87477200Y-164545271D02*
X87548628Y-164616700D01*
X87477200Y-164688128D01*
X87405771Y-164616700D01*
X87477200Y-164545271D01*
X87477200Y-164688128D01*
X86905771Y-165045271D02*
X86548628Y-166045271D01*
X86191485Y-165045271D01*
X85048628Y-165973842D02*
X85191485Y-166045271D01*
X85477200Y-166045271D01*
X85620057Y-165973842D01*
X85691485Y-165830985D01*
X85691485Y-165259557D01*
X85620057Y-165116700D01*
X85477200Y-165045271D01*
X85191485Y-165045271D01*
X85048628Y-165116700D01*
X84977200Y-165259557D01*
X84977200Y-165402414D01*
X85691485Y-165545271D01*
X84334342Y-166045271D02*
X84334342Y-165045271D01*
X84334342Y-165330985D02*
X84262914Y-165188128D01*
X84191485Y-165116700D01*
X84048628Y-165045271D01*
X83905771Y-165045271D01*
X83477200Y-165973842D02*
X83334342Y-166045271D01*
X83048628Y-166045271D01*
X82905771Y-165973842D01*
X82834342Y-165830985D01*
X82834342Y-165759557D01*
X82905771Y-165616700D01*
X83048628Y-165545271D01*
X83262914Y-165545271D01*
X83405771Y-165473842D01*
X83477200Y-165330985D01*
X83477200Y-165259557D01*
X83405771Y-165116700D01*
X83262914Y-165045271D01*
X83048628Y-165045271D01*
X82905771Y-165116700D01*
X82191485Y-166045271D02*
X82191485Y-165045271D01*
X82191485Y-164545271D02*
X82262914Y-164616700D01*
X82191485Y-164688128D01*
X82120057Y-164616700D01*
X82191485Y-164545271D01*
X82191485Y-164688128D01*
X81691485Y-165045271D02*
X81120057Y-165045271D01*
X81477200Y-164545271D02*
X81477200Y-165830985D01*
X81405771Y-165973842D01*
X81262914Y-166045271D01*
X81120057Y-166045271D01*
X79977200Y-166045271D02*
X79977200Y-165259557D01*
X80048628Y-165116700D01*
X80191485Y-165045271D01*
X80477200Y-165045271D01*
X80620057Y-165116700D01*
X79977200Y-165973842D02*
X80120057Y-166045271D01*
X80477200Y-166045271D01*
X80620057Y-165973842D01*
X80691485Y-165830985D01*
X80691485Y-165688128D01*
X80620057Y-165545271D01*
X80477200Y-165473842D01*
X80120057Y-165473842D01*
X79977200Y-165402414D01*
X80620057Y-164545271D02*
X80548628Y-164616700D01*
X80620057Y-164688128D01*
X80691485Y-164616700D01*
X80620057Y-164545271D01*
X80620057Y-164688128D01*
X80048628Y-164545271D02*
X79977200Y-164616700D01*
X80048628Y-164688128D01*
X80120057Y-164616700D01*
X80048628Y-164545271D01*
X80048628Y-164688128D01*
X79477200Y-165045271D02*
X78905771Y-165045271D01*
X79262914Y-164545271D02*
X79262914Y-165830985D01*
X79191485Y-165973842D01*
X79048628Y-166045271D01*
X78905771Y-166045271D01*
X106691485Y-167545271D02*
X106691485Y-168759557D01*
X106762914Y-168902414D01*
X106834342Y-168973842D01*
X106977200Y-169045271D01*
X107191485Y-169045271D01*
X107334342Y-168973842D01*
X106691485Y-168473842D02*
X106834342Y-168545271D01*
X107120057Y-168545271D01*
X107262914Y-168473842D01*
X107334342Y-168402414D01*
X107405771Y-168259557D01*
X107405771Y-167830985D01*
X107334342Y-167688128D01*
X107262914Y-167616700D01*
X107120057Y-167545271D01*
X106834342Y-167545271D01*
X106691485Y-167616700D01*
X105977200Y-168545271D02*
X105977200Y-167545271D01*
X105977200Y-167045271D02*
X106048628Y-167116700D01*
X105977200Y-167188128D01*
X105905771Y-167116700D01*
X105977200Y-167045271D01*
X105977200Y-167188128D01*
X105477200Y-167545271D02*
X104905771Y-167545271D01*
X105262914Y-167045271D02*
X105262914Y-168330985D01*
X105191485Y-168473842D01*
X105048628Y-168545271D01*
X104905771Y-168545271D01*
X104405771Y-168545271D02*
X104405771Y-167045271D01*
X103762914Y-168545271D02*
X103762914Y-167759557D01*
X103834342Y-167616700D01*
X103977200Y-167545271D01*
X104191485Y-167545271D01*
X104334342Y-167616700D01*
X104405771Y-167688128D01*
X102405771Y-167545271D02*
X102405771Y-168545271D01*
X103048628Y-167545271D02*
X103048628Y-168330985D01*
X102977200Y-168473842D01*
X102834342Y-168545271D01*
X102620057Y-168545271D01*
X102477200Y-168473842D01*
X102405771Y-168402414D01*
X101691485Y-168545271D02*
X101691485Y-167045271D01*
X101691485Y-167616700D02*
X101548628Y-167545271D01*
X101262914Y-167545271D01*
X101120057Y-167616700D01*
X101048628Y-167688128D01*
X100977200Y-167830985D01*
X100977200Y-168259557D01*
X101048628Y-168402414D01*
X101120057Y-168473842D01*
X101262914Y-168545271D01*
X101548628Y-168545271D01*
X101691485Y-168473842D01*
X100334342Y-168402414D02*
X100262914Y-168473842D01*
X100334342Y-168545271D01*
X100405771Y-168473842D01*
X100334342Y-168402414D01*
X100334342Y-168545271D01*
X98977200Y-168473842D02*
X99120057Y-168545271D01*
X99405771Y-168545271D01*
X99548628Y-168473842D01*
X99620057Y-168402414D01*
X99691485Y-168259557D01*
X99691485Y-167830985D01*
X99620057Y-167688128D01*
X99548628Y-167616700D01*
X99405771Y-167545271D01*
X99120057Y-167545271D01*
X98977200Y-167616700D01*
X98120057Y-168545271D02*
X98262914Y-168473842D01*
X98334342Y-168402414D01*
X98405771Y-168259557D01*
X98405771Y-167830985D01*
X98334342Y-167688128D01*
X98262914Y-167616700D01*
X98120057Y-167545271D01*
X97905771Y-167545271D01*
X97762914Y-167616700D01*
X97691485Y-167688128D01*
X97620057Y-167830985D01*
X97620057Y-168259557D01*
X97691485Y-168402414D01*
X97762914Y-168473842D01*
X97905771Y-168545271D01*
X98120057Y-168545271D01*
X96977200Y-168545271D02*
X96977200Y-167545271D01*
X96977200Y-167688128D02*
X96905771Y-167616700D01*
X96762914Y-167545271D01*
X96548628Y-167545271D01*
X96405771Y-167616700D01*
X96334342Y-167759557D01*
X96334342Y-168545271D01*
X96334342Y-167759557D02*
X96262914Y-167616700D01*
X96120057Y-167545271D01*
X95905771Y-167545271D01*
X95762914Y-167616700D01*
X95691485Y-167759557D01*
X95691485Y-168545271D01*
X93905771Y-166973842D02*
X95191485Y-168902414D01*
X93405771Y-168545271D02*
X93405771Y-167545271D01*
X93405771Y-167830985D02*
X93334342Y-167688128D01*
X93262914Y-167616700D01*
X93120057Y-167545271D01*
X92977200Y-167545271D01*
X91905771Y-168473842D02*
X92048628Y-168545271D01*
X92334342Y-168545271D01*
X92477200Y-168473842D01*
X92548628Y-168330985D01*
X92548628Y-167759557D01*
X92477200Y-167616700D01*
X92334342Y-167545271D01*
X92048628Y-167545271D01*
X91905771Y-167616700D01*
X91834342Y-167759557D01*
X91834342Y-167902414D01*
X92548628Y-168045271D01*
X91191485Y-167545271D02*
X91191485Y-168545271D01*
X91191485Y-167688128D02*
X91120057Y-167616700D01*
X90977200Y-167545271D01*
X90762914Y-167545271D01*
X90620057Y-167616700D01*
X90548628Y-167759557D01*
X90548628Y-168545271D01*
X89262914Y-168473842D02*
X89405771Y-168545271D01*
X89691485Y-168545271D01*
X89834342Y-168473842D01*
X89905771Y-168330985D01*
X89905771Y-167759557D01*
X89834342Y-167616700D01*
X89691485Y-167545271D01*
X89405771Y-167545271D01*
X89262914Y-167616700D01*
X89191485Y-167759557D01*
X89191485Y-167902414D01*
X89905771Y-168045271D01*
X88620057Y-168473842D02*
X88477200Y-168545271D01*
X88191485Y-168545271D01*
X88048628Y-168473842D01*
X87977200Y-168330985D01*
X87977200Y-168259557D01*
X88048628Y-168116700D01*
X88191485Y-168045271D01*
X88405771Y-168045271D01*
X88548628Y-167973842D01*
X88620057Y-167830985D01*
X88620057Y-167759557D01*
X88548628Y-167616700D01*
X88405771Y-167545271D01*
X88191485Y-167545271D01*
X88048628Y-167616700D01*
X87334342Y-167545271D02*
X87334342Y-169045271D01*
X87334342Y-167616700D02*
X87191485Y-167545271D01*
X86905771Y-167545271D01*
X86762914Y-167616700D01*
X86691485Y-167688128D01*
X86620057Y-167830985D01*
X86620057Y-168259557D01*
X86691485Y-168402414D01*
X86762914Y-168473842D01*
X86905771Y-168545271D01*
X87191485Y-168545271D01*
X87334342Y-168473842D01*
X85334342Y-168545271D02*
X85334342Y-167759557D01*
X85405771Y-167616700D01*
X85548628Y-167545271D01*
X85834342Y-167545271D01*
X85977200Y-167616700D01*
X85334342Y-168473842D02*
X85477200Y-168545271D01*
X85834342Y-168545271D01*
X85977200Y-168473842D01*
X86048628Y-168330985D01*
X86048628Y-168188128D01*
X85977200Y-168045271D01*
X85834342Y-167973842D01*
X85477200Y-167973842D01*
X85334342Y-167902414D01*
X84620057Y-167545271D02*
X84620057Y-168545271D01*
X84620057Y-167688128D02*
X84548628Y-167616700D01*
X84405771Y-167545271D01*
X84191485Y-167545271D01*
X84048628Y-167616700D01*
X83977200Y-167759557D01*
X83977200Y-168545271D01*
X83048628Y-168545271D02*
X83191485Y-168473842D01*
X83262914Y-168330985D01*
X83262914Y-167045271D01*
D12*
%TO.C,U2*%
X87751380Y-158751978D02*
X92851380Y-158751978D01*
X92851380Y-158751978D02*
X92851380Y-154251978D01*
X92851380Y-154251978D02*
X87771380Y-154251978D01*
X87771380Y-154251978D02*
X87771380Y-158751978D01*
X88577041Y-154941360D02*
G75*
G03X88577041Y-154941360I-289181J0D01*
G01*
D10*
%TO.C,U4*%
X107400000Y-126900000D02*
X107300000Y-126900000D01*
X101875000Y-126875000D02*
X101900000Y-126875000D01*
X101875000Y-131525000D02*
X101900000Y-131525000D01*
X107400000Y-132600000D02*
X107400000Y-126900000D01*
X101875000Y-131525000D02*
X101875000Y-126875000D01*
D12*
X107073210Y-131000000D02*
G75*
G03X107073210Y-131000000I-348210J0D01*
G01*
%TO.C,R5*%
X92133900Y-148195564D02*
X92133900Y-146991436D01*
X90313900Y-148195564D02*
X90313900Y-146991436D01*
%TO.C,R6*%
X89175000Y-148110964D02*
X89175000Y-146906836D01*
X87355000Y-148110964D02*
X87355000Y-146906836D01*
%TO.C,R21*%
X99314564Y-124490000D02*
X98110436Y-124490000D01*
X99314564Y-126310000D02*
X98110436Y-126310000D01*
%TO.C,R9*%
X86711200Y-151162164D02*
X86711200Y-149958036D01*
X84891200Y-151162164D02*
X84891200Y-149958036D01*
%TO.C,R4*%
X116410000Y-143789564D02*
X116410000Y-142585436D01*
X114590000Y-143789564D02*
X114590000Y-142585436D01*
%TO.C,C40*%
X100410000Y-129802064D02*
X100410000Y-128597936D01*
X98590000Y-129802064D02*
X98590000Y-128597936D01*
%TO.C,C39*%
X95610000Y-129814564D02*
X95610000Y-128610436D01*
X93790000Y-129814564D02*
X93790000Y-128610436D01*
%TO.C,C38*%
X98010000Y-129802064D02*
X98010000Y-128597936D01*
X96190000Y-129802064D02*
X96190000Y-128597936D01*
%TO.C,C36*%
X109910000Y-129989564D02*
X109910000Y-128785436D01*
X108090000Y-129989564D02*
X108090000Y-128785436D01*
%TO.C,C35*%
X112610000Y-130014564D02*
X112610000Y-128810436D01*
X110790000Y-130014564D02*
X110790000Y-128810436D01*
%TO.C,C34*%
X115010000Y-130002064D02*
X115010000Y-128797936D01*
X113190000Y-130002064D02*
X113190000Y-128797936D01*
%TO.C,C33*%
X99997936Y-141510000D02*
X101202064Y-141510000D01*
X99997936Y-139690000D02*
X101202064Y-139690000D01*
%TO.C,C32*%
X102902064Y-137290000D02*
X101697936Y-137290000D01*
X102902064Y-139110000D02*
X101697936Y-139110000D01*
%TO.C,C31*%
X101697936Y-136610000D02*
X102902064Y-136610000D01*
X101697936Y-134790000D02*
X102902064Y-134790000D01*
%TO.C,C23*%
X88610000Y-129889564D02*
X88610000Y-128685436D01*
X86790000Y-129889564D02*
X86790000Y-128685436D01*
%TO.C,C12*%
X122090000Y-130685436D02*
X122090000Y-131889564D01*
X123910000Y-130685436D02*
X123910000Y-131889564D01*
%TO.C,C10*%
X126890000Y-130697936D02*
X126890000Y-131902064D01*
X128710000Y-130697936D02*
X128710000Y-131902064D01*
%TO.C,C9*%
X124490000Y-130685436D02*
X124490000Y-131889564D01*
X126310000Y-130685436D02*
X126310000Y-131889564D01*
%TO.C,C8*%
X95487736Y-123922200D02*
X96691864Y-123922200D01*
X95487736Y-122102200D02*
X96691864Y-122102200D01*
%TO.C,C6*%
X73448500Y-129482436D02*
X73448500Y-130686564D01*
X75268500Y-129482436D02*
X75268500Y-130686564D01*
%TO.C,C5*%
X68838400Y-129482436D02*
X68838400Y-130686564D01*
X70658400Y-129482436D02*
X70658400Y-130686564D01*
%TO.C,C4*%
X71137100Y-129482436D02*
X71137100Y-130686564D01*
X72957100Y-129482436D02*
X72957100Y-130686564D01*
%TO.C,C1*%
X115781500Y-151314564D02*
X115781500Y-150110436D01*
X113961500Y-151314564D02*
X113961500Y-150110436D01*
%TO.C,U2*%
D10*
X90906504Y-156094180D02*
X90906504Y-156903704D01*
X90858885Y-156998942D01*
X90811266Y-157046561D01*
X90716028Y-157094180D01*
X90525552Y-157094180D01*
X90430314Y-157046561D01*
X90382695Y-156998942D01*
X90335076Y-156903704D01*
X90335076Y-156094180D01*
X89906504Y-156189419D02*
X89858885Y-156141800D01*
X89763647Y-156094180D01*
X89525552Y-156094180D01*
X89430314Y-156141800D01*
X89382695Y-156189419D01*
X89335076Y-156284657D01*
X89335076Y-156379895D01*
X89382695Y-156522752D01*
X89954123Y-157094180D01*
X89335076Y-157094180D01*
%TO.C,U4*%
X105484680Y-128397095D02*
X106294204Y-128397095D01*
X106389442Y-128444714D01*
X106437061Y-128492333D01*
X106484680Y-128587571D01*
X106484680Y-128778047D01*
X106437061Y-128873285D01*
X106389442Y-128920904D01*
X106294204Y-128968523D01*
X105484680Y-128968523D01*
X105818014Y-129873285D02*
X106484680Y-129873285D01*
X105437061Y-129635190D02*
X106151347Y-129397095D01*
X106151347Y-130016142D01*
%TO.C,R5*%
X91200266Y-144838680D02*
X91533600Y-144362490D01*
X91771695Y-144838680D02*
X91771695Y-143838680D01*
X91390742Y-143838680D01*
X91295504Y-143886300D01*
X91247885Y-143933919D01*
X91200266Y-144029157D01*
X91200266Y-144172014D01*
X91247885Y-144267252D01*
X91295504Y-144314871D01*
X91390742Y-144362490D01*
X91771695Y-144362490D01*
X90295504Y-143838680D02*
X90771695Y-143838680D01*
X90819314Y-144314871D01*
X90771695Y-144267252D01*
X90676457Y-144219633D01*
X90438361Y-144219633D01*
X90343123Y-144267252D01*
X90295504Y-144314871D01*
X90247885Y-144410109D01*
X90247885Y-144648204D01*
X90295504Y-144743442D01*
X90343123Y-144791061D01*
X90438361Y-144838680D01*
X90676457Y-144838680D01*
X90771695Y-144791061D01*
X90819314Y-144743442D01*
%TO.C,R6*%
X88266566Y-144787880D02*
X88599900Y-144311690D01*
X88837995Y-144787880D02*
X88837995Y-143787880D01*
X88457042Y-143787880D01*
X88361804Y-143835500D01*
X88314185Y-143883119D01*
X88266566Y-143978357D01*
X88266566Y-144121214D01*
X88314185Y-144216452D01*
X88361804Y-144264071D01*
X88457042Y-144311690D01*
X88837995Y-144311690D01*
X87409423Y-143787880D02*
X87599900Y-143787880D01*
X87695138Y-143835500D01*
X87742757Y-143883119D01*
X87837995Y-144025976D01*
X87885614Y-144216452D01*
X87885614Y-144597404D01*
X87837995Y-144692642D01*
X87790376Y-144740261D01*
X87695138Y-144787880D01*
X87504661Y-144787880D01*
X87409423Y-144740261D01*
X87361804Y-144692642D01*
X87314185Y-144597404D01*
X87314185Y-144359309D01*
X87361804Y-144264071D01*
X87409423Y-144216452D01*
X87504661Y-144168833D01*
X87695138Y-144168833D01*
X87790376Y-144216452D01*
X87837995Y-144264071D01*
X87885614Y-144359309D01*
%TO.C,R21*%
X100871257Y-124099580D02*
X101204590Y-123623390D01*
X101442685Y-124099580D02*
X101442685Y-123099580D01*
X101061733Y-123099580D01*
X100966495Y-123147200D01*
X100918876Y-123194819D01*
X100871257Y-123290057D01*
X100871257Y-123432914D01*
X100918876Y-123528152D01*
X100966495Y-123575771D01*
X101061733Y-123623390D01*
X101442685Y-123623390D01*
X100490304Y-123194819D02*
X100442685Y-123147200D01*
X100347447Y-123099580D01*
X100109352Y-123099580D01*
X100014114Y-123147200D01*
X99966495Y-123194819D01*
X99918876Y-123290057D01*
X99918876Y-123385295D01*
X99966495Y-123528152D01*
X100537923Y-124099580D01*
X99918876Y-124099580D01*
X98966495Y-124099580D02*
X99537923Y-124099580D01*
X99252209Y-124099580D02*
X99252209Y-123099580D01*
X99347447Y-123242438D01*
X99442685Y-123337676D01*
X99537923Y-123385295D01*
%TO.C,R9*%
X85929766Y-147962880D02*
X86263100Y-147486690D01*
X86501195Y-147962880D02*
X86501195Y-146962880D01*
X86120242Y-146962880D01*
X86025004Y-147010500D01*
X85977385Y-147058119D01*
X85929766Y-147153357D01*
X85929766Y-147296214D01*
X85977385Y-147391452D01*
X86025004Y-147439071D01*
X86120242Y-147486690D01*
X86501195Y-147486690D01*
X85453576Y-147962880D02*
X85263100Y-147962880D01*
X85167861Y-147915261D01*
X85120242Y-147867642D01*
X85025004Y-147724785D01*
X84977385Y-147534309D01*
X84977385Y-147153357D01*
X85025004Y-147058119D01*
X85072623Y-147010500D01*
X85167861Y-146962880D01*
X85358338Y-146962880D01*
X85453576Y-147010500D01*
X85501195Y-147058119D01*
X85548814Y-147153357D01*
X85548814Y-147391452D01*
X85501195Y-147486690D01*
X85453576Y-147534309D01*
X85358338Y-147581928D01*
X85167861Y-147581928D01*
X85072623Y-147534309D01*
X85025004Y-147486690D01*
X84977385Y-147391452D01*
%TO.C,R4*%
X115609666Y-140609580D02*
X115943000Y-140133390D01*
X116181095Y-140609580D02*
X116181095Y-139609580D01*
X115800142Y-139609580D01*
X115704904Y-139657200D01*
X115657285Y-139704819D01*
X115609666Y-139800057D01*
X115609666Y-139942914D01*
X115657285Y-140038152D01*
X115704904Y-140085771D01*
X115800142Y-140133390D01*
X116181095Y-140133390D01*
X114752523Y-139942914D02*
X114752523Y-140609580D01*
X114990619Y-139561961D02*
X115228714Y-140276247D01*
X114609666Y-140276247D01*
%TO.C,C40*%
X100858557Y-132678442D02*
X100906176Y-132726061D01*
X101049033Y-132773680D01*
X101144271Y-132773680D01*
X101287128Y-132726061D01*
X101382366Y-132630823D01*
X101429985Y-132535585D01*
X101477604Y-132345109D01*
X101477604Y-132202252D01*
X101429985Y-132011776D01*
X101382366Y-131916538D01*
X101287128Y-131821300D01*
X101144271Y-131773680D01*
X101049033Y-131773680D01*
X100906176Y-131821300D01*
X100858557Y-131868919D01*
X100001414Y-132107014D02*
X100001414Y-132773680D01*
X100239509Y-131726061D02*
X100477604Y-132440347D01*
X99858557Y-132440347D01*
X99287128Y-131773680D02*
X99191890Y-131773680D01*
X99096652Y-131821300D01*
X99049033Y-131868919D01*
X99001414Y-131964157D01*
X98953795Y-132154633D01*
X98953795Y-132392728D01*
X99001414Y-132583204D01*
X99049033Y-132678442D01*
X99096652Y-132726061D01*
X99191890Y-132773680D01*
X99287128Y-132773680D01*
X99382366Y-132726061D01*
X99429985Y-132678442D01*
X99477604Y-132583204D01*
X99525223Y-132392728D01*
X99525223Y-132154633D01*
X99477604Y-131964157D01*
X99429985Y-131868919D01*
X99382366Y-131821300D01*
X99287128Y-131773680D01*
%TO.C,C39*%
X93041742Y-128566942D02*
X93089361Y-128519323D01*
X93136980Y-128376466D01*
X93136980Y-128281228D01*
X93089361Y-128138371D01*
X92994123Y-128043133D01*
X92898885Y-127995514D01*
X92708409Y-127947895D01*
X92565552Y-127947895D01*
X92375076Y-127995514D01*
X92279838Y-128043133D01*
X92184600Y-128138371D01*
X92136980Y-128281228D01*
X92136980Y-128376466D01*
X92184600Y-128519323D01*
X92232219Y-128566942D01*
X92136980Y-128900276D02*
X92136980Y-129519323D01*
X92517933Y-129185990D01*
X92517933Y-129328847D01*
X92565552Y-129424085D01*
X92613171Y-129471704D01*
X92708409Y-129519323D01*
X92946504Y-129519323D01*
X93041742Y-129471704D01*
X93089361Y-129424085D01*
X93136980Y-129328847D01*
X93136980Y-129043133D01*
X93089361Y-128947895D01*
X93041742Y-128900276D01*
X93136980Y-129995514D02*
X93136980Y-130185990D01*
X93089361Y-130281228D01*
X93041742Y-130328847D01*
X92898885Y-130424085D01*
X92708409Y-130471704D01*
X92327457Y-130471704D01*
X92232219Y-130424085D01*
X92184600Y-130376466D01*
X92136980Y-130281228D01*
X92136980Y-130090752D01*
X92184600Y-129995514D01*
X92232219Y-129947895D01*
X92327457Y-129900276D01*
X92565552Y-129900276D01*
X92660790Y-129947895D01*
X92708409Y-129995514D01*
X92756028Y-130090752D01*
X92756028Y-130281228D01*
X92708409Y-130376466D01*
X92660790Y-130424085D01*
X92565552Y-130471704D01*
%TO.C,C38*%
X97518457Y-132678442D02*
X97566076Y-132726061D01*
X97708933Y-132773680D01*
X97804171Y-132773680D01*
X97947028Y-132726061D01*
X98042266Y-132630823D01*
X98089885Y-132535585D01*
X98137504Y-132345109D01*
X98137504Y-132202252D01*
X98089885Y-132011776D01*
X98042266Y-131916538D01*
X97947028Y-131821300D01*
X97804171Y-131773680D01*
X97708933Y-131773680D01*
X97566076Y-131821300D01*
X97518457Y-131868919D01*
X97185123Y-131773680D02*
X96566076Y-131773680D01*
X96899409Y-132154633D01*
X96756552Y-132154633D01*
X96661314Y-132202252D01*
X96613695Y-132249871D01*
X96566076Y-132345109D01*
X96566076Y-132583204D01*
X96613695Y-132678442D01*
X96661314Y-132726061D01*
X96756552Y-132773680D01*
X97042266Y-132773680D01*
X97137504Y-132726061D01*
X97185123Y-132678442D01*
X95994647Y-132202252D02*
X96089885Y-132154633D01*
X96137504Y-132107014D01*
X96185123Y-132011776D01*
X96185123Y-131964157D01*
X96137504Y-131868919D01*
X96089885Y-131821300D01*
X95994647Y-131773680D01*
X95804171Y-131773680D01*
X95708933Y-131821300D01*
X95661314Y-131868919D01*
X95613695Y-131964157D01*
X95613695Y-132011776D01*
X95661314Y-132107014D01*
X95708933Y-132154633D01*
X95804171Y-132202252D01*
X95994647Y-132202252D01*
X96089885Y-132249871D01*
X96137504Y-132297490D01*
X96185123Y-132392728D01*
X96185123Y-132583204D01*
X96137504Y-132678442D01*
X96089885Y-132726061D01*
X95994647Y-132773680D01*
X95804171Y-132773680D01*
X95708933Y-132726061D01*
X95661314Y-132678442D01*
X95613695Y-132583204D01*
X95613695Y-132392728D01*
X95661314Y-132297490D01*
X95708933Y-132249871D01*
X95804171Y-132202252D01*
%TO.C,C36*%
X109939057Y-132894342D02*
X109986676Y-132941961D01*
X110129533Y-132989580D01*
X110224771Y-132989580D01*
X110367628Y-132941961D01*
X110462866Y-132846723D01*
X110510485Y-132751485D01*
X110558104Y-132561009D01*
X110558104Y-132418152D01*
X110510485Y-132227676D01*
X110462866Y-132132438D01*
X110367628Y-132037200D01*
X110224771Y-131989580D01*
X110129533Y-131989580D01*
X109986676Y-132037200D01*
X109939057Y-132084819D01*
X109605723Y-131989580D02*
X108986676Y-131989580D01*
X109320009Y-132370533D01*
X109177152Y-132370533D01*
X109081914Y-132418152D01*
X109034295Y-132465771D01*
X108986676Y-132561009D01*
X108986676Y-132799104D01*
X109034295Y-132894342D01*
X109081914Y-132941961D01*
X109177152Y-132989580D01*
X109462866Y-132989580D01*
X109558104Y-132941961D01*
X109605723Y-132894342D01*
X108129533Y-131989580D02*
X108320009Y-131989580D01*
X108415247Y-132037200D01*
X108462866Y-132084819D01*
X108558104Y-132227676D01*
X108605723Y-132418152D01*
X108605723Y-132799104D01*
X108558104Y-132894342D01*
X108510485Y-132941961D01*
X108415247Y-132989580D01*
X108224771Y-132989580D01*
X108129533Y-132941961D01*
X108081914Y-132894342D01*
X108034295Y-132799104D01*
X108034295Y-132561009D01*
X108081914Y-132465771D01*
X108129533Y-132418152D01*
X108224771Y-132370533D01*
X108415247Y-132370533D01*
X108510485Y-132418152D01*
X108558104Y-132465771D01*
X108605723Y-132561009D01*
%TO.C,C35*%
X112491757Y-126684042D02*
X112539376Y-126731661D01*
X112682233Y-126779280D01*
X112777471Y-126779280D01*
X112920328Y-126731661D01*
X113015566Y-126636423D01*
X113063185Y-126541185D01*
X113110804Y-126350709D01*
X113110804Y-126207852D01*
X113063185Y-126017376D01*
X113015566Y-125922138D01*
X112920328Y-125826900D01*
X112777471Y-125779280D01*
X112682233Y-125779280D01*
X112539376Y-125826900D01*
X112491757Y-125874519D01*
X112158423Y-125779280D02*
X111539376Y-125779280D01*
X111872709Y-126160233D01*
X111729852Y-126160233D01*
X111634614Y-126207852D01*
X111586995Y-126255471D01*
X111539376Y-126350709D01*
X111539376Y-126588804D01*
X111586995Y-126684042D01*
X111634614Y-126731661D01*
X111729852Y-126779280D01*
X112015566Y-126779280D01*
X112110804Y-126731661D01*
X112158423Y-126684042D01*
X110634614Y-125779280D02*
X111110804Y-125779280D01*
X111158423Y-126255471D01*
X111110804Y-126207852D01*
X111015566Y-126160233D01*
X110777471Y-126160233D01*
X110682233Y-126207852D01*
X110634614Y-126255471D01*
X110586995Y-126350709D01*
X110586995Y-126588804D01*
X110634614Y-126684042D01*
X110682233Y-126731661D01*
X110777471Y-126779280D01*
X111015566Y-126779280D01*
X111110804Y-126731661D01*
X111158423Y-126684042D01*
%TO.C,C34*%
X116277142Y-128757142D02*
X116324761Y-128709523D01*
X116372380Y-128566666D01*
X116372380Y-128471428D01*
X116324761Y-128328571D01*
X116229523Y-128233333D01*
X116134285Y-128185714D01*
X115943809Y-128138095D01*
X115800952Y-128138095D01*
X115610476Y-128185714D01*
X115515238Y-128233333D01*
X115420000Y-128328571D01*
X115372380Y-128471428D01*
X115372380Y-128566666D01*
X115420000Y-128709523D01*
X115467619Y-128757142D01*
X115372380Y-129090476D02*
X115372380Y-129709523D01*
X115753333Y-129376190D01*
X115753333Y-129519047D01*
X115800952Y-129614285D01*
X115848571Y-129661904D01*
X115943809Y-129709523D01*
X116181904Y-129709523D01*
X116277142Y-129661904D01*
X116324761Y-129614285D01*
X116372380Y-129519047D01*
X116372380Y-129233333D01*
X116324761Y-129138095D01*
X116277142Y-129090476D01*
X115705714Y-130566666D02*
X116372380Y-130566666D01*
X115324761Y-130328571D02*
X116039047Y-130090476D01*
X116039047Y-130709523D01*
%TO.C,C33*%
X102509557Y-142889242D02*
X102557176Y-142936861D01*
X102700033Y-142984480D01*
X102795271Y-142984480D01*
X102938128Y-142936861D01*
X103033366Y-142841623D01*
X103080985Y-142746385D01*
X103128604Y-142555909D01*
X103128604Y-142413052D01*
X103080985Y-142222576D01*
X103033366Y-142127338D01*
X102938128Y-142032100D01*
X102795271Y-141984480D01*
X102700033Y-141984480D01*
X102557176Y-142032100D01*
X102509557Y-142079719D01*
X102176223Y-141984480D02*
X101557176Y-141984480D01*
X101890509Y-142365433D01*
X101747652Y-142365433D01*
X101652414Y-142413052D01*
X101604795Y-142460671D01*
X101557176Y-142555909D01*
X101557176Y-142794004D01*
X101604795Y-142889242D01*
X101652414Y-142936861D01*
X101747652Y-142984480D01*
X102033366Y-142984480D01*
X102128604Y-142936861D01*
X102176223Y-142889242D01*
X101223842Y-141984480D02*
X100604795Y-141984480D01*
X100938128Y-142365433D01*
X100795271Y-142365433D01*
X100700033Y-142413052D01*
X100652414Y-142460671D01*
X100604795Y-142555909D01*
X100604795Y-142794004D01*
X100652414Y-142889242D01*
X100700033Y-142936861D01*
X100795271Y-142984480D01*
X101080985Y-142984480D01*
X101176223Y-142936861D01*
X101223842Y-142889242D01*
%TO.C,C32*%
X106700557Y-136107442D02*
X106748176Y-136155061D01*
X106891033Y-136202680D01*
X106986271Y-136202680D01*
X107129128Y-136155061D01*
X107224366Y-136059823D01*
X107271985Y-135964585D01*
X107319604Y-135774109D01*
X107319604Y-135631252D01*
X107271985Y-135440776D01*
X107224366Y-135345538D01*
X107129128Y-135250300D01*
X106986271Y-135202680D01*
X106891033Y-135202680D01*
X106748176Y-135250300D01*
X106700557Y-135297919D01*
X106367223Y-135202680D02*
X105748176Y-135202680D01*
X106081509Y-135583633D01*
X105938652Y-135583633D01*
X105843414Y-135631252D01*
X105795795Y-135678871D01*
X105748176Y-135774109D01*
X105748176Y-136012204D01*
X105795795Y-136107442D01*
X105843414Y-136155061D01*
X105938652Y-136202680D01*
X106224366Y-136202680D01*
X106319604Y-136155061D01*
X106367223Y-136107442D01*
X105367223Y-135297919D02*
X105319604Y-135250300D01*
X105224366Y-135202680D01*
X104986271Y-135202680D01*
X104891033Y-135250300D01*
X104843414Y-135297919D01*
X104795795Y-135393157D01*
X104795795Y-135488395D01*
X104843414Y-135631252D01*
X105414842Y-136202680D01*
X104795795Y-136202680D01*
%TO.C,C31*%
X106776757Y-138495042D02*
X106824376Y-138542661D01*
X106967233Y-138590280D01*
X107062471Y-138590280D01*
X107205328Y-138542661D01*
X107300566Y-138447423D01*
X107348185Y-138352185D01*
X107395804Y-138161709D01*
X107395804Y-138018852D01*
X107348185Y-137828376D01*
X107300566Y-137733138D01*
X107205328Y-137637900D01*
X107062471Y-137590280D01*
X106967233Y-137590280D01*
X106824376Y-137637900D01*
X106776757Y-137685519D01*
X106443423Y-137590280D02*
X105824376Y-137590280D01*
X106157709Y-137971233D01*
X106014852Y-137971233D01*
X105919614Y-138018852D01*
X105871995Y-138066471D01*
X105824376Y-138161709D01*
X105824376Y-138399804D01*
X105871995Y-138495042D01*
X105919614Y-138542661D01*
X106014852Y-138590280D01*
X106300566Y-138590280D01*
X106395804Y-138542661D01*
X106443423Y-138495042D01*
X104871995Y-138590280D02*
X105443423Y-138590280D01*
X105157709Y-138590280D02*
X105157709Y-137590280D01*
X105252947Y-137733138D01*
X105348185Y-137828376D01*
X105443423Y-137875995D01*
%TO.C,C23*%
X89877142Y-128644642D02*
X89924761Y-128597023D01*
X89972380Y-128454166D01*
X89972380Y-128358928D01*
X89924761Y-128216071D01*
X89829523Y-128120833D01*
X89734285Y-128073214D01*
X89543809Y-128025595D01*
X89400952Y-128025595D01*
X89210476Y-128073214D01*
X89115238Y-128120833D01*
X89020000Y-128216071D01*
X88972380Y-128358928D01*
X88972380Y-128454166D01*
X89020000Y-128597023D01*
X89067619Y-128644642D01*
X89067619Y-129025595D02*
X89020000Y-129073214D01*
X88972380Y-129168452D01*
X88972380Y-129406547D01*
X89020000Y-129501785D01*
X89067619Y-129549404D01*
X89162857Y-129597023D01*
X89258095Y-129597023D01*
X89400952Y-129549404D01*
X89972380Y-128977976D01*
X89972380Y-129597023D01*
X88972380Y-129930357D02*
X88972380Y-130549404D01*
X89353333Y-130216071D01*
X89353333Y-130358928D01*
X89400952Y-130454166D01*
X89448571Y-130501785D01*
X89543809Y-130549404D01*
X89781904Y-130549404D01*
X89877142Y-130501785D01*
X89924761Y-130454166D01*
X89972380Y-130358928D01*
X89972380Y-130073214D01*
X89924761Y-129977976D01*
X89877142Y-129930357D01*
%TO.C,C12*%
X123312157Y-128233442D02*
X123359776Y-128281061D01*
X123502633Y-128328680D01*
X123597871Y-128328680D01*
X123740728Y-128281061D01*
X123835966Y-128185823D01*
X123883585Y-128090585D01*
X123931204Y-127900109D01*
X123931204Y-127757252D01*
X123883585Y-127566776D01*
X123835966Y-127471538D01*
X123740728Y-127376300D01*
X123597871Y-127328680D01*
X123502633Y-127328680D01*
X123359776Y-127376300D01*
X123312157Y-127423919D01*
X122359776Y-128328680D02*
X122931204Y-128328680D01*
X122645490Y-128328680D02*
X122645490Y-127328680D01*
X122740728Y-127471538D01*
X122835966Y-127566776D01*
X122931204Y-127614395D01*
X121978823Y-127423919D02*
X121931204Y-127376300D01*
X121835966Y-127328680D01*
X121597871Y-127328680D01*
X121502633Y-127376300D01*
X121455014Y-127423919D01*
X121407395Y-127519157D01*
X121407395Y-127614395D01*
X121455014Y-127757252D01*
X122026442Y-128328680D01*
X121407395Y-128328680D01*
%TO.C,C10*%
X128709657Y-128017542D02*
X128757276Y-128065161D01*
X128900133Y-128112780D01*
X128995371Y-128112780D01*
X129138228Y-128065161D01*
X129233466Y-127969923D01*
X129281085Y-127874685D01*
X129328704Y-127684209D01*
X129328704Y-127541352D01*
X129281085Y-127350876D01*
X129233466Y-127255638D01*
X129138228Y-127160400D01*
X128995371Y-127112780D01*
X128900133Y-127112780D01*
X128757276Y-127160400D01*
X128709657Y-127208019D01*
X127757276Y-128112780D02*
X128328704Y-128112780D01*
X128042990Y-128112780D02*
X128042990Y-127112780D01*
X128138228Y-127255638D01*
X128233466Y-127350876D01*
X128328704Y-127398495D01*
X127138228Y-127112780D02*
X127042990Y-127112780D01*
X126947752Y-127160400D01*
X126900133Y-127208019D01*
X126852514Y-127303257D01*
X126804895Y-127493733D01*
X126804895Y-127731828D01*
X126852514Y-127922304D01*
X126900133Y-128017542D01*
X126947752Y-128065161D01*
X127042990Y-128112780D01*
X127138228Y-128112780D01*
X127233466Y-128065161D01*
X127281085Y-128017542D01*
X127328704Y-127922304D01*
X127376323Y-127731828D01*
X127376323Y-127493733D01*
X127328704Y-127303257D01*
X127281085Y-127208019D01*
X127233466Y-127160400D01*
X127138228Y-127112780D01*
%TO.C,C9*%
X125629966Y-126798342D02*
X125677585Y-126845961D01*
X125820442Y-126893580D01*
X125915680Y-126893580D01*
X126058538Y-126845961D01*
X126153776Y-126750723D01*
X126201395Y-126655485D01*
X126249014Y-126465009D01*
X126249014Y-126322152D01*
X126201395Y-126131676D01*
X126153776Y-126036438D01*
X126058538Y-125941200D01*
X125915680Y-125893580D01*
X125820442Y-125893580D01*
X125677585Y-125941200D01*
X125629966Y-125988819D01*
X125153776Y-126893580D02*
X124963300Y-126893580D01*
X124868061Y-126845961D01*
X124820442Y-126798342D01*
X124725204Y-126655485D01*
X124677585Y-126465009D01*
X124677585Y-126084057D01*
X124725204Y-125988819D01*
X124772823Y-125941200D01*
X124868061Y-125893580D01*
X125058538Y-125893580D01*
X125153776Y-125941200D01*
X125201395Y-125988819D01*
X125249014Y-126084057D01*
X125249014Y-126322152D01*
X125201395Y-126417390D01*
X125153776Y-126465009D01*
X125058538Y-126512628D01*
X124868061Y-126512628D01*
X124772823Y-126465009D01*
X124725204Y-126417390D01*
X124677585Y-126322152D01*
%TO.C,C8*%
X92660766Y-123496342D02*
X92708385Y-123543961D01*
X92851242Y-123591580D01*
X92946480Y-123591580D01*
X93089338Y-123543961D01*
X93184576Y-123448723D01*
X93232195Y-123353485D01*
X93279814Y-123163009D01*
X93279814Y-123020152D01*
X93232195Y-122829676D01*
X93184576Y-122734438D01*
X93089338Y-122639200D01*
X92946480Y-122591580D01*
X92851242Y-122591580D01*
X92708385Y-122639200D01*
X92660766Y-122686819D01*
X92089338Y-123020152D02*
X92184576Y-122972533D01*
X92232195Y-122924914D01*
X92279814Y-122829676D01*
X92279814Y-122782057D01*
X92232195Y-122686819D01*
X92184576Y-122639200D01*
X92089338Y-122591580D01*
X91898861Y-122591580D01*
X91803623Y-122639200D01*
X91756004Y-122686819D01*
X91708385Y-122782057D01*
X91708385Y-122829676D01*
X91756004Y-122924914D01*
X91803623Y-122972533D01*
X91898861Y-123020152D01*
X92089338Y-123020152D01*
X92184576Y-123067771D01*
X92232195Y-123115390D01*
X92279814Y-123210628D01*
X92279814Y-123401104D01*
X92232195Y-123496342D01*
X92184576Y-123543961D01*
X92089338Y-123591580D01*
X91898861Y-123591580D01*
X91803623Y-123543961D01*
X91756004Y-123496342D01*
X91708385Y-123401104D01*
X91708385Y-123210628D01*
X91756004Y-123115390D01*
X91803623Y-123067771D01*
X91898861Y-123020152D01*
%TO.C,C6*%
X74474366Y-127204742D02*
X74521985Y-127252361D01*
X74664842Y-127299980D01*
X74760080Y-127299980D01*
X74902938Y-127252361D01*
X74998176Y-127157123D01*
X75045795Y-127061885D01*
X75093414Y-126871409D01*
X75093414Y-126728552D01*
X75045795Y-126538076D01*
X74998176Y-126442838D01*
X74902938Y-126347600D01*
X74760080Y-126299980D01*
X74664842Y-126299980D01*
X74521985Y-126347600D01*
X74474366Y-126395219D01*
X73617223Y-126299980D02*
X73807700Y-126299980D01*
X73902938Y-126347600D01*
X73950557Y-126395219D01*
X74045795Y-126538076D01*
X74093414Y-126728552D01*
X74093414Y-127109504D01*
X74045795Y-127204742D01*
X73998176Y-127252361D01*
X73902938Y-127299980D01*
X73712461Y-127299980D01*
X73617223Y-127252361D01*
X73569604Y-127204742D01*
X73521985Y-127109504D01*
X73521985Y-126871409D01*
X73569604Y-126776171D01*
X73617223Y-126728552D01*
X73712461Y-126680933D01*
X73902938Y-126680933D01*
X73998176Y-126728552D01*
X74045795Y-126776171D01*
X74093414Y-126871409D01*
%TO.C,C5*%
X69788066Y-127014242D02*
X69835685Y-127061861D01*
X69978542Y-127109480D01*
X70073780Y-127109480D01*
X70216638Y-127061861D01*
X70311876Y-126966623D01*
X70359495Y-126871385D01*
X70407114Y-126680909D01*
X70407114Y-126538052D01*
X70359495Y-126347576D01*
X70311876Y-126252338D01*
X70216638Y-126157100D01*
X70073780Y-126109480D01*
X69978542Y-126109480D01*
X69835685Y-126157100D01*
X69788066Y-126204719D01*
X68883304Y-126109480D02*
X69359495Y-126109480D01*
X69407114Y-126585671D01*
X69359495Y-126538052D01*
X69264257Y-126490433D01*
X69026161Y-126490433D01*
X68930923Y-126538052D01*
X68883304Y-126585671D01*
X68835685Y-126680909D01*
X68835685Y-126919004D01*
X68883304Y-127014242D01*
X68930923Y-127061861D01*
X69026161Y-127109480D01*
X69264257Y-127109480D01*
X69359495Y-127061861D01*
X69407114Y-127014242D01*
%TO.C,C4*%
X72289966Y-126252242D02*
X72337585Y-126299861D01*
X72480442Y-126347480D01*
X72575680Y-126347480D01*
X72718538Y-126299861D01*
X72813776Y-126204623D01*
X72861395Y-126109385D01*
X72909014Y-125918909D01*
X72909014Y-125776052D01*
X72861395Y-125585576D01*
X72813776Y-125490338D01*
X72718538Y-125395100D01*
X72575680Y-125347480D01*
X72480442Y-125347480D01*
X72337585Y-125395100D01*
X72289966Y-125442719D01*
X71432823Y-125680814D02*
X71432823Y-126347480D01*
X71670919Y-125299861D02*
X71909014Y-126014147D01*
X71289966Y-126014147D01*
%TO.C,C1*%
X115072666Y-148083242D02*
X115120285Y-148130861D01*
X115263142Y-148178480D01*
X115358380Y-148178480D01*
X115501238Y-148130861D01*
X115596476Y-148035623D01*
X115644095Y-147940385D01*
X115691714Y-147749909D01*
X115691714Y-147607052D01*
X115644095Y-147416576D01*
X115596476Y-147321338D01*
X115501238Y-147226100D01*
X115358380Y-147178480D01*
X115263142Y-147178480D01*
X115120285Y-147226100D01*
X115072666Y-147273719D01*
X114120285Y-148178480D02*
X114691714Y-148178480D01*
X114406000Y-148178480D02*
X114406000Y-147178480D01*
X114501238Y-147321338D01*
X114596476Y-147416576D01*
X114691714Y-147464195D01*
%TD*%
M02*
