%TF.GenerationSoftware,KiCad,Pcbnew,(5.1.5)-3*%
%TF.CreationDate,2020-11-20T20:43:38+01:00*%
%TF.ProjectId,PCB,5043422e-6b69-4636-9164-5f7063625858,rev?*%
%TF.SameCoordinates,Original*%
%TF.FileFunction,Legend,Top*%
%TF.FilePolarity,Positive*%
%FSLAX46Y46*%
G04 Gerber Fmt 4.6, Leading zero omitted, Abs format (unit mm)*
G04 Created by KiCad (PCBNEW (5.1.5)-3) date 2020-11-20 20:43:38*
%MOMM*%
%LPD*%
G04 APERTURE LIST*
%ADD10C,0.150000*%
%ADD11C,0.250000*%
%ADD12C,0.010000*%
%ADD13C,0.120000*%
%ADD14C,0.100000*%
G04 APERTURE END LIST*
D10*
X114176190Y-120827380D02*
X114509523Y-121827380D01*
X114842857Y-120827380D01*
X115700000Y-121827380D02*
X115128571Y-121827380D01*
X115414285Y-121827380D02*
X115414285Y-120827380D01*
X115319047Y-120970238D01*
X115223809Y-121065476D01*
X115128571Y-121113095D01*
X116128571Y-121732142D02*
X116176190Y-121779761D01*
X116128571Y-121827380D01*
X116080952Y-121779761D01*
X116128571Y-121732142D01*
X116128571Y-121827380D01*
X116795238Y-120827380D02*
X116890476Y-120827380D01*
X116985714Y-120875000D01*
X117033333Y-120922619D01*
X117080952Y-121017857D01*
X117128571Y-121208333D01*
X117128571Y-121446428D01*
X117080952Y-121636904D01*
X117033333Y-121732142D01*
X116985714Y-121779761D01*
X116890476Y-121827380D01*
X116795238Y-121827380D01*
X116700000Y-121779761D01*
X116652380Y-121732142D01*
X116604761Y-121636904D01*
X116557142Y-121446428D01*
X116557142Y-121208333D01*
X116604761Y-121017857D01*
X116652380Y-120922619D01*
X116700000Y-120875000D01*
X116795238Y-120827380D01*
X112985714Y-122810714D02*
X112985714Y-123477380D01*
X112747619Y-122429761D02*
X112509523Y-123144047D01*
X113128571Y-123144047D01*
X113414285Y-122477380D02*
X114080952Y-122477380D01*
X113652380Y-123477380D01*
X115176190Y-122429761D02*
X114319047Y-123715476D01*
X115461904Y-122572619D02*
X115509523Y-122525000D01*
X115604761Y-122477380D01*
X115842857Y-122477380D01*
X115938095Y-122525000D01*
X115985714Y-122572619D01*
X116033333Y-122667857D01*
X116033333Y-122763095D01*
X115985714Y-122905952D01*
X115414285Y-123477380D01*
X116033333Y-123477380D01*
X116652380Y-122477380D02*
X116747619Y-122477380D01*
X116842857Y-122525000D01*
X116890476Y-122572619D01*
X116938095Y-122667857D01*
X116985714Y-122858333D01*
X116985714Y-123096428D01*
X116938095Y-123286904D01*
X116890476Y-123382142D01*
X116842857Y-123429761D01*
X116747619Y-123477380D01*
X116652380Y-123477380D01*
X116557142Y-123429761D01*
X116509523Y-123382142D01*
X116461904Y-123286904D01*
X116414285Y-123096428D01*
X116414285Y-122858333D01*
X116461904Y-122667857D01*
X116509523Y-122572619D01*
X116557142Y-122525000D01*
X116652380Y-122477380D01*
X117366666Y-122572619D02*
X117414285Y-122525000D01*
X117509523Y-122477380D01*
X117747619Y-122477380D01*
X117842857Y-122525000D01*
X117890476Y-122572619D01*
X117938095Y-122667857D01*
X117938095Y-122763095D01*
X117890476Y-122905952D01*
X117319047Y-123477380D01*
X117938095Y-123477380D01*
X118557142Y-122477380D02*
X118652380Y-122477380D01*
X118747619Y-122525000D01*
X118795238Y-122572619D01*
X118842857Y-122667857D01*
X118890476Y-122858333D01*
X118890476Y-123096428D01*
X118842857Y-123286904D01*
X118795238Y-123382142D01*
X118747619Y-123429761D01*
X118652380Y-123477380D01*
X118557142Y-123477380D01*
X118461904Y-123429761D01*
X118414285Y-123382142D01*
X118366666Y-123286904D01*
X118319047Y-123096428D01*
X118319047Y-122858333D01*
X118366666Y-122667857D01*
X118414285Y-122572619D01*
X118461904Y-122525000D01*
X118557142Y-122477380D01*
D11*
X96944228Y-124988071D02*
X96444228Y-124273785D01*
X96087085Y-124988071D02*
X96087085Y-123488071D01*
X96658514Y-123488071D01*
X96801371Y-123559500D01*
X96872800Y-123630928D01*
X96944228Y-123773785D01*
X96944228Y-123988071D01*
X96872800Y-124130928D01*
X96801371Y-124202357D01*
X96658514Y-124273785D01*
X96087085Y-124273785D01*
X98158514Y-124916642D02*
X98015657Y-124988071D01*
X97729942Y-124988071D01*
X97587085Y-124916642D01*
X97515657Y-124773785D01*
X97515657Y-124202357D01*
X97587085Y-124059500D01*
X97729942Y-123988071D01*
X98015657Y-123988071D01*
X98158514Y-124059500D01*
X98229942Y-124202357D01*
X98229942Y-124345214D01*
X97515657Y-124488071D01*
X98872800Y-123988071D02*
X98872800Y-124988071D01*
X98872800Y-124130928D02*
X98944228Y-124059500D01*
X99087085Y-123988071D01*
X99301371Y-123988071D01*
X99444228Y-124059500D01*
X99515657Y-124202357D01*
X99515657Y-124988071D01*
X100801371Y-124916642D02*
X100658514Y-124988071D01*
X100372800Y-124988071D01*
X100229942Y-124916642D01*
X100158514Y-124773785D01*
X100158514Y-124202357D01*
X100229942Y-124059500D01*
X100372800Y-123988071D01*
X100658514Y-123988071D01*
X100801371Y-124059500D01*
X100872800Y-124202357D01*
X100872800Y-124345214D01*
X100158514Y-124488071D01*
X100658514Y-123416642D02*
X100444228Y-123630928D01*
X102587085Y-124916642D02*
X102801371Y-124988071D01*
X103158514Y-124988071D01*
X103301371Y-124916642D01*
X103372800Y-124845214D01*
X103444228Y-124702357D01*
X103444228Y-124559500D01*
X103372800Y-124416642D01*
X103301371Y-124345214D01*
X103158514Y-124273785D01*
X102872800Y-124202357D01*
X102729942Y-124130928D01*
X102658514Y-124059500D01*
X102587085Y-123916642D01*
X102587085Y-123773785D01*
X102658514Y-123630928D01*
X102729942Y-123559500D01*
X102872800Y-123488071D01*
X103229942Y-123488071D01*
X103444228Y-123559500D01*
X104087085Y-123988071D02*
X104087085Y-125488071D01*
X104087085Y-124059500D02*
X104229942Y-123988071D01*
X104515657Y-123988071D01*
X104658514Y-124059500D01*
X104729942Y-124130928D01*
X104801371Y-124273785D01*
X104801371Y-124702357D01*
X104729942Y-124845214D01*
X104658514Y-124916642D01*
X104515657Y-124988071D01*
X104229942Y-124988071D01*
X104087085Y-124916642D01*
X106087085Y-124988071D02*
X106087085Y-124202357D01*
X106015657Y-124059500D01*
X105872800Y-123988071D01*
X105587085Y-123988071D01*
X105444228Y-124059500D01*
X106087085Y-124916642D02*
X105944228Y-124988071D01*
X105587085Y-124988071D01*
X105444228Y-124916642D01*
X105372800Y-124773785D01*
X105372800Y-124630928D01*
X105444228Y-124488071D01*
X105587085Y-124416642D01*
X105944228Y-124416642D01*
X106087085Y-124345214D01*
X106801371Y-123988071D02*
X106801371Y-124988071D01*
X106801371Y-124130928D02*
X106872800Y-124059500D01*
X107015657Y-123988071D01*
X107229942Y-123988071D01*
X107372800Y-124059500D01*
X107444228Y-124202357D01*
X107444228Y-124988071D01*
X108372800Y-124988071D02*
X108229942Y-124916642D01*
X108158514Y-124773785D01*
X108158514Y-123488071D01*
X82515657Y-126702357D02*
X82015657Y-126702357D01*
X82015657Y-127488071D02*
X82015657Y-125988071D01*
X82729942Y-125988071D01*
X83301371Y-127488071D02*
X83301371Y-126488071D01*
X83301371Y-126773785D02*
X83372800Y-126630928D01*
X83444228Y-126559500D01*
X83587085Y-126488071D01*
X83729942Y-126488071D01*
X84229942Y-127488071D02*
X84229942Y-126488071D01*
X84229942Y-125988071D02*
X84158514Y-126059500D01*
X84229942Y-126130928D01*
X84301371Y-126059500D01*
X84229942Y-125988071D01*
X84229942Y-126130928D01*
X85515657Y-127416642D02*
X85372800Y-127488071D01*
X85087085Y-127488071D01*
X84944228Y-127416642D01*
X84872800Y-127273785D01*
X84872800Y-126702357D01*
X84944228Y-126559500D01*
X85087085Y-126488071D01*
X85372800Y-126488071D01*
X85515657Y-126559500D01*
X85587085Y-126702357D01*
X85587085Y-126845214D01*
X84872800Y-126988071D01*
X86872800Y-127488071D02*
X86872800Y-125988071D01*
X86872800Y-127416642D02*
X86729942Y-127488071D01*
X86444228Y-127488071D01*
X86301371Y-127416642D01*
X86229942Y-127345214D01*
X86158514Y-127202357D01*
X86158514Y-126773785D01*
X86229942Y-126630928D01*
X86301371Y-126559500D01*
X86444228Y-126488071D01*
X86729942Y-126488071D01*
X86872800Y-126559500D01*
X87587085Y-127488071D02*
X87587085Y-126488071D01*
X87587085Y-126773785D02*
X87658514Y-126630928D01*
X87729942Y-126559500D01*
X87872800Y-126488071D01*
X88015657Y-126488071D01*
X88515657Y-127488071D02*
X88515657Y-126488071D01*
X88515657Y-125988071D02*
X88444228Y-126059500D01*
X88515657Y-126130928D01*
X88587085Y-126059500D01*
X88515657Y-125988071D01*
X88515657Y-126130928D01*
X89872800Y-127416642D02*
X89729942Y-127488071D01*
X89444228Y-127488071D01*
X89301371Y-127416642D01*
X89229942Y-127345214D01*
X89158514Y-127202357D01*
X89158514Y-126773785D01*
X89229942Y-126630928D01*
X89301371Y-126559500D01*
X89444228Y-126488071D01*
X89729942Y-126488071D01*
X89872800Y-126559500D01*
X90515657Y-127488071D02*
X90515657Y-125988071D01*
X91158514Y-127488071D02*
X91158514Y-126702357D01*
X91087085Y-126559500D01*
X90944228Y-126488071D01*
X90729942Y-126488071D01*
X90587085Y-126559500D01*
X90515657Y-126630928D01*
X91872800Y-126916642D02*
X93015657Y-126916642D01*
X93658514Y-127059500D02*
X94372800Y-127059500D01*
X93515657Y-127488071D02*
X94015657Y-125988071D01*
X94515657Y-127488071D01*
X95229942Y-127488071D02*
X95087085Y-127416642D01*
X95015657Y-127273785D01*
X95015657Y-125988071D01*
X96372800Y-127416642D02*
X96229942Y-127488071D01*
X95944228Y-127488071D01*
X95801371Y-127416642D01*
X95729942Y-127273785D01*
X95729942Y-126702357D01*
X95801371Y-126559500D01*
X95944228Y-126488071D01*
X96229942Y-126488071D01*
X96372800Y-126559500D01*
X96444228Y-126702357D01*
X96444228Y-126845214D01*
X95729942Y-126988071D01*
X96944228Y-127488071D02*
X97729942Y-126488071D01*
X96944228Y-126488071D02*
X97729942Y-127488071D01*
X98944228Y-127488071D02*
X98944228Y-126702357D01*
X98872800Y-126559500D01*
X98729942Y-126488071D01*
X98444228Y-126488071D01*
X98301371Y-126559500D01*
X98944228Y-127416642D02*
X98801371Y-127488071D01*
X98444228Y-127488071D01*
X98301371Y-127416642D01*
X98229942Y-127273785D01*
X98229942Y-127130928D01*
X98301371Y-126988071D01*
X98444228Y-126916642D01*
X98801371Y-126916642D01*
X98944228Y-126845214D01*
X99658514Y-126488071D02*
X99658514Y-127488071D01*
X99658514Y-126630928D02*
X99729942Y-126559500D01*
X99872800Y-126488071D01*
X100087085Y-126488071D01*
X100229942Y-126559500D01*
X100301371Y-126702357D01*
X100301371Y-127488071D01*
X101658514Y-127488071D02*
X101658514Y-125988071D01*
X101658514Y-127416642D02*
X101515657Y-127488071D01*
X101229942Y-127488071D01*
X101087085Y-127416642D01*
X101015657Y-127345214D01*
X100944228Y-127202357D01*
X100944228Y-126773785D01*
X101015657Y-126630928D01*
X101087085Y-126559500D01*
X101229942Y-126488071D01*
X101515657Y-126488071D01*
X101658514Y-126559500D01*
X102944228Y-127416642D02*
X102801371Y-127488071D01*
X102515657Y-127488071D01*
X102372800Y-127416642D01*
X102301371Y-127273785D01*
X102301371Y-126702357D01*
X102372800Y-126559500D01*
X102515657Y-126488071D01*
X102801371Y-126488071D01*
X102944228Y-126559500D01*
X103015657Y-126702357D01*
X103015657Y-126845214D01*
X102301371Y-126988071D01*
X103658514Y-127488071D02*
X103658514Y-126488071D01*
X103658514Y-126773785D02*
X103729942Y-126630928D01*
X103801371Y-126559500D01*
X103944228Y-126488071D01*
X104087085Y-126488071D01*
X104587085Y-126916642D02*
X105729942Y-126916642D01*
X106444228Y-125988071D02*
X106444228Y-127202357D01*
X106515657Y-127345214D01*
X106587085Y-127416642D01*
X106729942Y-127488071D01*
X107015657Y-127488071D01*
X107158514Y-127416642D01*
X107229942Y-127345214D01*
X107301371Y-127202357D01*
X107301371Y-125988071D01*
X108015657Y-126488071D02*
X108015657Y-127488071D01*
X108015657Y-126630928D02*
X108087085Y-126559500D01*
X108229942Y-126488071D01*
X108444228Y-126488071D01*
X108587085Y-126559500D01*
X108658514Y-126702357D01*
X108658514Y-127488071D01*
X109372800Y-127488071D02*
X109372800Y-126488071D01*
X109372800Y-125988071D02*
X109301371Y-126059500D01*
X109372800Y-126130928D01*
X109444228Y-126059500D01*
X109372800Y-125988071D01*
X109372800Y-126130928D01*
X109944228Y-126488071D02*
X110301371Y-127488071D01*
X110658514Y-126488071D01*
X111801371Y-127416642D02*
X111658514Y-127488071D01*
X111372800Y-127488071D01*
X111229942Y-127416642D01*
X111158514Y-127273785D01*
X111158514Y-126702357D01*
X111229942Y-126559500D01*
X111372800Y-126488071D01*
X111658514Y-126488071D01*
X111801371Y-126559500D01*
X111872800Y-126702357D01*
X111872800Y-126845214D01*
X111158514Y-126988071D01*
X112515657Y-127488071D02*
X112515657Y-126488071D01*
X112515657Y-126773785D02*
X112587085Y-126630928D01*
X112658514Y-126559500D01*
X112801371Y-126488071D01*
X112944228Y-126488071D01*
X113372800Y-127416642D02*
X113515657Y-127488071D01*
X113801371Y-127488071D01*
X113944228Y-127416642D01*
X114015657Y-127273785D01*
X114015657Y-127202357D01*
X113944228Y-127059500D01*
X113801371Y-126988071D01*
X113587085Y-126988071D01*
X113444228Y-126916642D01*
X113372800Y-126773785D01*
X113372800Y-126702357D01*
X113444228Y-126559500D01*
X113587085Y-126488071D01*
X113801371Y-126488071D01*
X113944228Y-126559500D01*
X114658514Y-127488071D02*
X114658514Y-126488071D01*
X114658514Y-125988071D02*
X114587085Y-126059500D01*
X114658514Y-126130928D01*
X114729942Y-126059500D01*
X114658514Y-125988071D01*
X114658514Y-126130928D01*
X115158514Y-126488071D02*
X115729942Y-126488071D01*
X115372800Y-125988071D02*
X115372800Y-127273785D01*
X115444228Y-127416642D01*
X115587085Y-127488071D01*
X115729942Y-127488071D01*
X116872800Y-127488071D02*
X116872800Y-126702357D01*
X116801371Y-126559500D01*
X116658514Y-126488071D01*
X116372800Y-126488071D01*
X116229942Y-126559500D01*
X116872800Y-127416642D02*
X116729942Y-127488071D01*
X116372800Y-127488071D01*
X116229942Y-127416642D01*
X116158514Y-127273785D01*
X116158514Y-127130928D01*
X116229942Y-126988071D01*
X116372800Y-126916642D01*
X116729942Y-126916642D01*
X116872800Y-126845214D01*
X116229942Y-125988071D02*
X116301371Y-126059500D01*
X116229942Y-126130928D01*
X116158514Y-126059500D01*
X116229942Y-125988071D01*
X116229942Y-126130928D01*
X116801371Y-125988071D02*
X116872800Y-126059500D01*
X116801371Y-126130928D01*
X116729942Y-126059500D01*
X116801371Y-125988071D01*
X116801371Y-126130928D01*
X117372800Y-126488071D02*
X117944228Y-126488071D01*
X117587085Y-125988071D02*
X117587085Y-127273785D01*
X117658514Y-127416642D01*
X117801371Y-127488071D01*
X117944228Y-127488071D01*
X88444228Y-128988071D02*
X88444228Y-130202357D01*
X88372800Y-130345214D01*
X88301371Y-130416642D01*
X88158514Y-130488071D01*
X87944228Y-130488071D01*
X87801371Y-130416642D01*
X88444228Y-129916642D02*
X88301371Y-129988071D01*
X88015657Y-129988071D01*
X87872800Y-129916642D01*
X87801371Y-129845214D01*
X87729942Y-129702357D01*
X87729942Y-129273785D01*
X87801371Y-129130928D01*
X87872800Y-129059500D01*
X88015657Y-128988071D01*
X88301371Y-128988071D01*
X88444228Y-129059500D01*
X89158514Y-129988071D02*
X89158514Y-128988071D01*
X89158514Y-128488071D02*
X89087085Y-128559500D01*
X89158514Y-128630928D01*
X89229942Y-128559500D01*
X89158514Y-128488071D01*
X89158514Y-128630928D01*
X89658514Y-128988071D02*
X90229942Y-128988071D01*
X89872800Y-128488071D02*
X89872800Y-129773785D01*
X89944228Y-129916642D01*
X90087085Y-129988071D01*
X90229942Y-129988071D01*
X90729942Y-129988071D02*
X90729942Y-128488071D01*
X91372800Y-129988071D02*
X91372800Y-129202357D01*
X91301371Y-129059500D01*
X91158514Y-128988071D01*
X90944228Y-128988071D01*
X90801371Y-129059500D01*
X90729942Y-129130928D01*
X92729942Y-128988071D02*
X92729942Y-129988071D01*
X92087085Y-128988071D02*
X92087085Y-129773785D01*
X92158514Y-129916642D01*
X92301371Y-129988071D01*
X92515657Y-129988071D01*
X92658514Y-129916642D01*
X92729942Y-129845214D01*
X93444228Y-129988071D02*
X93444228Y-128488071D01*
X93444228Y-129059500D02*
X93587085Y-128988071D01*
X93872800Y-128988071D01*
X94015657Y-129059500D01*
X94087085Y-129130928D01*
X94158514Y-129273785D01*
X94158514Y-129702357D01*
X94087085Y-129845214D01*
X94015657Y-129916642D01*
X93872800Y-129988071D01*
X93587085Y-129988071D01*
X93444228Y-129916642D01*
X94801371Y-129845214D02*
X94872800Y-129916642D01*
X94801371Y-129988071D01*
X94729942Y-129916642D01*
X94801371Y-129845214D01*
X94801371Y-129988071D01*
X96158514Y-129916642D02*
X96015657Y-129988071D01*
X95729942Y-129988071D01*
X95587085Y-129916642D01*
X95515657Y-129845214D01*
X95444228Y-129702357D01*
X95444228Y-129273785D01*
X95515657Y-129130928D01*
X95587085Y-129059500D01*
X95729942Y-128988071D01*
X96015657Y-128988071D01*
X96158514Y-129059500D01*
X97015657Y-129988071D02*
X96872800Y-129916642D01*
X96801371Y-129845214D01*
X96729942Y-129702357D01*
X96729942Y-129273785D01*
X96801371Y-129130928D01*
X96872800Y-129059500D01*
X97015657Y-128988071D01*
X97229942Y-128988071D01*
X97372800Y-129059500D01*
X97444228Y-129130928D01*
X97515657Y-129273785D01*
X97515657Y-129702357D01*
X97444228Y-129845214D01*
X97372800Y-129916642D01*
X97229942Y-129988071D01*
X97015657Y-129988071D01*
X98158514Y-129988071D02*
X98158514Y-128988071D01*
X98158514Y-129130928D02*
X98229942Y-129059500D01*
X98372800Y-128988071D01*
X98587085Y-128988071D01*
X98729942Y-129059500D01*
X98801371Y-129202357D01*
X98801371Y-129988071D01*
X98801371Y-129202357D02*
X98872800Y-129059500D01*
X99015657Y-128988071D01*
X99229942Y-128988071D01*
X99372800Y-129059500D01*
X99444228Y-129202357D01*
X99444228Y-129988071D01*
X101229942Y-128416642D02*
X99944228Y-130345214D01*
X101729942Y-129988071D02*
X101729942Y-128988071D01*
X101729942Y-129273785D02*
X101801371Y-129130928D01*
X101872800Y-129059500D01*
X102015657Y-128988071D01*
X102158514Y-128988071D01*
X103229942Y-129916642D02*
X103087085Y-129988071D01*
X102801371Y-129988071D01*
X102658514Y-129916642D01*
X102587085Y-129773785D01*
X102587085Y-129202357D01*
X102658514Y-129059500D01*
X102801371Y-128988071D01*
X103087085Y-128988071D01*
X103229942Y-129059500D01*
X103301371Y-129202357D01*
X103301371Y-129345214D01*
X102587085Y-129488071D01*
X103944228Y-128988071D02*
X103944228Y-129988071D01*
X103944228Y-129130928D02*
X104015657Y-129059500D01*
X104158514Y-128988071D01*
X104372800Y-128988071D01*
X104515657Y-129059500D01*
X104587085Y-129202357D01*
X104587085Y-129988071D01*
X105872800Y-129916642D02*
X105729942Y-129988071D01*
X105444228Y-129988071D01*
X105301371Y-129916642D01*
X105229942Y-129773785D01*
X105229942Y-129202357D01*
X105301371Y-129059500D01*
X105444228Y-128988071D01*
X105729942Y-128988071D01*
X105872800Y-129059500D01*
X105944228Y-129202357D01*
X105944228Y-129345214D01*
X105229942Y-129488071D01*
X106515657Y-129916642D02*
X106658514Y-129988071D01*
X106944228Y-129988071D01*
X107087085Y-129916642D01*
X107158514Y-129773785D01*
X107158514Y-129702357D01*
X107087085Y-129559500D01*
X106944228Y-129488071D01*
X106729942Y-129488071D01*
X106587085Y-129416642D01*
X106515657Y-129273785D01*
X106515657Y-129202357D01*
X106587085Y-129059500D01*
X106729942Y-128988071D01*
X106944228Y-128988071D01*
X107087085Y-129059500D01*
X107801371Y-128988071D02*
X107801371Y-130488071D01*
X107801371Y-129059500D02*
X107944228Y-128988071D01*
X108229942Y-128988071D01*
X108372800Y-129059500D01*
X108444228Y-129130928D01*
X108515657Y-129273785D01*
X108515657Y-129702357D01*
X108444228Y-129845214D01*
X108372800Y-129916642D01*
X108229942Y-129988071D01*
X107944228Y-129988071D01*
X107801371Y-129916642D01*
X109801371Y-129988071D02*
X109801371Y-129202357D01*
X109729942Y-129059500D01*
X109587085Y-128988071D01*
X109301371Y-128988071D01*
X109158514Y-129059500D01*
X109801371Y-129916642D02*
X109658514Y-129988071D01*
X109301371Y-129988071D01*
X109158514Y-129916642D01*
X109087085Y-129773785D01*
X109087085Y-129630928D01*
X109158514Y-129488071D01*
X109301371Y-129416642D01*
X109658514Y-129416642D01*
X109801371Y-129345214D01*
X110515657Y-128988071D02*
X110515657Y-129988071D01*
X110515657Y-129130928D02*
X110587085Y-129059500D01*
X110729942Y-128988071D01*
X110944228Y-128988071D01*
X111087085Y-129059500D01*
X111158514Y-129202357D01*
X111158514Y-129988071D01*
X112087085Y-129988071D02*
X111944228Y-129916642D01*
X111872800Y-129773785D01*
X111872800Y-128488071D01*
D12*
%TO.C,G\002A\002A\002A*%
G36*
X85267800Y-125196600D02*
G01*
X85267800Y-125484467D01*
X84226400Y-125493423D01*
X84226400Y-125187644D01*
X85267800Y-125196600D01*
G37*
X85267800Y-125196600D02*
X85267800Y-125484467D01*
X84226400Y-125493423D01*
X84226400Y-125187644D01*
X85267800Y-125196600D01*
G36*
X87413499Y-125191732D02*
G01*
X87485282Y-125193548D01*
X87534693Y-125196488D01*
X87564603Y-125200640D01*
X87577884Y-125206093D01*
X87579200Y-125209008D01*
X87574109Y-125234260D01*
X87560591Y-125282331D01*
X87541279Y-125344029D01*
X87535476Y-125361642D01*
X87491752Y-125492934D01*
X86942810Y-125492934D01*
X86785752Y-125492668D01*
X86659714Y-125491798D01*
X86561850Y-125490212D01*
X86489318Y-125487799D01*
X86439272Y-125484448D01*
X86408870Y-125480048D01*
X86395266Y-125474487D01*
X86393867Y-125471491D01*
X86399640Y-125446360D01*
X86414948Y-125398961D01*
X86436773Y-125338478D01*
X86442535Y-125323325D01*
X86491203Y-125196600D01*
X87035202Y-125192132D01*
X87191330Y-125191113D01*
X87316472Y-125190950D01*
X87413499Y-125191732D01*
G37*
X87413499Y-125191732D02*
X87485282Y-125193548D01*
X87534693Y-125196488D01*
X87564603Y-125200640D01*
X87577884Y-125206093D01*
X87579200Y-125209008D01*
X87574109Y-125234260D01*
X87560591Y-125282331D01*
X87541279Y-125344029D01*
X87535476Y-125361642D01*
X87491752Y-125492934D01*
X86942810Y-125492934D01*
X86785752Y-125492668D01*
X86659714Y-125491798D01*
X86561850Y-125490212D01*
X86489318Y-125487799D01*
X86439272Y-125484448D01*
X86408870Y-125480048D01*
X86395266Y-125474487D01*
X86393867Y-125471491D01*
X86399640Y-125446360D01*
X86414948Y-125398961D01*
X86436773Y-125338478D01*
X86442535Y-125323325D01*
X86491203Y-125196600D01*
X87035202Y-125192132D01*
X87191330Y-125191113D01*
X87316472Y-125190950D01*
X87413499Y-125191732D01*
G36*
X90523352Y-125328686D02*
G01*
X90547044Y-125392712D01*
X90565278Y-125444380D01*
X90575301Y-125475776D01*
X90576400Y-125481086D01*
X90560127Y-125483929D01*
X90513946Y-125486528D01*
X90441816Y-125488797D01*
X90347696Y-125490652D01*
X90235545Y-125492009D01*
X90109322Y-125492783D01*
X90021090Y-125492934D01*
X89465781Y-125492934D01*
X89419957Y-125352225D01*
X89399349Y-125287689D01*
X89383547Y-125235809D01*
X89374985Y-125204684D01*
X89374134Y-125199825D01*
X89390403Y-125197001D01*
X89436553Y-125194423D01*
X89508600Y-125192175D01*
X89602560Y-125190343D01*
X89714446Y-125189011D01*
X89840276Y-125188265D01*
X89922219Y-125188133D01*
X90470304Y-125188133D01*
X90523352Y-125328686D01*
G37*
X90523352Y-125328686D02*
X90547044Y-125392712D01*
X90565278Y-125444380D01*
X90575301Y-125475776D01*
X90576400Y-125481086D01*
X90560127Y-125483929D01*
X90513946Y-125486528D01*
X90441816Y-125488797D01*
X90347696Y-125490652D01*
X90235545Y-125492009D01*
X90109322Y-125492783D01*
X90021090Y-125492934D01*
X89465781Y-125492934D01*
X89419957Y-125352225D01*
X89399349Y-125287689D01*
X89383547Y-125235809D01*
X89374985Y-125204684D01*
X89374134Y-125199825D01*
X89390403Y-125197001D01*
X89436553Y-125194423D01*
X89508600Y-125192175D01*
X89602560Y-125190343D01*
X89714446Y-125189011D01*
X89840276Y-125188265D01*
X89922219Y-125188133D01*
X90470304Y-125188133D01*
X90523352Y-125328686D01*
G36*
X93565134Y-125189405D02*
G01*
X93497400Y-125248294D01*
X93454830Y-125279473D01*
X93390618Y-125319470D01*
X93313856Y-125362875D01*
X93242217Y-125400059D01*
X93054767Y-125492934D01*
X92310883Y-125491975D01*
X91567000Y-125491017D01*
X91429483Y-125426355D01*
X91357345Y-125389987D01*
X91281216Y-125347567D01*
X91208026Y-125303429D01*
X91144700Y-125261908D01*
X91098167Y-125227339D01*
X91075984Y-125205149D01*
X91090478Y-125201443D01*
X91138832Y-125198210D01*
X91221042Y-125195452D01*
X91337105Y-125193167D01*
X91487017Y-125191357D01*
X91670775Y-125190021D01*
X91888375Y-125189158D01*
X92139813Y-125188770D01*
X92315301Y-125188769D01*
X93565134Y-125189405D01*
G37*
X93565134Y-125189405D02*
X93497400Y-125248294D01*
X93454830Y-125279473D01*
X93390618Y-125319470D01*
X93313856Y-125362875D01*
X93242217Y-125400059D01*
X93054767Y-125492934D01*
X92310883Y-125491975D01*
X91567000Y-125491017D01*
X91429483Y-125426355D01*
X91357345Y-125389987D01*
X91281216Y-125347567D01*
X91208026Y-125303429D01*
X91144700Y-125261908D01*
X91098167Y-125227339D01*
X91075984Y-125205149D01*
X91090478Y-125201443D01*
X91138832Y-125198210D01*
X91221042Y-125195452D01*
X91337105Y-125193167D01*
X91487017Y-125191357D01*
X91670775Y-125190021D01*
X91888375Y-125189158D01*
X92139813Y-125188770D01*
X92315301Y-125188769D01*
X93565134Y-125189405D01*
G36*
X85276267Y-125052667D02*
G01*
X84226400Y-125052667D01*
X84226400Y-124764800D01*
X85276267Y-124764800D01*
X85276267Y-125052667D01*
G37*
X85276267Y-125052667D02*
X84226400Y-125052667D01*
X84226400Y-124764800D01*
X85276267Y-124764800D01*
X85276267Y-125052667D01*
G36*
X87429388Y-124768215D02*
G01*
X87532955Y-124769087D01*
X87616894Y-124770649D01*
X87677176Y-124772838D01*
X87709769Y-124775589D01*
X87714440Y-124777262D01*
X87709501Y-124798520D01*
X87696614Y-124843226D01*
X87678326Y-124902628D01*
X87673704Y-124917200D01*
X87633194Y-125044200D01*
X87088514Y-125048670D01*
X86543835Y-125053139D01*
X86555944Y-125014803D01*
X86568274Y-124978719D01*
X86587938Y-124924118D01*
X86606182Y-124874867D01*
X86644311Y-124773267D01*
X87179489Y-124768796D01*
X87310223Y-124768096D01*
X87429388Y-124768215D01*
G37*
X87429388Y-124768215D02*
X87532955Y-124769087D01*
X87616894Y-124770649D01*
X87677176Y-124772838D01*
X87709769Y-124775589D01*
X87714440Y-124777262D01*
X87709501Y-124798520D01*
X87696614Y-124843226D01*
X87678326Y-124902628D01*
X87673704Y-124917200D01*
X87633194Y-125044200D01*
X87088514Y-125048670D01*
X86543835Y-125053139D01*
X86555944Y-125014803D01*
X86568274Y-124978719D01*
X86587938Y-124924118D01*
X86606182Y-124874867D01*
X86644311Y-124773267D01*
X87179489Y-124768796D01*
X87310223Y-124768096D01*
X87429388Y-124768215D01*
G36*
X89703223Y-124768313D02*
G01*
X89775072Y-124768796D01*
X90311477Y-124773267D01*
X90366029Y-124912967D01*
X90420582Y-125052667D01*
X89326115Y-125052667D01*
X89282391Y-124921376D01*
X89262097Y-124858959D01*
X89246810Y-124809121D01*
X89239112Y-124780373D01*
X89238667Y-124777205D01*
X89254927Y-124774197D01*
X89301024Y-124771715D01*
X89372929Y-124769823D01*
X89466616Y-124768583D01*
X89578056Y-124768058D01*
X89703223Y-124768313D01*
G37*
X89703223Y-124768313D02*
X89775072Y-124768796D01*
X90311477Y-124773267D01*
X90366029Y-124912967D01*
X90420582Y-125052667D01*
X89326115Y-125052667D01*
X89282391Y-124921376D01*
X89262097Y-124858959D01*
X89246810Y-124809121D01*
X89239112Y-124780373D01*
X89238667Y-124777205D01*
X89254927Y-124774197D01*
X89301024Y-124771715D01*
X89372929Y-124769823D01*
X89466616Y-124768583D01*
X89578056Y-124768058D01*
X89703223Y-124768313D01*
G36*
X92558299Y-124764957D02*
G01*
X92790620Y-124765413D01*
X93006635Y-124766152D01*
X93204379Y-124767154D01*
X93381892Y-124768401D01*
X93537212Y-124769875D01*
X93668375Y-124771557D01*
X93773420Y-124773428D01*
X93850384Y-124775470D01*
X93897306Y-124777665D01*
X93912267Y-124779872D01*
X93902982Y-124799513D01*
X93878131Y-124839378D01*
X93842219Y-124892414D01*
X93823025Y-124919572D01*
X93733782Y-125044200D01*
X90899376Y-125052860D01*
X90832992Y-124963863D01*
X90792971Y-124907414D01*
X90757538Y-124852670D01*
X90738803Y-124819833D01*
X90710997Y-124764800D01*
X92311632Y-124764800D01*
X92558299Y-124764957D01*
G37*
X92558299Y-124764957D02*
X92790620Y-124765413D01*
X93006635Y-124766152D01*
X93204379Y-124767154D01*
X93381892Y-124768401D01*
X93537212Y-124769875D01*
X93668375Y-124771557D01*
X93773420Y-124773428D01*
X93850384Y-124775470D01*
X93897306Y-124777665D01*
X93912267Y-124779872D01*
X93902982Y-124799513D01*
X93878131Y-124839378D01*
X93842219Y-124892414D01*
X93823025Y-124919572D01*
X93733782Y-125044200D01*
X90899376Y-125052860D01*
X90832992Y-124963863D01*
X90792971Y-124907414D01*
X90757538Y-124852670D01*
X90738803Y-124819833D01*
X90710997Y-124764800D01*
X92311632Y-124764800D01*
X92558299Y-124764957D01*
G36*
X85272693Y-124472700D02*
G01*
X85267800Y-124620867D01*
X84226400Y-124629823D01*
X84226400Y-124324534D01*
X85277585Y-124324534D01*
X85272693Y-124472700D01*
G37*
X85272693Y-124472700D02*
X85267800Y-124620867D01*
X84226400Y-124629823D01*
X84226400Y-124324534D01*
X85277585Y-124324534D01*
X85272693Y-124472700D01*
G36*
X90193968Y-124455767D02*
G01*
X90217475Y-124519276D01*
X90236891Y-124571705D01*
X90248855Y-124603981D01*
X90250410Y-124608167D01*
X90245619Y-124611676D01*
X90227406Y-124614800D01*
X90194152Y-124617559D01*
X90144237Y-124619971D01*
X90076045Y-124622056D01*
X89987955Y-124623834D01*
X89878349Y-124625323D01*
X89745608Y-124626545D01*
X89588114Y-124627517D01*
X89404247Y-124628260D01*
X89192390Y-124628792D01*
X88950923Y-124629134D01*
X88678228Y-124629305D01*
X88489767Y-124629333D01*
X88247932Y-124629249D01*
X88015692Y-124629004D01*
X87795281Y-124628609D01*
X87588933Y-124628076D01*
X87398880Y-124627416D01*
X87227356Y-124626640D01*
X87076595Y-124625759D01*
X86948829Y-124624785D01*
X86846293Y-124623730D01*
X86771220Y-124622603D01*
X86725842Y-124621418D01*
X86712261Y-124620350D01*
X86713747Y-124601564D01*
X86725277Y-124558814D01*
X86744662Y-124499715D01*
X86756006Y-124468073D01*
X86808734Y-124324779D01*
X88477070Y-124324656D01*
X90145406Y-124324534D01*
X90193968Y-124455767D01*
G37*
X90193968Y-124455767D02*
X90217475Y-124519276D01*
X90236891Y-124571705D01*
X90248855Y-124603981D01*
X90250410Y-124608167D01*
X90245619Y-124611676D01*
X90227406Y-124614800D01*
X90194152Y-124617559D01*
X90144237Y-124619971D01*
X90076045Y-124622056D01*
X89987955Y-124623834D01*
X89878349Y-124625323D01*
X89745608Y-124626545D01*
X89588114Y-124627517D01*
X89404247Y-124628260D01*
X89192390Y-124628792D01*
X88950923Y-124629134D01*
X88678228Y-124629305D01*
X88489767Y-124629333D01*
X88247932Y-124629249D01*
X88015692Y-124629004D01*
X87795281Y-124628609D01*
X87588933Y-124628076D01*
X87398880Y-124627416D01*
X87227356Y-124626640D01*
X87076595Y-124625759D01*
X86948829Y-124624785D01*
X86846293Y-124623730D01*
X86771220Y-124622603D01*
X86725842Y-124621418D01*
X86712261Y-124620350D01*
X86713747Y-124601564D01*
X86725277Y-124558814D01*
X86744662Y-124499715D01*
X86756006Y-124468073D01*
X86808734Y-124324779D01*
X88477070Y-124324656D01*
X90145406Y-124324534D01*
X90193968Y-124455767D01*
G36*
X91674127Y-124409971D02*
G01*
X91706902Y-124471387D01*
X91745408Y-124529891D01*
X91762928Y-124551907D01*
X91792985Y-124588294D01*
X91810608Y-124613793D01*
X91812533Y-124618869D01*
X91796244Y-124621321D01*
X91749950Y-124623570D01*
X91677513Y-124625544D01*
X91582796Y-124627177D01*
X91469659Y-124628397D01*
X91341966Y-124629135D01*
X91229014Y-124629333D01*
X90645494Y-124629333D01*
X90610947Y-124517483D01*
X90593238Y-124454377D01*
X90580778Y-124398954D01*
X90576400Y-124365083D01*
X90576400Y-124324534D01*
X91634932Y-124324534D01*
X91674127Y-124409971D01*
G37*
X91674127Y-124409971D02*
X91706902Y-124471387D01*
X91745408Y-124529891D01*
X91762928Y-124551907D01*
X91792985Y-124588294D01*
X91810608Y-124613793D01*
X91812533Y-124618869D01*
X91796244Y-124621321D01*
X91749950Y-124623570D01*
X91677513Y-124625544D01*
X91582796Y-124627177D01*
X91469659Y-124628397D01*
X91341966Y-124629135D01*
X91229014Y-124629333D01*
X90645494Y-124629333D01*
X90610947Y-124517483D01*
X90593238Y-124454377D01*
X90580778Y-124398954D01*
X90576400Y-124365083D01*
X90576400Y-124324534D01*
X91634932Y-124324534D01*
X91674127Y-124409971D01*
G36*
X94035396Y-124438833D02*
G01*
X94020055Y-124502915D01*
X94005368Y-124558345D01*
X93995158Y-124591233D01*
X93980838Y-124629333D01*
X93396219Y-124629333D01*
X93259331Y-124629055D01*
X93133828Y-124628262D01*
X93023566Y-124627022D01*
X92932406Y-124625400D01*
X92864204Y-124623462D01*
X92822819Y-124621276D01*
X92811600Y-124619325D01*
X92821724Y-124601886D01*
X92847708Y-124567898D01*
X92870061Y-124541019D01*
X92911815Y-124484296D01*
X92948402Y-124421545D01*
X92958961Y-124398691D01*
X92989400Y-124324660D01*
X93525358Y-124324597D01*
X94061315Y-124324534D01*
X94035396Y-124438833D01*
G37*
X94035396Y-124438833D02*
X94020055Y-124502915D01*
X94005368Y-124558345D01*
X93995158Y-124591233D01*
X93980838Y-124629333D01*
X93396219Y-124629333D01*
X93259331Y-124629055D01*
X93133828Y-124628262D01*
X93023566Y-124627022D01*
X92932406Y-124625400D01*
X92864204Y-124623462D01*
X92822819Y-124621276D01*
X92811600Y-124619325D01*
X92821724Y-124601886D01*
X92847708Y-124567898D01*
X92870061Y-124541019D01*
X92911815Y-124484296D01*
X92948402Y-124421545D01*
X92958961Y-124398691D01*
X92989400Y-124324660D01*
X93525358Y-124324597D01*
X94061315Y-124324534D01*
X94035396Y-124438833D01*
G36*
X85276267Y-124189067D02*
G01*
X84226400Y-124189067D01*
X84226400Y-123901200D01*
X85276267Y-123901200D01*
X85276267Y-124189067D01*
G37*
X85276267Y-124189067D02*
X84226400Y-124189067D01*
X84226400Y-123901200D01*
X85276267Y-123901200D01*
X85276267Y-124189067D01*
G36*
X90035725Y-124036667D02*
G01*
X90058853Y-124097486D01*
X90076219Y-124145940D01*
X90084834Y-124173595D01*
X90085271Y-124176367D01*
X90068735Y-124178184D01*
X90020657Y-124179924D01*
X89943365Y-124181568D01*
X89839183Y-124183097D01*
X89710438Y-124184493D01*
X89559456Y-124185738D01*
X89388562Y-124186814D01*
X89200082Y-124187702D01*
X88996342Y-124188383D01*
X88779668Y-124188839D01*
X88552385Y-124189053D01*
X88476667Y-124189067D01*
X88246437Y-124188933D01*
X88026059Y-124188546D01*
X87817859Y-124187922D01*
X87624163Y-124187082D01*
X87447297Y-124186043D01*
X87289586Y-124184825D01*
X87153356Y-124183447D01*
X87040934Y-124181926D01*
X86954646Y-124180283D01*
X86896817Y-124178535D01*
X86869773Y-124176702D01*
X86868000Y-124176091D01*
X86873701Y-124155173D01*
X86888832Y-124111226D01*
X86910435Y-124052741D01*
X86916674Y-124036391D01*
X86965348Y-123909667D01*
X89986241Y-123909667D01*
X90035725Y-124036667D01*
G37*
X90035725Y-124036667D02*
X90058853Y-124097486D01*
X90076219Y-124145940D01*
X90084834Y-124173595D01*
X90085271Y-124176367D01*
X90068735Y-124178184D01*
X90020657Y-124179924D01*
X89943365Y-124181568D01*
X89839183Y-124183097D01*
X89710438Y-124184493D01*
X89559456Y-124185738D01*
X89388562Y-124186814D01*
X89200082Y-124187702D01*
X88996342Y-124188383D01*
X88779668Y-124188839D01*
X88552385Y-124189053D01*
X88476667Y-124189067D01*
X88246437Y-124188933D01*
X88026059Y-124188546D01*
X87817859Y-124187922D01*
X87624163Y-124187082D01*
X87447297Y-124186043D01*
X87289586Y-124184825D01*
X87153356Y-124183447D01*
X87040934Y-124181926D01*
X86954646Y-124180283D01*
X86896817Y-124178535D01*
X86869773Y-124176702D01*
X86868000Y-124176091D01*
X86873701Y-124155173D01*
X86888832Y-124111226D01*
X86910435Y-124052741D01*
X86916674Y-124036391D01*
X86965348Y-123909667D01*
X89986241Y-123909667D01*
X90035725Y-124036667D01*
G36*
X91592400Y-124018349D02*
G01*
X91593829Y-124081468D01*
X91597570Y-124133369D01*
X91602679Y-124162282D01*
X91602842Y-124169759D01*
X91594751Y-124175716D01*
X91575083Y-124180320D01*
X91540515Y-124183743D01*
X91487725Y-124186153D01*
X91413389Y-124187720D01*
X91314185Y-124188613D01*
X91186790Y-124189003D01*
X91077745Y-124189067D01*
X90542534Y-124189067D01*
X90542534Y-123901200D01*
X91592400Y-123901200D01*
X91592400Y-124018349D01*
G37*
X91592400Y-124018349D02*
X91593829Y-124081468D01*
X91597570Y-124133369D01*
X91602679Y-124162282D01*
X91602842Y-124169759D01*
X91594751Y-124175716D01*
X91575083Y-124180320D01*
X91540515Y-124183743D01*
X91487725Y-124186153D01*
X91413389Y-124187720D01*
X91314185Y-124188613D01*
X91186790Y-124189003D01*
X91077745Y-124189067D01*
X90542534Y-124189067D01*
X90542534Y-123901200D01*
X91592400Y-123901200D01*
X91592400Y-124018349D01*
G36*
X94081600Y-124189067D02*
G01*
X93021509Y-124189067D01*
X93034218Y-124074767D01*
X93040858Y-124011946D01*
X93045766Y-123959694D01*
X93047797Y-123930834D01*
X93050009Y-123922451D01*
X93058440Y-123915810D01*
X93076602Y-123910711D01*
X93108011Y-123906951D01*
X93156179Y-123904329D01*
X93224620Y-123902645D01*
X93316847Y-123901696D01*
X93436374Y-123901282D01*
X93565134Y-123901200D01*
X94081600Y-123901200D01*
X94081600Y-124189067D01*
G37*
X94081600Y-124189067D02*
X93021509Y-124189067D01*
X93034218Y-124074767D01*
X93040858Y-124011946D01*
X93045766Y-123959694D01*
X93047797Y-123930834D01*
X93050009Y-123922451D01*
X93058440Y-123915810D01*
X93076602Y-123910711D01*
X93108011Y-123906951D01*
X93156179Y-123904329D01*
X93224620Y-123902645D01*
X93316847Y-123901696D01*
X93436374Y-123901282D01*
X93565134Y-123901200D01*
X94081600Y-123901200D01*
X94081600Y-124189067D01*
G36*
X86482616Y-123461000D02*
G01*
X86759179Y-123461213D01*
X87004965Y-123461587D01*
X87221522Y-123462140D01*
X87410395Y-123462888D01*
X87573129Y-123463849D01*
X87711270Y-123465039D01*
X87826363Y-123466475D01*
X87919954Y-123468174D01*
X87993588Y-123470153D01*
X88048811Y-123472428D01*
X88087169Y-123475016D01*
X88110207Y-123477935D01*
X88119470Y-123481200D01*
X88119814Y-123482100D01*
X88114665Y-123507651D01*
X88102178Y-123556042D01*
X88084848Y-123617707D01*
X88081175Y-123630267D01*
X88043789Y-123757267D01*
X86135094Y-123761573D01*
X84226400Y-123765879D01*
X84226400Y-123460934D01*
X86173733Y-123460934D01*
X86482616Y-123461000D01*
G37*
X86482616Y-123461000D02*
X86759179Y-123461213D01*
X87004965Y-123461587D01*
X87221522Y-123462140D01*
X87410395Y-123462888D01*
X87573129Y-123463849D01*
X87711270Y-123465039D01*
X87826363Y-123466475D01*
X87919954Y-123468174D01*
X87993588Y-123470153D01*
X88048811Y-123472428D01*
X88087169Y-123475016D01*
X88110207Y-123477935D01*
X88119470Y-123481200D01*
X88119814Y-123482100D01*
X88114665Y-123507651D01*
X88102178Y-123556042D01*
X88084848Y-123617707D01*
X88081175Y-123630267D01*
X88043789Y-123757267D01*
X86135094Y-123761573D01*
X84226400Y-123765879D01*
X84226400Y-123460934D01*
X86173733Y-123460934D01*
X86482616Y-123461000D01*
G36*
X89239111Y-123464262D02*
G01*
X89326792Y-123464911D01*
X89821317Y-123469400D01*
X89867594Y-123587934D01*
X89890186Y-123648134D01*
X89906990Y-123697328D01*
X89914759Y-123725939D01*
X89914935Y-123727634D01*
X89908058Y-123733945D01*
X89884799Y-123738959D01*
X89842276Y-123742796D01*
X89777606Y-123745577D01*
X89687904Y-123747424D01*
X89570290Y-123748458D01*
X89421879Y-123748799D01*
X89411392Y-123748800D01*
X88906785Y-123748800D01*
X88869526Y-123622157D01*
X88851793Y-123559756D01*
X88838639Y-123509412D01*
X88832456Y-123480382D01*
X88832267Y-123477968D01*
X88848317Y-123472280D01*
X88896691Y-123468075D01*
X88977724Y-123465342D01*
X89091753Y-123464074D01*
X89239111Y-123464262D01*
G37*
X89239111Y-123464262D02*
X89326792Y-123464911D01*
X89821317Y-123469400D01*
X89867594Y-123587934D01*
X89890186Y-123648134D01*
X89906990Y-123697328D01*
X89914759Y-123725939D01*
X89914935Y-123727634D01*
X89908058Y-123733945D01*
X89884799Y-123738959D01*
X89842276Y-123742796D01*
X89777606Y-123745577D01*
X89687904Y-123747424D01*
X89570290Y-123748458D01*
X89421879Y-123748799D01*
X89411392Y-123748800D01*
X88906785Y-123748800D01*
X88869526Y-123622157D01*
X88851793Y-123559756D01*
X88838639Y-123509412D01*
X88832456Y-123480382D01*
X88832267Y-123477968D01*
X88848317Y-123472280D01*
X88896691Y-123468075D01*
X88977724Y-123465342D01*
X89091753Y-123464074D01*
X89239111Y-123464262D01*
G36*
X91592400Y-123748800D02*
G01*
X90542534Y-123748800D01*
X90542534Y-123460934D01*
X91592400Y-123460934D01*
X91592400Y-123748800D01*
G37*
X91592400Y-123748800D02*
X90542534Y-123748800D01*
X90542534Y-123460934D01*
X91592400Y-123460934D01*
X91592400Y-123748800D01*
G36*
X94081600Y-123748800D02*
G01*
X93048667Y-123748800D01*
X93048667Y-123460934D01*
X94081600Y-123460934D01*
X94081600Y-123748800D01*
G37*
X94081600Y-123748800D02*
X93048667Y-123748800D01*
X93048667Y-123460934D01*
X94081600Y-123460934D01*
X94081600Y-123748800D01*
G36*
X86552149Y-123037648D02*
G01*
X86828813Y-123037802D01*
X87074932Y-123038084D01*
X87292166Y-123038511D01*
X87482176Y-123039104D01*
X87646622Y-123039881D01*
X87787166Y-123040862D01*
X87905467Y-123042065D01*
X88003187Y-123043511D01*
X88081985Y-123045218D01*
X88143523Y-123047205D01*
X88189461Y-123049492D01*
X88221459Y-123052098D01*
X88241179Y-123055042D01*
X88250281Y-123058344D01*
X88251239Y-123060840D01*
X88242242Y-123087768D01*
X88226860Y-123137027D01*
X88208261Y-123198454D01*
X88206377Y-123204773D01*
X88170433Y-123325467D01*
X84226400Y-123325467D01*
X84226400Y-123037600D01*
X86243279Y-123037600D01*
X86552149Y-123037648D01*
G37*
X86552149Y-123037648D02*
X86828813Y-123037802D01*
X87074932Y-123038084D01*
X87292166Y-123038511D01*
X87482176Y-123039104D01*
X87646622Y-123039881D01*
X87787166Y-123040862D01*
X87905467Y-123042065D01*
X88003187Y-123043511D01*
X88081985Y-123045218D01*
X88143523Y-123047205D01*
X88189461Y-123049492D01*
X88221459Y-123052098D01*
X88241179Y-123055042D01*
X88250281Y-123058344D01*
X88251239Y-123060840D01*
X88242242Y-123087768D01*
X88226860Y-123137027D01*
X88208261Y-123198454D01*
X88206377Y-123204773D01*
X88170433Y-123325467D01*
X84226400Y-123325467D01*
X84226400Y-123037600D01*
X86243279Y-123037600D01*
X86552149Y-123037648D01*
G36*
X89711318Y-123174514D02*
G01*
X89734860Y-123236922D01*
X89752901Y-123286185D01*
X89762648Y-123314621D01*
X89763600Y-123318447D01*
X89747369Y-123320236D01*
X89701484Y-123321856D01*
X89630159Y-123323248D01*
X89537605Y-123324352D01*
X89428037Y-123325106D01*
X89305666Y-123325452D01*
X89273251Y-123325467D01*
X88782901Y-123325467D01*
X88746957Y-123204773D01*
X88728213Y-123142698D01*
X88712374Y-123091791D01*
X88702608Y-123062214D01*
X88702095Y-123060840D01*
X88704227Y-123053949D01*
X88718697Y-123048520D01*
X88748783Y-123044391D01*
X88797763Y-123041402D01*
X88868913Y-123039393D01*
X88965510Y-123038203D01*
X89090832Y-123037671D01*
X89176106Y-123037600D01*
X89659036Y-123037600D01*
X89711318Y-123174514D01*
G37*
X89711318Y-123174514D02*
X89734860Y-123236922D01*
X89752901Y-123286185D01*
X89762648Y-123314621D01*
X89763600Y-123318447D01*
X89747369Y-123320236D01*
X89701484Y-123321856D01*
X89630159Y-123323248D01*
X89537605Y-123324352D01*
X89428037Y-123325106D01*
X89305666Y-123325452D01*
X89273251Y-123325467D01*
X88782901Y-123325467D01*
X88746957Y-123204773D01*
X88728213Y-123142698D01*
X88712374Y-123091791D01*
X88702608Y-123062214D01*
X88702095Y-123060840D01*
X88704227Y-123053949D01*
X88718697Y-123048520D01*
X88748783Y-123044391D01*
X88797763Y-123041402D01*
X88868913Y-123039393D01*
X88965510Y-123038203D01*
X89090832Y-123037671D01*
X89176106Y-123037600D01*
X89659036Y-123037600D01*
X89711318Y-123174514D01*
G36*
X91592400Y-123325467D02*
G01*
X90542534Y-123325467D01*
X90542534Y-123037600D01*
X91592400Y-123037600D01*
X91592400Y-123325467D01*
G37*
X91592400Y-123325467D02*
X90542534Y-123325467D01*
X90542534Y-123037600D01*
X91592400Y-123037600D01*
X91592400Y-123325467D01*
G36*
X94081600Y-123325467D02*
G01*
X93048667Y-123325467D01*
X93048667Y-123037600D01*
X94081600Y-123037600D01*
X94081600Y-123325467D01*
G37*
X94081600Y-123325467D02*
X93048667Y-123325467D01*
X93048667Y-123037600D01*
X94081600Y-123037600D01*
X94081600Y-123325467D01*
G36*
X85276267Y-122885200D02*
G01*
X84226400Y-122885200D01*
X84226400Y-122597334D01*
X85276267Y-122597334D01*
X85276267Y-122885200D01*
G37*
X85276267Y-122885200D02*
X84226400Y-122885200D01*
X84226400Y-122597334D01*
X85276267Y-122597334D01*
X85276267Y-122885200D01*
G36*
X88348610Y-122728567D02*
G01*
X88329599Y-122791140D01*
X88315248Y-122840987D01*
X88308007Y-122869519D01*
X88307588Y-122872500D01*
X88291294Y-122875755D01*
X88245376Y-122878702D01*
X88174074Y-122881228D01*
X88081631Y-122883225D01*
X87972288Y-122884579D01*
X87850286Y-122885180D01*
X87822922Y-122885200D01*
X87682192Y-122885091D01*
X87571796Y-122884614D01*
X87488202Y-122883549D01*
X87427877Y-122881674D01*
X87387289Y-122878768D01*
X87362906Y-122874609D01*
X87351196Y-122868976D01*
X87348625Y-122861647D01*
X87350301Y-122855567D01*
X87361955Y-122825365D01*
X87381310Y-122774325D01*
X87404236Y-122713340D01*
X87404875Y-122711634D01*
X87447657Y-122597334D01*
X88389378Y-122597334D01*
X88348610Y-122728567D01*
G37*
X88348610Y-122728567D02*
X88329599Y-122791140D01*
X88315248Y-122840987D01*
X88308007Y-122869519D01*
X88307588Y-122872500D01*
X88291294Y-122875755D01*
X88245376Y-122878702D01*
X88174074Y-122881228D01*
X88081631Y-122883225D01*
X87972288Y-122884579D01*
X87850286Y-122885180D01*
X87822922Y-122885200D01*
X87682192Y-122885091D01*
X87571796Y-122884614D01*
X87488202Y-122883549D01*
X87427877Y-122881674D01*
X87387289Y-122878768D01*
X87362906Y-122874609D01*
X87351196Y-122868976D01*
X87348625Y-122861647D01*
X87350301Y-122855567D01*
X87361955Y-122825365D01*
X87381310Y-122774325D01*
X87404236Y-122713340D01*
X87404875Y-122711634D01*
X87447657Y-122597334D01*
X88389378Y-122597334D01*
X88348610Y-122728567D01*
G36*
X89030009Y-122601301D02*
G01*
X89496226Y-122605800D01*
X89534353Y-122707400D01*
X89556494Y-122767330D01*
X89575140Y-122819434D01*
X89584515Y-122847100D01*
X89596549Y-122885200D01*
X89121275Y-122885200D01*
X88998339Y-122884767D01*
X88887194Y-122883543D01*
X88792121Y-122881642D01*
X88717404Y-122879180D01*
X88667323Y-122876270D01*
X88646162Y-122873026D01*
X88645746Y-122872500D01*
X88640908Y-122851400D01*
X88628281Y-122806595D01*
X88610309Y-122746661D01*
X88604642Y-122728301D01*
X88563791Y-122596802D01*
X89030009Y-122601301D01*
G37*
X89030009Y-122601301D02*
X89496226Y-122605800D01*
X89534353Y-122707400D01*
X89556494Y-122767330D01*
X89575140Y-122819434D01*
X89584515Y-122847100D01*
X89596549Y-122885200D01*
X89121275Y-122885200D01*
X88998339Y-122884767D01*
X88887194Y-122883543D01*
X88792121Y-122881642D01*
X88717404Y-122879180D01*
X88667323Y-122876270D01*
X88646162Y-122873026D01*
X88645746Y-122872500D01*
X88640908Y-122851400D01*
X88628281Y-122806595D01*
X88610309Y-122746661D01*
X88604642Y-122728301D01*
X88563791Y-122596802D01*
X89030009Y-122601301D01*
G36*
X91592400Y-122885200D02*
G01*
X90542534Y-122885200D01*
X90542534Y-122597334D01*
X91592400Y-122597334D01*
X91592400Y-122885200D01*
G37*
X91592400Y-122885200D02*
X90542534Y-122885200D01*
X90542534Y-122597334D01*
X91592400Y-122597334D01*
X91592400Y-122885200D01*
G36*
X94081600Y-122885200D02*
G01*
X93048667Y-122885200D01*
X93048667Y-122597334D01*
X94081600Y-122597334D01*
X94081600Y-122885200D01*
G37*
X94081600Y-122885200D02*
X93048667Y-122885200D01*
X93048667Y-122597334D01*
X94081600Y-122597334D01*
X94081600Y-122885200D01*
G36*
X85276267Y-122461867D02*
G01*
X84226400Y-122461867D01*
X84226400Y-122174000D01*
X85276267Y-122174000D01*
X85276267Y-122461867D01*
G37*
X85276267Y-122461867D02*
X84226400Y-122461867D01*
X84226400Y-122174000D01*
X85276267Y-122174000D01*
X85276267Y-122461867D01*
G36*
X89386591Y-122313700D02*
G01*
X89437322Y-122453400D01*
X88995360Y-122457922D01*
X88875670Y-122458848D01*
X88766713Y-122459121D01*
X88673203Y-122458776D01*
X88599856Y-122457846D01*
X88551387Y-122456366D01*
X88532899Y-122454579D01*
X88516436Y-122434109D01*
X88502672Y-122394070D01*
X88501117Y-122386557D01*
X88488470Y-122341186D01*
X88474332Y-122329573D01*
X88459361Y-122351675D01*
X88448087Y-122389900D01*
X88433077Y-122453400D01*
X87494817Y-122462402D01*
X87526221Y-122381701D01*
X87549756Y-122318982D01*
X87571731Y-122256882D01*
X87578192Y-122237500D01*
X87598760Y-122174000D01*
X89335859Y-122174000D01*
X89386591Y-122313700D01*
G37*
X89386591Y-122313700D02*
X89437322Y-122453400D01*
X88995360Y-122457922D01*
X88875670Y-122458848D01*
X88766713Y-122459121D01*
X88673203Y-122458776D01*
X88599856Y-122457846D01*
X88551387Y-122456366D01*
X88532899Y-122454579D01*
X88516436Y-122434109D01*
X88502672Y-122394070D01*
X88501117Y-122386557D01*
X88488470Y-122341186D01*
X88474332Y-122329573D01*
X88459361Y-122351675D01*
X88448087Y-122389900D01*
X88433077Y-122453400D01*
X87494817Y-122462402D01*
X87526221Y-122381701D01*
X87549756Y-122318982D01*
X87571731Y-122256882D01*
X87578192Y-122237500D01*
X87598760Y-122174000D01*
X89335859Y-122174000D01*
X89386591Y-122313700D01*
G36*
X91592400Y-122461867D02*
G01*
X90542534Y-122461867D01*
X90542534Y-122174000D01*
X91592400Y-122174000D01*
X91592400Y-122461867D01*
G37*
X91592400Y-122461867D02*
X90542534Y-122461867D01*
X90542534Y-122174000D01*
X91592400Y-122174000D01*
X91592400Y-122461867D01*
G36*
X94081600Y-122461867D02*
G01*
X93048667Y-122461867D01*
X93048667Y-122174000D01*
X94081600Y-122174000D01*
X94081600Y-122461867D01*
G37*
X94081600Y-122461867D02*
X93048667Y-122461867D01*
X93048667Y-122174000D01*
X94081600Y-122174000D01*
X94081600Y-122461867D01*
G36*
X87426800Y-122021600D02*
G01*
X84226400Y-122021600D01*
X84226400Y-121733734D01*
X87426800Y-121733734D01*
X87426800Y-122021600D01*
G37*
X87426800Y-122021600D02*
X84226400Y-122021600D01*
X84226400Y-121733734D01*
X87426800Y-121733734D01*
X87426800Y-122021600D01*
G36*
X89209889Y-121847850D02*
G01*
X89233489Y-121908836D01*
X89253244Y-121960258D01*
X89265012Y-121991326D01*
X89265248Y-121991967D01*
X89266221Y-121998807D01*
X89261809Y-122004508D01*
X89249239Y-122009173D01*
X89225738Y-122012906D01*
X89188530Y-122015810D01*
X89134844Y-122017987D01*
X89061905Y-122019542D01*
X88966940Y-122020577D01*
X88847174Y-122021196D01*
X88699834Y-122021501D01*
X88522147Y-122021597D01*
X88468871Y-122021600D01*
X87661585Y-122021600D01*
X87673619Y-121983500D01*
X87685905Y-121947555D01*
X87705535Y-121893060D01*
X87723784Y-121843800D01*
X87761915Y-121742200D01*
X89165439Y-121733366D01*
X89209889Y-121847850D01*
G37*
X89209889Y-121847850D02*
X89233489Y-121908836D01*
X89253244Y-121960258D01*
X89265012Y-121991326D01*
X89265248Y-121991967D01*
X89266221Y-121998807D01*
X89261809Y-122004508D01*
X89249239Y-122009173D01*
X89225738Y-122012906D01*
X89188530Y-122015810D01*
X89134844Y-122017987D01*
X89061905Y-122019542D01*
X88966940Y-122020577D01*
X88847174Y-122021196D01*
X88699834Y-122021501D01*
X88522147Y-122021597D01*
X88468871Y-122021600D01*
X87661585Y-122021600D01*
X87673619Y-121983500D01*
X87685905Y-121947555D01*
X87705535Y-121893060D01*
X87723784Y-121843800D01*
X87761915Y-121742200D01*
X89165439Y-121733366D01*
X89209889Y-121847850D01*
G36*
X91592400Y-122021600D02*
G01*
X90542534Y-122021600D01*
X90542534Y-121733734D01*
X91592400Y-121733734D01*
X91592400Y-122021600D01*
G37*
X91592400Y-122021600D02*
X90542534Y-122021600D01*
X90542534Y-121733734D01*
X91592400Y-121733734D01*
X91592400Y-122021600D01*
G36*
X94081600Y-122021600D02*
G01*
X93048667Y-122021600D01*
X93048667Y-121733734D01*
X94081600Y-121733734D01*
X94081600Y-122021600D01*
G37*
X94081600Y-122021600D02*
X93048667Y-122021600D01*
X93048667Y-121733734D01*
X94081600Y-121733734D01*
X94081600Y-122021600D01*
G36*
X85822367Y-121297614D02*
G01*
X87418333Y-121301933D01*
X87428119Y-121598267D01*
X84226400Y-121598267D01*
X84226400Y-121293294D01*
X85822367Y-121297614D01*
G37*
X85822367Y-121297614D02*
X87418333Y-121301933D01*
X87428119Y-121598267D01*
X84226400Y-121598267D01*
X84226400Y-121293294D01*
X85822367Y-121297614D01*
G36*
X88322435Y-121296334D02*
G01*
X88470591Y-121297463D01*
X89004937Y-121301933D01*
X89060678Y-121450100D01*
X89116420Y-121598267D01*
X87816995Y-121598267D01*
X87860978Y-121475500D01*
X87884282Y-121412194D01*
X87905124Y-121358615D01*
X87919425Y-121325203D01*
X87920603Y-121322863D01*
X87926967Y-121314548D01*
X87938745Y-121307990D01*
X87959496Y-121303024D01*
X87992781Y-121299487D01*
X88042157Y-121297214D01*
X88111186Y-121296040D01*
X88203425Y-121295802D01*
X88322435Y-121296334D01*
G37*
X88322435Y-121296334D02*
X88470591Y-121297463D01*
X89004937Y-121301933D01*
X89060678Y-121450100D01*
X89116420Y-121598267D01*
X87816995Y-121598267D01*
X87860978Y-121475500D01*
X87884282Y-121412194D01*
X87905124Y-121358615D01*
X87919425Y-121325203D01*
X87920603Y-121322863D01*
X87926967Y-121314548D01*
X87938745Y-121307990D01*
X87959496Y-121303024D01*
X87992781Y-121299487D01*
X88042157Y-121297214D01*
X88111186Y-121296040D01*
X88203425Y-121295802D01*
X88322435Y-121296334D01*
G36*
X91063233Y-121297455D02*
G01*
X91583933Y-121301933D01*
X91593719Y-121598267D01*
X90542534Y-121598267D01*
X90542534Y-121292977D01*
X91063233Y-121297455D01*
G37*
X91063233Y-121297455D02*
X91583933Y-121301933D01*
X91593719Y-121598267D01*
X90542534Y-121598267D01*
X90542534Y-121292977D01*
X91063233Y-121297455D01*
G36*
X94081600Y-121598267D02*
G01*
X93048667Y-121598267D01*
X93048667Y-121293467D01*
X94081600Y-121293467D01*
X94081600Y-121598267D01*
G37*
X94081600Y-121598267D02*
X93048667Y-121598267D01*
X93048667Y-121293467D01*
X94081600Y-121293467D01*
X94081600Y-121598267D01*
D13*
%TO.C,AE1*%
X121829600Y-135238700D02*
X130973600Y-135238700D01*
X130973600Y-135238700D02*
X130973600Y-143747700D01*
X130973600Y-143747700D02*
X121829600Y-143747700D01*
X121829600Y-143747700D02*
X121829600Y-135238700D01*
X130973600Y-137524700D02*
X130973600Y-141334700D01*
X130973600Y-141334700D02*
X138085600Y-141334700D01*
X138085600Y-141334700D02*
X138085600Y-137524700D01*
X138085600Y-137524700D02*
X130973600Y-137524700D01*
%TO.C,U3*%
X87757000Y-138767000D02*
X89957000Y-138767000D01*
X87757000Y-138767000D02*
X85557000Y-138767000D01*
X87757000Y-131997000D02*
X89957000Y-131997000D01*
X87757000Y-131997000D02*
X84157000Y-131997000D01*
X86242850Y-132332000D02*
G75*
G03X86242850Y-132332000I-235850J0D01*
G01*
%TO.C,VOUTP*%
X75746300Y-167179300D02*
X78406300Y-167179300D01*
X75746300Y-167119300D02*
X75746300Y-167179300D01*
X78406300Y-167119300D02*
X78406300Y-167179300D01*
X75746300Y-167119300D02*
X78406300Y-167119300D01*
X75746300Y-165849300D02*
X75746300Y-164519300D01*
X75746300Y-164519300D02*
X77076300Y-164519300D01*
%TO.C,VOUTN*%
X67465900Y-163115300D02*
X70125900Y-163115300D01*
X67465900Y-163055300D02*
X67465900Y-163115300D01*
X70125900Y-163055300D02*
X70125900Y-163115300D01*
X67465900Y-163055300D02*
X70125900Y-163055300D01*
X67465900Y-161785300D02*
X67465900Y-160455300D01*
X67465900Y-160455300D02*
X68795900Y-160455300D01*
%TO.C,GND*%
X113378200Y-169211300D02*
X116038200Y-169211300D01*
X113378200Y-169151300D02*
X113378200Y-169211300D01*
X116038200Y-169151300D02*
X116038200Y-169211300D01*
X113378200Y-169151300D02*
X116038200Y-169151300D01*
X113378200Y-167881300D02*
X113378200Y-166551300D01*
X113378200Y-166551300D02*
X114708200Y-166551300D01*
X108728200Y-169211300D02*
X111388200Y-169211300D01*
X108728200Y-169151300D02*
X108728200Y-169211300D01*
X111388200Y-169151300D02*
X111388200Y-169211300D01*
X108728200Y-169151300D02*
X111388200Y-169151300D01*
X108728200Y-167881300D02*
X108728200Y-166551300D01*
X108728200Y-166551300D02*
X110058200Y-166551300D01*
%TO.C,V_meas*%
X101679700Y-164588500D02*
X104339700Y-164588500D01*
X101679700Y-164528500D02*
X101679700Y-164588500D01*
X104339700Y-164528500D02*
X104339700Y-164588500D01*
X101679700Y-164528500D02*
X104339700Y-164528500D01*
X101679700Y-163258500D02*
X101679700Y-161928500D01*
X101679700Y-161928500D02*
X103009700Y-161928500D01*
%TO.C,+10V*%
X96815600Y-135238800D02*
X99475600Y-135238800D01*
X96815600Y-135178800D02*
X96815600Y-135238800D01*
X99475600Y-135178800D02*
X99475600Y-135238800D01*
X96815600Y-135178800D02*
X99475600Y-135178800D01*
X96815600Y-133908800D02*
X96815600Y-132578800D01*
X96815600Y-132578800D02*
X98145600Y-132578800D01*
%TO.C,-10V*%
X69116900Y-142401600D02*
X71776900Y-142401600D01*
X69116900Y-142341600D02*
X69116900Y-142401600D01*
X71776900Y-142341600D02*
X71776900Y-142401600D01*
X69116900Y-142341600D02*
X71776900Y-142341600D01*
X69116900Y-141071600D02*
X69116900Y-139741600D01*
X69116900Y-139741600D02*
X70446900Y-139741600D01*
%TO.C,+3V3*%
X108448800Y-159025900D02*
X111108800Y-159025900D01*
X108448800Y-158965900D02*
X108448800Y-159025900D01*
X111108800Y-158965900D02*
X111108800Y-159025900D01*
X108448800Y-158965900D02*
X111108800Y-158965900D01*
X108448800Y-157695900D02*
X108448800Y-156365900D01*
X108448800Y-156365900D02*
X109778800Y-156365900D01*
%TO.C,+5V*%
X67161100Y-137194600D02*
X69821100Y-137194600D01*
X67161100Y-137134600D02*
X67161100Y-137194600D01*
X69821100Y-137134600D02*
X69821100Y-137194600D01*
X67161100Y-137134600D02*
X69821100Y-137134600D01*
X67161100Y-135864600D02*
X67161100Y-134534600D01*
X67161100Y-134534600D02*
X68491100Y-134534600D01*
%TO.C,J3*%
X73185900Y-115134400D02*
X73185900Y-117734400D01*
X73185900Y-115134400D02*
X124105900Y-115134400D01*
X124105900Y-115134400D02*
X124105900Y-120334400D01*
X75785900Y-120334400D02*
X124105900Y-120334400D01*
X75785900Y-117734400D02*
X75785900Y-120334400D01*
X73185900Y-117734400D02*
X75785900Y-117734400D01*
X73185900Y-120334400D02*
X74515900Y-120334400D01*
X73185900Y-119004400D02*
X73185900Y-120334400D01*
%TO.C,R2*%
X120010436Y-156690000D02*
X121214564Y-156690000D01*
X120010436Y-158510000D02*
X121214564Y-158510000D01*
%TO.C,J2*%
X79830047Y-146713406D02*
X79830047Y-158713406D01*
X66331700Y-146699200D02*
X66331700Y-158699200D01*
X79830047Y-146713406D02*
X66330047Y-146713406D01*
X79830047Y-158713406D02*
X66330047Y-158713406D01*
X66428869Y-150880244D02*
X69428869Y-150880244D01*
X69428869Y-150880244D02*
X69428869Y-153880244D01*
X69428869Y-153880244D02*
X66428869Y-153880244D01*
%TO.C,C14*%
X119840000Y-133860000D02*
X123690000Y-133860000D01*
X130560000Y-133860000D02*
X126710000Y-133860000D01*
X130560000Y-124204437D02*
X130560000Y-133860000D01*
X119840000Y-124204437D02*
X119840000Y-133860000D01*
X120904437Y-123140000D02*
X123690000Y-123140000D01*
X129495563Y-123140000D02*
X126710000Y-123140000D01*
X129495563Y-123140000D02*
X130560000Y-124204437D01*
X120904437Y-123140000D02*
X119840000Y-124204437D01*
X127960000Y-121650000D02*
X127960000Y-122900000D01*
X128585000Y-122275000D02*
X127335000Y-122275000D01*
%TO.C,C3*%
X66687100Y-133160100D02*
X70537100Y-133160100D01*
X77407100Y-133160100D02*
X73557100Y-133160100D01*
X77407100Y-123504537D02*
X77407100Y-133160100D01*
X66687100Y-123504537D02*
X66687100Y-133160100D01*
X67751537Y-122440100D02*
X70537100Y-122440100D01*
X76342663Y-122440100D02*
X73557100Y-122440100D01*
X76342663Y-122440100D02*
X77407100Y-123504537D01*
X67751537Y-122440100D02*
X66687100Y-123504537D01*
X74807100Y-120950100D02*
X74807100Y-122200100D01*
X75432100Y-121575100D02*
X74182100Y-121575100D01*
%TO.C,U1*%
X119110000Y-145140000D02*
X119110000Y-143460000D01*
X106690000Y-145140000D02*
X106690000Y-143460000D01*
X119110000Y-137290000D02*
X106690000Y-137290000D01*
X119110000Y-153510000D02*
X106690000Y-153510000D01*
X119110000Y-137740000D02*
X119110000Y-137290000D01*
X106690000Y-153510000D02*
X106690000Y-153060000D01*
X106690000Y-137740000D02*
X106690000Y-137300000D01*
X119110000Y-153510000D02*
X119110000Y-153060000D01*
X119800000Y-153060000D02*
X119110000Y-153060000D01*
%TO.C,SW1*%
X126080000Y-155050000D02*
X126080000Y-145150000D01*
X130920000Y-155050000D02*
X130920000Y-145150000D01*
X126080000Y-155050000D02*
X127700000Y-155050000D01*
X129300000Y-155050000D02*
X130920000Y-155050000D01*
X126080000Y-145150000D02*
X127700000Y-145150000D01*
X129300000Y-145150000D02*
X130920000Y-145150000D01*
X125840000Y-155290000D02*
X125840000Y-153906000D01*
X125840000Y-155290000D02*
X127223000Y-155290000D01*
X127865000Y-152130000D02*
X129135000Y-152130000D01*
X129135000Y-152130000D02*
X129135000Y-148070000D01*
X129135000Y-148070000D02*
X127865000Y-148070000D01*
X127865000Y-148070000D02*
X127865000Y-152130000D01*
X127985000Y-152130000D02*
X127985000Y-150776667D01*
X128105000Y-152130000D02*
X128105000Y-150776667D01*
X128225000Y-152130000D02*
X128225000Y-150776667D01*
X128345000Y-152130000D02*
X128345000Y-150776667D01*
X128465000Y-152130000D02*
X128465000Y-150776667D01*
X128585000Y-152130000D02*
X128585000Y-150776667D01*
X128705000Y-152130000D02*
X128705000Y-150776667D01*
X128825000Y-152130000D02*
X128825000Y-150776667D01*
X128945000Y-152130000D02*
X128945000Y-150776667D01*
X129065000Y-152130000D02*
X129065000Y-150776667D01*
X127865000Y-150776667D02*
X129135000Y-150776667D01*
%TO.C,R20*%
X103085436Y-156790000D02*
X104289564Y-156790000D01*
X103085436Y-158610000D02*
X104289564Y-158610000D01*
%TO.C,R19*%
X103085436Y-159190000D02*
X104289564Y-159190000D01*
X103085436Y-161010000D02*
X104289564Y-161010000D01*
%TO.C,R18*%
X99589000Y-139859936D02*
X99589000Y-141064064D01*
X97769000Y-139859936D02*
X97769000Y-141064064D01*
%TO.C,R17*%
X102510000Y-139642436D02*
X102510000Y-140846564D01*
X100690000Y-139642436D02*
X100690000Y-140846564D01*
%TO.C,R16*%
X77085436Y-138028000D02*
X78289564Y-138028000D01*
X77085436Y-139848000D02*
X78289564Y-139848000D01*
%TO.C,R15*%
X77219564Y-142388000D02*
X76015436Y-142388000D01*
X77219564Y-140568000D02*
X76015436Y-140568000D01*
%TO.C,R14*%
X94467000Y-158753564D02*
X94467000Y-157549436D01*
X96287000Y-158753564D02*
X96287000Y-157549436D01*
%TO.C,R13*%
X93366000Y-163318436D02*
X93366000Y-164522564D01*
X91546000Y-163318436D02*
X91546000Y-164522564D01*
%TO.C,R12*%
X87572436Y-163301000D02*
X88776564Y-163301000D01*
X87572436Y-165121000D02*
X88776564Y-165121000D01*
%TO.C,R11*%
X84603000Y-163264436D02*
X84603000Y-164468564D01*
X82783000Y-163264436D02*
X82783000Y-164468564D01*
%TO.C,R10*%
X82924236Y-156341400D02*
X84128364Y-156341400D01*
X82924236Y-158161400D02*
X84128364Y-158161400D01*
%TO.C,R8*%
X83117100Y-152929836D02*
X83117100Y-154133964D01*
X81297100Y-152929836D02*
X81297100Y-154133964D01*
%TO.C,R7*%
X95750464Y-147341000D02*
X94546336Y-147341000D01*
X95750464Y-145521000D02*
X94546336Y-145521000D01*
%TO.C,R3*%
X114110436Y-154290000D02*
X115314564Y-154290000D01*
X114110436Y-156110000D02*
X115314564Y-156110000D01*
%TO.C,R1*%
X119985436Y-154090000D02*
X121189564Y-154090000D01*
X119985436Y-155910000D02*
X121189564Y-155910000D01*
%TO.C,L1*%
X120890000Y-147189564D02*
X120890000Y-145985436D01*
X122710000Y-147189564D02*
X122710000Y-145985436D01*
D14*
%TO.C,J1*%
X130200000Y-164500000D02*
X130750000Y-164500000D01*
X130750000Y-164500000D02*
X130750000Y-163850000D01*
X130150000Y-156300000D02*
X130750000Y-156300000D01*
X130750000Y-156300000D02*
X130750000Y-156700000D01*
X125050000Y-156800000D02*
X125050000Y-156300000D01*
X125050000Y-156300000D02*
X125750000Y-156300000D01*
X125050000Y-163750000D02*
X125050000Y-164200000D01*
X125050000Y-164200000D02*
X125400000Y-164500000D01*
X125400000Y-164500000D02*
X125700000Y-164500000D01*
X125700000Y-164500000D02*
X125700000Y-164650000D01*
D13*
%TO.C,D2*%
X122550000Y-161450000D02*
X120850000Y-161450000D01*
X120850000Y-161450000D02*
X120850000Y-164600000D01*
X122550000Y-161450000D02*
X122550000Y-164600000D01*
%TO.C,D1*%
X120350000Y-162850000D02*
X118650000Y-162850000D01*
X118650000Y-162850000D02*
X118650000Y-166000000D01*
X120350000Y-162850000D02*
X120350000Y-166000000D01*
%TO.C,C37*%
X104289564Y-156310000D02*
X103085436Y-156310000D01*
X104289564Y-154490000D02*
X103085436Y-154490000D01*
%TO.C,C30*%
X97176000Y-139859936D02*
X97176000Y-141064064D01*
X95356000Y-139859936D02*
X95356000Y-141064064D01*
%TO.C,C29*%
X94636000Y-139859936D02*
X94636000Y-141064064D01*
X92816000Y-139859936D02*
X92816000Y-141064064D01*
%TO.C,C28*%
X87626436Y-139171000D02*
X88830564Y-139171000D01*
X87626436Y-140991000D02*
X88830564Y-140991000D01*
%TO.C,C27*%
X83037000Y-142297564D02*
X83037000Y-141093436D01*
X84857000Y-142297564D02*
X84857000Y-141093436D01*
%TO.C,C26*%
X83314564Y-131410000D02*
X82110436Y-131410000D01*
X83314564Y-129590000D02*
X82110436Y-129590000D01*
%TO.C,C25*%
X76396436Y-134726000D02*
X77600564Y-134726000D01*
X76396436Y-136546000D02*
X77600564Y-136546000D01*
%TO.C,C24*%
X80624000Y-140900564D02*
X80624000Y-139696436D01*
X82444000Y-140900564D02*
X82444000Y-139696436D01*
%TO.C,C22*%
X94467000Y-164722564D02*
X94467000Y-163518436D01*
X96287000Y-164722564D02*
X96287000Y-163518436D01*
%TO.C,C21*%
X100812064Y-150135000D02*
X99607936Y-150135000D01*
X100812064Y-148315000D02*
X99607936Y-148315000D01*
%TO.C,C20*%
X94557436Y-148315000D02*
X95761564Y-148315000D01*
X94557436Y-150135000D02*
X95761564Y-150135000D01*
%TO.C,C19*%
X99589000Y-163064436D02*
X99589000Y-164268564D01*
X97769000Y-163064436D02*
X97769000Y-164268564D01*
%TO.C,C18*%
X100812064Y-152502000D02*
X99607936Y-152502000D01*
X100812064Y-150682000D02*
X99607936Y-150682000D01*
%TO.C,C17*%
X94557436Y-150728000D02*
X95761564Y-150728000D01*
X94557436Y-152548000D02*
X95761564Y-152548000D01*
%TO.C,C16*%
X84524436Y-167111000D02*
X85728564Y-167111000D01*
X84524436Y-168931000D02*
X85728564Y-168931000D01*
%TO.C,C15*%
X81593100Y-163674036D02*
X81593100Y-164878164D01*
X79773100Y-163674036D02*
X79773100Y-164878164D01*
%TO.C,C13*%
X82925836Y-158602000D02*
X84129964Y-158602000D01*
X82925836Y-160422000D02*
X84129964Y-160422000D01*
%TO.C,C11*%
X77803764Y-161209400D02*
X76599636Y-161209400D01*
X77803764Y-159389400D02*
X76599636Y-159389400D01*
%TO.C,C7*%
X79688936Y-121340200D02*
X80893064Y-121340200D01*
X79688936Y-123160200D02*
X80893064Y-123160200D01*
%TO.C,C2*%
X123390000Y-147189564D02*
X123390000Y-145985436D01*
X125210000Y-147189564D02*
X125210000Y-145985436D01*
%TO.C,AE1*%
D10*
X121350066Y-137780566D02*
X121350066Y-137304376D01*
X121635780Y-137875804D02*
X120635780Y-137542471D01*
X121635780Y-137209138D01*
X121111971Y-136875804D02*
X121111971Y-136542471D01*
X121635780Y-136399614D02*
X121635780Y-136875804D01*
X120635780Y-136875804D01*
X120635780Y-136399614D01*
X121635780Y-135447233D02*
X121635780Y-136018661D01*
X121635780Y-135732947D02*
X120635780Y-135732947D01*
X120778638Y-135828185D01*
X120873876Y-135923423D01*
X120921495Y-136018661D01*
%TO.C,U3*%
X86995095Y-130634380D02*
X86995095Y-131443904D01*
X87042714Y-131539142D01*
X87090333Y-131586761D01*
X87185571Y-131634380D01*
X87376047Y-131634380D01*
X87471285Y-131586761D01*
X87518904Y-131539142D01*
X87566523Y-131443904D01*
X87566523Y-130634380D01*
X87947476Y-130634380D02*
X88566523Y-130634380D01*
X88233190Y-131015333D01*
X88376047Y-131015333D01*
X88471285Y-131062952D01*
X88518904Y-131110571D01*
X88566523Y-131205809D01*
X88566523Y-131443904D01*
X88518904Y-131539142D01*
X88471285Y-131586761D01*
X88376047Y-131634380D01*
X88090333Y-131634380D01*
X87995095Y-131586761D01*
X87947476Y-131539142D01*
%TO.C,VOUTP*%
X74852495Y-167930580D02*
X75185828Y-168930580D01*
X75519161Y-167930580D01*
X76042971Y-167930580D02*
X76233447Y-167930580D01*
X76328685Y-167978200D01*
X76423923Y-168073438D01*
X76471542Y-168263914D01*
X76471542Y-168597247D01*
X76423923Y-168787723D01*
X76328685Y-168882961D01*
X76233447Y-168930580D01*
X76042971Y-168930580D01*
X75947733Y-168882961D01*
X75852495Y-168787723D01*
X75804876Y-168597247D01*
X75804876Y-168263914D01*
X75852495Y-168073438D01*
X75947733Y-167978200D01*
X76042971Y-167930580D01*
X76900114Y-167930580D02*
X76900114Y-168740104D01*
X76947733Y-168835342D01*
X76995352Y-168882961D01*
X77090590Y-168930580D01*
X77281066Y-168930580D01*
X77376304Y-168882961D01*
X77423923Y-168835342D01*
X77471542Y-168740104D01*
X77471542Y-167930580D01*
X77804876Y-167930580D02*
X78376304Y-167930580D01*
X78090590Y-168930580D02*
X78090590Y-167930580D01*
X78709638Y-168930580D02*
X78709638Y-167930580D01*
X79090590Y-167930580D01*
X79185828Y-167978200D01*
X79233447Y-168025819D01*
X79281066Y-168121057D01*
X79281066Y-168263914D01*
X79233447Y-168359152D01*
X79185828Y-168406771D01*
X79090590Y-168454390D01*
X78709638Y-168454390D01*
%TO.C,VOUTN*%
X66510185Y-158907680D02*
X66843519Y-159907680D01*
X67176852Y-158907680D01*
X67700661Y-158907680D02*
X67891138Y-158907680D01*
X67986376Y-158955300D01*
X68081614Y-159050538D01*
X68129233Y-159241014D01*
X68129233Y-159574347D01*
X68081614Y-159764823D01*
X67986376Y-159860061D01*
X67891138Y-159907680D01*
X67700661Y-159907680D01*
X67605423Y-159860061D01*
X67510185Y-159764823D01*
X67462566Y-159574347D01*
X67462566Y-159241014D01*
X67510185Y-159050538D01*
X67605423Y-158955300D01*
X67700661Y-158907680D01*
X68557804Y-158907680D02*
X68557804Y-159717204D01*
X68605423Y-159812442D01*
X68653042Y-159860061D01*
X68748280Y-159907680D01*
X68938757Y-159907680D01*
X69033995Y-159860061D01*
X69081614Y-159812442D01*
X69129233Y-159717204D01*
X69129233Y-158907680D01*
X69462566Y-158907680D02*
X70033995Y-158907680D01*
X69748280Y-159907680D02*
X69748280Y-158907680D01*
X70367328Y-159907680D02*
X70367328Y-158907680D01*
X70938757Y-159907680D01*
X70938757Y-158907680D01*
%TO.C,GND*%
X113946295Y-165051300D02*
X113851057Y-165003680D01*
X113708200Y-165003680D01*
X113565342Y-165051300D01*
X113470104Y-165146538D01*
X113422485Y-165241776D01*
X113374866Y-165432252D01*
X113374866Y-165575109D01*
X113422485Y-165765585D01*
X113470104Y-165860823D01*
X113565342Y-165956061D01*
X113708200Y-166003680D01*
X113803438Y-166003680D01*
X113946295Y-165956061D01*
X113993914Y-165908442D01*
X113993914Y-165575109D01*
X113803438Y-165575109D01*
X114422485Y-166003680D02*
X114422485Y-165003680D01*
X114993914Y-166003680D01*
X114993914Y-165003680D01*
X115470104Y-166003680D02*
X115470104Y-165003680D01*
X115708200Y-165003680D01*
X115851057Y-165051300D01*
X115946295Y-165146538D01*
X115993914Y-165241776D01*
X116041533Y-165432252D01*
X116041533Y-165575109D01*
X115993914Y-165765585D01*
X115946295Y-165860823D01*
X115851057Y-165956061D01*
X115708200Y-166003680D01*
X115470104Y-166003680D01*
X109296295Y-165051300D02*
X109201057Y-165003680D01*
X109058200Y-165003680D01*
X108915342Y-165051300D01*
X108820104Y-165146538D01*
X108772485Y-165241776D01*
X108724866Y-165432252D01*
X108724866Y-165575109D01*
X108772485Y-165765585D01*
X108820104Y-165860823D01*
X108915342Y-165956061D01*
X109058200Y-166003680D01*
X109153438Y-166003680D01*
X109296295Y-165956061D01*
X109343914Y-165908442D01*
X109343914Y-165575109D01*
X109153438Y-165575109D01*
X109772485Y-166003680D02*
X109772485Y-165003680D01*
X110343914Y-166003680D01*
X110343914Y-165003680D01*
X110820104Y-166003680D02*
X110820104Y-165003680D01*
X111058200Y-165003680D01*
X111201057Y-165051300D01*
X111296295Y-165146538D01*
X111343914Y-165241776D01*
X111391533Y-165432252D01*
X111391533Y-165575109D01*
X111343914Y-165765585D01*
X111296295Y-165860823D01*
X111201057Y-165956061D01*
X111058200Y-166003680D01*
X110820104Y-166003680D01*
%TO.C,V_meas*%
X100876433Y-165200080D02*
X101209766Y-166200080D01*
X101543100Y-165200080D01*
X101638338Y-166295319D02*
X102400242Y-166295319D01*
X102638338Y-166200080D02*
X102638338Y-165533414D01*
X102638338Y-165628652D02*
X102685957Y-165581033D01*
X102781195Y-165533414D01*
X102924052Y-165533414D01*
X103019290Y-165581033D01*
X103066909Y-165676271D01*
X103066909Y-166200080D01*
X103066909Y-165676271D02*
X103114528Y-165581033D01*
X103209766Y-165533414D01*
X103352623Y-165533414D01*
X103447861Y-165581033D01*
X103495480Y-165676271D01*
X103495480Y-166200080D01*
X104352623Y-166152461D02*
X104257385Y-166200080D01*
X104066909Y-166200080D01*
X103971671Y-166152461D01*
X103924052Y-166057223D01*
X103924052Y-165676271D01*
X103971671Y-165581033D01*
X104066909Y-165533414D01*
X104257385Y-165533414D01*
X104352623Y-165581033D01*
X104400242Y-165676271D01*
X104400242Y-165771509D01*
X103924052Y-165866747D01*
X105257385Y-166200080D02*
X105257385Y-165676271D01*
X105209766Y-165581033D01*
X105114528Y-165533414D01*
X104924052Y-165533414D01*
X104828814Y-165581033D01*
X105257385Y-166152461D02*
X105162147Y-166200080D01*
X104924052Y-166200080D01*
X104828814Y-166152461D01*
X104781195Y-166057223D01*
X104781195Y-165961985D01*
X104828814Y-165866747D01*
X104924052Y-165819128D01*
X105162147Y-165819128D01*
X105257385Y-165771509D01*
X105685957Y-166152461D02*
X105781195Y-166200080D01*
X105971671Y-166200080D01*
X106066909Y-166152461D01*
X106114528Y-166057223D01*
X106114528Y-166009604D01*
X106066909Y-165914366D01*
X105971671Y-165866747D01*
X105828814Y-165866747D01*
X105733576Y-165819128D01*
X105685957Y-165723890D01*
X105685957Y-165676271D01*
X105733576Y-165581033D01*
X105828814Y-165533414D01*
X105971671Y-165533414D01*
X106066909Y-165581033D01*
%TO.C,+10V*%
X96409095Y-131592628D02*
X97171000Y-131592628D01*
X96790047Y-131973580D02*
X96790047Y-131211676D01*
X98171000Y-131973580D02*
X97599571Y-131973580D01*
X97885285Y-131973580D02*
X97885285Y-130973580D01*
X97790047Y-131116438D01*
X97694809Y-131211676D01*
X97599571Y-131259295D01*
X98790047Y-130973580D02*
X98885285Y-130973580D01*
X98980523Y-131021200D01*
X99028142Y-131068819D01*
X99075761Y-131164057D01*
X99123380Y-131354533D01*
X99123380Y-131592628D01*
X99075761Y-131783104D01*
X99028142Y-131878342D01*
X98980523Y-131925961D01*
X98885285Y-131973580D01*
X98790047Y-131973580D01*
X98694809Y-131925961D01*
X98647190Y-131878342D01*
X98599571Y-131783104D01*
X98551952Y-131592628D01*
X98551952Y-131354533D01*
X98599571Y-131164057D01*
X98647190Y-131068819D01*
X98694809Y-131021200D01*
X98790047Y-130973580D01*
X99409095Y-130973580D02*
X99742428Y-131973580D01*
X100075761Y-130973580D01*
%TO.C,-10V*%
X68494495Y-143479828D02*
X69256400Y-143479828D01*
X70256400Y-143860780D02*
X69684971Y-143860780D01*
X69970685Y-143860780D02*
X69970685Y-142860780D01*
X69875447Y-143003638D01*
X69780209Y-143098876D01*
X69684971Y-143146495D01*
X70875447Y-142860780D02*
X70970685Y-142860780D01*
X71065923Y-142908400D01*
X71113542Y-142956019D01*
X71161161Y-143051257D01*
X71208780Y-143241733D01*
X71208780Y-143479828D01*
X71161161Y-143670304D01*
X71113542Y-143765542D01*
X71065923Y-143813161D01*
X70970685Y-143860780D01*
X70875447Y-143860780D01*
X70780209Y-143813161D01*
X70732590Y-143765542D01*
X70684971Y-143670304D01*
X70637352Y-143479828D01*
X70637352Y-143241733D01*
X70684971Y-143051257D01*
X70732590Y-142956019D01*
X70780209Y-142908400D01*
X70875447Y-142860780D01*
X71494495Y-142860780D02*
X71827828Y-143860780D01*
X72161161Y-142860780D01*
%TO.C,+3V3*%
X107585095Y-160396228D02*
X108347000Y-160396228D01*
X107966047Y-160777180D02*
X107966047Y-160015276D01*
X108727952Y-159777180D02*
X109347000Y-159777180D01*
X109013666Y-160158133D01*
X109156523Y-160158133D01*
X109251761Y-160205752D01*
X109299380Y-160253371D01*
X109347000Y-160348609D01*
X109347000Y-160586704D01*
X109299380Y-160681942D01*
X109251761Y-160729561D01*
X109156523Y-160777180D01*
X108870809Y-160777180D01*
X108775571Y-160729561D01*
X108727952Y-160681942D01*
X109632714Y-159777180D02*
X109966047Y-160777180D01*
X110299380Y-159777180D01*
X110537476Y-159777180D02*
X111156523Y-159777180D01*
X110823190Y-160158133D01*
X110966047Y-160158133D01*
X111061285Y-160205752D01*
X111108904Y-160253371D01*
X111156523Y-160348609D01*
X111156523Y-160586704D01*
X111108904Y-160681942D01*
X111061285Y-160729561D01*
X110966047Y-160777180D01*
X110680333Y-160777180D01*
X110585095Y-160729561D01*
X110537476Y-160681942D01*
%TO.C,+5V*%
X66951385Y-138387128D02*
X67713290Y-138387128D01*
X67332338Y-138768080D02*
X67332338Y-138006176D01*
X68665671Y-137768080D02*
X68189480Y-137768080D01*
X68141861Y-138244271D01*
X68189480Y-138196652D01*
X68284719Y-138149033D01*
X68522814Y-138149033D01*
X68618052Y-138196652D01*
X68665671Y-138244271D01*
X68713290Y-138339509D01*
X68713290Y-138577604D01*
X68665671Y-138672842D01*
X68618052Y-138720461D01*
X68522814Y-138768080D01*
X68284719Y-138768080D01*
X68189480Y-138720461D01*
X68141861Y-138672842D01*
X68999004Y-137768080D02*
X69332338Y-138768080D01*
X69665671Y-137768080D01*
%TO.C,J3*%
X71198280Y-118067733D02*
X71912566Y-118067733D01*
X72055423Y-118115352D01*
X72150661Y-118210590D01*
X72198280Y-118353447D01*
X72198280Y-118448685D01*
X71198280Y-117686780D02*
X71198280Y-117067733D01*
X71579233Y-117401066D01*
X71579233Y-117258209D01*
X71626852Y-117162971D01*
X71674471Y-117115352D01*
X71769709Y-117067733D01*
X72007804Y-117067733D01*
X72103042Y-117115352D01*
X72150661Y-117162971D01*
X72198280Y-117258209D01*
X72198280Y-117543923D01*
X72150661Y-117639161D01*
X72103042Y-117686780D01*
%TO.C,R2*%
X120318233Y-159977080D02*
X119984900Y-159500890D01*
X119746804Y-159977080D02*
X119746804Y-158977080D01*
X120127757Y-158977080D01*
X120222995Y-159024700D01*
X120270614Y-159072319D01*
X120318233Y-159167557D01*
X120318233Y-159310414D01*
X120270614Y-159405652D01*
X120222995Y-159453271D01*
X120127757Y-159500890D01*
X119746804Y-159500890D01*
X120699185Y-159072319D02*
X120746804Y-159024700D01*
X120842042Y-158977080D01*
X121080138Y-158977080D01*
X121175376Y-159024700D01*
X121222995Y-159072319D01*
X121270614Y-159167557D01*
X121270614Y-159262795D01*
X121222995Y-159405652D01*
X120651566Y-159977080D01*
X121270614Y-159977080D01*
%TO.C,J2*%
X78609866Y-145413480D02*
X78609866Y-146127766D01*
X78562247Y-146270623D01*
X78467009Y-146365861D01*
X78324152Y-146413480D01*
X78228914Y-146413480D01*
X79038438Y-145508719D02*
X79086057Y-145461100D01*
X79181295Y-145413480D01*
X79419390Y-145413480D01*
X79514628Y-145461100D01*
X79562247Y-145508719D01*
X79609866Y-145603957D01*
X79609866Y-145699195D01*
X79562247Y-145842052D01*
X78990819Y-146413480D01*
X79609866Y-146413480D01*
%TO.C,C14*%
X121340642Y-122467642D02*
X121293023Y-122515261D01*
X121150166Y-122562880D01*
X121054928Y-122562880D01*
X120912071Y-122515261D01*
X120816833Y-122420023D01*
X120769214Y-122324785D01*
X120721595Y-122134309D01*
X120721595Y-121991452D01*
X120769214Y-121800976D01*
X120816833Y-121705738D01*
X120912071Y-121610500D01*
X121054928Y-121562880D01*
X121150166Y-121562880D01*
X121293023Y-121610500D01*
X121340642Y-121658119D01*
X122293023Y-122562880D02*
X121721595Y-122562880D01*
X122007309Y-122562880D02*
X122007309Y-121562880D01*
X121912071Y-121705738D01*
X121816833Y-121800976D01*
X121721595Y-121848595D01*
X123150166Y-121896214D02*
X123150166Y-122562880D01*
X122912071Y-121515261D02*
X122673976Y-122229547D01*
X123293023Y-122229547D01*
%TO.C,C3*%
X69492833Y-121896142D02*
X69445214Y-121943761D01*
X69302357Y-121991380D01*
X69207119Y-121991380D01*
X69064261Y-121943761D01*
X68969023Y-121848523D01*
X68921404Y-121753285D01*
X68873785Y-121562809D01*
X68873785Y-121419952D01*
X68921404Y-121229476D01*
X68969023Y-121134238D01*
X69064261Y-121039000D01*
X69207119Y-120991380D01*
X69302357Y-120991380D01*
X69445214Y-121039000D01*
X69492833Y-121086619D01*
X69826166Y-120991380D02*
X70445214Y-120991380D01*
X70111880Y-121372333D01*
X70254738Y-121372333D01*
X70349976Y-121419952D01*
X70397595Y-121467571D01*
X70445214Y-121562809D01*
X70445214Y-121800904D01*
X70397595Y-121896142D01*
X70349976Y-121943761D01*
X70254738Y-121991380D01*
X69969023Y-121991380D01*
X69873785Y-121943761D01*
X69826166Y-121896142D01*
%TO.C,U1*%
X113423795Y-135926580D02*
X113423795Y-136736104D01*
X113471414Y-136831342D01*
X113519033Y-136878961D01*
X113614271Y-136926580D01*
X113804747Y-136926580D01*
X113899985Y-136878961D01*
X113947604Y-136831342D01*
X113995223Y-136736104D01*
X113995223Y-135926580D01*
X114995223Y-136926580D02*
X114423795Y-136926580D01*
X114709509Y-136926580D02*
X114709509Y-135926580D01*
X114614271Y-136069438D01*
X114519033Y-136164676D01*
X114423795Y-136212295D01*
%TO.C,SW1*%
X125474361Y-153403133D02*
X125521980Y-153260276D01*
X125521980Y-153022180D01*
X125474361Y-152926942D01*
X125426742Y-152879323D01*
X125331504Y-152831704D01*
X125236266Y-152831704D01*
X125141028Y-152879323D01*
X125093409Y-152926942D01*
X125045790Y-153022180D01*
X124998171Y-153212657D01*
X124950552Y-153307895D01*
X124902933Y-153355514D01*
X124807695Y-153403133D01*
X124712457Y-153403133D01*
X124617219Y-153355514D01*
X124569600Y-153307895D01*
X124521980Y-153212657D01*
X124521980Y-152974561D01*
X124569600Y-152831704D01*
X124521980Y-152498371D02*
X125521980Y-152260276D01*
X124807695Y-152069800D01*
X125521980Y-151879323D01*
X124521980Y-151641228D01*
X125521980Y-150736466D02*
X125521980Y-151307895D01*
X125521980Y-151022180D02*
X124521980Y-151022180D01*
X124664838Y-151117419D01*
X124760076Y-151212657D01*
X124807695Y-151307895D01*
%TO.C,R20*%
X99026742Y-158402280D02*
X98693409Y-157926090D01*
X98455314Y-158402280D02*
X98455314Y-157402280D01*
X98836266Y-157402280D01*
X98931504Y-157449900D01*
X98979123Y-157497519D01*
X99026742Y-157592757D01*
X99026742Y-157735614D01*
X98979123Y-157830852D01*
X98931504Y-157878471D01*
X98836266Y-157926090D01*
X98455314Y-157926090D01*
X99407695Y-157497519D02*
X99455314Y-157449900D01*
X99550552Y-157402280D01*
X99788647Y-157402280D01*
X99883885Y-157449900D01*
X99931504Y-157497519D01*
X99979123Y-157592757D01*
X99979123Y-157687995D01*
X99931504Y-157830852D01*
X99360076Y-158402280D01*
X99979123Y-158402280D01*
X100598171Y-157402280D02*
X100693409Y-157402280D01*
X100788647Y-157449900D01*
X100836266Y-157497519D01*
X100883885Y-157592757D01*
X100931504Y-157783233D01*
X100931504Y-158021328D01*
X100883885Y-158211804D01*
X100836266Y-158307042D01*
X100788647Y-158354661D01*
X100693409Y-158402280D01*
X100598171Y-158402280D01*
X100502933Y-158354661D01*
X100455314Y-158307042D01*
X100407695Y-158211804D01*
X100360076Y-158021328D01*
X100360076Y-157783233D01*
X100407695Y-157592757D01*
X100455314Y-157497519D01*
X100502933Y-157449900D01*
X100598171Y-157402280D01*
%TO.C,R19*%
X99064842Y-160332680D02*
X98731509Y-159856490D01*
X98493414Y-160332680D02*
X98493414Y-159332680D01*
X98874366Y-159332680D01*
X98969604Y-159380300D01*
X99017223Y-159427919D01*
X99064842Y-159523157D01*
X99064842Y-159666014D01*
X99017223Y-159761252D01*
X98969604Y-159808871D01*
X98874366Y-159856490D01*
X98493414Y-159856490D01*
X100017223Y-160332680D02*
X99445795Y-160332680D01*
X99731509Y-160332680D02*
X99731509Y-159332680D01*
X99636271Y-159475538D01*
X99541033Y-159570776D01*
X99445795Y-159618395D01*
X100493414Y-160332680D02*
X100683890Y-160332680D01*
X100779128Y-160285061D01*
X100826747Y-160237442D01*
X100921985Y-160094585D01*
X100969604Y-159904109D01*
X100969604Y-159523157D01*
X100921985Y-159427919D01*
X100874366Y-159380300D01*
X100779128Y-159332680D01*
X100588652Y-159332680D01*
X100493414Y-159380300D01*
X100445795Y-159427919D01*
X100398176Y-159523157D01*
X100398176Y-159761252D01*
X100445795Y-159856490D01*
X100493414Y-159904109D01*
X100588652Y-159951728D01*
X100779128Y-159951728D01*
X100874366Y-159904109D01*
X100921985Y-159856490D01*
X100969604Y-159761252D01*
%TO.C,R18*%
X98518742Y-144127480D02*
X98185409Y-143651290D01*
X97947314Y-144127480D02*
X97947314Y-143127480D01*
X98328266Y-143127480D01*
X98423504Y-143175100D01*
X98471123Y-143222719D01*
X98518742Y-143317957D01*
X98518742Y-143460814D01*
X98471123Y-143556052D01*
X98423504Y-143603671D01*
X98328266Y-143651290D01*
X97947314Y-143651290D01*
X99471123Y-144127480D02*
X98899695Y-144127480D01*
X99185409Y-144127480D02*
X99185409Y-143127480D01*
X99090171Y-143270338D01*
X98994933Y-143365576D01*
X98899695Y-143413195D01*
X100042552Y-143556052D02*
X99947314Y-143508433D01*
X99899695Y-143460814D01*
X99852076Y-143365576D01*
X99852076Y-143317957D01*
X99899695Y-143222719D01*
X99947314Y-143175100D01*
X100042552Y-143127480D01*
X100233028Y-143127480D01*
X100328266Y-143175100D01*
X100375885Y-143222719D01*
X100423504Y-143317957D01*
X100423504Y-143365576D01*
X100375885Y-143460814D01*
X100328266Y-143508433D01*
X100233028Y-143556052D01*
X100042552Y-143556052D01*
X99947314Y-143603671D01*
X99899695Y-143651290D01*
X99852076Y-143746528D01*
X99852076Y-143937004D01*
X99899695Y-144032242D01*
X99947314Y-144079861D01*
X100042552Y-144127480D01*
X100233028Y-144127480D01*
X100328266Y-144079861D01*
X100375885Y-144032242D01*
X100423504Y-143937004D01*
X100423504Y-143746528D01*
X100375885Y-143651290D01*
X100328266Y-143603671D01*
X100233028Y-143556052D01*
%TO.C,R17*%
X104084380Y-141384257D02*
X103608190Y-141717590D01*
X104084380Y-141955685D02*
X103084380Y-141955685D01*
X103084380Y-141574733D01*
X103132000Y-141479495D01*
X103179619Y-141431876D01*
X103274857Y-141384257D01*
X103417714Y-141384257D01*
X103512952Y-141431876D01*
X103560571Y-141479495D01*
X103608190Y-141574733D01*
X103608190Y-141955685D01*
X104084380Y-140431876D02*
X104084380Y-141003304D01*
X104084380Y-140717590D02*
X103084380Y-140717590D01*
X103227238Y-140812828D01*
X103322476Y-140908066D01*
X103370095Y-141003304D01*
X103084380Y-140098542D02*
X103084380Y-139431876D01*
X104084380Y-139860447D01*
%TO.C,R16*%
X74950580Y-139339557D02*
X74474390Y-139672890D01*
X74950580Y-139910985D02*
X73950580Y-139910985D01*
X73950580Y-139530033D01*
X73998200Y-139434795D01*
X74045819Y-139387176D01*
X74141057Y-139339557D01*
X74283914Y-139339557D01*
X74379152Y-139387176D01*
X74426771Y-139434795D01*
X74474390Y-139530033D01*
X74474390Y-139910985D01*
X74950580Y-138387176D02*
X74950580Y-138958604D01*
X74950580Y-138672890D02*
X73950580Y-138672890D01*
X74093438Y-138768128D01*
X74188676Y-138863366D01*
X74236295Y-138958604D01*
X73950580Y-137530033D02*
X73950580Y-137720509D01*
X73998200Y-137815747D01*
X74045819Y-137863366D01*
X74188676Y-137958604D01*
X74379152Y-138006223D01*
X74760104Y-138006223D01*
X74855342Y-137958604D01*
X74902961Y-137910985D01*
X74950580Y-137815747D01*
X74950580Y-137625271D01*
X74902961Y-137530033D01*
X74855342Y-137482414D01*
X74760104Y-137434795D01*
X74522009Y-137434795D01*
X74426771Y-137482414D01*
X74379152Y-137530033D01*
X74331533Y-137625271D01*
X74331533Y-137815747D01*
X74379152Y-137910985D01*
X74426771Y-137958604D01*
X74522009Y-138006223D01*
%TO.C,R15*%
X75974642Y-143750380D02*
X75641309Y-143274190D01*
X75403214Y-143750380D02*
X75403214Y-142750380D01*
X75784166Y-142750380D01*
X75879404Y-142798000D01*
X75927023Y-142845619D01*
X75974642Y-142940857D01*
X75974642Y-143083714D01*
X75927023Y-143178952D01*
X75879404Y-143226571D01*
X75784166Y-143274190D01*
X75403214Y-143274190D01*
X76927023Y-143750380D02*
X76355595Y-143750380D01*
X76641309Y-143750380D02*
X76641309Y-142750380D01*
X76546071Y-142893238D01*
X76450833Y-142988476D01*
X76355595Y-143036095D01*
X77831785Y-142750380D02*
X77355595Y-142750380D01*
X77307976Y-143226571D01*
X77355595Y-143178952D01*
X77450833Y-143131333D01*
X77688928Y-143131333D01*
X77784166Y-143178952D01*
X77831785Y-143226571D01*
X77879404Y-143321809D01*
X77879404Y-143559904D01*
X77831785Y-143655142D01*
X77784166Y-143702761D01*
X77688928Y-143750380D01*
X77450833Y-143750380D01*
X77355595Y-143702761D01*
X77307976Y-143655142D01*
%TO.C,R14*%
X94009380Y-158794357D02*
X93533190Y-159127690D01*
X94009380Y-159365785D02*
X93009380Y-159365785D01*
X93009380Y-158984833D01*
X93057000Y-158889595D01*
X93104619Y-158841976D01*
X93199857Y-158794357D01*
X93342714Y-158794357D01*
X93437952Y-158841976D01*
X93485571Y-158889595D01*
X93533190Y-158984833D01*
X93533190Y-159365785D01*
X94009380Y-157841976D02*
X94009380Y-158413404D01*
X94009380Y-158127690D02*
X93009380Y-158127690D01*
X93152238Y-158222928D01*
X93247476Y-158318166D01*
X93295095Y-158413404D01*
X93342714Y-156984833D02*
X94009380Y-156984833D01*
X92961761Y-157222928D02*
X93676047Y-157461023D01*
X93676047Y-156841976D01*
%TO.C,R13*%
X91762342Y-167660580D02*
X91429009Y-167184390D01*
X91190914Y-167660580D02*
X91190914Y-166660580D01*
X91571866Y-166660580D01*
X91667104Y-166708200D01*
X91714723Y-166755819D01*
X91762342Y-166851057D01*
X91762342Y-166993914D01*
X91714723Y-167089152D01*
X91667104Y-167136771D01*
X91571866Y-167184390D01*
X91190914Y-167184390D01*
X92714723Y-167660580D02*
X92143295Y-167660580D01*
X92429009Y-167660580D02*
X92429009Y-166660580D01*
X92333771Y-166803438D01*
X92238533Y-166898676D01*
X92143295Y-166946295D01*
X93048057Y-166660580D02*
X93667104Y-166660580D01*
X93333771Y-167041533D01*
X93476628Y-167041533D01*
X93571866Y-167089152D01*
X93619485Y-167136771D01*
X93667104Y-167232009D01*
X93667104Y-167470104D01*
X93619485Y-167565342D01*
X93571866Y-167612961D01*
X93476628Y-167660580D01*
X93190914Y-167660580D01*
X93095676Y-167612961D01*
X93048057Y-167565342D01*
%TO.C,R12*%
X87368142Y-166492180D02*
X87034809Y-166015990D01*
X86796714Y-166492180D02*
X86796714Y-165492180D01*
X87177666Y-165492180D01*
X87272904Y-165539800D01*
X87320523Y-165587419D01*
X87368142Y-165682657D01*
X87368142Y-165825514D01*
X87320523Y-165920752D01*
X87272904Y-165968371D01*
X87177666Y-166015990D01*
X86796714Y-166015990D01*
X88320523Y-166492180D02*
X87749095Y-166492180D01*
X88034809Y-166492180D02*
X88034809Y-165492180D01*
X87939571Y-165635038D01*
X87844333Y-165730276D01*
X87749095Y-165777895D01*
X88701476Y-165587419D02*
X88749095Y-165539800D01*
X88844333Y-165492180D01*
X89082428Y-165492180D01*
X89177666Y-165539800D01*
X89225285Y-165587419D01*
X89272904Y-165682657D01*
X89272904Y-165777895D01*
X89225285Y-165920752D01*
X88653857Y-166492180D01*
X89272904Y-166492180D01*
%TO.C,R11*%
X85577442Y-162326580D02*
X85244109Y-161850390D01*
X85006014Y-162326580D02*
X85006014Y-161326580D01*
X85386966Y-161326580D01*
X85482204Y-161374200D01*
X85529823Y-161421819D01*
X85577442Y-161517057D01*
X85577442Y-161659914D01*
X85529823Y-161755152D01*
X85482204Y-161802771D01*
X85386966Y-161850390D01*
X85006014Y-161850390D01*
X86529823Y-162326580D02*
X85958395Y-162326580D01*
X86244109Y-162326580D02*
X86244109Y-161326580D01*
X86148871Y-161469438D01*
X86053633Y-161564676D01*
X85958395Y-161612295D01*
X87482204Y-162326580D02*
X86910776Y-162326580D01*
X87196490Y-162326580D02*
X87196490Y-161326580D01*
X87101252Y-161469438D01*
X87006014Y-161564676D01*
X86910776Y-161612295D01*
%TO.C,R10*%
X86809342Y-157716480D02*
X86476009Y-157240290D01*
X86237914Y-157716480D02*
X86237914Y-156716480D01*
X86618866Y-156716480D01*
X86714104Y-156764100D01*
X86761723Y-156811719D01*
X86809342Y-156906957D01*
X86809342Y-157049814D01*
X86761723Y-157145052D01*
X86714104Y-157192671D01*
X86618866Y-157240290D01*
X86237914Y-157240290D01*
X87761723Y-157716480D02*
X87190295Y-157716480D01*
X87476009Y-157716480D02*
X87476009Y-156716480D01*
X87380771Y-156859338D01*
X87285533Y-156954576D01*
X87190295Y-157002195D01*
X88380771Y-156716480D02*
X88476009Y-156716480D01*
X88571247Y-156764100D01*
X88618866Y-156811719D01*
X88666485Y-156906957D01*
X88714104Y-157097433D01*
X88714104Y-157335528D01*
X88666485Y-157526004D01*
X88618866Y-157621242D01*
X88571247Y-157668861D01*
X88476009Y-157716480D01*
X88380771Y-157716480D01*
X88285533Y-157668861D01*
X88237914Y-157621242D01*
X88190295Y-157526004D01*
X88142676Y-157335528D01*
X88142676Y-157097433D01*
X88190295Y-156906957D01*
X88237914Y-156811719D01*
X88285533Y-156764100D01*
X88380771Y-156716480D01*
%TO.C,R8*%
X81773733Y-150883880D02*
X81440400Y-150407690D01*
X81202304Y-150883880D02*
X81202304Y-149883880D01*
X81583257Y-149883880D01*
X81678495Y-149931500D01*
X81726114Y-149979119D01*
X81773733Y-150074357D01*
X81773733Y-150217214D01*
X81726114Y-150312452D01*
X81678495Y-150360071D01*
X81583257Y-150407690D01*
X81202304Y-150407690D01*
X82345161Y-150312452D02*
X82249923Y-150264833D01*
X82202304Y-150217214D01*
X82154685Y-150121976D01*
X82154685Y-150074357D01*
X82202304Y-149979119D01*
X82249923Y-149931500D01*
X82345161Y-149883880D01*
X82535638Y-149883880D01*
X82630876Y-149931500D01*
X82678495Y-149979119D01*
X82726114Y-150074357D01*
X82726114Y-150121976D01*
X82678495Y-150217214D01*
X82630876Y-150264833D01*
X82535638Y-150312452D01*
X82345161Y-150312452D01*
X82249923Y-150360071D01*
X82202304Y-150407690D01*
X82154685Y-150502928D01*
X82154685Y-150693404D01*
X82202304Y-150788642D01*
X82249923Y-150836261D01*
X82345161Y-150883880D01*
X82535638Y-150883880D01*
X82630876Y-150836261D01*
X82678495Y-150788642D01*
X82726114Y-150693404D01*
X82726114Y-150502928D01*
X82678495Y-150407690D01*
X82630876Y-150360071D01*
X82535638Y-150312452D01*
%TO.C,R7*%
X95350033Y-145245080D02*
X95016700Y-144768890D01*
X94778604Y-145245080D02*
X94778604Y-144245080D01*
X95159557Y-144245080D01*
X95254795Y-144292700D01*
X95302414Y-144340319D01*
X95350033Y-144435557D01*
X95350033Y-144578414D01*
X95302414Y-144673652D01*
X95254795Y-144721271D01*
X95159557Y-144768890D01*
X94778604Y-144768890D01*
X95683366Y-144245080D02*
X96350033Y-144245080D01*
X95921461Y-145245080D01*
%TO.C,R3*%
X114273033Y-157640280D02*
X113939700Y-157164090D01*
X113701604Y-157640280D02*
X113701604Y-156640280D01*
X114082557Y-156640280D01*
X114177795Y-156687900D01*
X114225414Y-156735519D01*
X114273033Y-156830757D01*
X114273033Y-156973614D01*
X114225414Y-157068852D01*
X114177795Y-157116471D01*
X114082557Y-157164090D01*
X113701604Y-157164090D01*
X114606366Y-156640280D02*
X115225414Y-156640280D01*
X114892080Y-157021233D01*
X115034938Y-157021233D01*
X115130176Y-157068852D01*
X115177795Y-157116471D01*
X115225414Y-157211709D01*
X115225414Y-157449804D01*
X115177795Y-157545042D01*
X115130176Y-157592661D01*
X115034938Y-157640280D01*
X114749223Y-157640280D01*
X114653985Y-157592661D01*
X114606366Y-157545042D01*
%TO.C,R1*%
X121715233Y-153665180D02*
X121381900Y-153188990D01*
X121143804Y-153665180D02*
X121143804Y-152665180D01*
X121524757Y-152665180D01*
X121619995Y-152712800D01*
X121667614Y-152760419D01*
X121715233Y-152855657D01*
X121715233Y-152998514D01*
X121667614Y-153093752D01*
X121619995Y-153141371D01*
X121524757Y-153188990D01*
X121143804Y-153188990D01*
X122667614Y-153665180D02*
X122096185Y-153665180D01*
X122381900Y-153665180D02*
X122381900Y-152665180D01*
X122286661Y-152808038D01*
X122191423Y-152903276D01*
X122096185Y-152950895D01*
%TO.C,L1*%
X121600933Y-150261580D02*
X121124742Y-150261580D01*
X121124742Y-149261580D01*
X122458076Y-150261580D02*
X121886647Y-150261580D01*
X122172361Y-150261580D02*
X122172361Y-149261580D01*
X122077123Y-149404438D01*
X121981885Y-149499676D01*
X121886647Y-149547295D01*
%TO.C,J1*%
X127773180Y-160734333D02*
X128487466Y-160734333D01*
X128630323Y-160781952D01*
X128725561Y-160877190D01*
X128773180Y-161020047D01*
X128773180Y-161115285D01*
X128773180Y-159734333D02*
X128773180Y-160305761D01*
X128773180Y-160020047D02*
X127773180Y-160020047D01*
X127916038Y-160115285D01*
X128011276Y-160210523D01*
X128058895Y-160305761D01*
%TO.C,D2*%
X121118404Y-166657280D02*
X121118404Y-165657280D01*
X121356500Y-165657280D01*
X121499357Y-165704900D01*
X121594595Y-165800138D01*
X121642214Y-165895376D01*
X121689833Y-166085852D01*
X121689833Y-166228709D01*
X121642214Y-166419185D01*
X121594595Y-166514423D01*
X121499357Y-166609661D01*
X121356500Y-166657280D01*
X121118404Y-166657280D01*
X122070785Y-165752519D02*
X122118404Y-165704900D01*
X122213642Y-165657280D01*
X122451738Y-165657280D01*
X122546976Y-165704900D01*
X122594595Y-165752519D01*
X122642214Y-165847757D01*
X122642214Y-165942995D01*
X122594595Y-166085852D01*
X122023166Y-166657280D01*
X122642214Y-166657280D01*
%TO.C,D1*%
X118819704Y-167939980D02*
X118819704Y-166939980D01*
X119057800Y-166939980D01*
X119200657Y-166987600D01*
X119295895Y-167082838D01*
X119343514Y-167178076D01*
X119391133Y-167368552D01*
X119391133Y-167511409D01*
X119343514Y-167701885D01*
X119295895Y-167797123D01*
X119200657Y-167892361D01*
X119057800Y-167939980D01*
X118819704Y-167939980D01*
X120343514Y-167939980D02*
X119772085Y-167939980D01*
X120057800Y-167939980D02*
X120057800Y-166939980D01*
X119962561Y-167082838D01*
X119867323Y-167178076D01*
X119772085Y-167225695D01*
%TO.C,C37*%
X98950542Y-155906742D02*
X98902923Y-155954361D01*
X98760066Y-156001980D01*
X98664828Y-156001980D01*
X98521971Y-155954361D01*
X98426733Y-155859123D01*
X98379114Y-155763885D01*
X98331495Y-155573409D01*
X98331495Y-155430552D01*
X98379114Y-155240076D01*
X98426733Y-155144838D01*
X98521971Y-155049600D01*
X98664828Y-155001980D01*
X98760066Y-155001980D01*
X98902923Y-155049600D01*
X98950542Y-155097219D01*
X99283876Y-155001980D02*
X99902923Y-155001980D01*
X99569590Y-155382933D01*
X99712447Y-155382933D01*
X99807685Y-155430552D01*
X99855304Y-155478171D01*
X99902923Y-155573409D01*
X99902923Y-155811504D01*
X99855304Y-155906742D01*
X99807685Y-155954361D01*
X99712447Y-156001980D01*
X99426733Y-156001980D01*
X99331495Y-155954361D01*
X99283876Y-155906742D01*
X100236257Y-155001980D02*
X100902923Y-155001980D01*
X100474352Y-156001980D01*
%TO.C,C30*%
X95585042Y-137821942D02*
X95537423Y-137869561D01*
X95394566Y-137917180D01*
X95299328Y-137917180D01*
X95156471Y-137869561D01*
X95061233Y-137774323D01*
X95013614Y-137679085D01*
X94965995Y-137488609D01*
X94965995Y-137345752D01*
X95013614Y-137155276D01*
X95061233Y-137060038D01*
X95156471Y-136964800D01*
X95299328Y-136917180D01*
X95394566Y-136917180D01*
X95537423Y-136964800D01*
X95585042Y-137012419D01*
X95918376Y-136917180D02*
X96537423Y-136917180D01*
X96204090Y-137298133D01*
X96346947Y-137298133D01*
X96442185Y-137345752D01*
X96489804Y-137393371D01*
X96537423Y-137488609D01*
X96537423Y-137726704D01*
X96489804Y-137821942D01*
X96442185Y-137869561D01*
X96346947Y-137917180D01*
X96061233Y-137917180D01*
X95965995Y-137869561D01*
X95918376Y-137821942D01*
X97156471Y-136917180D02*
X97251709Y-136917180D01*
X97346947Y-136964800D01*
X97394566Y-137012419D01*
X97442185Y-137107657D01*
X97489804Y-137298133D01*
X97489804Y-137536228D01*
X97442185Y-137726704D01*
X97394566Y-137821942D01*
X97346947Y-137869561D01*
X97251709Y-137917180D01*
X97156471Y-137917180D01*
X97061233Y-137869561D01*
X97013614Y-137821942D01*
X96965995Y-137726704D01*
X96918376Y-137536228D01*
X96918376Y-137298133D01*
X96965995Y-137107657D01*
X97013614Y-137012419D01*
X97061233Y-136964800D01*
X97156471Y-136917180D01*
%TO.C,C29*%
X92752942Y-137821942D02*
X92705323Y-137869561D01*
X92562466Y-137917180D01*
X92467228Y-137917180D01*
X92324371Y-137869561D01*
X92229133Y-137774323D01*
X92181514Y-137679085D01*
X92133895Y-137488609D01*
X92133895Y-137345752D01*
X92181514Y-137155276D01*
X92229133Y-137060038D01*
X92324371Y-136964800D01*
X92467228Y-136917180D01*
X92562466Y-136917180D01*
X92705323Y-136964800D01*
X92752942Y-137012419D01*
X93133895Y-137012419D02*
X93181514Y-136964800D01*
X93276752Y-136917180D01*
X93514847Y-136917180D01*
X93610085Y-136964800D01*
X93657704Y-137012419D01*
X93705323Y-137107657D01*
X93705323Y-137202895D01*
X93657704Y-137345752D01*
X93086276Y-137917180D01*
X93705323Y-137917180D01*
X94181514Y-137917180D02*
X94371990Y-137917180D01*
X94467228Y-137869561D01*
X94514847Y-137821942D01*
X94610085Y-137679085D01*
X94657704Y-137488609D01*
X94657704Y-137107657D01*
X94610085Y-137012419D01*
X94562466Y-136964800D01*
X94467228Y-136917180D01*
X94276752Y-136917180D01*
X94181514Y-136964800D01*
X94133895Y-137012419D01*
X94086276Y-137107657D01*
X94086276Y-137345752D01*
X94133895Y-137440990D01*
X94181514Y-137488609D01*
X94276752Y-137536228D01*
X94467228Y-137536228D01*
X94562466Y-137488609D01*
X94610085Y-137440990D01*
X94657704Y-137345752D01*
%TO.C,C28*%
X87190342Y-142317742D02*
X87142723Y-142365361D01*
X86999866Y-142412980D01*
X86904628Y-142412980D01*
X86761771Y-142365361D01*
X86666533Y-142270123D01*
X86618914Y-142174885D01*
X86571295Y-141984409D01*
X86571295Y-141841552D01*
X86618914Y-141651076D01*
X86666533Y-141555838D01*
X86761771Y-141460600D01*
X86904628Y-141412980D01*
X86999866Y-141412980D01*
X87142723Y-141460600D01*
X87190342Y-141508219D01*
X87571295Y-141508219D02*
X87618914Y-141460600D01*
X87714152Y-141412980D01*
X87952247Y-141412980D01*
X88047485Y-141460600D01*
X88095104Y-141508219D01*
X88142723Y-141603457D01*
X88142723Y-141698695D01*
X88095104Y-141841552D01*
X87523676Y-142412980D01*
X88142723Y-142412980D01*
X88714152Y-141841552D02*
X88618914Y-141793933D01*
X88571295Y-141746314D01*
X88523676Y-141651076D01*
X88523676Y-141603457D01*
X88571295Y-141508219D01*
X88618914Y-141460600D01*
X88714152Y-141412980D01*
X88904628Y-141412980D01*
X88999866Y-141460600D01*
X89047485Y-141508219D01*
X89095104Y-141603457D01*
X89095104Y-141651076D01*
X89047485Y-141746314D01*
X88999866Y-141793933D01*
X88904628Y-141841552D01*
X88714152Y-141841552D01*
X88618914Y-141889171D01*
X88571295Y-141936790D01*
X88523676Y-142032028D01*
X88523676Y-142222504D01*
X88571295Y-142317742D01*
X88618914Y-142365361D01*
X88714152Y-142412980D01*
X88904628Y-142412980D01*
X88999866Y-142365361D01*
X89047485Y-142317742D01*
X89095104Y-142222504D01*
X89095104Y-142032028D01*
X89047485Y-141936790D01*
X88999866Y-141889171D01*
X88904628Y-141841552D01*
%TO.C,C27*%
X83405742Y-145289542D02*
X83358123Y-145337161D01*
X83215266Y-145384780D01*
X83120028Y-145384780D01*
X82977171Y-145337161D01*
X82881933Y-145241923D01*
X82834314Y-145146685D01*
X82786695Y-144956209D01*
X82786695Y-144813352D01*
X82834314Y-144622876D01*
X82881933Y-144527638D01*
X82977171Y-144432400D01*
X83120028Y-144384780D01*
X83215266Y-144384780D01*
X83358123Y-144432400D01*
X83405742Y-144480019D01*
X83786695Y-144480019D02*
X83834314Y-144432400D01*
X83929552Y-144384780D01*
X84167647Y-144384780D01*
X84262885Y-144432400D01*
X84310504Y-144480019D01*
X84358123Y-144575257D01*
X84358123Y-144670495D01*
X84310504Y-144813352D01*
X83739076Y-145384780D01*
X84358123Y-145384780D01*
X84691457Y-144384780D02*
X85358123Y-144384780D01*
X84929552Y-145384780D01*
%TO.C,C26*%
X81932542Y-129020842D02*
X81884923Y-129068461D01*
X81742066Y-129116080D01*
X81646828Y-129116080D01*
X81503971Y-129068461D01*
X81408733Y-128973223D01*
X81361114Y-128877985D01*
X81313495Y-128687509D01*
X81313495Y-128544652D01*
X81361114Y-128354176D01*
X81408733Y-128258938D01*
X81503971Y-128163700D01*
X81646828Y-128116080D01*
X81742066Y-128116080D01*
X81884923Y-128163700D01*
X81932542Y-128211319D01*
X82313495Y-128211319D02*
X82361114Y-128163700D01*
X82456352Y-128116080D01*
X82694447Y-128116080D01*
X82789685Y-128163700D01*
X82837304Y-128211319D01*
X82884923Y-128306557D01*
X82884923Y-128401795D01*
X82837304Y-128544652D01*
X82265876Y-129116080D01*
X82884923Y-129116080D01*
X83742066Y-128116080D02*
X83551590Y-128116080D01*
X83456352Y-128163700D01*
X83408733Y-128211319D01*
X83313495Y-128354176D01*
X83265876Y-128544652D01*
X83265876Y-128925604D01*
X83313495Y-129020842D01*
X83361114Y-129068461D01*
X83456352Y-129116080D01*
X83646828Y-129116080D01*
X83742066Y-129068461D01*
X83789685Y-129020842D01*
X83837304Y-128925604D01*
X83837304Y-128687509D01*
X83789685Y-128592271D01*
X83742066Y-128544652D01*
X83646828Y-128497033D01*
X83456352Y-128497033D01*
X83361114Y-128544652D01*
X83313495Y-128592271D01*
X83265876Y-128687509D01*
%TO.C,C25*%
X80646542Y-136316957D02*
X80694161Y-136364576D01*
X80741780Y-136507433D01*
X80741780Y-136602671D01*
X80694161Y-136745528D01*
X80598923Y-136840766D01*
X80503685Y-136888385D01*
X80313209Y-136936004D01*
X80170352Y-136936004D01*
X79979876Y-136888385D01*
X79884638Y-136840766D01*
X79789400Y-136745528D01*
X79741780Y-136602671D01*
X79741780Y-136507433D01*
X79789400Y-136364576D01*
X79837019Y-136316957D01*
X79837019Y-135936004D02*
X79789400Y-135888385D01*
X79741780Y-135793147D01*
X79741780Y-135555052D01*
X79789400Y-135459814D01*
X79837019Y-135412195D01*
X79932257Y-135364576D01*
X80027495Y-135364576D01*
X80170352Y-135412195D01*
X80741780Y-135983623D01*
X80741780Y-135364576D01*
X79741780Y-134459814D02*
X79741780Y-134936004D01*
X80217971Y-134983623D01*
X80170352Y-134936004D01*
X80122733Y-134840766D01*
X80122733Y-134602671D01*
X80170352Y-134507433D01*
X80217971Y-134459814D01*
X80313209Y-134412195D01*
X80551304Y-134412195D01*
X80646542Y-134459814D01*
X80694161Y-134507433D01*
X80741780Y-134602671D01*
X80741780Y-134840766D01*
X80694161Y-134936004D01*
X80646542Y-134983623D01*
%TO.C,C24*%
X80776842Y-143879842D02*
X80729223Y-143927461D01*
X80586366Y-143975080D01*
X80491128Y-143975080D01*
X80348271Y-143927461D01*
X80253033Y-143832223D01*
X80205414Y-143736985D01*
X80157795Y-143546509D01*
X80157795Y-143403652D01*
X80205414Y-143213176D01*
X80253033Y-143117938D01*
X80348271Y-143022700D01*
X80491128Y-142975080D01*
X80586366Y-142975080D01*
X80729223Y-143022700D01*
X80776842Y-143070319D01*
X81157795Y-143070319D02*
X81205414Y-143022700D01*
X81300652Y-142975080D01*
X81538747Y-142975080D01*
X81633985Y-143022700D01*
X81681604Y-143070319D01*
X81729223Y-143165557D01*
X81729223Y-143260795D01*
X81681604Y-143403652D01*
X81110176Y-143975080D01*
X81729223Y-143975080D01*
X82586366Y-143308414D02*
X82586366Y-143975080D01*
X82348271Y-142927461D02*
X82110176Y-143641747D01*
X82729223Y-143641747D01*
%TO.C,C22*%
X94950042Y-167730442D02*
X94902423Y-167778061D01*
X94759566Y-167825680D01*
X94664328Y-167825680D01*
X94521471Y-167778061D01*
X94426233Y-167682823D01*
X94378614Y-167587585D01*
X94330995Y-167397109D01*
X94330995Y-167254252D01*
X94378614Y-167063776D01*
X94426233Y-166968538D01*
X94521471Y-166873300D01*
X94664328Y-166825680D01*
X94759566Y-166825680D01*
X94902423Y-166873300D01*
X94950042Y-166920919D01*
X95330995Y-166920919D02*
X95378614Y-166873300D01*
X95473852Y-166825680D01*
X95711947Y-166825680D01*
X95807185Y-166873300D01*
X95854804Y-166920919D01*
X95902423Y-167016157D01*
X95902423Y-167111395D01*
X95854804Y-167254252D01*
X95283376Y-167825680D01*
X95902423Y-167825680D01*
X96283376Y-166920919D02*
X96330995Y-166873300D01*
X96426233Y-166825680D01*
X96664328Y-166825680D01*
X96759566Y-166873300D01*
X96807185Y-166920919D01*
X96854804Y-167016157D01*
X96854804Y-167111395D01*
X96807185Y-167254252D01*
X96235757Y-167825680D01*
X96854804Y-167825680D01*
%TO.C,C21*%
X103989142Y-149220157D02*
X104036761Y-149267776D01*
X104084380Y-149410633D01*
X104084380Y-149505871D01*
X104036761Y-149648728D01*
X103941523Y-149743966D01*
X103846285Y-149791585D01*
X103655809Y-149839204D01*
X103512952Y-149839204D01*
X103322476Y-149791585D01*
X103227238Y-149743966D01*
X103132000Y-149648728D01*
X103084380Y-149505871D01*
X103084380Y-149410633D01*
X103132000Y-149267776D01*
X103179619Y-149220157D01*
X103179619Y-148839204D02*
X103132000Y-148791585D01*
X103084380Y-148696347D01*
X103084380Y-148458252D01*
X103132000Y-148363014D01*
X103179619Y-148315395D01*
X103274857Y-148267776D01*
X103370095Y-148267776D01*
X103512952Y-148315395D01*
X104084380Y-148886823D01*
X104084380Y-148267776D01*
X104084380Y-147315395D02*
X104084380Y-147886823D01*
X104084380Y-147601109D02*
X103084380Y-147601109D01*
X103227238Y-147696347D01*
X103322476Y-147791585D01*
X103370095Y-147886823D01*
%TO.C,C20*%
X90378042Y-149607542D02*
X90330423Y-149655161D01*
X90187566Y-149702780D01*
X90092328Y-149702780D01*
X89949471Y-149655161D01*
X89854233Y-149559923D01*
X89806614Y-149464685D01*
X89758995Y-149274209D01*
X89758995Y-149131352D01*
X89806614Y-148940876D01*
X89854233Y-148845638D01*
X89949471Y-148750400D01*
X90092328Y-148702780D01*
X90187566Y-148702780D01*
X90330423Y-148750400D01*
X90378042Y-148798019D01*
X90758995Y-148798019D02*
X90806614Y-148750400D01*
X90901852Y-148702780D01*
X91139947Y-148702780D01*
X91235185Y-148750400D01*
X91282804Y-148798019D01*
X91330423Y-148893257D01*
X91330423Y-148988495D01*
X91282804Y-149131352D01*
X90711376Y-149702780D01*
X91330423Y-149702780D01*
X91949471Y-148702780D02*
X92044709Y-148702780D01*
X92139947Y-148750400D01*
X92187566Y-148798019D01*
X92235185Y-148893257D01*
X92282804Y-149083733D01*
X92282804Y-149321828D01*
X92235185Y-149512304D01*
X92187566Y-149607542D01*
X92139947Y-149655161D01*
X92044709Y-149702780D01*
X91949471Y-149702780D01*
X91854233Y-149655161D01*
X91806614Y-149607542D01*
X91758995Y-149512304D01*
X91711376Y-149321828D01*
X91711376Y-149083733D01*
X91758995Y-148893257D01*
X91806614Y-148798019D01*
X91854233Y-148750400D01*
X91949471Y-148702780D01*
%TO.C,C19*%
X98074242Y-167247842D02*
X98026623Y-167295461D01*
X97883766Y-167343080D01*
X97788528Y-167343080D01*
X97645671Y-167295461D01*
X97550433Y-167200223D01*
X97502814Y-167104985D01*
X97455195Y-166914509D01*
X97455195Y-166771652D01*
X97502814Y-166581176D01*
X97550433Y-166485938D01*
X97645671Y-166390700D01*
X97788528Y-166343080D01*
X97883766Y-166343080D01*
X98026623Y-166390700D01*
X98074242Y-166438319D01*
X99026623Y-167343080D02*
X98455195Y-167343080D01*
X98740909Y-167343080D02*
X98740909Y-166343080D01*
X98645671Y-166485938D01*
X98550433Y-166581176D01*
X98455195Y-166628795D01*
X99502814Y-167343080D02*
X99693290Y-167343080D01*
X99788528Y-167295461D01*
X99836147Y-167247842D01*
X99931385Y-167104985D01*
X99979004Y-166914509D01*
X99979004Y-166533557D01*
X99931385Y-166438319D01*
X99883766Y-166390700D01*
X99788528Y-166343080D01*
X99598052Y-166343080D01*
X99502814Y-166390700D01*
X99455195Y-166438319D01*
X99407576Y-166533557D01*
X99407576Y-166771652D01*
X99455195Y-166866890D01*
X99502814Y-166914509D01*
X99598052Y-166962128D01*
X99788528Y-166962128D01*
X99883766Y-166914509D01*
X99931385Y-166866890D01*
X99979004Y-166771652D01*
%TO.C,C18*%
X103938342Y-152293557D02*
X103985961Y-152341176D01*
X104033580Y-152484033D01*
X104033580Y-152579271D01*
X103985961Y-152722128D01*
X103890723Y-152817366D01*
X103795485Y-152864985D01*
X103605009Y-152912604D01*
X103462152Y-152912604D01*
X103271676Y-152864985D01*
X103176438Y-152817366D01*
X103081200Y-152722128D01*
X103033580Y-152579271D01*
X103033580Y-152484033D01*
X103081200Y-152341176D01*
X103128819Y-152293557D01*
X104033580Y-151341176D02*
X104033580Y-151912604D01*
X104033580Y-151626890D02*
X103033580Y-151626890D01*
X103176438Y-151722128D01*
X103271676Y-151817366D01*
X103319295Y-151912604D01*
X103462152Y-150769747D02*
X103414533Y-150864985D01*
X103366914Y-150912604D01*
X103271676Y-150960223D01*
X103224057Y-150960223D01*
X103128819Y-150912604D01*
X103081200Y-150864985D01*
X103033580Y-150769747D01*
X103033580Y-150579271D01*
X103081200Y-150484033D01*
X103128819Y-150436414D01*
X103224057Y-150388795D01*
X103271676Y-150388795D01*
X103366914Y-150436414D01*
X103414533Y-150484033D01*
X103462152Y-150579271D01*
X103462152Y-150769747D01*
X103509771Y-150864985D01*
X103557390Y-150912604D01*
X103652628Y-150960223D01*
X103843104Y-150960223D01*
X103938342Y-150912604D01*
X103985961Y-150864985D01*
X104033580Y-150769747D01*
X104033580Y-150579271D01*
X103985961Y-150484033D01*
X103938342Y-150436414D01*
X103843104Y-150388795D01*
X103652628Y-150388795D01*
X103557390Y-150436414D01*
X103509771Y-150484033D01*
X103462152Y-150579271D01*
%TO.C,C17*%
X94467442Y-154001742D02*
X94419823Y-154049361D01*
X94276966Y-154096980D01*
X94181728Y-154096980D01*
X94038871Y-154049361D01*
X93943633Y-153954123D01*
X93896014Y-153858885D01*
X93848395Y-153668409D01*
X93848395Y-153525552D01*
X93896014Y-153335076D01*
X93943633Y-153239838D01*
X94038871Y-153144600D01*
X94181728Y-153096980D01*
X94276966Y-153096980D01*
X94419823Y-153144600D01*
X94467442Y-153192219D01*
X95419823Y-154096980D02*
X94848395Y-154096980D01*
X95134109Y-154096980D02*
X95134109Y-153096980D01*
X95038871Y-153239838D01*
X94943633Y-153335076D01*
X94848395Y-153382695D01*
X95753157Y-153096980D02*
X96419823Y-153096980D01*
X95991252Y-154096980D01*
%TO.C,C16*%
X88434942Y-168695642D02*
X88387323Y-168743261D01*
X88244466Y-168790880D01*
X88149228Y-168790880D01*
X88006371Y-168743261D01*
X87911133Y-168648023D01*
X87863514Y-168552785D01*
X87815895Y-168362309D01*
X87815895Y-168219452D01*
X87863514Y-168028976D01*
X87911133Y-167933738D01*
X88006371Y-167838500D01*
X88149228Y-167790880D01*
X88244466Y-167790880D01*
X88387323Y-167838500D01*
X88434942Y-167886119D01*
X89387323Y-168790880D02*
X88815895Y-168790880D01*
X89101609Y-168790880D02*
X89101609Y-167790880D01*
X89006371Y-167933738D01*
X88911133Y-168028976D01*
X88815895Y-168076595D01*
X90244466Y-167790880D02*
X90053990Y-167790880D01*
X89958752Y-167838500D01*
X89911133Y-167886119D01*
X89815895Y-168028976D01*
X89768276Y-168219452D01*
X89768276Y-168600404D01*
X89815895Y-168695642D01*
X89863514Y-168743261D01*
X89958752Y-168790880D01*
X90149228Y-168790880D01*
X90244466Y-168743261D01*
X90292085Y-168695642D01*
X90339704Y-168600404D01*
X90339704Y-168362309D01*
X90292085Y-168267071D01*
X90244466Y-168219452D01*
X90149228Y-168171833D01*
X89958752Y-168171833D01*
X89863514Y-168219452D01*
X89815895Y-168267071D01*
X89768276Y-168362309D01*
%TO.C,C15*%
X79964042Y-167755842D02*
X79916423Y-167803461D01*
X79773566Y-167851080D01*
X79678328Y-167851080D01*
X79535471Y-167803461D01*
X79440233Y-167708223D01*
X79392614Y-167612985D01*
X79344995Y-167422509D01*
X79344995Y-167279652D01*
X79392614Y-167089176D01*
X79440233Y-166993938D01*
X79535471Y-166898700D01*
X79678328Y-166851080D01*
X79773566Y-166851080D01*
X79916423Y-166898700D01*
X79964042Y-166946319D01*
X80916423Y-167851080D02*
X80344995Y-167851080D01*
X80630709Y-167851080D02*
X80630709Y-166851080D01*
X80535471Y-166993938D01*
X80440233Y-167089176D01*
X80344995Y-167136795D01*
X81821185Y-166851080D02*
X81344995Y-166851080D01*
X81297376Y-167327271D01*
X81344995Y-167279652D01*
X81440233Y-167232033D01*
X81678328Y-167232033D01*
X81773566Y-167279652D01*
X81821185Y-167327271D01*
X81868804Y-167422509D01*
X81868804Y-167660604D01*
X81821185Y-167755842D01*
X81773566Y-167803461D01*
X81678328Y-167851080D01*
X81440233Y-167851080D01*
X81344995Y-167803461D01*
X81297376Y-167755842D01*
%TO.C,C13*%
X86758542Y-159881842D02*
X86710923Y-159929461D01*
X86568066Y-159977080D01*
X86472828Y-159977080D01*
X86329971Y-159929461D01*
X86234733Y-159834223D01*
X86187114Y-159738985D01*
X86139495Y-159548509D01*
X86139495Y-159405652D01*
X86187114Y-159215176D01*
X86234733Y-159119938D01*
X86329971Y-159024700D01*
X86472828Y-158977080D01*
X86568066Y-158977080D01*
X86710923Y-159024700D01*
X86758542Y-159072319D01*
X87710923Y-159977080D02*
X87139495Y-159977080D01*
X87425209Y-159977080D02*
X87425209Y-158977080D01*
X87329971Y-159119938D01*
X87234733Y-159215176D01*
X87139495Y-159262795D01*
X88044257Y-158977080D02*
X88663304Y-158977080D01*
X88329971Y-159358033D01*
X88472828Y-159358033D01*
X88568066Y-159405652D01*
X88615685Y-159453271D01*
X88663304Y-159548509D01*
X88663304Y-159786604D01*
X88615685Y-159881842D01*
X88568066Y-159929461D01*
X88472828Y-159977080D01*
X88187114Y-159977080D01*
X88091876Y-159929461D01*
X88044257Y-159881842D01*
%TO.C,C11*%
X76522342Y-162396442D02*
X76474723Y-162444061D01*
X76331866Y-162491680D01*
X76236628Y-162491680D01*
X76093771Y-162444061D01*
X75998533Y-162348823D01*
X75950914Y-162253585D01*
X75903295Y-162063109D01*
X75903295Y-161920252D01*
X75950914Y-161729776D01*
X75998533Y-161634538D01*
X76093771Y-161539300D01*
X76236628Y-161491680D01*
X76331866Y-161491680D01*
X76474723Y-161539300D01*
X76522342Y-161586919D01*
X77474723Y-162491680D02*
X76903295Y-162491680D01*
X77189009Y-162491680D02*
X77189009Y-161491680D01*
X77093771Y-161634538D01*
X76998533Y-161729776D01*
X76903295Y-161777395D01*
X78427104Y-162491680D02*
X77855676Y-162491680D01*
X78141390Y-162491680D02*
X78141390Y-161491680D01*
X78046152Y-161634538D01*
X77950914Y-161729776D01*
X77855676Y-161777395D01*
%TO.C,C7*%
X80097333Y-124436142D02*
X80049714Y-124483761D01*
X79906857Y-124531380D01*
X79811619Y-124531380D01*
X79668761Y-124483761D01*
X79573523Y-124388523D01*
X79525904Y-124293285D01*
X79478285Y-124102809D01*
X79478285Y-123959952D01*
X79525904Y-123769476D01*
X79573523Y-123674238D01*
X79668761Y-123579000D01*
X79811619Y-123531380D01*
X79906857Y-123531380D01*
X80049714Y-123579000D01*
X80097333Y-123626619D01*
X80430666Y-123531380D02*
X81097333Y-123531380D01*
X80668761Y-124531380D01*
%TO.C,C2*%
X124077433Y-150191742D02*
X124029814Y-150239361D01*
X123886957Y-150286980D01*
X123791719Y-150286980D01*
X123648861Y-150239361D01*
X123553623Y-150144123D01*
X123506004Y-150048885D01*
X123458385Y-149858409D01*
X123458385Y-149715552D01*
X123506004Y-149525076D01*
X123553623Y-149429838D01*
X123648861Y-149334600D01*
X123791719Y-149286980D01*
X123886957Y-149286980D01*
X124029814Y-149334600D01*
X124077433Y-149382219D01*
X124458385Y-149382219D02*
X124506004Y-149334600D01*
X124601242Y-149286980D01*
X124839338Y-149286980D01*
X124934576Y-149334600D01*
X124982195Y-149382219D01*
X125029814Y-149477457D01*
X125029814Y-149572695D01*
X124982195Y-149715552D01*
X124410766Y-150286980D01*
X125029814Y-150286980D01*
%TD*%
M02*
