M48
; DRILL file {KiCad (5.1.5)-3} date 20.11.2020 20:43:48
; FORMAT={2:4/ absolute / inch / keep zeros}
; #@! TF.CreationDate,2020-11-20T20:43:48+01:00
; #@! TF.GenerationSoftware,Kicad,Pcbnew,(5.1.5)-3
FMAT,2
INCH
T1C0.0118
T2C0.0157
T3C0.0197
T4C0.0217
T5C0.0354
T6C0.0394
T7C0.0512
T8C0.0866
T9C0.0945
T10C0.1063
%
G90
G05
T1
X031742Y-049478
X045827Y-050394
X046142Y-055787
X046378Y-050157
X047992Y-058937
T2
X026710Y-057125
X028365Y-050065
X030205Y-051645
X032795Y-053040
X033191Y-059861
X033200Y-048495
X034800Y-063300
X035300Y-062150
X035300Y-063300
X035350Y-056095
X035485Y-048450
X035585Y-061075
X036210Y-061230
X036250Y-059750
X036300Y-058050
X036350Y-053400
X036450Y-051800
X036800Y-053750
X036800Y-062950
X037000Y-062000
X037400Y-056700
X038055Y-047690
X039449Y-062598
X039535Y-052420
X039950Y-060350
X040000Y-058100
X040354Y-052756
X040460Y-057025
X040595Y-048765
X041085Y-048110
X043060Y-052985
X043386Y-048701
X044380Y-059655
X044900Y-049490
X045748Y-057677
X046500Y-052985
X047559Y-052323
X049205Y-047590
X049370Y-050315
X050201Y-063661
X051102Y-052323
T5
X029357Y-059114
X029357Y-059917
X029357Y-060720
X030357Y-059515
X030357Y-060319
X030357Y-061122
T6
X045161Y-066095
X027085Y-063695
X030345Y-065295
X040555Y-064275
X029337Y-045852
X029337Y-046852
X030337Y-045852
X030337Y-046852
X031337Y-045852
X031337Y-046852
X032337Y-045852
X032337Y-046852
X033337Y-045852
X033337Y-046852
X034337Y-045852
X034337Y-046852
X035337Y-045852
X035337Y-046852
X036337Y-045852
X036337Y-046852
X037337Y-045852
X037337Y-046852
X038337Y-045852
X038337Y-046852
X039337Y-045852
X039337Y-046852
X040337Y-045852
X040337Y-046852
X041337Y-045852
X041337Y-046852
X042337Y-045852
X042337Y-046852
X043337Y-045852
X043337Y-046852
X044337Y-045852
X044337Y-046852
X045337Y-045852
X045337Y-046852
X046337Y-045852
X046337Y-046852
X047337Y-045852
X047337Y-046852
X048337Y-045852
X048337Y-046852
X026965Y-053490
X027735Y-055540
X043220Y-062085
X038640Y-052720
X043330Y-066095
T7
X049738Y-054943
T8
X048738Y-053943
X048738Y-055943
X050738Y-053943
X050738Y-055943
T9
X028477Y-057756
X028477Y-062480
T10
X050236Y-065669
X027402Y-065669
X050236Y-046378
X027402Y-046378
T3
G00X050266Y-061772
M15
G01X050522Y-061772
M16
G05
G00X050266Y-064528
M15
G01X050522Y-064528
M16
G05
T4
G00X049331Y-062224
M15
G01X049331Y-062106
M16
G05
G00X049331Y-064193
M15
G01X049331Y-064075
M16
G05
T0
M30
