G04 #@! TF.GenerationSoftware,KiCad,Pcbnew,(5.1.6)-1*
G04 #@! TF.CreationDate,2020-11-26T12:48:09+01:00*
G04 #@! TF.ProjectId,IsolationBarrier,49736f6c-6174-4696-9f6e-426172726965,rev?*
G04 #@! TF.SameCoordinates,Original*
G04 #@! TF.FileFunction,Soldermask,Bot*
G04 #@! TF.FilePolarity,Negative*
%FSLAX46Y46*%
G04 Gerber Fmt 4.6, Leading zero omitted, Abs format (unit mm)*
G04 Created by KiCad (PCBNEW (5.1.6)-1) date 2020-11-26 12:48:09*
%MOMM*%
%LPD*%
G01*
G04 APERTURE LIST*
%ADD10C,0.100000*%
G04 APERTURE END LIST*
D10*
G36*
X47582000Y-108742300D02*
G01*
X45480000Y-108742300D01*
X45480000Y-106340300D01*
X47582000Y-106340300D01*
X47582000Y-108742300D01*
G37*
G36*
X51961318Y-106386453D02*
G01*
X52179885Y-106476987D01*
X52179887Y-106476988D01*
X52376593Y-106608422D01*
X52543878Y-106775707D01*
X52665635Y-106957931D01*
X52675313Y-106972415D01*
X52765847Y-107190982D01*
X52812000Y-107423010D01*
X52812000Y-107659590D01*
X52765847Y-107891618D01*
X52675313Y-108110185D01*
X52675312Y-108110187D01*
X52543878Y-108306893D01*
X52376593Y-108474178D01*
X52179887Y-108605612D01*
X52179886Y-108605613D01*
X52179885Y-108605613D01*
X51961318Y-108696147D01*
X51729290Y-108742300D01*
X51492710Y-108742300D01*
X51260682Y-108696147D01*
X51042115Y-108605613D01*
X51042114Y-108605613D01*
X51042113Y-108605612D01*
X50845407Y-108474178D01*
X50678122Y-108306893D01*
X50546688Y-108110187D01*
X50546687Y-108110185D01*
X50456153Y-107891618D01*
X50410000Y-107659590D01*
X50410000Y-107423010D01*
X50456153Y-107190982D01*
X50546687Y-106972415D01*
X50556365Y-106957931D01*
X50678122Y-106775707D01*
X50845407Y-106608422D01*
X51042113Y-106476988D01*
X51042115Y-106476987D01*
X51260682Y-106386453D01*
X51492710Y-106340300D01*
X51729290Y-106340300D01*
X51961318Y-106386453D01*
G37*
G36*
X77361318Y-106386453D02*
G01*
X77579885Y-106476987D01*
X77579887Y-106476988D01*
X77776593Y-106608422D01*
X77943878Y-106775707D01*
X78065635Y-106957931D01*
X78075313Y-106972415D01*
X78165847Y-107190982D01*
X78212000Y-107423010D01*
X78212000Y-107659590D01*
X78165847Y-107891618D01*
X78075313Y-108110185D01*
X78075312Y-108110187D01*
X77943878Y-108306893D01*
X77776593Y-108474178D01*
X77579887Y-108605612D01*
X77579886Y-108605613D01*
X77579885Y-108605613D01*
X77361318Y-108696147D01*
X77129290Y-108742300D01*
X76892710Y-108742300D01*
X76660682Y-108696147D01*
X76442115Y-108605613D01*
X76442114Y-108605613D01*
X76442113Y-108605612D01*
X76245407Y-108474178D01*
X76078122Y-108306893D01*
X75946688Y-108110187D01*
X75946687Y-108110185D01*
X75856153Y-107891618D01*
X75810000Y-107659590D01*
X75810000Y-107423010D01*
X75856153Y-107190982D01*
X75946687Y-106972415D01*
X75956365Y-106957931D01*
X76078122Y-106775707D01*
X76245407Y-106608422D01*
X76442113Y-106476988D01*
X76442115Y-106476987D01*
X76660682Y-106386453D01*
X76892710Y-106340300D01*
X77129290Y-106340300D01*
X77361318Y-106386453D01*
G37*
G36*
X58828062Y-106746481D02*
G01*
X58862981Y-106757074D01*
X58895163Y-106774276D01*
X58923373Y-106797427D01*
X58946524Y-106825637D01*
X58963726Y-106857819D01*
X58974319Y-106892738D01*
X58978500Y-106935195D01*
X58978500Y-108401405D01*
X58974319Y-108443862D01*
X58963726Y-108478781D01*
X58946524Y-108510963D01*
X58923373Y-108539173D01*
X58895163Y-108562324D01*
X58862981Y-108579526D01*
X58828062Y-108590119D01*
X58785605Y-108594300D01*
X57644395Y-108594300D01*
X57601938Y-108590119D01*
X57567019Y-108579526D01*
X57534837Y-108562324D01*
X57506627Y-108539173D01*
X57483476Y-108510963D01*
X57466274Y-108478781D01*
X57455681Y-108443862D01*
X57451500Y-108401405D01*
X57451500Y-106935195D01*
X57455681Y-106892738D01*
X57466274Y-106857819D01*
X57483476Y-106825637D01*
X57506627Y-106797427D01*
X57534837Y-106774276D01*
X57567019Y-106757074D01*
X57601938Y-106746481D01*
X57644395Y-106742300D01*
X58785605Y-106742300D01*
X58828062Y-106746481D01*
G37*
G36*
X55853062Y-106746481D02*
G01*
X55887981Y-106757074D01*
X55920163Y-106774276D01*
X55948373Y-106797427D01*
X55971524Y-106825637D01*
X55988726Y-106857819D01*
X55999319Y-106892738D01*
X56003500Y-106935195D01*
X56003500Y-108401405D01*
X55999319Y-108443862D01*
X55988726Y-108478781D01*
X55971524Y-108510963D01*
X55948373Y-108539173D01*
X55920163Y-108562324D01*
X55887981Y-108579526D01*
X55853062Y-108590119D01*
X55810605Y-108594300D01*
X54669395Y-108594300D01*
X54626938Y-108590119D01*
X54592019Y-108579526D01*
X54559837Y-108562324D01*
X54531627Y-108539173D01*
X54508476Y-108510963D01*
X54491274Y-108478781D01*
X54480681Y-108443862D01*
X54476500Y-108401405D01*
X54476500Y-106935195D01*
X54480681Y-106892738D01*
X54491274Y-106857819D01*
X54508476Y-106825637D01*
X54531627Y-106797427D01*
X54559837Y-106774276D01*
X54592019Y-106757074D01*
X54626938Y-106746481D01*
X54669395Y-106742300D01*
X55810605Y-106742300D01*
X55853062Y-106746481D01*
G37*
G36*
X64670062Y-106746481D02*
G01*
X64704981Y-106757074D01*
X64737163Y-106774276D01*
X64765373Y-106797427D01*
X64788524Y-106825637D01*
X64805726Y-106857819D01*
X64816319Y-106892738D01*
X64820500Y-106935195D01*
X64820500Y-108401405D01*
X64816319Y-108443862D01*
X64805726Y-108478781D01*
X64788524Y-108510963D01*
X64765373Y-108539173D01*
X64737163Y-108562324D01*
X64704981Y-108579526D01*
X64670062Y-108590119D01*
X64627605Y-108594300D01*
X63486395Y-108594300D01*
X63443938Y-108590119D01*
X63409019Y-108579526D01*
X63376837Y-108562324D01*
X63348627Y-108539173D01*
X63325476Y-108510963D01*
X63308274Y-108478781D01*
X63297681Y-108443862D01*
X63293500Y-108401405D01*
X63293500Y-106935195D01*
X63297681Y-106892738D01*
X63308274Y-106857819D01*
X63325476Y-106825637D01*
X63348627Y-106797427D01*
X63376837Y-106774276D01*
X63409019Y-106757074D01*
X63443938Y-106746481D01*
X63486395Y-106742300D01*
X64627605Y-106742300D01*
X64670062Y-106746481D01*
G37*
G36*
X61695062Y-106746481D02*
G01*
X61729981Y-106757074D01*
X61762163Y-106774276D01*
X61790373Y-106797427D01*
X61813524Y-106825637D01*
X61830726Y-106857819D01*
X61841319Y-106892738D01*
X61845500Y-106935195D01*
X61845500Y-108401405D01*
X61841319Y-108443862D01*
X61830726Y-108478781D01*
X61813524Y-108510963D01*
X61790373Y-108539173D01*
X61762163Y-108562324D01*
X61729981Y-108579526D01*
X61695062Y-108590119D01*
X61652605Y-108594300D01*
X60511395Y-108594300D01*
X60468938Y-108590119D01*
X60434019Y-108579526D01*
X60401837Y-108562324D01*
X60373627Y-108539173D01*
X60350476Y-108510963D01*
X60333274Y-108478781D01*
X60322681Y-108443862D01*
X60318500Y-108401405D01*
X60318500Y-106935195D01*
X60322681Y-106892738D01*
X60333274Y-106857819D01*
X60350476Y-106825637D01*
X60373627Y-106797427D01*
X60401837Y-106774276D01*
X60434019Y-106757074D01*
X60468938Y-106746481D01*
X60511395Y-106742300D01*
X61652605Y-106742300D01*
X61695062Y-106746481D01*
G37*
G36*
X122330587Y-105107696D02*
G01*
X122567353Y-105205768D01*
X122567355Y-105205769D01*
X122659760Y-105267512D01*
X122780439Y-105348147D01*
X122961653Y-105529361D01*
X123104032Y-105742447D01*
X123202104Y-105979213D01*
X123252100Y-106230561D01*
X123252100Y-106486839D01*
X123202104Y-106738187D01*
X123131899Y-106907676D01*
X123104031Y-106974955D01*
X122961653Y-107188039D01*
X122780439Y-107369253D01*
X122567355Y-107511631D01*
X122567354Y-107511632D01*
X122567353Y-107511632D01*
X122330587Y-107609704D01*
X122079239Y-107659700D01*
X121822961Y-107659700D01*
X121571613Y-107609704D01*
X121334847Y-107511632D01*
X121334846Y-107511632D01*
X121334845Y-107511631D01*
X121121761Y-107369253D01*
X120940547Y-107188039D01*
X120798169Y-106974955D01*
X120770301Y-106907676D01*
X120700096Y-106738187D01*
X120650100Y-106486839D01*
X120650100Y-106230561D01*
X120700096Y-105979213D01*
X120798168Y-105742447D01*
X120940547Y-105529361D01*
X121121761Y-105348147D01*
X121242440Y-105267512D01*
X121334845Y-105205769D01*
X121334847Y-105205768D01*
X121571613Y-105107696D01*
X121822961Y-105057700D01*
X122079239Y-105057700D01*
X122330587Y-105107696D01*
G37*
G36*
X37544425Y-103654560D02*
G01*
X37544428Y-103654561D01*
X37544429Y-103654561D01*
X37723693Y-103708940D01*
X37723696Y-103708942D01*
X37723697Y-103708942D01*
X37888903Y-103797246D01*
X38033712Y-103916088D01*
X38152554Y-104060897D01*
X38240858Y-104226103D01*
X38240860Y-104226107D01*
X38295239Y-104405371D01*
X38295240Y-104405375D01*
X38313601Y-104591800D01*
X38295240Y-104778225D01*
X38295239Y-104778228D01*
X38295239Y-104778229D01*
X38240860Y-104957493D01*
X38240858Y-104957496D01*
X38240858Y-104957497D01*
X38152554Y-105122703D01*
X38033712Y-105267512D01*
X37888903Y-105386354D01*
X37723697Y-105474658D01*
X37723693Y-105474660D01*
X37544429Y-105529039D01*
X37544428Y-105529039D01*
X37544425Y-105529040D01*
X37404718Y-105542800D01*
X35611282Y-105542800D01*
X35471575Y-105529040D01*
X35471572Y-105529039D01*
X35471571Y-105529039D01*
X35292307Y-105474660D01*
X35292303Y-105474658D01*
X35127097Y-105386354D01*
X34982288Y-105267512D01*
X34863446Y-105122703D01*
X34775142Y-104957497D01*
X34775142Y-104957496D01*
X34775140Y-104957493D01*
X34720761Y-104778229D01*
X34720761Y-104778228D01*
X34720760Y-104778225D01*
X34702399Y-104591800D01*
X34720760Y-104405375D01*
X34720761Y-104405371D01*
X34775140Y-104226107D01*
X34775142Y-104226103D01*
X34863446Y-104060897D01*
X34982288Y-103916088D01*
X35127097Y-103797246D01*
X35292303Y-103708942D01*
X35292304Y-103708942D01*
X35292307Y-103708940D01*
X35471571Y-103654561D01*
X35471572Y-103654561D01*
X35471575Y-103654560D01*
X35611282Y-103640800D01*
X37404718Y-103640800D01*
X37544425Y-103654560D01*
G37*
G36*
X119953242Y-102126942D02*
G01*
X120101201Y-102188229D01*
X120234355Y-102277199D01*
X120347601Y-102390445D01*
X120436571Y-102523599D01*
X120497858Y-102671558D01*
X120529100Y-102828625D01*
X120529100Y-102988775D01*
X120497858Y-103145842D01*
X120436571Y-103293801D01*
X120347601Y-103426955D01*
X120234355Y-103540201D01*
X120101201Y-103629171D01*
X119953242Y-103690458D01*
X119796175Y-103721700D01*
X119636025Y-103721700D01*
X119478958Y-103690458D01*
X119330999Y-103629171D01*
X119197845Y-103540201D01*
X119084599Y-103426955D01*
X118995629Y-103293801D01*
X118934342Y-103145842D01*
X118903100Y-102988775D01*
X118903100Y-102828625D01*
X118934342Y-102671558D01*
X118995629Y-102523599D01*
X119084599Y-102390445D01*
X119197845Y-102277199D01*
X119330999Y-102188229D01*
X119478958Y-102126942D01*
X119636025Y-102095700D01*
X119796175Y-102095700D01*
X119953242Y-102126942D01*
G37*
G36*
X117413242Y-101106942D02*
G01*
X117561201Y-101168229D01*
X117694355Y-101257199D01*
X117807601Y-101370445D01*
X117896571Y-101503599D01*
X117957858Y-101651558D01*
X117989100Y-101808625D01*
X117989100Y-101968775D01*
X117957858Y-102125842D01*
X117896571Y-102273801D01*
X117807601Y-102406955D01*
X117694355Y-102520201D01*
X117561201Y-102609171D01*
X117413242Y-102670458D01*
X117256175Y-102701700D01*
X117096025Y-102701700D01*
X116938958Y-102670458D01*
X116790999Y-102609171D01*
X116657845Y-102520201D01*
X116544599Y-102406955D01*
X116455629Y-102273801D01*
X116394342Y-102125842D01*
X116363100Y-101968775D01*
X116363100Y-101808625D01*
X116394342Y-101651558D01*
X116455629Y-101503599D01*
X116544599Y-101370445D01*
X116657845Y-101257199D01*
X116790999Y-101168229D01*
X116938958Y-101106942D01*
X117096025Y-101075700D01*
X117256175Y-101075700D01*
X117413242Y-101106942D01*
G37*
G36*
X119953242Y-100086942D02*
G01*
X120101201Y-100148229D01*
X120234355Y-100237199D01*
X120347601Y-100350445D01*
X120436571Y-100483599D01*
X120497858Y-100631558D01*
X120529100Y-100788625D01*
X120529100Y-100948775D01*
X120497858Y-101105842D01*
X120436571Y-101253801D01*
X120347601Y-101386955D01*
X120234355Y-101500201D01*
X120101201Y-101589171D01*
X119953242Y-101650458D01*
X119796175Y-101681700D01*
X119636025Y-101681700D01*
X119478958Y-101650458D01*
X119330999Y-101589171D01*
X119197845Y-101500201D01*
X119084599Y-101386955D01*
X118995629Y-101253801D01*
X118934342Y-101105842D01*
X118903100Y-100948775D01*
X118903100Y-100788625D01*
X118934342Y-100631558D01*
X118995629Y-100483599D01*
X119084599Y-100350445D01*
X119197845Y-100237199D01*
X119330999Y-100148229D01*
X119478958Y-100086942D01*
X119636025Y-100055700D01*
X119796175Y-100055700D01*
X119953242Y-100086942D01*
G37*
G36*
X64705562Y-99415981D02*
G01*
X64740481Y-99426574D01*
X64772663Y-99443776D01*
X64800873Y-99466927D01*
X64824024Y-99495137D01*
X64841226Y-99527319D01*
X64851819Y-99562238D01*
X64856000Y-99604695D01*
X64856000Y-100745905D01*
X64851819Y-100788362D01*
X64841226Y-100823281D01*
X64824024Y-100855463D01*
X64800873Y-100883673D01*
X64772663Y-100906824D01*
X64740481Y-100924026D01*
X64705562Y-100934619D01*
X64663105Y-100938800D01*
X63196895Y-100938800D01*
X63154438Y-100934619D01*
X63119519Y-100924026D01*
X63087337Y-100906824D01*
X63059127Y-100883673D01*
X63035976Y-100855463D01*
X63018774Y-100823281D01*
X63008181Y-100788362D01*
X63004000Y-100745905D01*
X63004000Y-99604695D01*
X63008181Y-99562238D01*
X63018774Y-99527319D01*
X63035976Y-99495137D01*
X63059127Y-99466927D01*
X63087337Y-99443776D01*
X63119519Y-99426574D01*
X63154438Y-99415981D01*
X63196895Y-99411800D01*
X64663105Y-99411800D01*
X64705562Y-99415981D01*
G37*
G36*
X117413242Y-99066942D02*
G01*
X117561201Y-99128229D01*
X117694355Y-99217199D01*
X117807601Y-99330445D01*
X117896571Y-99463599D01*
X117957858Y-99611558D01*
X117989100Y-99768625D01*
X117989100Y-99928775D01*
X117957858Y-100085842D01*
X117896571Y-100233801D01*
X117807601Y-100366955D01*
X117694355Y-100480201D01*
X117561201Y-100569171D01*
X117413242Y-100630458D01*
X117256175Y-100661700D01*
X117096025Y-100661700D01*
X116938958Y-100630458D01*
X116790999Y-100569171D01*
X116657845Y-100480201D01*
X116544599Y-100366955D01*
X116455629Y-100233801D01*
X116394342Y-100085842D01*
X116363100Y-99928775D01*
X116363100Y-99768625D01*
X116394342Y-99611558D01*
X116455629Y-99463599D01*
X116544599Y-99330445D01*
X116657845Y-99217199D01*
X116790999Y-99128229D01*
X116938958Y-99066942D01*
X117096025Y-99035700D01*
X117256175Y-99035700D01*
X117413242Y-99066942D01*
G37*
G36*
X46328942Y-98281742D02*
G01*
X46476901Y-98343029D01*
X46610055Y-98431999D01*
X46723301Y-98545245D01*
X46812271Y-98678399D01*
X46873558Y-98826358D01*
X46904800Y-98983425D01*
X46904800Y-99143575D01*
X46873558Y-99300642D01*
X46812271Y-99448601D01*
X46723301Y-99581755D01*
X46610055Y-99695001D01*
X46476901Y-99783971D01*
X46328942Y-99845258D01*
X46171875Y-99876500D01*
X46011725Y-99876500D01*
X45854658Y-99845258D01*
X45706699Y-99783971D01*
X45573545Y-99695001D01*
X45460299Y-99581755D01*
X45371329Y-99448601D01*
X45310042Y-99300642D01*
X45278800Y-99143575D01*
X45278800Y-98983425D01*
X45310042Y-98826358D01*
X45371329Y-98678399D01*
X45460299Y-98545245D01*
X45573545Y-98431999D01*
X45706699Y-98343029D01*
X45854658Y-98281742D01*
X46011725Y-98250500D01*
X46171875Y-98250500D01*
X46328942Y-98281742D01*
G37*
G36*
X119953242Y-98046942D02*
G01*
X120101201Y-98108229D01*
X120234355Y-98197199D01*
X120347601Y-98310445D01*
X120436571Y-98443599D01*
X120497858Y-98591558D01*
X120529100Y-98748625D01*
X120529100Y-98908775D01*
X120497858Y-99065842D01*
X120436571Y-99213801D01*
X120347601Y-99346955D01*
X120234355Y-99460201D01*
X120101201Y-99549171D01*
X119953242Y-99610458D01*
X119796175Y-99641700D01*
X119636025Y-99641700D01*
X119478958Y-99610458D01*
X119330999Y-99549171D01*
X119197845Y-99460201D01*
X119084599Y-99346955D01*
X118995629Y-99213801D01*
X118934342Y-99065842D01*
X118903100Y-98908775D01*
X118903100Y-98748625D01*
X118934342Y-98591558D01*
X118995629Y-98443599D01*
X119084599Y-98310445D01*
X119197845Y-98197199D01*
X119330999Y-98108229D01*
X119478958Y-98046942D01*
X119636025Y-98015700D01*
X119796175Y-98015700D01*
X119953242Y-98046942D01*
G37*
G36*
X77035662Y-97608281D02*
G01*
X77070581Y-97618874D01*
X77102763Y-97636076D01*
X77130973Y-97659227D01*
X77154124Y-97687437D01*
X77171326Y-97719619D01*
X77181919Y-97754538D01*
X77186100Y-97796995D01*
X77186100Y-99263205D01*
X77181919Y-99305662D01*
X77171326Y-99340581D01*
X77154124Y-99372763D01*
X77130973Y-99400973D01*
X77102763Y-99424124D01*
X77070581Y-99441326D01*
X77035662Y-99451919D01*
X76993205Y-99456100D01*
X75851995Y-99456100D01*
X75809538Y-99451919D01*
X75774619Y-99441326D01*
X75742437Y-99424124D01*
X75714227Y-99400973D01*
X75691076Y-99372763D01*
X75673874Y-99340581D01*
X75663281Y-99305662D01*
X75659100Y-99263205D01*
X75659100Y-97796995D01*
X75663281Y-97754538D01*
X75673874Y-97719619D01*
X75691076Y-97687437D01*
X75714227Y-97659227D01*
X75742437Y-97636076D01*
X75774619Y-97618874D01*
X75809538Y-97608281D01*
X75851995Y-97604100D01*
X76993205Y-97604100D01*
X77035662Y-97608281D01*
G37*
G36*
X74060662Y-97608281D02*
G01*
X74095581Y-97618874D01*
X74127763Y-97636076D01*
X74155973Y-97659227D01*
X74179124Y-97687437D01*
X74196326Y-97719619D01*
X74206919Y-97754538D01*
X74211100Y-97796995D01*
X74211100Y-99263205D01*
X74206919Y-99305662D01*
X74196326Y-99340581D01*
X74179124Y-99372763D01*
X74155973Y-99400973D01*
X74127763Y-99424124D01*
X74095581Y-99441326D01*
X74060662Y-99451919D01*
X74018205Y-99456100D01*
X72876995Y-99456100D01*
X72834538Y-99451919D01*
X72799619Y-99441326D01*
X72767437Y-99424124D01*
X72739227Y-99400973D01*
X72716076Y-99372763D01*
X72698874Y-99340581D01*
X72688281Y-99305662D01*
X72684100Y-99263205D01*
X72684100Y-97796995D01*
X72688281Y-97754538D01*
X72698874Y-97719619D01*
X72716076Y-97687437D01*
X72739227Y-97659227D01*
X72767437Y-97636076D01*
X72799619Y-97618874D01*
X72834538Y-97608281D01*
X72876995Y-97604100D01*
X74018205Y-97604100D01*
X74060662Y-97608281D01*
G37*
G36*
X117413242Y-97026942D02*
G01*
X117561201Y-97088229D01*
X117694355Y-97177199D01*
X117807601Y-97290445D01*
X117896571Y-97423599D01*
X117957858Y-97571558D01*
X117989100Y-97728625D01*
X117989100Y-97888775D01*
X117957858Y-98045842D01*
X117896571Y-98193801D01*
X117807601Y-98326955D01*
X117694355Y-98440201D01*
X117561201Y-98529171D01*
X117413242Y-98590458D01*
X117256175Y-98621700D01*
X117096025Y-98621700D01*
X116938958Y-98590458D01*
X116790999Y-98529171D01*
X116657845Y-98440201D01*
X116544599Y-98326955D01*
X116455629Y-98193801D01*
X116394342Y-98045842D01*
X116363100Y-97888775D01*
X116363100Y-97728625D01*
X116394342Y-97571558D01*
X116455629Y-97423599D01*
X116544599Y-97290445D01*
X116657845Y-97177199D01*
X116790999Y-97088229D01*
X116938958Y-97026942D01*
X117096025Y-96995700D01*
X117256175Y-96995700D01*
X117413242Y-97026942D01*
G37*
G36*
X64705562Y-96440981D02*
G01*
X64740481Y-96451574D01*
X64772663Y-96468776D01*
X64800873Y-96491927D01*
X64824024Y-96520137D01*
X64841226Y-96552319D01*
X64851819Y-96587238D01*
X64856000Y-96629695D01*
X64856000Y-97770905D01*
X64851819Y-97813362D01*
X64841226Y-97848281D01*
X64824024Y-97880463D01*
X64800873Y-97908673D01*
X64772663Y-97931824D01*
X64740481Y-97949026D01*
X64705562Y-97959619D01*
X64663105Y-97963800D01*
X63196895Y-97963800D01*
X63154438Y-97959619D01*
X63119519Y-97949026D01*
X63087337Y-97931824D01*
X63059127Y-97908673D01*
X63035976Y-97880463D01*
X63018774Y-97848281D01*
X63008181Y-97813362D01*
X63004000Y-97770905D01*
X63004000Y-96629695D01*
X63008181Y-96587238D01*
X63018774Y-96552319D01*
X63035976Y-96520137D01*
X63059127Y-96491927D01*
X63087337Y-96468776D01*
X63119519Y-96451574D01*
X63154438Y-96440981D01*
X63196895Y-96436800D01*
X64663105Y-96436800D01*
X64705562Y-96440981D01*
G37*
G36*
X74060662Y-95220681D02*
G01*
X74095581Y-95231274D01*
X74127763Y-95248476D01*
X74155973Y-95271627D01*
X74179124Y-95299837D01*
X74196326Y-95332019D01*
X74206919Y-95366938D01*
X74211100Y-95409395D01*
X74211100Y-96875605D01*
X74206919Y-96918062D01*
X74196326Y-96952981D01*
X74179124Y-96985163D01*
X74155973Y-97013373D01*
X74127763Y-97036524D01*
X74095581Y-97053726D01*
X74060662Y-97064319D01*
X74018205Y-97068500D01*
X72876995Y-97068500D01*
X72834538Y-97064319D01*
X72799619Y-97053726D01*
X72767437Y-97036524D01*
X72739227Y-97013373D01*
X72716076Y-96985163D01*
X72698874Y-96952981D01*
X72688281Y-96918062D01*
X72684100Y-96875605D01*
X72684100Y-95409395D01*
X72688281Y-95366938D01*
X72698874Y-95332019D01*
X72716076Y-95299837D01*
X72739227Y-95271627D01*
X72767437Y-95248476D01*
X72799619Y-95231274D01*
X72834538Y-95220681D01*
X72876995Y-95216500D01*
X74018205Y-95216500D01*
X74060662Y-95220681D01*
G37*
G36*
X77035662Y-95220681D02*
G01*
X77070581Y-95231274D01*
X77102763Y-95248476D01*
X77130973Y-95271627D01*
X77154124Y-95299837D01*
X77171326Y-95332019D01*
X77181919Y-95366938D01*
X77186100Y-95409395D01*
X77186100Y-96875605D01*
X77181919Y-96918062D01*
X77171326Y-96952981D01*
X77154124Y-96985163D01*
X77130973Y-97013373D01*
X77102763Y-97036524D01*
X77070581Y-97053726D01*
X77035662Y-97064319D01*
X76993205Y-97068500D01*
X75851995Y-97068500D01*
X75809538Y-97064319D01*
X75774619Y-97053726D01*
X75742437Y-97036524D01*
X75714227Y-97013373D01*
X75691076Y-96985163D01*
X75673874Y-96952981D01*
X75663281Y-96918062D01*
X75659100Y-96875605D01*
X75659100Y-95409395D01*
X75663281Y-95366938D01*
X75673874Y-95332019D01*
X75691076Y-95299837D01*
X75714227Y-95271627D01*
X75742437Y-95248476D01*
X75774619Y-95231274D01*
X75809538Y-95220681D01*
X75851995Y-95216500D01*
X76993205Y-95216500D01*
X77035662Y-95220681D01*
G37*
G36*
X122330587Y-93107696D02*
G01*
X122567353Y-93205768D01*
X122567355Y-93205769D01*
X122780439Y-93348147D01*
X122961653Y-93529361D01*
X123041327Y-93648601D01*
X123104032Y-93742447D01*
X123202104Y-93979213D01*
X123252100Y-94230561D01*
X123252100Y-94486839D01*
X123202104Y-94738187D01*
X123104032Y-94974953D01*
X123104031Y-94974955D01*
X122961653Y-95188039D01*
X122780439Y-95369253D01*
X122567355Y-95511631D01*
X122567354Y-95511632D01*
X122567353Y-95511632D01*
X122330587Y-95609704D01*
X122079239Y-95659700D01*
X121822961Y-95659700D01*
X121571613Y-95609704D01*
X121334847Y-95511632D01*
X121334846Y-95511632D01*
X121334845Y-95511631D01*
X121121761Y-95369253D01*
X120940547Y-95188039D01*
X120798169Y-94974955D01*
X120798168Y-94974953D01*
X120700096Y-94738187D01*
X120650100Y-94486839D01*
X120650100Y-94230561D01*
X120700096Y-93979213D01*
X120798168Y-93742447D01*
X120860874Y-93648601D01*
X120940547Y-93529361D01*
X121121761Y-93348147D01*
X121334845Y-93205769D01*
X121334847Y-93205768D01*
X121571613Y-93107696D01*
X121822961Y-93057700D01*
X122079239Y-93057700D01*
X122330587Y-93107696D01*
G37*
G36*
X77069762Y-92694281D02*
G01*
X77104681Y-92704874D01*
X77136863Y-92722076D01*
X77165073Y-92745227D01*
X77188224Y-92773437D01*
X77205426Y-92805619D01*
X77216019Y-92840538D01*
X77220200Y-92882995D01*
X77220200Y-94349205D01*
X77216019Y-94391662D01*
X77205426Y-94426581D01*
X77188224Y-94458763D01*
X77165073Y-94486973D01*
X77136863Y-94510124D01*
X77104681Y-94527326D01*
X77069762Y-94537919D01*
X77027305Y-94542100D01*
X75886095Y-94542100D01*
X75843638Y-94537919D01*
X75808719Y-94527326D01*
X75776537Y-94510124D01*
X75748327Y-94486973D01*
X75725176Y-94458763D01*
X75707974Y-94426581D01*
X75697381Y-94391662D01*
X75693200Y-94349205D01*
X75693200Y-92882995D01*
X75697381Y-92840538D01*
X75707974Y-92805619D01*
X75725176Y-92773437D01*
X75748327Y-92745227D01*
X75776537Y-92722076D01*
X75808719Y-92704874D01*
X75843638Y-92694281D01*
X75886095Y-92690100D01*
X77027305Y-92690100D01*
X77069762Y-92694281D01*
G37*
G36*
X74094762Y-92694281D02*
G01*
X74129681Y-92704874D01*
X74161863Y-92722076D01*
X74190073Y-92745227D01*
X74213224Y-92773437D01*
X74230426Y-92805619D01*
X74241019Y-92840538D01*
X74245200Y-92882995D01*
X74245200Y-94349205D01*
X74241019Y-94391662D01*
X74230426Y-94426581D01*
X74213224Y-94458763D01*
X74190073Y-94486973D01*
X74161863Y-94510124D01*
X74129681Y-94527326D01*
X74094762Y-94537919D01*
X74052305Y-94542100D01*
X72911095Y-94542100D01*
X72868638Y-94537919D01*
X72833719Y-94527326D01*
X72801537Y-94510124D01*
X72773327Y-94486973D01*
X72750176Y-94458763D01*
X72732974Y-94426581D01*
X72722381Y-94391662D01*
X72718200Y-94349205D01*
X72718200Y-92882995D01*
X72722381Y-92840538D01*
X72732974Y-92805619D01*
X72750176Y-92773437D01*
X72773327Y-92745227D01*
X72801537Y-92722076D01*
X72833719Y-92704874D01*
X72868638Y-92694281D01*
X72911095Y-92690100D01*
X74052305Y-92690100D01*
X74094762Y-92694281D01*
G37*
G36*
X46328942Y-92481742D02*
G01*
X46476901Y-92543029D01*
X46610055Y-92631999D01*
X46723301Y-92745245D01*
X46812271Y-92878399D01*
X46873558Y-93026358D01*
X46904800Y-93183425D01*
X46904800Y-93343575D01*
X46873558Y-93500642D01*
X46812271Y-93648601D01*
X46723301Y-93781755D01*
X46610055Y-93895001D01*
X46476901Y-93983971D01*
X46328942Y-94045258D01*
X46171875Y-94076500D01*
X46011725Y-94076500D01*
X45854658Y-94045258D01*
X45706699Y-93983971D01*
X45573545Y-93895001D01*
X45460299Y-93781755D01*
X45371329Y-93648601D01*
X45310042Y-93500642D01*
X45278800Y-93343575D01*
X45278800Y-93183425D01*
X45310042Y-93026358D01*
X45371329Y-92878399D01*
X45460299Y-92745245D01*
X45573545Y-92631999D01*
X45706699Y-92543029D01*
X45854658Y-92481742D01*
X46011725Y-92450500D01*
X46171875Y-92450500D01*
X46328942Y-92481742D01*
G37*
G36*
X37544425Y-92154560D02*
G01*
X37544428Y-92154561D01*
X37544429Y-92154561D01*
X37723693Y-92208940D01*
X37723696Y-92208942D01*
X37723697Y-92208942D01*
X37888903Y-92297246D01*
X38033712Y-92416088D01*
X38152554Y-92560897D01*
X38240858Y-92726103D01*
X38240860Y-92726107D01*
X38287057Y-92878399D01*
X38295240Y-92905375D01*
X38313601Y-93091800D01*
X38295240Y-93278225D01*
X38295239Y-93278228D01*
X38295239Y-93278229D01*
X38240860Y-93457493D01*
X38240858Y-93457496D01*
X38240858Y-93457497D01*
X38152554Y-93622703D01*
X38033712Y-93767512D01*
X37888903Y-93886354D01*
X37723697Y-93974658D01*
X37723693Y-93974660D01*
X37544429Y-94029039D01*
X37544428Y-94029039D01*
X37544425Y-94029040D01*
X37404718Y-94042800D01*
X35611282Y-94042800D01*
X35471575Y-94029040D01*
X35471572Y-94029039D01*
X35471571Y-94029039D01*
X35292307Y-93974660D01*
X35292303Y-93974658D01*
X35127097Y-93886354D01*
X34982288Y-93767512D01*
X34863446Y-93622703D01*
X34775142Y-93457497D01*
X34775142Y-93457496D01*
X34775140Y-93457493D01*
X34720761Y-93278229D01*
X34720761Y-93278228D01*
X34720760Y-93278225D01*
X34702399Y-93091800D01*
X34720760Y-92905375D01*
X34728943Y-92878399D01*
X34775140Y-92726107D01*
X34775142Y-92726103D01*
X34863446Y-92560897D01*
X34982288Y-92416088D01*
X35127097Y-92297246D01*
X35292303Y-92208942D01*
X35292304Y-92208942D01*
X35292307Y-92208940D01*
X35471571Y-92154561D01*
X35471572Y-92154561D01*
X35471575Y-92154560D01*
X35611282Y-92140800D01*
X37404718Y-92140800D01*
X37544425Y-92154560D01*
G37*
G36*
X72281318Y-88606453D02*
G01*
X72499885Y-88696987D01*
X72499887Y-88696988D01*
X72696593Y-88828422D01*
X72863878Y-88995707D01*
X72905968Y-89058700D01*
X72995313Y-89192415D01*
X73085847Y-89410982D01*
X73132000Y-89643010D01*
X73132000Y-89879590D01*
X73085847Y-90111618D01*
X73038651Y-90225558D01*
X72995312Y-90330187D01*
X72863878Y-90526893D01*
X72696593Y-90694178D01*
X72499887Y-90825612D01*
X72499886Y-90825613D01*
X72499885Y-90825613D01*
X72281318Y-90916147D01*
X72049290Y-90962300D01*
X71812710Y-90962300D01*
X71580682Y-90916147D01*
X71362115Y-90825613D01*
X71362114Y-90825613D01*
X71362113Y-90825612D01*
X71165407Y-90694178D01*
X70998122Y-90526893D01*
X70866688Y-90330187D01*
X70823349Y-90225558D01*
X70776153Y-90111618D01*
X70730000Y-89879590D01*
X70730000Y-89643010D01*
X70776153Y-89410982D01*
X70866687Y-89192415D01*
X70956032Y-89058700D01*
X70998122Y-88995707D01*
X71165407Y-88828422D01*
X71362113Y-88696988D01*
X71362115Y-88696987D01*
X71580682Y-88606453D01*
X71812710Y-88560300D01*
X72049290Y-88560300D01*
X72281318Y-88606453D01*
G37*
G36*
X77361318Y-88606453D02*
G01*
X77579885Y-88696987D01*
X77579887Y-88696988D01*
X77776593Y-88828422D01*
X77943878Y-88995707D01*
X77985968Y-89058700D01*
X78075313Y-89192415D01*
X78165847Y-89410982D01*
X78212000Y-89643010D01*
X78212000Y-89879590D01*
X78165847Y-90111618D01*
X78118651Y-90225558D01*
X78075312Y-90330187D01*
X77943878Y-90526893D01*
X77776593Y-90694178D01*
X77579887Y-90825612D01*
X77579886Y-90825613D01*
X77579885Y-90825613D01*
X77361318Y-90916147D01*
X77129290Y-90962300D01*
X76892710Y-90962300D01*
X76660682Y-90916147D01*
X76442115Y-90825613D01*
X76442114Y-90825613D01*
X76442113Y-90825612D01*
X76245407Y-90694178D01*
X76078122Y-90526893D01*
X75946688Y-90330187D01*
X75903349Y-90225558D01*
X75856153Y-90111618D01*
X75810000Y-89879590D01*
X75810000Y-89643010D01*
X75856153Y-89410982D01*
X75946687Y-89192415D01*
X76036032Y-89058700D01*
X76078122Y-88995707D01*
X76245407Y-88828422D01*
X76442113Y-88696988D01*
X76442115Y-88696987D01*
X76660682Y-88606453D01*
X76892710Y-88560300D01*
X77129290Y-88560300D01*
X77361318Y-88606453D01*
G37*
G36*
X107728142Y-88662042D02*
G01*
X107876101Y-88723329D01*
X108009255Y-88812299D01*
X108122501Y-88925545D01*
X108211471Y-89058699D01*
X108272758Y-89206658D01*
X108304000Y-89363725D01*
X108304000Y-89523875D01*
X108272758Y-89680942D01*
X108211471Y-89828901D01*
X108122501Y-89962055D01*
X108009255Y-90075301D01*
X107876101Y-90164271D01*
X107728142Y-90225558D01*
X107571075Y-90256800D01*
X107410925Y-90256800D01*
X107253858Y-90225558D01*
X107105899Y-90164271D01*
X106972745Y-90075301D01*
X106859499Y-89962055D01*
X106770529Y-89828901D01*
X106709242Y-89680942D01*
X106678000Y-89523875D01*
X106678000Y-89363725D01*
X106709242Y-89206658D01*
X106770529Y-89058699D01*
X106859499Y-88925545D01*
X106972745Y-88812299D01*
X107105899Y-88723329D01*
X107253858Y-88662042D01*
X107410925Y-88630800D01*
X107571075Y-88630800D01*
X107728142Y-88662042D01*
G37*
G36*
X105188142Y-88662042D02*
G01*
X105336101Y-88723329D01*
X105469255Y-88812299D01*
X105582501Y-88925545D01*
X105671471Y-89058699D01*
X105732758Y-89206658D01*
X105764000Y-89363725D01*
X105764000Y-89523875D01*
X105732758Y-89680942D01*
X105671471Y-89828901D01*
X105582501Y-89962055D01*
X105469255Y-90075301D01*
X105336101Y-90164271D01*
X105188142Y-90225558D01*
X105031075Y-90256800D01*
X104870925Y-90256800D01*
X104713858Y-90225558D01*
X104565899Y-90164271D01*
X104432745Y-90075301D01*
X104319499Y-89962055D01*
X104230529Y-89828901D01*
X104169242Y-89680942D01*
X104138000Y-89523875D01*
X104138000Y-89363725D01*
X104169242Y-89206658D01*
X104230529Y-89058699D01*
X104319499Y-88925545D01*
X104432745Y-88812299D01*
X104565899Y-88723329D01*
X104713858Y-88662042D01*
X104870925Y-88630800D01*
X105031075Y-88630800D01*
X105188142Y-88662042D01*
G37*
G36*
X102648142Y-88662042D02*
G01*
X102796101Y-88723329D01*
X102929255Y-88812299D01*
X103042501Y-88925545D01*
X103131471Y-89058699D01*
X103192758Y-89206658D01*
X103224000Y-89363725D01*
X103224000Y-89523875D01*
X103192758Y-89680942D01*
X103131471Y-89828901D01*
X103042501Y-89962055D01*
X102929255Y-90075301D01*
X102796101Y-90164271D01*
X102648142Y-90225558D01*
X102491075Y-90256800D01*
X102330925Y-90256800D01*
X102173858Y-90225558D01*
X102025899Y-90164271D01*
X101892745Y-90075301D01*
X101779499Y-89962055D01*
X101690529Y-89828901D01*
X101629242Y-89680942D01*
X101598000Y-89523875D01*
X101598000Y-89363725D01*
X101629242Y-89206658D01*
X101690529Y-89058699D01*
X101779499Y-88925545D01*
X101892745Y-88812299D01*
X102025899Y-88723329D01*
X102173858Y-88662042D01*
X102330925Y-88630800D01*
X102491075Y-88630800D01*
X102648142Y-88662042D01*
G37*
G36*
X95028142Y-88662042D02*
G01*
X95176101Y-88723329D01*
X95309255Y-88812299D01*
X95422501Y-88925545D01*
X95511471Y-89058699D01*
X95572758Y-89206658D01*
X95604000Y-89363725D01*
X95604000Y-89523875D01*
X95572758Y-89680942D01*
X95511471Y-89828901D01*
X95422501Y-89962055D01*
X95309255Y-90075301D01*
X95176101Y-90164271D01*
X95028142Y-90225558D01*
X94871075Y-90256800D01*
X94710925Y-90256800D01*
X94553858Y-90225558D01*
X94405899Y-90164271D01*
X94272745Y-90075301D01*
X94159499Y-89962055D01*
X94070529Y-89828901D01*
X94009242Y-89680942D01*
X93978000Y-89523875D01*
X93978000Y-89363725D01*
X94009242Y-89206658D01*
X94070529Y-89058699D01*
X94159499Y-88925545D01*
X94272745Y-88812299D01*
X94405899Y-88723329D01*
X94553858Y-88662042D01*
X94710925Y-88630800D01*
X94871075Y-88630800D01*
X95028142Y-88662042D01*
G37*
G36*
X92488142Y-88662042D02*
G01*
X92636101Y-88723329D01*
X92769255Y-88812299D01*
X92882501Y-88925545D01*
X92971471Y-89058699D01*
X93032758Y-89206658D01*
X93064000Y-89363725D01*
X93064000Y-89523875D01*
X93032758Y-89680942D01*
X92971471Y-89828901D01*
X92882501Y-89962055D01*
X92769255Y-90075301D01*
X92636101Y-90164271D01*
X92488142Y-90225558D01*
X92331075Y-90256800D01*
X92170925Y-90256800D01*
X92013858Y-90225558D01*
X91865899Y-90164271D01*
X91732745Y-90075301D01*
X91619499Y-89962055D01*
X91530529Y-89828901D01*
X91469242Y-89680942D01*
X91438000Y-89523875D01*
X91438000Y-89363725D01*
X91469242Y-89206658D01*
X91530529Y-89058699D01*
X91619499Y-88925545D01*
X91732745Y-88812299D01*
X91865899Y-88723329D01*
X92013858Y-88662042D01*
X92170925Y-88630800D01*
X92331075Y-88630800D01*
X92488142Y-88662042D01*
G37*
G36*
X51683262Y-88057881D02*
G01*
X51718181Y-88068474D01*
X51750363Y-88085676D01*
X51778573Y-88108827D01*
X51801724Y-88137037D01*
X51818926Y-88169219D01*
X51829519Y-88204138D01*
X51833700Y-88246595D01*
X51833700Y-89712805D01*
X51829519Y-89755262D01*
X51818926Y-89790181D01*
X51801724Y-89822363D01*
X51778573Y-89850573D01*
X51750363Y-89873724D01*
X51718181Y-89890926D01*
X51683262Y-89901519D01*
X51640805Y-89905700D01*
X50499595Y-89905700D01*
X50457138Y-89901519D01*
X50422219Y-89890926D01*
X50390037Y-89873724D01*
X50361827Y-89850573D01*
X50338676Y-89822363D01*
X50321474Y-89790181D01*
X50310881Y-89755262D01*
X50306700Y-89712805D01*
X50306700Y-88246595D01*
X50310881Y-88204138D01*
X50321474Y-88169219D01*
X50338676Y-88137037D01*
X50361827Y-88108827D01*
X50390037Y-88085676D01*
X50422219Y-88068474D01*
X50457138Y-88057881D01*
X50499595Y-88053700D01*
X51640805Y-88053700D01*
X51683262Y-88057881D01*
G37*
G36*
X54658262Y-88057881D02*
G01*
X54693181Y-88068474D01*
X54725363Y-88085676D01*
X54753573Y-88108827D01*
X54776724Y-88137037D01*
X54793926Y-88169219D01*
X54804519Y-88204138D01*
X54808700Y-88246595D01*
X54808700Y-89712805D01*
X54804519Y-89755262D01*
X54793926Y-89790181D01*
X54776724Y-89822363D01*
X54753573Y-89850573D01*
X54725363Y-89873724D01*
X54693181Y-89890926D01*
X54658262Y-89901519D01*
X54615805Y-89905700D01*
X53474595Y-89905700D01*
X53432138Y-89901519D01*
X53397219Y-89890926D01*
X53365037Y-89873724D01*
X53336827Y-89850573D01*
X53313676Y-89822363D01*
X53296474Y-89790181D01*
X53285881Y-89755262D01*
X53281700Y-89712805D01*
X53281700Y-88246595D01*
X53285881Y-88204138D01*
X53296474Y-88169219D01*
X53313676Y-88137037D01*
X53336827Y-88108827D01*
X53365037Y-88085676D01*
X53397219Y-88068474D01*
X53432138Y-88057881D01*
X53474595Y-88053700D01*
X54615805Y-88053700D01*
X54658262Y-88057881D01*
G37*
G36*
X56864862Y-88057881D02*
G01*
X56899781Y-88068474D01*
X56931963Y-88085676D01*
X56960173Y-88108827D01*
X56983324Y-88137037D01*
X57000526Y-88169219D01*
X57011119Y-88204138D01*
X57015300Y-88246595D01*
X57015300Y-89712805D01*
X57011119Y-89755262D01*
X57000526Y-89790181D01*
X56983324Y-89822363D01*
X56960173Y-89850573D01*
X56931963Y-89873724D01*
X56899781Y-89890926D01*
X56864862Y-89901519D01*
X56822405Y-89905700D01*
X55681195Y-89905700D01*
X55638738Y-89901519D01*
X55603819Y-89890926D01*
X55571637Y-89873724D01*
X55543427Y-89850573D01*
X55520276Y-89822363D01*
X55503074Y-89790181D01*
X55492481Y-89755262D01*
X55488300Y-89712805D01*
X55488300Y-88246595D01*
X55492481Y-88204138D01*
X55503074Y-88169219D01*
X55520276Y-88137037D01*
X55543427Y-88108827D01*
X55571637Y-88085676D01*
X55603819Y-88068474D01*
X55638738Y-88057881D01*
X55681195Y-88053700D01*
X56822405Y-88053700D01*
X56864862Y-88057881D01*
G37*
G36*
X59839862Y-88057881D02*
G01*
X59874781Y-88068474D01*
X59906963Y-88085676D01*
X59935173Y-88108827D01*
X59958324Y-88137037D01*
X59975526Y-88169219D01*
X59986119Y-88204138D01*
X59990300Y-88246595D01*
X59990300Y-89712805D01*
X59986119Y-89755262D01*
X59975526Y-89790181D01*
X59958324Y-89822363D01*
X59935173Y-89850573D01*
X59906963Y-89873724D01*
X59874781Y-89890926D01*
X59839862Y-89901519D01*
X59797405Y-89905700D01*
X58656195Y-89905700D01*
X58613738Y-89901519D01*
X58578819Y-89890926D01*
X58546637Y-89873724D01*
X58518427Y-89850573D01*
X58495276Y-89822363D01*
X58478074Y-89790181D01*
X58467481Y-89755262D01*
X58463300Y-89712805D01*
X58463300Y-88246595D01*
X58467481Y-88204138D01*
X58478074Y-88169219D01*
X58495276Y-88137037D01*
X58518427Y-88108827D01*
X58546637Y-88085676D01*
X58578819Y-88068474D01*
X58613738Y-88057881D01*
X58656195Y-88053700D01*
X59797405Y-88053700D01*
X59839862Y-88057881D01*
G37*
M02*
