M48
; DRILL file {KiCad (5.1.6)-1} date 11/26/20 12:48:14
; FORMAT={-:-/ absolute / inch / decimal}
; #@! TF.CreationDate,2020-11-26T12:48:14+01:00
; #@! TF.GenerationSoftware,Kicad,Pcbnew,(5.1.6)-1
FMAT,2
INCH
T1C0.0157
T2C0.0299
T3C0.0300
T4C0.0315
T5C0.0354
T6C0.0472
T7C0.0945
%
G90
G05
T1
X2.6Y-3.9439
X2.6019Y-3.8289
X2.7569Y-3.7614
X2.7644Y-4.2939
X2.7719Y-3.9039
X2.8169Y-4.2439
X3.0269Y-4.0164
X3.0569Y-3.6114
X3.2213Y-3.8379
X3.2219Y-3.7264
X3.2494Y-3.9414
X3.25Y-4.3025
X3.4469Y-3.8189
X3.4496Y-4.2986
X3.6044Y-3.6789
X3.6419Y-3.5989
X3.6644Y-3.7164
X3.6894Y-3.4414
X4.0919Y-3.6514
X4.1694Y-3.7089
X4.1969Y-3.4439
X4.3784Y-4.2764
X4.4219Y-3.7314
X4.4334Y-3.6599
X4.4873Y-3.7155
X4.5944Y-3.4739
X4.6744Y-4.2539
X4.7244Y-3.5464
X4.8194Y-4.0339
X4.8294Y-3.9014
X4.8469Y-3.4439
X4.9994Y-4.3214
T2
X2.8319Y-3.5339
X3.0319Y-3.5339
X3.0319Y-4.2339
T3
X1.8146Y-3.6718
X1.8146Y-3.9001
X3.6319Y-3.5214
X3.7319Y-3.5214
X4.0319Y-3.5214
X4.1319Y-3.5214
X4.2319Y-3.5214
T4
X1.8319Y-4.2339
X2.0319Y-4.2339
T5
X4.6132Y-3.8507
X4.6132Y-3.9311
X4.6132Y-4.0114
X4.7132Y-3.8909
X4.7132Y-3.9712
X4.7132Y-4.0515
T7
X4.8012Y-3.7149
X4.8012Y-4.1874
T6
G00X1.4649Y-3.665
M15
G01X1.4098Y-3.665
M16
G05
G00X1.4649Y-4.1178
M15
G01X1.4098Y-4.1178
M16
G05
T0
M30
