G04 #@! TF.GenerationSoftware,KiCad,Pcbnew,(5.1.6)-1*
G04 #@! TF.CreationDate,2020-11-26T14:04:52+01:00*
G04 #@! TF.ProjectId,IsolationBarrier,49736f6c-6174-4696-9f6e-426172726965,rev?*
G04 #@! TF.SameCoordinates,Original*
G04 #@! TF.FileFunction,Legend,Bot*
G04 #@! TF.FilePolarity,Positive*
%FSLAX46Y46*%
G04 Gerber Fmt 4.6, Leading zero omitted, Abs format (unit mm)*
G04 Created by KiCad (PCBNEW (5.1.6)-1) date 2020-11-26 14:04:52*
%MOMM*%
%LPD*%
G01*
G04 APERTURE LIST*
%ADD10C,0.150000*%
%ADD11C,0.120000*%
G04 APERTURE END LIST*
D10*
X123959080Y-96698919D02*
X123482890Y-96365585D01*
X123959080Y-96127490D02*
X122959080Y-96127490D01*
X122959080Y-96508442D01*
X123006700Y-96603680D01*
X123054319Y-96651300D01*
X123149557Y-96698919D01*
X123292414Y-96698919D01*
X123387652Y-96651300D01*
X123435271Y-96603680D01*
X123482890Y-96508442D01*
X123482890Y-96127490D01*
X123911461Y-97508442D02*
X123959080Y-97413204D01*
X123959080Y-97222728D01*
X123911461Y-97127490D01*
X123816223Y-97079871D01*
X123435271Y-97079871D01*
X123340033Y-97127490D01*
X123292414Y-97222728D01*
X123292414Y-97413204D01*
X123340033Y-97508442D01*
X123435271Y-97556061D01*
X123530509Y-97556061D01*
X123625747Y-97079871D01*
X123292414Y-97984633D02*
X123959080Y-97984633D01*
X123387652Y-97984633D02*
X123340033Y-98032252D01*
X123292414Y-98127490D01*
X123292414Y-98270347D01*
X123340033Y-98365585D01*
X123435271Y-98413204D01*
X123959080Y-98413204D01*
X123911461Y-99270347D02*
X123959080Y-99175109D01*
X123959080Y-98984633D01*
X123911461Y-98889395D01*
X123816223Y-98841776D01*
X123435271Y-98841776D01*
X123340033Y-98889395D01*
X123292414Y-98984633D01*
X123292414Y-99175109D01*
X123340033Y-99270347D01*
X123435271Y-99317966D01*
X123530509Y-99317966D01*
X123625747Y-98841776D01*
X122911461Y-99175109D02*
X123054319Y-99032252D01*
X123911461Y-100460823D02*
X123959080Y-100603680D01*
X123959080Y-100841776D01*
X123911461Y-100937014D01*
X123863842Y-100984633D01*
X123768604Y-101032252D01*
X123673366Y-101032252D01*
X123578128Y-100984633D01*
X123530509Y-100937014D01*
X123482890Y-100841776D01*
X123435271Y-100651300D01*
X123387652Y-100556061D01*
X123340033Y-100508442D01*
X123244795Y-100460823D01*
X123149557Y-100460823D01*
X123054319Y-100508442D01*
X123006700Y-100556061D01*
X122959080Y-100651300D01*
X122959080Y-100889395D01*
X123006700Y-101032252D01*
X123292414Y-101460823D02*
X124292414Y-101460823D01*
X123340033Y-101460823D02*
X123292414Y-101556061D01*
X123292414Y-101746538D01*
X123340033Y-101841776D01*
X123387652Y-101889395D01*
X123482890Y-101937014D01*
X123768604Y-101937014D01*
X123863842Y-101889395D01*
X123911461Y-101841776D01*
X123959080Y-101746538D01*
X123959080Y-101556061D01*
X123911461Y-101460823D01*
X123959080Y-102794157D02*
X123435271Y-102794157D01*
X123340033Y-102746538D01*
X123292414Y-102651300D01*
X123292414Y-102460823D01*
X123340033Y-102365585D01*
X123911461Y-102794157D02*
X123959080Y-102698919D01*
X123959080Y-102460823D01*
X123911461Y-102365585D01*
X123816223Y-102317966D01*
X123720985Y-102317966D01*
X123625747Y-102365585D01*
X123578128Y-102460823D01*
X123578128Y-102698919D01*
X123530509Y-102794157D01*
X123292414Y-103270347D02*
X123959080Y-103270347D01*
X123387652Y-103270347D02*
X123340033Y-103317966D01*
X123292414Y-103413204D01*
X123292414Y-103556061D01*
X123340033Y-103651300D01*
X123435271Y-103698919D01*
X123959080Y-103698919D01*
X123959080Y-104317966D02*
X123911461Y-104222728D01*
X123816223Y-104175109D01*
X122959080Y-104175109D01*
X125085271Y-87079871D02*
X125085271Y-86746538D01*
X125609080Y-86746538D02*
X124609080Y-86746538D01*
X124609080Y-87222728D01*
X125609080Y-87603680D02*
X124942414Y-87603680D01*
X125132890Y-87603680D02*
X125037652Y-87651300D01*
X124990033Y-87698919D01*
X124942414Y-87794157D01*
X124942414Y-87889395D01*
X125609080Y-88222728D02*
X124942414Y-88222728D01*
X124609080Y-88222728D02*
X124656700Y-88175109D01*
X124704319Y-88222728D01*
X124656700Y-88270347D01*
X124609080Y-88222728D01*
X124704319Y-88222728D01*
X125561461Y-89079871D02*
X125609080Y-88984633D01*
X125609080Y-88794157D01*
X125561461Y-88698919D01*
X125466223Y-88651300D01*
X125085271Y-88651300D01*
X124990033Y-88698919D01*
X124942414Y-88794157D01*
X124942414Y-88984633D01*
X124990033Y-89079871D01*
X125085271Y-89127490D01*
X125180509Y-89127490D01*
X125275747Y-88651300D01*
X125609080Y-89984633D02*
X124609080Y-89984633D01*
X125561461Y-89984633D02*
X125609080Y-89889395D01*
X125609080Y-89698919D01*
X125561461Y-89603680D01*
X125513842Y-89556061D01*
X125418604Y-89508442D01*
X125132890Y-89508442D01*
X125037652Y-89556061D01*
X124990033Y-89603680D01*
X124942414Y-89698919D01*
X124942414Y-89889395D01*
X124990033Y-89984633D01*
X125609080Y-90460823D02*
X124942414Y-90460823D01*
X125132890Y-90460823D02*
X125037652Y-90508442D01*
X124990033Y-90556061D01*
X124942414Y-90651300D01*
X124942414Y-90746538D01*
X125609080Y-91079871D02*
X124942414Y-91079871D01*
X124609080Y-91079871D02*
X124656700Y-91032252D01*
X124704319Y-91079871D01*
X124656700Y-91127490D01*
X124609080Y-91079871D01*
X124704319Y-91079871D01*
X125561461Y-91984633D02*
X125609080Y-91889395D01*
X125609080Y-91698919D01*
X125561461Y-91603680D01*
X125513842Y-91556061D01*
X125418604Y-91508442D01*
X125132890Y-91508442D01*
X125037652Y-91556061D01*
X124990033Y-91603680D01*
X124942414Y-91698919D01*
X124942414Y-91889395D01*
X124990033Y-91984633D01*
X125609080Y-92413204D02*
X124609080Y-92413204D01*
X125609080Y-92841776D02*
X125085271Y-92841776D01*
X124990033Y-92794157D01*
X124942414Y-92698919D01*
X124942414Y-92556061D01*
X124990033Y-92460823D01*
X125037652Y-92413204D01*
X125228128Y-93317966D02*
X125228128Y-94079871D01*
X125323366Y-94508442D02*
X125323366Y-94984633D01*
X125609080Y-94413204D02*
X124609080Y-94746538D01*
X125609080Y-95079871D01*
X125609080Y-95556061D02*
X125561461Y-95460823D01*
X125466223Y-95413204D01*
X124609080Y-95413204D01*
X125561461Y-96317966D02*
X125609080Y-96222728D01*
X125609080Y-96032252D01*
X125561461Y-95937014D01*
X125466223Y-95889395D01*
X125085271Y-95889395D01*
X124990033Y-95937014D01*
X124942414Y-96032252D01*
X124942414Y-96222728D01*
X124990033Y-96317966D01*
X125085271Y-96365585D01*
X125180509Y-96365585D01*
X125275747Y-95889395D01*
X125609080Y-96698919D02*
X124942414Y-97222728D01*
X124942414Y-96698919D02*
X125609080Y-97222728D01*
X125609080Y-98032252D02*
X125085271Y-98032252D01*
X124990033Y-97984633D01*
X124942414Y-97889395D01*
X124942414Y-97698919D01*
X124990033Y-97603680D01*
X125561461Y-98032252D02*
X125609080Y-97937014D01*
X125609080Y-97698919D01*
X125561461Y-97603680D01*
X125466223Y-97556061D01*
X125370985Y-97556061D01*
X125275747Y-97603680D01*
X125228128Y-97698919D01*
X125228128Y-97937014D01*
X125180509Y-98032252D01*
X124942414Y-98508442D02*
X125609080Y-98508442D01*
X125037652Y-98508442D02*
X124990033Y-98556061D01*
X124942414Y-98651300D01*
X124942414Y-98794157D01*
X124990033Y-98889395D01*
X125085271Y-98937014D01*
X125609080Y-98937014D01*
X125609080Y-99841776D02*
X124609080Y-99841776D01*
X125561461Y-99841776D02*
X125609080Y-99746538D01*
X125609080Y-99556061D01*
X125561461Y-99460823D01*
X125513842Y-99413204D01*
X125418604Y-99365585D01*
X125132890Y-99365585D01*
X125037652Y-99413204D01*
X124990033Y-99460823D01*
X124942414Y-99556061D01*
X124942414Y-99746538D01*
X124990033Y-99841776D01*
X125561461Y-100698919D02*
X125609080Y-100603680D01*
X125609080Y-100413204D01*
X125561461Y-100317966D01*
X125466223Y-100270347D01*
X125085271Y-100270347D01*
X124990033Y-100317966D01*
X124942414Y-100413204D01*
X124942414Y-100603680D01*
X124990033Y-100698919D01*
X125085271Y-100746538D01*
X125180509Y-100746538D01*
X125275747Y-100270347D01*
X125609080Y-101175109D02*
X124942414Y-101175109D01*
X125132890Y-101175109D02*
X125037652Y-101222728D01*
X124990033Y-101270347D01*
X124942414Y-101365585D01*
X124942414Y-101460823D01*
X125228128Y-101794157D02*
X125228128Y-102556061D01*
X124609080Y-103032252D02*
X125418604Y-103032252D01*
X125513842Y-103079871D01*
X125561461Y-103127490D01*
X125609080Y-103222728D01*
X125609080Y-103413204D01*
X125561461Y-103508442D01*
X125513842Y-103556061D01*
X125418604Y-103603680D01*
X124609080Y-103603680D01*
X124942414Y-104079871D02*
X125609080Y-104079871D01*
X125037652Y-104079871D02*
X124990033Y-104127490D01*
X124942414Y-104222728D01*
X124942414Y-104365585D01*
X124990033Y-104460823D01*
X125085271Y-104508442D01*
X125609080Y-104508442D01*
X125609080Y-104984633D02*
X124942414Y-104984633D01*
X124609080Y-104984633D02*
X124656700Y-104937014D01*
X124704319Y-104984633D01*
X124656700Y-105032252D01*
X124609080Y-104984633D01*
X124704319Y-104984633D01*
X124942414Y-105365585D02*
X125609080Y-105603680D01*
X124942414Y-105841776D01*
X125561461Y-106603680D02*
X125609080Y-106508442D01*
X125609080Y-106317966D01*
X125561461Y-106222728D01*
X125466223Y-106175109D01*
X125085271Y-106175109D01*
X124990033Y-106222728D01*
X124942414Y-106317966D01*
X124942414Y-106508442D01*
X124990033Y-106603680D01*
X125085271Y-106651300D01*
X125180509Y-106651300D01*
X125275747Y-106175109D01*
X125609080Y-107079871D02*
X124942414Y-107079871D01*
X125132890Y-107079871D02*
X125037652Y-107127490D01*
X124990033Y-107175109D01*
X124942414Y-107270347D01*
X124942414Y-107365585D01*
X125561461Y-107651300D02*
X125609080Y-107746538D01*
X125609080Y-107937014D01*
X125561461Y-108032252D01*
X125466223Y-108079871D01*
X125418604Y-108079871D01*
X125323366Y-108032252D01*
X125275747Y-107937014D01*
X125275747Y-107794157D01*
X125228128Y-107698919D01*
X125132890Y-107651300D01*
X125085271Y-107651300D01*
X124990033Y-107698919D01*
X124942414Y-107794157D01*
X124942414Y-107937014D01*
X124990033Y-108032252D01*
X125609080Y-108508442D02*
X124942414Y-108508442D01*
X124609080Y-108508442D02*
X124656700Y-108460823D01*
X124704319Y-108508442D01*
X124656700Y-108556061D01*
X124609080Y-108508442D01*
X124704319Y-108508442D01*
X124942414Y-108841776D02*
X124942414Y-109222728D01*
X124609080Y-108984633D02*
X125466223Y-108984633D01*
X125561461Y-109032252D01*
X125609080Y-109127490D01*
X125609080Y-109222728D01*
X125609080Y-109984633D02*
X125085271Y-109984633D01*
X124990033Y-109937014D01*
X124942414Y-109841776D01*
X124942414Y-109651300D01*
X124990033Y-109556061D01*
X125561461Y-109984633D02*
X125609080Y-109889395D01*
X125609080Y-109651300D01*
X125561461Y-109556061D01*
X125466223Y-109508442D01*
X125370985Y-109508442D01*
X125275747Y-109556061D01*
X125228128Y-109651300D01*
X125228128Y-109889395D01*
X125180509Y-109984633D01*
X124609080Y-109556061D02*
X124656700Y-109603680D01*
X124704319Y-109556061D01*
X124656700Y-109508442D01*
X124609080Y-109556061D01*
X124704319Y-109556061D01*
X124609080Y-109937014D02*
X124656700Y-109984633D01*
X124704319Y-109937014D01*
X124656700Y-109889395D01*
X124609080Y-109937014D01*
X124704319Y-109937014D01*
X124942414Y-110317966D02*
X124942414Y-110698919D01*
X124609080Y-110460823D02*
X125466223Y-110460823D01*
X125561461Y-110508442D01*
X125609080Y-110603680D01*
X125609080Y-110698919D01*
X126592414Y-91032252D02*
X127401938Y-91032252D01*
X127497176Y-90984633D01*
X127544795Y-90937014D01*
X127592414Y-90841776D01*
X127592414Y-90698919D01*
X127544795Y-90603680D01*
X127211461Y-91032252D02*
X127259080Y-90937014D01*
X127259080Y-90746538D01*
X127211461Y-90651300D01*
X127163842Y-90603680D01*
X127068604Y-90556061D01*
X126782890Y-90556061D01*
X126687652Y-90603680D01*
X126640033Y-90651300D01*
X126592414Y-90746538D01*
X126592414Y-90937014D01*
X126640033Y-91032252D01*
X127259080Y-91508442D02*
X126592414Y-91508442D01*
X126259080Y-91508442D02*
X126306700Y-91460823D01*
X126354319Y-91508442D01*
X126306700Y-91556061D01*
X126259080Y-91508442D01*
X126354319Y-91508442D01*
X126592414Y-91841776D02*
X126592414Y-92222728D01*
X126259080Y-91984633D02*
X127116223Y-91984633D01*
X127211461Y-92032252D01*
X127259080Y-92127490D01*
X127259080Y-92222728D01*
X127259080Y-92556061D02*
X126259080Y-92556061D01*
X127259080Y-92984633D02*
X126735271Y-92984633D01*
X126640033Y-92937014D01*
X126592414Y-92841776D01*
X126592414Y-92698919D01*
X126640033Y-92603680D01*
X126687652Y-92556061D01*
X126592414Y-93889395D02*
X127259080Y-93889395D01*
X126592414Y-93460823D02*
X127116223Y-93460823D01*
X127211461Y-93508442D01*
X127259080Y-93603680D01*
X127259080Y-93746538D01*
X127211461Y-93841776D01*
X127163842Y-93889395D01*
X127259080Y-94365585D02*
X126259080Y-94365585D01*
X126640033Y-94365585D02*
X126592414Y-94460823D01*
X126592414Y-94651300D01*
X126640033Y-94746538D01*
X126687652Y-94794157D01*
X126782890Y-94841776D01*
X127068604Y-94841776D01*
X127163842Y-94794157D01*
X127211461Y-94746538D01*
X127259080Y-94651300D01*
X127259080Y-94460823D01*
X127211461Y-94365585D01*
X127163842Y-95270347D02*
X127211461Y-95317966D01*
X127259080Y-95270347D01*
X127211461Y-95222728D01*
X127163842Y-95270347D01*
X127259080Y-95270347D01*
X127211461Y-96175109D02*
X127259080Y-96079871D01*
X127259080Y-95889395D01*
X127211461Y-95794157D01*
X127163842Y-95746538D01*
X127068604Y-95698919D01*
X126782890Y-95698919D01*
X126687652Y-95746538D01*
X126640033Y-95794157D01*
X126592414Y-95889395D01*
X126592414Y-96079871D01*
X126640033Y-96175109D01*
X127259080Y-96746538D02*
X127211461Y-96651300D01*
X127163842Y-96603680D01*
X127068604Y-96556061D01*
X126782890Y-96556061D01*
X126687652Y-96603680D01*
X126640033Y-96651300D01*
X126592414Y-96746538D01*
X126592414Y-96889395D01*
X126640033Y-96984633D01*
X126687652Y-97032252D01*
X126782890Y-97079871D01*
X127068604Y-97079871D01*
X127163842Y-97032252D01*
X127211461Y-96984633D01*
X127259080Y-96889395D01*
X127259080Y-96746538D01*
X127259080Y-97508442D02*
X126592414Y-97508442D01*
X126687652Y-97508442D02*
X126640033Y-97556061D01*
X126592414Y-97651300D01*
X126592414Y-97794157D01*
X126640033Y-97889395D01*
X126735271Y-97937014D01*
X127259080Y-97937014D01*
X126735271Y-97937014D02*
X126640033Y-97984633D01*
X126592414Y-98079871D01*
X126592414Y-98222728D01*
X126640033Y-98317966D01*
X126735271Y-98365585D01*
X127259080Y-98365585D01*
X126211461Y-99556061D02*
X127497176Y-98698919D01*
X127259080Y-99889395D02*
X126592414Y-99889395D01*
X126782890Y-99889395D02*
X126687652Y-99937014D01*
X126640033Y-99984633D01*
X126592414Y-100079871D01*
X126592414Y-100175109D01*
X127211461Y-100889395D02*
X127259080Y-100794157D01*
X127259080Y-100603680D01*
X127211461Y-100508442D01*
X127116223Y-100460823D01*
X126735271Y-100460823D01*
X126640033Y-100508442D01*
X126592414Y-100603680D01*
X126592414Y-100794157D01*
X126640033Y-100889395D01*
X126735271Y-100937014D01*
X126830509Y-100937014D01*
X126925747Y-100460823D01*
X126592414Y-101365585D02*
X127259080Y-101365585D01*
X126687652Y-101365585D02*
X126640033Y-101413204D01*
X126592414Y-101508442D01*
X126592414Y-101651300D01*
X126640033Y-101746538D01*
X126735271Y-101794157D01*
X127259080Y-101794157D01*
X127211461Y-102651300D02*
X127259080Y-102556061D01*
X127259080Y-102365585D01*
X127211461Y-102270347D01*
X127116223Y-102222728D01*
X126735271Y-102222728D01*
X126640033Y-102270347D01*
X126592414Y-102365585D01*
X126592414Y-102556061D01*
X126640033Y-102651300D01*
X126735271Y-102698919D01*
X126830509Y-102698919D01*
X126925747Y-102222728D01*
X127211461Y-103079871D02*
X127259080Y-103175109D01*
X127259080Y-103365585D01*
X127211461Y-103460823D01*
X127116223Y-103508442D01*
X127068604Y-103508442D01*
X126973366Y-103460823D01*
X126925747Y-103365585D01*
X126925747Y-103222728D01*
X126878128Y-103127490D01*
X126782890Y-103079871D01*
X126735271Y-103079871D01*
X126640033Y-103127490D01*
X126592414Y-103222728D01*
X126592414Y-103365585D01*
X126640033Y-103460823D01*
X126592414Y-103937014D02*
X127592414Y-103937014D01*
X126640033Y-103937014D02*
X126592414Y-104032252D01*
X126592414Y-104222728D01*
X126640033Y-104317966D01*
X126687652Y-104365585D01*
X126782890Y-104413204D01*
X127068604Y-104413204D01*
X127163842Y-104365585D01*
X127211461Y-104317966D01*
X127259080Y-104222728D01*
X127259080Y-104032252D01*
X127211461Y-103937014D01*
X127259080Y-105270347D02*
X126735271Y-105270347D01*
X126640033Y-105222728D01*
X126592414Y-105127490D01*
X126592414Y-104937014D01*
X126640033Y-104841776D01*
X127211461Y-105270347D02*
X127259080Y-105175109D01*
X127259080Y-104937014D01*
X127211461Y-104841776D01*
X127116223Y-104794157D01*
X127020985Y-104794157D01*
X126925747Y-104841776D01*
X126878128Y-104937014D01*
X126878128Y-105175109D01*
X126830509Y-105270347D01*
X126592414Y-105746538D02*
X127259080Y-105746538D01*
X126687652Y-105746538D02*
X126640033Y-105794157D01*
X126592414Y-105889395D01*
X126592414Y-106032252D01*
X126640033Y-106127490D01*
X126735271Y-106175109D01*
X127259080Y-106175109D01*
X127259080Y-106794157D02*
X127211461Y-106698919D01*
X127116223Y-106651300D01*
X126259080Y-106651300D01*
X122371647Y-109520980D02*
X122371647Y-110235266D01*
X122419266Y-110378123D01*
X122514504Y-110473361D01*
X122657361Y-110520980D01*
X122752600Y-110520980D01*
X121419266Y-110520980D02*
X121895457Y-110520980D01*
X121895457Y-109520980D01*
X120514504Y-110425742D02*
X120562123Y-110473361D01*
X120704980Y-110520980D01*
X120800219Y-110520980D01*
X120943076Y-110473361D01*
X121038314Y-110378123D01*
X121085933Y-110282885D01*
X121133552Y-110092409D01*
X121133552Y-109949552D01*
X121085933Y-109759076D01*
X121038314Y-109663838D01*
X120943076Y-109568600D01*
X120800219Y-109520980D01*
X120704980Y-109520980D01*
X120562123Y-109568600D01*
X120514504Y-109616219D01*
X119800219Y-109520980D02*
X119800219Y-110235266D01*
X119847838Y-110378123D01*
X119943076Y-110473361D01*
X120085933Y-110520980D01*
X120181171Y-110520980D01*
X118847838Y-110520980D02*
X119324028Y-110520980D01*
X119324028Y-109520980D01*
X117943076Y-110425742D02*
X117990695Y-110473361D01*
X118133552Y-110520980D01*
X118228790Y-110520980D01*
X118371647Y-110473361D01*
X118466885Y-110378123D01*
X118514504Y-110282885D01*
X118562123Y-110092409D01*
X118562123Y-109949552D01*
X118514504Y-109759076D01*
X118466885Y-109663838D01*
X118371647Y-109568600D01*
X118228790Y-109520980D01*
X118133552Y-109520980D01*
X117990695Y-109568600D01*
X117943076Y-109616219D01*
X117228790Y-109520980D02*
X117228790Y-110235266D01*
X117276409Y-110378123D01*
X117371647Y-110473361D01*
X117514504Y-110520980D01*
X117609742Y-110520980D01*
X116276409Y-110520980D02*
X116752600Y-110520980D01*
X116752600Y-109520980D01*
X115371647Y-110425742D02*
X115419266Y-110473361D01*
X115562123Y-110520980D01*
X115657361Y-110520980D01*
X115800219Y-110473361D01*
X115895457Y-110378123D01*
X115943076Y-110282885D01*
X115990695Y-110092409D01*
X115990695Y-109949552D01*
X115943076Y-109759076D01*
X115895457Y-109663838D01*
X115800219Y-109568600D01*
X115657361Y-109520980D01*
X115562123Y-109520980D01*
X115419266Y-109568600D01*
X115371647Y-109616219D01*
X114657361Y-109520980D02*
X114657361Y-110235266D01*
X114704980Y-110378123D01*
X114800219Y-110473361D01*
X114943076Y-110520980D01*
X115038314Y-110520980D01*
X113704980Y-110520980D02*
X114181171Y-110520980D01*
X114181171Y-109520980D01*
X112800219Y-110425742D02*
X112847838Y-110473361D01*
X112990695Y-110520980D01*
X113085933Y-110520980D01*
X113228790Y-110473361D01*
X113324028Y-110378123D01*
X113371647Y-110282885D01*
X113419266Y-110092409D01*
X113419266Y-109949552D01*
X113371647Y-109759076D01*
X113324028Y-109663838D01*
X113228790Y-109568600D01*
X113085933Y-109520980D01*
X112990695Y-109520980D01*
X112847838Y-109568600D01*
X112800219Y-109616219D01*
D11*
X63020000Y-99289864D02*
X63020000Y-98085736D01*
X64840000Y-99289864D02*
X64840000Y-98085736D01*
X63171564Y-108578300D02*
X61967436Y-108578300D01*
X63171564Y-106758300D02*
X61967436Y-106758300D01*
X57329564Y-108578300D02*
X56125436Y-108578300D01*
X57329564Y-106758300D02*
X56125436Y-106758300D01*
X58341364Y-89889700D02*
X57137236Y-89889700D01*
X58341364Y-88069700D02*
X57137236Y-88069700D01*
X53159764Y-89889700D02*
X51955636Y-89889700D01*
X53159764Y-88069700D02*
X51955636Y-88069700D01*
X57521800Y-92459500D02*
X54981800Y-92459500D01*
X57521800Y-100079500D02*
X54981800Y-100079500D01*
X47361800Y-100079500D02*
X47361800Y-92459500D01*
X54981800Y-100079500D02*
X47361800Y-100079500D01*
X57521800Y-92459500D02*
X57521800Y-100079500D01*
X47361800Y-92459500D02*
X54981800Y-92459500D01*
X74367136Y-92706100D02*
X75571264Y-92706100D01*
X74367136Y-94526100D02*
X75571264Y-94526100D01*
X74333036Y-97620100D02*
X75537164Y-97620100D01*
X74333036Y-99440100D02*
X75537164Y-99440100D01*
X74333036Y-95232500D02*
X75537164Y-95232500D01*
X74333036Y-97052500D02*
X75537164Y-97052500D01*
D10*
X62680580Y-98546533D02*
X62204390Y-98213200D01*
X62680580Y-97975104D02*
X61680580Y-97975104D01*
X61680580Y-98356057D01*
X61728200Y-98451295D01*
X61775819Y-98498914D01*
X61871057Y-98546533D01*
X62013914Y-98546533D01*
X62109152Y-98498914D01*
X62156771Y-98451295D01*
X62204390Y-98356057D01*
X62204390Y-97975104D01*
X61680580Y-99451295D02*
X61680580Y-98975104D01*
X62156771Y-98927485D01*
X62109152Y-98975104D01*
X62061533Y-99070342D01*
X62061533Y-99308438D01*
X62109152Y-99403676D01*
X62156771Y-99451295D01*
X62252009Y-99498914D01*
X62490104Y-99498914D01*
X62585342Y-99451295D01*
X62632961Y-99403676D01*
X62680580Y-99308438D01*
X62680580Y-99070342D01*
X62632961Y-98975104D01*
X62585342Y-98927485D01*
X62736166Y-106300680D02*
X63069500Y-105824490D01*
X63307595Y-106300680D02*
X63307595Y-105300680D01*
X62926642Y-105300680D01*
X62831404Y-105348300D01*
X62783785Y-105395919D01*
X62736166Y-105491157D01*
X62736166Y-105634014D01*
X62783785Y-105729252D01*
X62831404Y-105776871D01*
X62926642Y-105824490D01*
X63307595Y-105824490D01*
X61879023Y-105634014D02*
X61879023Y-106300680D01*
X62117119Y-105253061D02*
X62355214Y-105967347D01*
X61736166Y-105967347D01*
X57094166Y-106500680D02*
X57427500Y-106024490D01*
X57665595Y-106500680D02*
X57665595Y-105500680D01*
X57284642Y-105500680D01*
X57189404Y-105548300D01*
X57141785Y-105595919D01*
X57094166Y-105691157D01*
X57094166Y-105834014D01*
X57141785Y-105929252D01*
X57189404Y-105976871D01*
X57284642Y-106024490D01*
X57665595Y-106024490D01*
X56760833Y-105500680D02*
X56141785Y-105500680D01*
X56475119Y-105881633D01*
X56332261Y-105881633D01*
X56237023Y-105929252D01*
X56189404Y-105976871D01*
X56141785Y-106072109D01*
X56141785Y-106310204D01*
X56189404Y-106405442D01*
X56237023Y-106453061D01*
X56332261Y-106500680D01*
X56617976Y-106500680D01*
X56713214Y-106453061D01*
X56760833Y-106405442D01*
X56977266Y-91184680D02*
X57310600Y-90708490D01*
X57548695Y-91184680D02*
X57548695Y-90184680D01*
X57167742Y-90184680D01*
X57072504Y-90232300D01*
X57024885Y-90279919D01*
X56977266Y-90375157D01*
X56977266Y-90518014D01*
X57024885Y-90613252D01*
X57072504Y-90660871D01*
X57167742Y-90708490D01*
X57548695Y-90708490D01*
X56596314Y-90279919D02*
X56548695Y-90232300D01*
X56453457Y-90184680D01*
X56215361Y-90184680D01*
X56120123Y-90232300D01*
X56072504Y-90279919D01*
X56024885Y-90375157D01*
X56024885Y-90470395D01*
X56072504Y-90613252D01*
X56643933Y-91184680D01*
X56024885Y-91184680D01*
X52583066Y-91159280D02*
X52916400Y-90683090D01*
X53154495Y-91159280D02*
X53154495Y-90159280D01*
X52773542Y-90159280D01*
X52678304Y-90206900D01*
X52630685Y-90254519D01*
X52583066Y-90349757D01*
X52583066Y-90492614D01*
X52630685Y-90587852D01*
X52678304Y-90635471D01*
X52773542Y-90683090D01*
X53154495Y-90683090D01*
X51630685Y-91159280D02*
X52202114Y-91159280D01*
X51916400Y-91159280D02*
X51916400Y-90159280D01*
X52011638Y-90302138D01*
X52106876Y-90397376D01*
X52202114Y-90444995D01*
X46502971Y-96088566D02*
X46502971Y-95755233D01*
X47026780Y-95755233D02*
X46026780Y-95755233D01*
X46026780Y-96231423D01*
X47026780Y-97136185D02*
X47026780Y-96564757D01*
X47026780Y-96850471D02*
X46026780Y-96850471D01*
X46169638Y-96755233D01*
X46264876Y-96659995D01*
X46312495Y-96564757D01*
X75163666Y-92283242D02*
X75211285Y-92330861D01*
X75354142Y-92378480D01*
X75449380Y-92378480D01*
X75592238Y-92330861D01*
X75687476Y-92235623D01*
X75735095Y-92140385D01*
X75782714Y-91949909D01*
X75782714Y-91807052D01*
X75735095Y-91616576D01*
X75687476Y-91521338D01*
X75592238Y-91426100D01*
X75449380Y-91378480D01*
X75354142Y-91378480D01*
X75211285Y-91426100D01*
X75163666Y-91473719D01*
X74830333Y-91378480D02*
X74211285Y-91378480D01*
X74544619Y-91759433D01*
X74401761Y-91759433D01*
X74306523Y-91807052D01*
X74258904Y-91854671D01*
X74211285Y-91949909D01*
X74211285Y-92188004D01*
X74258904Y-92283242D01*
X74306523Y-92330861D01*
X74401761Y-92378480D01*
X74687476Y-92378480D01*
X74782714Y-92330861D01*
X74830333Y-92283242D01*
X75101766Y-100707242D02*
X75149385Y-100754861D01*
X75292242Y-100802480D01*
X75387480Y-100802480D01*
X75530338Y-100754861D01*
X75625576Y-100659623D01*
X75673195Y-100564385D01*
X75720814Y-100373909D01*
X75720814Y-100231052D01*
X75673195Y-100040576D01*
X75625576Y-99945338D01*
X75530338Y-99850100D01*
X75387480Y-99802480D01*
X75292242Y-99802480D01*
X75149385Y-99850100D01*
X75101766Y-99897719D01*
X74720814Y-99897719D02*
X74673195Y-99850100D01*
X74577957Y-99802480D01*
X74339861Y-99802480D01*
X74244623Y-99850100D01*
X74197004Y-99897719D01*
X74149385Y-99992957D01*
X74149385Y-100088195D01*
X74197004Y-100231052D01*
X74768433Y-100802480D01*
X74149385Y-100802480D01*
X78828666Y-96468442D02*
X78876285Y-96516061D01*
X79019142Y-96563680D01*
X79114380Y-96563680D01*
X79257238Y-96516061D01*
X79352476Y-96420823D01*
X79400095Y-96325585D01*
X79447714Y-96135109D01*
X79447714Y-95992252D01*
X79400095Y-95801776D01*
X79352476Y-95706538D01*
X79257238Y-95611300D01*
X79114380Y-95563680D01*
X79019142Y-95563680D01*
X78876285Y-95611300D01*
X78828666Y-95658919D01*
X77876285Y-96563680D02*
X78447714Y-96563680D01*
X78162000Y-96563680D02*
X78162000Y-95563680D01*
X78257238Y-95706538D01*
X78352476Y-95801776D01*
X78447714Y-95849395D01*
M02*
