G04 #@! TF.GenerationSoftware,KiCad,Pcbnew,(5.1.5)-3*
G04 #@! TF.CreationDate,2020-11-20T20:52:34+01:00*
G04 #@! TF.ProjectId,IsolationBarrier,49736f6c-6174-4696-9f6e-426172726965,rev?*
G04 #@! TF.SameCoordinates,Original*
G04 #@! TF.FileFunction,Soldermask,Bot*
G04 #@! TF.FilePolarity,Negative*
%FSLAX46Y46*%
G04 Gerber Fmt 4.6, Leading zero omitted, Abs format (unit mm)*
G04 Created by KiCad (PCBNEW (5.1.5)-3) date 2020-11-20 20:52:34*
%MOMM*%
%LPD*%
G04 APERTURE LIST*
%ADD10C,0.100000*%
G04 APERTURE END LIST*
D10*
G36*
X77361318Y-180486453D02*
G01*
X77579885Y-180576987D01*
X77579887Y-180576988D01*
X77776593Y-180708422D01*
X77943878Y-180875707D01*
X78065635Y-181057931D01*
X78075313Y-181072415D01*
X78165847Y-181290982D01*
X78212000Y-181523010D01*
X78212000Y-181759590D01*
X78165847Y-181991618D01*
X78075313Y-182210185D01*
X78075312Y-182210187D01*
X77943878Y-182406893D01*
X77776593Y-182574178D01*
X77579887Y-182705612D01*
X77579886Y-182705613D01*
X77579885Y-182705613D01*
X77361318Y-182796147D01*
X77129290Y-182842300D01*
X76892710Y-182842300D01*
X76660682Y-182796147D01*
X76442115Y-182705613D01*
X76442114Y-182705613D01*
X76442113Y-182705612D01*
X76245407Y-182574178D01*
X76078122Y-182406893D01*
X75946688Y-182210187D01*
X75946687Y-182210185D01*
X75856153Y-181991618D01*
X75810000Y-181759590D01*
X75810000Y-181523010D01*
X75856153Y-181290982D01*
X75946687Y-181072415D01*
X75956365Y-181057931D01*
X76078122Y-180875707D01*
X76245407Y-180708422D01*
X76442113Y-180576988D01*
X76442115Y-180576987D01*
X76660682Y-180486453D01*
X76892710Y-180440300D01*
X77129290Y-180440300D01*
X77361318Y-180486453D01*
G37*
G36*
X51961318Y-180486453D02*
G01*
X52179885Y-180576987D01*
X52179887Y-180576988D01*
X52376593Y-180708422D01*
X52543878Y-180875707D01*
X52665635Y-181057931D01*
X52675313Y-181072415D01*
X52765847Y-181290982D01*
X52812000Y-181523010D01*
X52812000Y-181759590D01*
X52765847Y-181991618D01*
X52675313Y-182210185D01*
X52675312Y-182210187D01*
X52543878Y-182406893D01*
X52376593Y-182574178D01*
X52179887Y-182705612D01*
X52179886Y-182705613D01*
X52179885Y-182705613D01*
X51961318Y-182796147D01*
X51729290Y-182842300D01*
X51492710Y-182842300D01*
X51260682Y-182796147D01*
X51042115Y-182705613D01*
X51042114Y-182705613D01*
X51042113Y-182705612D01*
X50845407Y-182574178D01*
X50678122Y-182406893D01*
X50546688Y-182210187D01*
X50546687Y-182210185D01*
X50456153Y-181991618D01*
X50410000Y-181759590D01*
X50410000Y-181523010D01*
X50456153Y-181290982D01*
X50546687Y-181072415D01*
X50556365Y-181057931D01*
X50678122Y-180875707D01*
X50845407Y-180708422D01*
X51042113Y-180576988D01*
X51042115Y-180576987D01*
X51260682Y-180486453D01*
X51492710Y-180440300D01*
X51729290Y-180440300D01*
X51961318Y-180486453D01*
G37*
G36*
X47582000Y-182842300D02*
G01*
X45480000Y-182842300D01*
X45480000Y-180440300D01*
X47582000Y-180440300D01*
X47582000Y-182842300D01*
G37*
G36*
X64670062Y-180846481D02*
G01*
X64704981Y-180857074D01*
X64737163Y-180874276D01*
X64765373Y-180897427D01*
X64788524Y-180925637D01*
X64805726Y-180957819D01*
X64816319Y-180992738D01*
X64820500Y-181035195D01*
X64820500Y-182501405D01*
X64816319Y-182543862D01*
X64805726Y-182578781D01*
X64788524Y-182610963D01*
X64765373Y-182639173D01*
X64737163Y-182662324D01*
X64704981Y-182679526D01*
X64670062Y-182690119D01*
X64627605Y-182694300D01*
X63486395Y-182694300D01*
X63443938Y-182690119D01*
X63409019Y-182679526D01*
X63376837Y-182662324D01*
X63348627Y-182639173D01*
X63325476Y-182610963D01*
X63308274Y-182578781D01*
X63297681Y-182543862D01*
X63293500Y-182501405D01*
X63293500Y-181035195D01*
X63297681Y-180992738D01*
X63308274Y-180957819D01*
X63325476Y-180925637D01*
X63348627Y-180897427D01*
X63376837Y-180874276D01*
X63409019Y-180857074D01*
X63443938Y-180846481D01*
X63486395Y-180842300D01*
X64627605Y-180842300D01*
X64670062Y-180846481D01*
G37*
G36*
X58828062Y-180846481D02*
G01*
X58862981Y-180857074D01*
X58895163Y-180874276D01*
X58923373Y-180897427D01*
X58946524Y-180925637D01*
X58963726Y-180957819D01*
X58974319Y-180992738D01*
X58978500Y-181035195D01*
X58978500Y-182501405D01*
X58974319Y-182543862D01*
X58963726Y-182578781D01*
X58946524Y-182610963D01*
X58923373Y-182639173D01*
X58895163Y-182662324D01*
X58862981Y-182679526D01*
X58828062Y-182690119D01*
X58785605Y-182694300D01*
X57644395Y-182694300D01*
X57601938Y-182690119D01*
X57567019Y-182679526D01*
X57534837Y-182662324D01*
X57506627Y-182639173D01*
X57483476Y-182610963D01*
X57466274Y-182578781D01*
X57455681Y-182543862D01*
X57451500Y-182501405D01*
X57451500Y-181035195D01*
X57455681Y-180992738D01*
X57466274Y-180957819D01*
X57483476Y-180925637D01*
X57506627Y-180897427D01*
X57534837Y-180874276D01*
X57567019Y-180857074D01*
X57601938Y-180846481D01*
X57644395Y-180842300D01*
X58785605Y-180842300D01*
X58828062Y-180846481D01*
G37*
G36*
X55853062Y-180846481D02*
G01*
X55887981Y-180857074D01*
X55920163Y-180874276D01*
X55948373Y-180897427D01*
X55971524Y-180925637D01*
X55988726Y-180957819D01*
X55999319Y-180992738D01*
X56003500Y-181035195D01*
X56003500Y-182501405D01*
X55999319Y-182543862D01*
X55988726Y-182578781D01*
X55971524Y-182610963D01*
X55948373Y-182639173D01*
X55920163Y-182662324D01*
X55887981Y-182679526D01*
X55853062Y-182690119D01*
X55810605Y-182694300D01*
X54669395Y-182694300D01*
X54626938Y-182690119D01*
X54592019Y-182679526D01*
X54559837Y-182662324D01*
X54531627Y-182639173D01*
X54508476Y-182610963D01*
X54491274Y-182578781D01*
X54480681Y-182543862D01*
X54476500Y-182501405D01*
X54476500Y-181035195D01*
X54480681Y-180992738D01*
X54491274Y-180957819D01*
X54508476Y-180925637D01*
X54531627Y-180897427D01*
X54559837Y-180874276D01*
X54592019Y-180857074D01*
X54626938Y-180846481D01*
X54669395Y-180842300D01*
X55810605Y-180842300D01*
X55853062Y-180846481D01*
G37*
G36*
X61695062Y-180846481D02*
G01*
X61729981Y-180857074D01*
X61762163Y-180874276D01*
X61790373Y-180897427D01*
X61813524Y-180925637D01*
X61830726Y-180957819D01*
X61841319Y-180992738D01*
X61845500Y-181035195D01*
X61845500Y-182501405D01*
X61841319Y-182543862D01*
X61830726Y-182578781D01*
X61813524Y-182610963D01*
X61790373Y-182639173D01*
X61762163Y-182662324D01*
X61729981Y-182679526D01*
X61695062Y-182690119D01*
X61652605Y-182694300D01*
X60511395Y-182694300D01*
X60468938Y-182690119D01*
X60434019Y-182679526D01*
X60401837Y-182662324D01*
X60373627Y-182639173D01*
X60350476Y-182610963D01*
X60333274Y-182578781D01*
X60322681Y-182543862D01*
X60318500Y-182501405D01*
X60318500Y-181035195D01*
X60322681Y-180992738D01*
X60333274Y-180957819D01*
X60350476Y-180925637D01*
X60373627Y-180897427D01*
X60401837Y-180874276D01*
X60434019Y-180857074D01*
X60468938Y-180846481D01*
X60511395Y-180842300D01*
X61652605Y-180842300D01*
X61695062Y-180846481D01*
G37*
G36*
X122330587Y-179207696D02*
G01*
X122567353Y-179305768D01*
X122567355Y-179305769D01*
X122659760Y-179367512D01*
X122780439Y-179448147D01*
X122961653Y-179629361D01*
X123104032Y-179842447D01*
X123202104Y-180079213D01*
X123252100Y-180330561D01*
X123252100Y-180586839D01*
X123202104Y-180838187D01*
X123131899Y-181007676D01*
X123104031Y-181074955D01*
X122961653Y-181288039D01*
X122780439Y-181469253D01*
X122567355Y-181611631D01*
X122567354Y-181611632D01*
X122567353Y-181611632D01*
X122330587Y-181709704D01*
X122079239Y-181759700D01*
X121822961Y-181759700D01*
X121571613Y-181709704D01*
X121334847Y-181611632D01*
X121334846Y-181611632D01*
X121334845Y-181611631D01*
X121121761Y-181469253D01*
X120940547Y-181288039D01*
X120798169Y-181074955D01*
X120770301Y-181007676D01*
X120700096Y-180838187D01*
X120650100Y-180586839D01*
X120650100Y-180330561D01*
X120700096Y-180079213D01*
X120798168Y-179842447D01*
X120940547Y-179629361D01*
X121121761Y-179448147D01*
X121242440Y-179367512D01*
X121334845Y-179305769D01*
X121334847Y-179305768D01*
X121571613Y-179207696D01*
X121822961Y-179157700D01*
X122079239Y-179157700D01*
X122330587Y-179207696D01*
G37*
G36*
X37544425Y-177754560D02*
G01*
X37544428Y-177754561D01*
X37544429Y-177754561D01*
X37723693Y-177808940D01*
X37723696Y-177808942D01*
X37723697Y-177808942D01*
X37888903Y-177897246D01*
X38033712Y-178016088D01*
X38152554Y-178160897D01*
X38240858Y-178326103D01*
X38240860Y-178326107D01*
X38295239Y-178505371D01*
X38295240Y-178505375D01*
X38313601Y-178691800D01*
X38295240Y-178878225D01*
X38295239Y-178878228D01*
X38295239Y-178878229D01*
X38240860Y-179057493D01*
X38240858Y-179057496D01*
X38240858Y-179057497D01*
X38152554Y-179222703D01*
X38033712Y-179367512D01*
X37888903Y-179486354D01*
X37723697Y-179574658D01*
X37723693Y-179574660D01*
X37544429Y-179629039D01*
X37544428Y-179629039D01*
X37544425Y-179629040D01*
X37404718Y-179642800D01*
X35611282Y-179642800D01*
X35471575Y-179629040D01*
X35471572Y-179629039D01*
X35471571Y-179629039D01*
X35292307Y-179574660D01*
X35292303Y-179574658D01*
X35127097Y-179486354D01*
X34982288Y-179367512D01*
X34863446Y-179222703D01*
X34775142Y-179057497D01*
X34775142Y-179057496D01*
X34775140Y-179057493D01*
X34720761Y-178878229D01*
X34720761Y-178878228D01*
X34720760Y-178878225D01*
X34702399Y-178691800D01*
X34720760Y-178505375D01*
X34720761Y-178505371D01*
X34775140Y-178326107D01*
X34775142Y-178326103D01*
X34863446Y-178160897D01*
X34982288Y-178016088D01*
X35127097Y-177897246D01*
X35292303Y-177808942D01*
X35292304Y-177808942D01*
X35292307Y-177808940D01*
X35471571Y-177754561D01*
X35471572Y-177754561D01*
X35471575Y-177754560D01*
X35611282Y-177740800D01*
X37404718Y-177740800D01*
X37544425Y-177754560D01*
G37*
G36*
X119953242Y-176226942D02*
G01*
X120101201Y-176288229D01*
X120234355Y-176377199D01*
X120347601Y-176490445D01*
X120436571Y-176623599D01*
X120497858Y-176771558D01*
X120529100Y-176928625D01*
X120529100Y-177088775D01*
X120497858Y-177245842D01*
X120436571Y-177393801D01*
X120347601Y-177526955D01*
X120234355Y-177640201D01*
X120101201Y-177729171D01*
X119953242Y-177790458D01*
X119796175Y-177821700D01*
X119636025Y-177821700D01*
X119478958Y-177790458D01*
X119330999Y-177729171D01*
X119197845Y-177640201D01*
X119084599Y-177526955D01*
X118995629Y-177393801D01*
X118934342Y-177245842D01*
X118903100Y-177088775D01*
X118903100Y-176928625D01*
X118934342Y-176771558D01*
X118995629Y-176623599D01*
X119084599Y-176490445D01*
X119197845Y-176377199D01*
X119330999Y-176288229D01*
X119478958Y-176226942D01*
X119636025Y-176195700D01*
X119796175Y-176195700D01*
X119953242Y-176226942D01*
G37*
G36*
X117413242Y-175206942D02*
G01*
X117561201Y-175268229D01*
X117694355Y-175357199D01*
X117807601Y-175470445D01*
X117896571Y-175603599D01*
X117957858Y-175751558D01*
X117989100Y-175908625D01*
X117989100Y-176068775D01*
X117957858Y-176225842D01*
X117896571Y-176373801D01*
X117807601Y-176506955D01*
X117694355Y-176620201D01*
X117561201Y-176709171D01*
X117413242Y-176770458D01*
X117256175Y-176801700D01*
X117096025Y-176801700D01*
X116938958Y-176770458D01*
X116790999Y-176709171D01*
X116657845Y-176620201D01*
X116544599Y-176506955D01*
X116455629Y-176373801D01*
X116394342Y-176225842D01*
X116363100Y-176068775D01*
X116363100Y-175908625D01*
X116394342Y-175751558D01*
X116455629Y-175603599D01*
X116544599Y-175470445D01*
X116657845Y-175357199D01*
X116790999Y-175268229D01*
X116938958Y-175206942D01*
X117096025Y-175175700D01*
X117256175Y-175175700D01*
X117413242Y-175206942D01*
G37*
G36*
X119953242Y-174186942D02*
G01*
X120101201Y-174248229D01*
X120234355Y-174337199D01*
X120347601Y-174450445D01*
X120436571Y-174583599D01*
X120497858Y-174731558D01*
X120529100Y-174888625D01*
X120529100Y-175048775D01*
X120497858Y-175205842D01*
X120436571Y-175353801D01*
X120347601Y-175486955D01*
X120234355Y-175600201D01*
X120101201Y-175689171D01*
X119953242Y-175750458D01*
X119796175Y-175781700D01*
X119636025Y-175781700D01*
X119478958Y-175750458D01*
X119330999Y-175689171D01*
X119197845Y-175600201D01*
X119084599Y-175486955D01*
X118995629Y-175353801D01*
X118934342Y-175205842D01*
X118903100Y-175048775D01*
X118903100Y-174888625D01*
X118934342Y-174731558D01*
X118995629Y-174583599D01*
X119084599Y-174450445D01*
X119197845Y-174337199D01*
X119330999Y-174248229D01*
X119478958Y-174186942D01*
X119636025Y-174155700D01*
X119796175Y-174155700D01*
X119953242Y-174186942D01*
G37*
G36*
X64705562Y-173515981D02*
G01*
X64740481Y-173526574D01*
X64772663Y-173543776D01*
X64800873Y-173566927D01*
X64824024Y-173595137D01*
X64841226Y-173627319D01*
X64851819Y-173662238D01*
X64856000Y-173704695D01*
X64856000Y-174845905D01*
X64851819Y-174888362D01*
X64841226Y-174923281D01*
X64824024Y-174955463D01*
X64800873Y-174983673D01*
X64772663Y-175006824D01*
X64740481Y-175024026D01*
X64705562Y-175034619D01*
X64663105Y-175038800D01*
X63196895Y-175038800D01*
X63154438Y-175034619D01*
X63119519Y-175024026D01*
X63087337Y-175006824D01*
X63059127Y-174983673D01*
X63035976Y-174955463D01*
X63018774Y-174923281D01*
X63008181Y-174888362D01*
X63004000Y-174845905D01*
X63004000Y-173704695D01*
X63008181Y-173662238D01*
X63018774Y-173627319D01*
X63035976Y-173595137D01*
X63059127Y-173566927D01*
X63087337Y-173543776D01*
X63119519Y-173526574D01*
X63154438Y-173515981D01*
X63196895Y-173511800D01*
X64663105Y-173511800D01*
X64705562Y-173515981D01*
G37*
G36*
X117413242Y-173166942D02*
G01*
X117561201Y-173228229D01*
X117694355Y-173317199D01*
X117807601Y-173430445D01*
X117896571Y-173563599D01*
X117957858Y-173711558D01*
X117989100Y-173868625D01*
X117989100Y-174028775D01*
X117957858Y-174185842D01*
X117896571Y-174333801D01*
X117807601Y-174466955D01*
X117694355Y-174580201D01*
X117561201Y-174669171D01*
X117413242Y-174730458D01*
X117256175Y-174761700D01*
X117096025Y-174761700D01*
X116938958Y-174730458D01*
X116790999Y-174669171D01*
X116657845Y-174580201D01*
X116544599Y-174466955D01*
X116455629Y-174333801D01*
X116394342Y-174185842D01*
X116363100Y-174028775D01*
X116363100Y-173868625D01*
X116394342Y-173711558D01*
X116455629Y-173563599D01*
X116544599Y-173430445D01*
X116657845Y-173317199D01*
X116790999Y-173228229D01*
X116938958Y-173166942D01*
X117096025Y-173135700D01*
X117256175Y-173135700D01*
X117413242Y-173166942D01*
G37*
G36*
X46328942Y-172381742D02*
G01*
X46476901Y-172443029D01*
X46610055Y-172531999D01*
X46723301Y-172645245D01*
X46812271Y-172778399D01*
X46873558Y-172926358D01*
X46904800Y-173083425D01*
X46904800Y-173243575D01*
X46873558Y-173400642D01*
X46812271Y-173548601D01*
X46723301Y-173681755D01*
X46610055Y-173795001D01*
X46476901Y-173883971D01*
X46328942Y-173945258D01*
X46171875Y-173976500D01*
X46011725Y-173976500D01*
X45854658Y-173945258D01*
X45706699Y-173883971D01*
X45573545Y-173795001D01*
X45460299Y-173681755D01*
X45371329Y-173548601D01*
X45310042Y-173400642D01*
X45278800Y-173243575D01*
X45278800Y-173083425D01*
X45310042Y-172926358D01*
X45371329Y-172778399D01*
X45460299Y-172645245D01*
X45573545Y-172531999D01*
X45706699Y-172443029D01*
X45854658Y-172381742D01*
X46011725Y-172350500D01*
X46171875Y-172350500D01*
X46328942Y-172381742D01*
G37*
G36*
X119953242Y-172146942D02*
G01*
X120101201Y-172208229D01*
X120234355Y-172297199D01*
X120347601Y-172410445D01*
X120436571Y-172543599D01*
X120497858Y-172691558D01*
X120529100Y-172848625D01*
X120529100Y-173008775D01*
X120497858Y-173165842D01*
X120436571Y-173313801D01*
X120347601Y-173446955D01*
X120234355Y-173560201D01*
X120101201Y-173649171D01*
X119953242Y-173710458D01*
X119796175Y-173741700D01*
X119636025Y-173741700D01*
X119478958Y-173710458D01*
X119330999Y-173649171D01*
X119197845Y-173560201D01*
X119084599Y-173446955D01*
X118995629Y-173313801D01*
X118934342Y-173165842D01*
X118903100Y-173008775D01*
X118903100Y-172848625D01*
X118934342Y-172691558D01*
X118995629Y-172543599D01*
X119084599Y-172410445D01*
X119197845Y-172297199D01*
X119330999Y-172208229D01*
X119478958Y-172146942D01*
X119636025Y-172115700D01*
X119796175Y-172115700D01*
X119953242Y-172146942D01*
G37*
G36*
X77035662Y-171708281D02*
G01*
X77070581Y-171718874D01*
X77102763Y-171736076D01*
X77130973Y-171759227D01*
X77154124Y-171787437D01*
X77171326Y-171819619D01*
X77181919Y-171854538D01*
X77186100Y-171896995D01*
X77186100Y-173363205D01*
X77181919Y-173405662D01*
X77171326Y-173440581D01*
X77154124Y-173472763D01*
X77130973Y-173500973D01*
X77102763Y-173524124D01*
X77070581Y-173541326D01*
X77035662Y-173551919D01*
X76993205Y-173556100D01*
X75851995Y-173556100D01*
X75809538Y-173551919D01*
X75774619Y-173541326D01*
X75742437Y-173524124D01*
X75714227Y-173500973D01*
X75691076Y-173472763D01*
X75673874Y-173440581D01*
X75663281Y-173405662D01*
X75659100Y-173363205D01*
X75659100Y-171896995D01*
X75663281Y-171854538D01*
X75673874Y-171819619D01*
X75691076Y-171787437D01*
X75714227Y-171759227D01*
X75742437Y-171736076D01*
X75774619Y-171718874D01*
X75809538Y-171708281D01*
X75851995Y-171704100D01*
X76993205Y-171704100D01*
X77035662Y-171708281D01*
G37*
G36*
X74060662Y-171708281D02*
G01*
X74095581Y-171718874D01*
X74127763Y-171736076D01*
X74155973Y-171759227D01*
X74179124Y-171787437D01*
X74196326Y-171819619D01*
X74206919Y-171854538D01*
X74211100Y-171896995D01*
X74211100Y-173363205D01*
X74206919Y-173405662D01*
X74196326Y-173440581D01*
X74179124Y-173472763D01*
X74155973Y-173500973D01*
X74127763Y-173524124D01*
X74095581Y-173541326D01*
X74060662Y-173551919D01*
X74018205Y-173556100D01*
X72876995Y-173556100D01*
X72834538Y-173551919D01*
X72799619Y-173541326D01*
X72767437Y-173524124D01*
X72739227Y-173500973D01*
X72716076Y-173472763D01*
X72698874Y-173440581D01*
X72688281Y-173405662D01*
X72684100Y-173363205D01*
X72684100Y-171896995D01*
X72688281Y-171854538D01*
X72698874Y-171819619D01*
X72716076Y-171787437D01*
X72739227Y-171759227D01*
X72767437Y-171736076D01*
X72799619Y-171718874D01*
X72834538Y-171708281D01*
X72876995Y-171704100D01*
X74018205Y-171704100D01*
X74060662Y-171708281D01*
G37*
G36*
X117413242Y-171126942D02*
G01*
X117561201Y-171188229D01*
X117694355Y-171277199D01*
X117807601Y-171390445D01*
X117896571Y-171523599D01*
X117957858Y-171671558D01*
X117989100Y-171828625D01*
X117989100Y-171988775D01*
X117957858Y-172145842D01*
X117896571Y-172293801D01*
X117807601Y-172426955D01*
X117694355Y-172540201D01*
X117561201Y-172629171D01*
X117413242Y-172690458D01*
X117256175Y-172721700D01*
X117096025Y-172721700D01*
X116938958Y-172690458D01*
X116790999Y-172629171D01*
X116657845Y-172540201D01*
X116544599Y-172426955D01*
X116455629Y-172293801D01*
X116394342Y-172145842D01*
X116363100Y-171988775D01*
X116363100Y-171828625D01*
X116394342Y-171671558D01*
X116455629Y-171523599D01*
X116544599Y-171390445D01*
X116657845Y-171277199D01*
X116790999Y-171188229D01*
X116938958Y-171126942D01*
X117096025Y-171095700D01*
X117256175Y-171095700D01*
X117413242Y-171126942D01*
G37*
G36*
X64705562Y-170540981D02*
G01*
X64740481Y-170551574D01*
X64772663Y-170568776D01*
X64800873Y-170591927D01*
X64824024Y-170620137D01*
X64841226Y-170652319D01*
X64851819Y-170687238D01*
X64856000Y-170729695D01*
X64856000Y-171870905D01*
X64851819Y-171913362D01*
X64841226Y-171948281D01*
X64824024Y-171980463D01*
X64800873Y-172008673D01*
X64772663Y-172031824D01*
X64740481Y-172049026D01*
X64705562Y-172059619D01*
X64663105Y-172063800D01*
X63196895Y-172063800D01*
X63154438Y-172059619D01*
X63119519Y-172049026D01*
X63087337Y-172031824D01*
X63059127Y-172008673D01*
X63035976Y-171980463D01*
X63018774Y-171948281D01*
X63008181Y-171913362D01*
X63004000Y-171870905D01*
X63004000Y-170729695D01*
X63008181Y-170687238D01*
X63018774Y-170652319D01*
X63035976Y-170620137D01*
X63059127Y-170591927D01*
X63087337Y-170568776D01*
X63119519Y-170551574D01*
X63154438Y-170540981D01*
X63196895Y-170536800D01*
X64663105Y-170536800D01*
X64705562Y-170540981D01*
G37*
G36*
X77035662Y-169320681D02*
G01*
X77070581Y-169331274D01*
X77102763Y-169348476D01*
X77130973Y-169371627D01*
X77154124Y-169399837D01*
X77171326Y-169432019D01*
X77181919Y-169466938D01*
X77186100Y-169509395D01*
X77186100Y-170975605D01*
X77181919Y-171018062D01*
X77171326Y-171052981D01*
X77154124Y-171085163D01*
X77130973Y-171113373D01*
X77102763Y-171136524D01*
X77070581Y-171153726D01*
X77035662Y-171164319D01*
X76993205Y-171168500D01*
X75851995Y-171168500D01*
X75809538Y-171164319D01*
X75774619Y-171153726D01*
X75742437Y-171136524D01*
X75714227Y-171113373D01*
X75691076Y-171085163D01*
X75673874Y-171052981D01*
X75663281Y-171018062D01*
X75659100Y-170975605D01*
X75659100Y-169509395D01*
X75663281Y-169466938D01*
X75673874Y-169432019D01*
X75691076Y-169399837D01*
X75714227Y-169371627D01*
X75742437Y-169348476D01*
X75774619Y-169331274D01*
X75809538Y-169320681D01*
X75851995Y-169316500D01*
X76993205Y-169316500D01*
X77035662Y-169320681D01*
G37*
G36*
X74060662Y-169320681D02*
G01*
X74095581Y-169331274D01*
X74127763Y-169348476D01*
X74155973Y-169371627D01*
X74179124Y-169399837D01*
X74196326Y-169432019D01*
X74206919Y-169466938D01*
X74211100Y-169509395D01*
X74211100Y-170975605D01*
X74206919Y-171018062D01*
X74196326Y-171052981D01*
X74179124Y-171085163D01*
X74155973Y-171113373D01*
X74127763Y-171136524D01*
X74095581Y-171153726D01*
X74060662Y-171164319D01*
X74018205Y-171168500D01*
X72876995Y-171168500D01*
X72834538Y-171164319D01*
X72799619Y-171153726D01*
X72767437Y-171136524D01*
X72739227Y-171113373D01*
X72716076Y-171085163D01*
X72698874Y-171052981D01*
X72688281Y-171018062D01*
X72684100Y-170975605D01*
X72684100Y-169509395D01*
X72688281Y-169466938D01*
X72698874Y-169432019D01*
X72716076Y-169399837D01*
X72739227Y-169371627D01*
X72767437Y-169348476D01*
X72799619Y-169331274D01*
X72834538Y-169320681D01*
X72876995Y-169316500D01*
X74018205Y-169316500D01*
X74060662Y-169320681D01*
G37*
G36*
X122330587Y-167207696D02*
G01*
X122567353Y-167305768D01*
X122567355Y-167305769D01*
X122780439Y-167448147D01*
X122961653Y-167629361D01*
X123041327Y-167748601D01*
X123104032Y-167842447D01*
X123202104Y-168079213D01*
X123252100Y-168330561D01*
X123252100Y-168586839D01*
X123202104Y-168838187D01*
X123104032Y-169074953D01*
X123104031Y-169074955D01*
X122961653Y-169288039D01*
X122780439Y-169469253D01*
X122567355Y-169611631D01*
X122567354Y-169611632D01*
X122567353Y-169611632D01*
X122330587Y-169709704D01*
X122079239Y-169759700D01*
X121822961Y-169759700D01*
X121571613Y-169709704D01*
X121334847Y-169611632D01*
X121334846Y-169611632D01*
X121334845Y-169611631D01*
X121121761Y-169469253D01*
X120940547Y-169288039D01*
X120798169Y-169074955D01*
X120798168Y-169074953D01*
X120700096Y-168838187D01*
X120650100Y-168586839D01*
X120650100Y-168330561D01*
X120700096Y-168079213D01*
X120798168Y-167842447D01*
X120860874Y-167748601D01*
X120940547Y-167629361D01*
X121121761Y-167448147D01*
X121334845Y-167305769D01*
X121334847Y-167305768D01*
X121571613Y-167207696D01*
X121822961Y-167157700D01*
X122079239Y-167157700D01*
X122330587Y-167207696D01*
G37*
G36*
X74094762Y-166794281D02*
G01*
X74129681Y-166804874D01*
X74161863Y-166822076D01*
X74190073Y-166845227D01*
X74213224Y-166873437D01*
X74230426Y-166905619D01*
X74241019Y-166940538D01*
X74245200Y-166982995D01*
X74245200Y-168449205D01*
X74241019Y-168491662D01*
X74230426Y-168526581D01*
X74213224Y-168558763D01*
X74190073Y-168586973D01*
X74161863Y-168610124D01*
X74129681Y-168627326D01*
X74094762Y-168637919D01*
X74052305Y-168642100D01*
X72911095Y-168642100D01*
X72868638Y-168637919D01*
X72833719Y-168627326D01*
X72801537Y-168610124D01*
X72773327Y-168586973D01*
X72750176Y-168558763D01*
X72732974Y-168526581D01*
X72722381Y-168491662D01*
X72718200Y-168449205D01*
X72718200Y-166982995D01*
X72722381Y-166940538D01*
X72732974Y-166905619D01*
X72750176Y-166873437D01*
X72773327Y-166845227D01*
X72801537Y-166822076D01*
X72833719Y-166804874D01*
X72868638Y-166794281D01*
X72911095Y-166790100D01*
X74052305Y-166790100D01*
X74094762Y-166794281D01*
G37*
G36*
X77069762Y-166794281D02*
G01*
X77104681Y-166804874D01*
X77136863Y-166822076D01*
X77165073Y-166845227D01*
X77188224Y-166873437D01*
X77205426Y-166905619D01*
X77216019Y-166940538D01*
X77220200Y-166982995D01*
X77220200Y-168449205D01*
X77216019Y-168491662D01*
X77205426Y-168526581D01*
X77188224Y-168558763D01*
X77165073Y-168586973D01*
X77136863Y-168610124D01*
X77104681Y-168627326D01*
X77069762Y-168637919D01*
X77027305Y-168642100D01*
X75886095Y-168642100D01*
X75843638Y-168637919D01*
X75808719Y-168627326D01*
X75776537Y-168610124D01*
X75748327Y-168586973D01*
X75725176Y-168558763D01*
X75707974Y-168526581D01*
X75697381Y-168491662D01*
X75693200Y-168449205D01*
X75693200Y-166982995D01*
X75697381Y-166940538D01*
X75707974Y-166905619D01*
X75725176Y-166873437D01*
X75748327Y-166845227D01*
X75776537Y-166822076D01*
X75808719Y-166804874D01*
X75843638Y-166794281D01*
X75886095Y-166790100D01*
X77027305Y-166790100D01*
X77069762Y-166794281D01*
G37*
G36*
X46328942Y-166581742D02*
G01*
X46476901Y-166643029D01*
X46610055Y-166731999D01*
X46723301Y-166845245D01*
X46812271Y-166978399D01*
X46873558Y-167126358D01*
X46904800Y-167283425D01*
X46904800Y-167443575D01*
X46873558Y-167600642D01*
X46812271Y-167748601D01*
X46723301Y-167881755D01*
X46610055Y-167995001D01*
X46476901Y-168083971D01*
X46328942Y-168145258D01*
X46171875Y-168176500D01*
X46011725Y-168176500D01*
X45854658Y-168145258D01*
X45706699Y-168083971D01*
X45573545Y-167995001D01*
X45460299Y-167881755D01*
X45371329Y-167748601D01*
X45310042Y-167600642D01*
X45278800Y-167443575D01*
X45278800Y-167283425D01*
X45310042Y-167126358D01*
X45371329Y-166978399D01*
X45460299Y-166845245D01*
X45573545Y-166731999D01*
X45706699Y-166643029D01*
X45854658Y-166581742D01*
X46011725Y-166550500D01*
X46171875Y-166550500D01*
X46328942Y-166581742D01*
G37*
G36*
X37544425Y-166254560D02*
G01*
X37544428Y-166254561D01*
X37544429Y-166254561D01*
X37723693Y-166308940D01*
X37723696Y-166308942D01*
X37723697Y-166308942D01*
X37888903Y-166397246D01*
X38033712Y-166516088D01*
X38152554Y-166660897D01*
X38240858Y-166826103D01*
X38240860Y-166826107D01*
X38287057Y-166978399D01*
X38295240Y-167005375D01*
X38313601Y-167191800D01*
X38295240Y-167378225D01*
X38295239Y-167378228D01*
X38295239Y-167378229D01*
X38240860Y-167557493D01*
X38240858Y-167557496D01*
X38240858Y-167557497D01*
X38152554Y-167722703D01*
X38033712Y-167867512D01*
X37888903Y-167986354D01*
X37723697Y-168074658D01*
X37723693Y-168074660D01*
X37544429Y-168129039D01*
X37544428Y-168129039D01*
X37544425Y-168129040D01*
X37404718Y-168142800D01*
X35611282Y-168142800D01*
X35471575Y-168129040D01*
X35471572Y-168129039D01*
X35471571Y-168129039D01*
X35292307Y-168074660D01*
X35292303Y-168074658D01*
X35127097Y-167986354D01*
X34982288Y-167867512D01*
X34863446Y-167722703D01*
X34775142Y-167557497D01*
X34775142Y-167557496D01*
X34775140Y-167557493D01*
X34720761Y-167378229D01*
X34720761Y-167378228D01*
X34720760Y-167378225D01*
X34702399Y-167191800D01*
X34720760Y-167005375D01*
X34728943Y-166978399D01*
X34775140Y-166826107D01*
X34775142Y-166826103D01*
X34863446Y-166660897D01*
X34982288Y-166516088D01*
X35127097Y-166397246D01*
X35292303Y-166308942D01*
X35292304Y-166308942D01*
X35292307Y-166308940D01*
X35471571Y-166254561D01*
X35471572Y-166254561D01*
X35471575Y-166254560D01*
X35611282Y-166240800D01*
X37404718Y-166240800D01*
X37544425Y-166254560D01*
G37*
G36*
X72281318Y-162706453D02*
G01*
X72499885Y-162796987D01*
X72499887Y-162796988D01*
X72696593Y-162928422D01*
X72863878Y-163095707D01*
X72905968Y-163158700D01*
X72995313Y-163292415D01*
X73085847Y-163510982D01*
X73132000Y-163743010D01*
X73132000Y-163979590D01*
X73085847Y-164211618D01*
X73038651Y-164325558D01*
X72995312Y-164430187D01*
X72863878Y-164626893D01*
X72696593Y-164794178D01*
X72499887Y-164925612D01*
X72499886Y-164925613D01*
X72499885Y-164925613D01*
X72281318Y-165016147D01*
X72049290Y-165062300D01*
X71812710Y-165062300D01*
X71580682Y-165016147D01*
X71362115Y-164925613D01*
X71362114Y-164925613D01*
X71362113Y-164925612D01*
X71165407Y-164794178D01*
X70998122Y-164626893D01*
X70866688Y-164430187D01*
X70823349Y-164325558D01*
X70776153Y-164211618D01*
X70730000Y-163979590D01*
X70730000Y-163743010D01*
X70776153Y-163510982D01*
X70866687Y-163292415D01*
X70956032Y-163158700D01*
X70998122Y-163095707D01*
X71165407Y-162928422D01*
X71362113Y-162796988D01*
X71362115Y-162796987D01*
X71580682Y-162706453D01*
X71812710Y-162660300D01*
X72049290Y-162660300D01*
X72281318Y-162706453D01*
G37*
G36*
X77361318Y-162706453D02*
G01*
X77579885Y-162796987D01*
X77579887Y-162796988D01*
X77776593Y-162928422D01*
X77943878Y-163095707D01*
X77985968Y-163158700D01*
X78075313Y-163292415D01*
X78165847Y-163510982D01*
X78212000Y-163743010D01*
X78212000Y-163979590D01*
X78165847Y-164211618D01*
X78118651Y-164325558D01*
X78075312Y-164430187D01*
X77943878Y-164626893D01*
X77776593Y-164794178D01*
X77579887Y-164925612D01*
X77579886Y-164925613D01*
X77579885Y-164925613D01*
X77361318Y-165016147D01*
X77129290Y-165062300D01*
X76892710Y-165062300D01*
X76660682Y-165016147D01*
X76442115Y-164925613D01*
X76442114Y-164925613D01*
X76442113Y-164925612D01*
X76245407Y-164794178D01*
X76078122Y-164626893D01*
X75946688Y-164430187D01*
X75903349Y-164325558D01*
X75856153Y-164211618D01*
X75810000Y-163979590D01*
X75810000Y-163743010D01*
X75856153Y-163510982D01*
X75946687Y-163292415D01*
X76036032Y-163158700D01*
X76078122Y-163095707D01*
X76245407Y-162928422D01*
X76442113Y-162796988D01*
X76442115Y-162796987D01*
X76660682Y-162706453D01*
X76892710Y-162660300D01*
X77129290Y-162660300D01*
X77361318Y-162706453D01*
G37*
G36*
X107728142Y-162762042D02*
G01*
X107876101Y-162823329D01*
X108009255Y-162912299D01*
X108122501Y-163025545D01*
X108211471Y-163158699D01*
X108272758Y-163306658D01*
X108304000Y-163463725D01*
X108304000Y-163623875D01*
X108272758Y-163780942D01*
X108211471Y-163928901D01*
X108122501Y-164062055D01*
X108009255Y-164175301D01*
X107876101Y-164264271D01*
X107728142Y-164325558D01*
X107571075Y-164356800D01*
X107410925Y-164356800D01*
X107253858Y-164325558D01*
X107105899Y-164264271D01*
X106972745Y-164175301D01*
X106859499Y-164062055D01*
X106770529Y-163928901D01*
X106709242Y-163780942D01*
X106678000Y-163623875D01*
X106678000Y-163463725D01*
X106709242Y-163306658D01*
X106770529Y-163158699D01*
X106859499Y-163025545D01*
X106972745Y-162912299D01*
X107105899Y-162823329D01*
X107253858Y-162762042D01*
X107410925Y-162730800D01*
X107571075Y-162730800D01*
X107728142Y-162762042D01*
G37*
G36*
X95028142Y-162762042D02*
G01*
X95176101Y-162823329D01*
X95309255Y-162912299D01*
X95422501Y-163025545D01*
X95511471Y-163158699D01*
X95572758Y-163306658D01*
X95604000Y-163463725D01*
X95604000Y-163623875D01*
X95572758Y-163780942D01*
X95511471Y-163928901D01*
X95422501Y-164062055D01*
X95309255Y-164175301D01*
X95176101Y-164264271D01*
X95028142Y-164325558D01*
X94871075Y-164356800D01*
X94710925Y-164356800D01*
X94553858Y-164325558D01*
X94405899Y-164264271D01*
X94272745Y-164175301D01*
X94159499Y-164062055D01*
X94070529Y-163928901D01*
X94009242Y-163780942D01*
X93978000Y-163623875D01*
X93978000Y-163463725D01*
X94009242Y-163306658D01*
X94070529Y-163158699D01*
X94159499Y-163025545D01*
X94272745Y-162912299D01*
X94405899Y-162823329D01*
X94553858Y-162762042D01*
X94710925Y-162730800D01*
X94871075Y-162730800D01*
X95028142Y-162762042D01*
G37*
G36*
X102648142Y-162762042D02*
G01*
X102796101Y-162823329D01*
X102929255Y-162912299D01*
X103042501Y-163025545D01*
X103131471Y-163158699D01*
X103192758Y-163306658D01*
X103224000Y-163463725D01*
X103224000Y-163623875D01*
X103192758Y-163780942D01*
X103131471Y-163928901D01*
X103042501Y-164062055D01*
X102929255Y-164175301D01*
X102796101Y-164264271D01*
X102648142Y-164325558D01*
X102491075Y-164356800D01*
X102330925Y-164356800D01*
X102173858Y-164325558D01*
X102025899Y-164264271D01*
X101892745Y-164175301D01*
X101779499Y-164062055D01*
X101690529Y-163928901D01*
X101629242Y-163780942D01*
X101598000Y-163623875D01*
X101598000Y-163463725D01*
X101629242Y-163306658D01*
X101690529Y-163158699D01*
X101779499Y-163025545D01*
X101892745Y-162912299D01*
X102025899Y-162823329D01*
X102173858Y-162762042D01*
X102330925Y-162730800D01*
X102491075Y-162730800D01*
X102648142Y-162762042D01*
G37*
G36*
X105188142Y-162762042D02*
G01*
X105336101Y-162823329D01*
X105469255Y-162912299D01*
X105582501Y-163025545D01*
X105671471Y-163158699D01*
X105732758Y-163306658D01*
X105764000Y-163463725D01*
X105764000Y-163623875D01*
X105732758Y-163780942D01*
X105671471Y-163928901D01*
X105582501Y-164062055D01*
X105469255Y-164175301D01*
X105336101Y-164264271D01*
X105188142Y-164325558D01*
X105031075Y-164356800D01*
X104870925Y-164356800D01*
X104713858Y-164325558D01*
X104565899Y-164264271D01*
X104432745Y-164175301D01*
X104319499Y-164062055D01*
X104230529Y-163928901D01*
X104169242Y-163780942D01*
X104138000Y-163623875D01*
X104138000Y-163463725D01*
X104169242Y-163306658D01*
X104230529Y-163158699D01*
X104319499Y-163025545D01*
X104432745Y-162912299D01*
X104565899Y-162823329D01*
X104713858Y-162762042D01*
X104870925Y-162730800D01*
X105031075Y-162730800D01*
X105188142Y-162762042D01*
G37*
G36*
X92488142Y-162762042D02*
G01*
X92636101Y-162823329D01*
X92769255Y-162912299D01*
X92882501Y-163025545D01*
X92971471Y-163158699D01*
X93032758Y-163306658D01*
X93064000Y-163463725D01*
X93064000Y-163623875D01*
X93032758Y-163780942D01*
X92971471Y-163928901D01*
X92882501Y-164062055D01*
X92769255Y-164175301D01*
X92636101Y-164264271D01*
X92488142Y-164325558D01*
X92331075Y-164356800D01*
X92170925Y-164356800D01*
X92013858Y-164325558D01*
X91865899Y-164264271D01*
X91732745Y-164175301D01*
X91619499Y-164062055D01*
X91530529Y-163928901D01*
X91469242Y-163780942D01*
X91438000Y-163623875D01*
X91438000Y-163463725D01*
X91469242Y-163306658D01*
X91530529Y-163158699D01*
X91619499Y-163025545D01*
X91732745Y-162912299D01*
X91865899Y-162823329D01*
X92013858Y-162762042D01*
X92170925Y-162730800D01*
X92331075Y-162730800D01*
X92488142Y-162762042D01*
G37*
G36*
X56864862Y-162157881D02*
G01*
X56899781Y-162168474D01*
X56931963Y-162185676D01*
X56960173Y-162208827D01*
X56983324Y-162237037D01*
X57000526Y-162269219D01*
X57011119Y-162304138D01*
X57015300Y-162346595D01*
X57015300Y-163812805D01*
X57011119Y-163855262D01*
X57000526Y-163890181D01*
X56983324Y-163922363D01*
X56960173Y-163950573D01*
X56931963Y-163973724D01*
X56899781Y-163990926D01*
X56864862Y-164001519D01*
X56822405Y-164005700D01*
X55681195Y-164005700D01*
X55638738Y-164001519D01*
X55603819Y-163990926D01*
X55571637Y-163973724D01*
X55543427Y-163950573D01*
X55520276Y-163922363D01*
X55503074Y-163890181D01*
X55492481Y-163855262D01*
X55488300Y-163812805D01*
X55488300Y-162346595D01*
X55492481Y-162304138D01*
X55503074Y-162269219D01*
X55520276Y-162237037D01*
X55543427Y-162208827D01*
X55571637Y-162185676D01*
X55603819Y-162168474D01*
X55638738Y-162157881D01*
X55681195Y-162153700D01*
X56822405Y-162153700D01*
X56864862Y-162157881D01*
G37*
G36*
X59839862Y-162157881D02*
G01*
X59874781Y-162168474D01*
X59906963Y-162185676D01*
X59935173Y-162208827D01*
X59958324Y-162237037D01*
X59975526Y-162269219D01*
X59986119Y-162304138D01*
X59990300Y-162346595D01*
X59990300Y-163812805D01*
X59986119Y-163855262D01*
X59975526Y-163890181D01*
X59958324Y-163922363D01*
X59935173Y-163950573D01*
X59906963Y-163973724D01*
X59874781Y-163990926D01*
X59839862Y-164001519D01*
X59797405Y-164005700D01*
X58656195Y-164005700D01*
X58613738Y-164001519D01*
X58578819Y-163990926D01*
X58546637Y-163973724D01*
X58518427Y-163950573D01*
X58495276Y-163922363D01*
X58478074Y-163890181D01*
X58467481Y-163855262D01*
X58463300Y-163812805D01*
X58463300Y-162346595D01*
X58467481Y-162304138D01*
X58478074Y-162269219D01*
X58495276Y-162237037D01*
X58518427Y-162208827D01*
X58546637Y-162185676D01*
X58578819Y-162168474D01*
X58613738Y-162157881D01*
X58656195Y-162153700D01*
X59797405Y-162153700D01*
X59839862Y-162157881D01*
G37*
G36*
X51683262Y-162157881D02*
G01*
X51718181Y-162168474D01*
X51750363Y-162185676D01*
X51778573Y-162208827D01*
X51801724Y-162237037D01*
X51818926Y-162269219D01*
X51829519Y-162304138D01*
X51833700Y-162346595D01*
X51833700Y-163812805D01*
X51829519Y-163855262D01*
X51818926Y-163890181D01*
X51801724Y-163922363D01*
X51778573Y-163950573D01*
X51750363Y-163973724D01*
X51718181Y-163990926D01*
X51683262Y-164001519D01*
X51640805Y-164005700D01*
X50499595Y-164005700D01*
X50457138Y-164001519D01*
X50422219Y-163990926D01*
X50390037Y-163973724D01*
X50361827Y-163950573D01*
X50338676Y-163922363D01*
X50321474Y-163890181D01*
X50310881Y-163855262D01*
X50306700Y-163812805D01*
X50306700Y-162346595D01*
X50310881Y-162304138D01*
X50321474Y-162269219D01*
X50338676Y-162237037D01*
X50361827Y-162208827D01*
X50390037Y-162185676D01*
X50422219Y-162168474D01*
X50457138Y-162157881D01*
X50499595Y-162153700D01*
X51640805Y-162153700D01*
X51683262Y-162157881D01*
G37*
G36*
X54658262Y-162157881D02*
G01*
X54693181Y-162168474D01*
X54725363Y-162185676D01*
X54753573Y-162208827D01*
X54776724Y-162237037D01*
X54793926Y-162269219D01*
X54804519Y-162304138D01*
X54808700Y-162346595D01*
X54808700Y-163812805D01*
X54804519Y-163855262D01*
X54793926Y-163890181D01*
X54776724Y-163922363D01*
X54753573Y-163950573D01*
X54725363Y-163973724D01*
X54693181Y-163990926D01*
X54658262Y-164001519D01*
X54615805Y-164005700D01*
X53474595Y-164005700D01*
X53432138Y-164001519D01*
X53397219Y-163990926D01*
X53365037Y-163973724D01*
X53336827Y-163950573D01*
X53313676Y-163922363D01*
X53296474Y-163890181D01*
X53285881Y-163855262D01*
X53281700Y-163812805D01*
X53281700Y-162346595D01*
X53285881Y-162304138D01*
X53296474Y-162269219D01*
X53313676Y-162237037D01*
X53336827Y-162208827D01*
X53365037Y-162185676D01*
X53397219Y-162168474D01*
X53432138Y-162157881D01*
X53474595Y-162153700D01*
X54615805Y-162153700D01*
X54658262Y-162157881D01*
G37*
G36*
X51961318Y-155786453D02*
G01*
X52179885Y-155876987D01*
X52179887Y-155876988D01*
X52376593Y-156008422D01*
X52543878Y-156175707D01*
X52665635Y-156357931D01*
X52675313Y-156372415D01*
X52765847Y-156590982D01*
X52812000Y-156823010D01*
X52812000Y-157059590D01*
X52765847Y-157291618D01*
X52675313Y-157510185D01*
X52675312Y-157510187D01*
X52543878Y-157706893D01*
X52376593Y-157874178D01*
X52179887Y-158005612D01*
X52179886Y-158005613D01*
X52179885Y-158005613D01*
X51961318Y-158096147D01*
X51729290Y-158142300D01*
X51492710Y-158142300D01*
X51260682Y-158096147D01*
X51042115Y-158005613D01*
X51042114Y-158005613D01*
X51042113Y-158005612D01*
X50845407Y-157874178D01*
X50678122Y-157706893D01*
X50546688Y-157510187D01*
X50546687Y-157510185D01*
X50456153Y-157291618D01*
X50410000Y-157059590D01*
X50410000Y-156823010D01*
X50456153Y-156590982D01*
X50546687Y-156372415D01*
X50556365Y-156357931D01*
X50678122Y-156175707D01*
X50845407Y-156008422D01*
X51042113Y-155876988D01*
X51042115Y-155876987D01*
X51260682Y-155786453D01*
X51492710Y-155740300D01*
X51729290Y-155740300D01*
X51961318Y-155786453D01*
G37*
G36*
X77361318Y-155786453D02*
G01*
X77579885Y-155876987D01*
X77579887Y-155876988D01*
X77776593Y-156008422D01*
X77943878Y-156175707D01*
X78065635Y-156357931D01*
X78075313Y-156372415D01*
X78165847Y-156590982D01*
X78212000Y-156823010D01*
X78212000Y-157059590D01*
X78165847Y-157291618D01*
X78075313Y-157510185D01*
X78075312Y-157510187D01*
X77943878Y-157706893D01*
X77776593Y-157874178D01*
X77579887Y-158005612D01*
X77579886Y-158005613D01*
X77579885Y-158005613D01*
X77361318Y-158096147D01*
X77129290Y-158142300D01*
X76892710Y-158142300D01*
X76660682Y-158096147D01*
X76442115Y-158005613D01*
X76442114Y-158005613D01*
X76442113Y-158005612D01*
X76245407Y-157874178D01*
X76078122Y-157706893D01*
X75946688Y-157510187D01*
X75946687Y-157510185D01*
X75856153Y-157291618D01*
X75810000Y-157059590D01*
X75810000Y-156823010D01*
X75856153Y-156590982D01*
X75946687Y-156372415D01*
X75956365Y-156357931D01*
X76078122Y-156175707D01*
X76245407Y-156008422D01*
X76442113Y-155876988D01*
X76442115Y-155876987D01*
X76660682Y-155786453D01*
X76892710Y-155740300D01*
X77129290Y-155740300D01*
X77361318Y-155786453D01*
G37*
G36*
X47582000Y-158142300D02*
G01*
X45480000Y-158142300D01*
X45480000Y-155740300D01*
X47582000Y-155740300D01*
X47582000Y-158142300D01*
G37*
G36*
X61695062Y-156146481D02*
G01*
X61729981Y-156157074D01*
X61762163Y-156174276D01*
X61790373Y-156197427D01*
X61813524Y-156225637D01*
X61830726Y-156257819D01*
X61841319Y-156292738D01*
X61845500Y-156335195D01*
X61845500Y-157801405D01*
X61841319Y-157843862D01*
X61830726Y-157878781D01*
X61813524Y-157910963D01*
X61790373Y-157939173D01*
X61762163Y-157962324D01*
X61729981Y-157979526D01*
X61695062Y-157990119D01*
X61652605Y-157994300D01*
X60511395Y-157994300D01*
X60468938Y-157990119D01*
X60434019Y-157979526D01*
X60401837Y-157962324D01*
X60373627Y-157939173D01*
X60350476Y-157910963D01*
X60333274Y-157878781D01*
X60322681Y-157843862D01*
X60318500Y-157801405D01*
X60318500Y-156335195D01*
X60322681Y-156292738D01*
X60333274Y-156257819D01*
X60350476Y-156225637D01*
X60373627Y-156197427D01*
X60401837Y-156174276D01*
X60434019Y-156157074D01*
X60468938Y-156146481D01*
X60511395Y-156142300D01*
X61652605Y-156142300D01*
X61695062Y-156146481D01*
G37*
G36*
X55853062Y-156146481D02*
G01*
X55887981Y-156157074D01*
X55920163Y-156174276D01*
X55948373Y-156197427D01*
X55971524Y-156225637D01*
X55988726Y-156257819D01*
X55999319Y-156292738D01*
X56003500Y-156335195D01*
X56003500Y-157801405D01*
X55999319Y-157843862D01*
X55988726Y-157878781D01*
X55971524Y-157910963D01*
X55948373Y-157939173D01*
X55920163Y-157962324D01*
X55887981Y-157979526D01*
X55853062Y-157990119D01*
X55810605Y-157994300D01*
X54669395Y-157994300D01*
X54626938Y-157990119D01*
X54592019Y-157979526D01*
X54559837Y-157962324D01*
X54531627Y-157939173D01*
X54508476Y-157910963D01*
X54491274Y-157878781D01*
X54480681Y-157843862D01*
X54476500Y-157801405D01*
X54476500Y-156335195D01*
X54480681Y-156292738D01*
X54491274Y-156257819D01*
X54508476Y-156225637D01*
X54531627Y-156197427D01*
X54559837Y-156174276D01*
X54592019Y-156157074D01*
X54626938Y-156146481D01*
X54669395Y-156142300D01*
X55810605Y-156142300D01*
X55853062Y-156146481D01*
G37*
G36*
X58828062Y-156146481D02*
G01*
X58862981Y-156157074D01*
X58895163Y-156174276D01*
X58923373Y-156197427D01*
X58946524Y-156225637D01*
X58963726Y-156257819D01*
X58974319Y-156292738D01*
X58978500Y-156335195D01*
X58978500Y-157801405D01*
X58974319Y-157843862D01*
X58963726Y-157878781D01*
X58946524Y-157910963D01*
X58923373Y-157939173D01*
X58895163Y-157962324D01*
X58862981Y-157979526D01*
X58828062Y-157990119D01*
X58785605Y-157994300D01*
X57644395Y-157994300D01*
X57601938Y-157990119D01*
X57567019Y-157979526D01*
X57534837Y-157962324D01*
X57506627Y-157939173D01*
X57483476Y-157910963D01*
X57466274Y-157878781D01*
X57455681Y-157843862D01*
X57451500Y-157801405D01*
X57451500Y-156335195D01*
X57455681Y-156292738D01*
X57466274Y-156257819D01*
X57483476Y-156225637D01*
X57506627Y-156197427D01*
X57534837Y-156174276D01*
X57567019Y-156157074D01*
X57601938Y-156146481D01*
X57644395Y-156142300D01*
X58785605Y-156142300D01*
X58828062Y-156146481D01*
G37*
G36*
X64670062Y-156146481D02*
G01*
X64704981Y-156157074D01*
X64737163Y-156174276D01*
X64765373Y-156197427D01*
X64788524Y-156225637D01*
X64805726Y-156257819D01*
X64816319Y-156292738D01*
X64820500Y-156335195D01*
X64820500Y-157801405D01*
X64816319Y-157843862D01*
X64805726Y-157878781D01*
X64788524Y-157910963D01*
X64765373Y-157939173D01*
X64737163Y-157962324D01*
X64704981Y-157979526D01*
X64670062Y-157990119D01*
X64627605Y-157994300D01*
X63486395Y-157994300D01*
X63443938Y-157990119D01*
X63409019Y-157979526D01*
X63376837Y-157962324D01*
X63348627Y-157939173D01*
X63325476Y-157910963D01*
X63308274Y-157878781D01*
X63297681Y-157843862D01*
X63293500Y-157801405D01*
X63293500Y-156335195D01*
X63297681Y-156292738D01*
X63308274Y-156257819D01*
X63325476Y-156225637D01*
X63348627Y-156197427D01*
X63376837Y-156174276D01*
X63409019Y-156157074D01*
X63443938Y-156146481D01*
X63486395Y-156142300D01*
X64627605Y-156142300D01*
X64670062Y-156146481D01*
G37*
G36*
X122330587Y-154507696D02*
G01*
X122567353Y-154605768D01*
X122567355Y-154605769D01*
X122659760Y-154667512D01*
X122780439Y-154748147D01*
X122961653Y-154929361D01*
X123104032Y-155142447D01*
X123202104Y-155379213D01*
X123252100Y-155630561D01*
X123252100Y-155886839D01*
X123202104Y-156138187D01*
X123131899Y-156307676D01*
X123104031Y-156374955D01*
X122961653Y-156588039D01*
X122780439Y-156769253D01*
X122567355Y-156911631D01*
X122567354Y-156911632D01*
X122567353Y-156911632D01*
X122330587Y-157009704D01*
X122079239Y-157059700D01*
X121822961Y-157059700D01*
X121571613Y-157009704D01*
X121334847Y-156911632D01*
X121334846Y-156911632D01*
X121334845Y-156911631D01*
X121121761Y-156769253D01*
X120940547Y-156588039D01*
X120798169Y-156374955D01*
X120770301Y-156307676D01*
X120700096Y-156138187D01*
X120650100Y-155886839D01*
X120650100Y-155630561D01*
X120700096Y-155379213D01*
X120798168Y-155142447D01*
X120940547Y-154929361D01*
X121121761Y-154748147D01*
X121242440Y-154667512D01*
X121334845Y-154605769D01*
X121334847Y-154605768D01*
X121571613Y-154507696D01*
X121822961Y-154457700D01*
X122079239Y-154457700D01*
X122330587Y-154507696D01*
G37*
G36*
X37544425Y-153054560D02*
G01*
X37544428Y-153054561D01*
X37544429Y-153054561D01*
X37723693Y-153108940D01*
X37723696Y-153108942D01*
X37723697Y-153108942D01*
X37888903Y-153197246D01*
X38033712Y-153316088D01*
X38152554Y-153460897D01*
X38240858Y-153626103D01*
X38240860Y-153626107D01*
X38295239Y-153805371D01*
X38295240Y-153805375D01*
X38313601Y-153991800D01*
X38295240Y-154178225D01*
X38295239Y-154178228D01*
X38295239Y-154178229D01*
X38240860Y-154357493D01*
X38240858Y-154357496D01*
X38240858Y-154357497D01*
X38152554Y-154522703D01*
X38033712Y-154667512D01*
X37888903Y-154786354D01*
X37723697Y-154874658D01*
X37723693Y-154874660D01*
X37544429Y-154929039D01*
X37544428Y-154929039D01*
X37544425Y-154929040D01*
X37404718Y-154942800D01*
X35611282Y-154942800D01*
X35471575Y-154929040D01*
X35471572Y-154929039D01*
X35471571Y-154929039D01*
X35292307Y-154874660D01*
X35292303Y-154874658D01*
X35127097Y-154786354D01*
X34982288Y-154667512D01*
X34863446Y-154522703D01*
X34775142Y-154357497D01*
X34775142Y-154357496D01*
X34775140Y-154357493D01*
X34720761Y-154178229D01*
X34720761Y-154178228D01*
X34720760Y-154178225D01*
X34702399Y-153991800D01*
X34720760Y-153805375D01*
X34720761Y-153805371D01*
X34775140Y-153626107D01*
X34775142Y-153626103D01*
X34863446Y-153460897D01*
X34982288Y-153316088D01*
X35127097Y-153197246D01*
X35292303Y-153108942D01*
X35292304Y-153108942D01*
X35292307Y-153108940D01*
X35471571Y-153054561D01*
X35471572Y-153054561D01*
X35471575Y-153054560D01*
X35611282Y-153040800D01*
X37404718Y-153040800D01*
X37544425Y-153054560D01*
G37*
G36*
X119953242Y-151526942D02*
G01*
X120101201Y-151588229D01*
X120234355Y-151677199D01*
X120347601Y-151790445D01*
X120436571Y-151923599D01*
X120497858Y-152071558D01*
X120529100Y-152228625D01*
X120529100Y-152388775D01*
X120497858Y-152545842D01*
X120436571Y-152693801D01*
X120347601Y-152826955D01*
X120234355Y-152940201D01*
X120101201Y-153029171D01*
X119953242Y-153090458D01*
X119796175Y-153121700D01*
X119636025Y-153121700D01*
X119478958Y-153090458D01*
X119330999Y-153029171D01*
X119197845Y-152940201D01*
X119084599Y-152826955D01*
X118995629Y-152693801D01*
X118934342Y-152545842D01*
X118903100Y-152388775D01*
X118903100Y-152228625D01*
X118934342Y-152071558D01*
X118995629Y-151923599D01*
X119084599Y-151790445D01*
X119197845Y-151677199D01*
X119330999Y-151588229D01*
X119478958Y-151526942D01*
X119636025Y-151495700D01*
X119796175Y-151495700D01*
X119953242Y-151526942D01*
G37*
G36*
X117413242Y-150506942D02*
G01*
X117561201Y-150568229D01*
X117694355Y-150657199D01*
X117807601Y-150770445D01*
X117896571Y-150903599D01*
X117957858Y-151051558D01*
X117989100Y-151208625D01*
X117989100Y-151368775D01*
X117957858Y-151525842D01*
X117896571Y-151673801D01*
X117807601Y-151806955D01*
X117694355Y-151920201D01*
X117561201Y-152009171D01*
X117413242Y-152070458D01*
X117256175Y-152101700D01*
X117096025Y-152101700D01*
X116938958Y-152070458D01*
X116790999Y-152009171D01*
X116657845Y-151920201D01*
X116544599Y-151806955D01*
X116455629Y-151673801D01*
X116394342Y-151525842D01*
X116363100Y-151368775D01*
X116363100Y-151208625D01*
X116394342Y-151051558D01*
X116455629Y-150903599D01*
X116544599Y-150770445D01*
X116657845Y-150657199D01*
X116790999Y-150568229D01*
X116938958Y-150506942D01*
X117096025Y-150475700D01*
X117256175Y-150475700D01*
X117413242Y-150506942D01*
G37*
G36*
X119953242Y-149486942D02*
G01*
X120101201Y-149548229D01*
X120234355Y-149637199D01*
X120347601Y-149750445D01*
X120436571Y-149883599D01*
X120497858Y-150031558D01*
X120529100Y-150188625D01*
X120529100Y-150348775D01*
X120497858Y-150505842D01*
X120436571Y-150653801D01*
X120347601Y-150786955D01*
X120234355Y-150900201D01*
X120101201Y-150989171D01*
X119953242Y-151050458D01*
X119796175Y-151081700D01*
X119636025Y-151081700D01*
X119478958Y-151050458D01*
X119330999Y-150989171D01*
X119197845Y-150900201D01*
X119084599Y-150786955D01*
X118995629Y-150653801D01*
X118934342Y-150505842D01*
X118903100Y-150348775D01*
X118903100Y-150188625D01*
X118934342Y-150031558D01*
X118995629Y-149883599D01*
X119084599Y-149750445D01*
X119197845Y-149637199D01*
X119330999Y-149548229D01*
X119478958Y-149486942D01*
X119636025Y-149455700D01*
X119796175Y-149455700D01*
X119953242Y-149486942D01*
G37*
G36*
X64705562Y-148815981D02*
G01*
X64740481Y-148826574D01*
X64772663Y-148843776D01*
X64800873Y-148866927D01*
X64824024Y-148895137D01*
X64841226Y-148927319D01*
X64851819Y-148962238D01*
X64856000Y-149004695D01*
X64856000Y-150145905D01*
X64851819Y-150188362D01*
X64841226Y-150223281D01*
X64824024Y-150255463D01*
X64800873Y-150283673D01*
X64772663Y-150306824D01*
X64740481Y-150324026D01*
X64705562Y-150334619D01*
X64663105Y-150338800D01*
X63196895Y-150338800D01*
X63154438Y-150334619D01*
X63119519Y-150324026D01*
X63087337Y-150306824D01*
X63059127Y-150283673D01*
X63035976Y-150255463D01*
X63018774Y-150223281D01*
X63008181Y-150188362D01*
X63004000Y-150145905D01*
X63004000Y-149004695D01*
X63008181Y-148962238D01*
X63018774Y-148927319D01*
X63035976Y-148895137D01*
X63059127Y-148866927D01*
X63087337Y-148843776D01*
X63119519Y-148826574D01*
X63154438Y-148815981D01*
X63196895Y-148811800D01*
X64663105Y-148811800D01*
X64705562Y-148815981D01*
G37*
G36*
X117413242Y-148466942D02*
G01*
X117561201Y-148528229D01*
X117694355Y-148617199D01*
X117807601Y-148730445D01*
X117896571Y-148863599D01*
X117957858Y-149011558D01*
X117989100Y-149168625D01*
X117989100Y-149328775D01*
X117957858Y-149485842D01*
X117896571Y-149633801D01*
X117807601Y-149766955D01*
X117694355Y-149880201D01*
X117561201Y-149969171D01*
X117413242Y-150030458D01*
X117256175Y-150061700D01*
X117096025Y-150061700D01*
X116938958Y-150030458D01*
X116790999Y-149969171D01*
X116657845Y-149880201D01*
X116544599Y-149766955D01*
X116455629Y-149633801D01*
X116394342Y-149485842D01*
X116363100Y-149328775D01*
X116363100Y-149168625D01*
X116394342Y-149011558D01*
X116455629Y-148863599D01*
X116544599Y-148730445D01*
X116657845Y-148617199D01*
X116790999Y-148528229D01*
X116938958Y-148466942D01*
X117096025Y-148435700D01*
X117256175Y-148435700D01*
X117413242Y-148466942D01*
G37*
G36*
X46328942Y-147681742D02*
G01*
X46476901Y-147743029D01*
X46610055Y-147831999D01*
X46723301Y-147945245D01*
X46812271Y-148078399D01*
X46873558Y-148226358D01*
X46904800Y-148383425D01*
X46904800Y-148543575D01*
X46873558Y-148700642D01*
X46812271Y-148848601D01*
X46723301Y-148981755D01*
X46610055Y-149095001D01*
X46476901Y-149183971D01*
X46328942Y-149245258D01*
X46171875Y-149276500D01*
X46011725Y-149276500D01*
X45854658Y-149245258D01*
X45706699Y-149183971D01*
X45573545Y-149095001D01*
X45460299Y-148981755D01*
X45371329Y-148848601D01*
X45310042Y-148700642D01*
X45278800Y-148543575D01*
X45278800Y-148383425D01*
X45310042Y-148226358D01*
X45371329Y-148078399D01*
X45460299Y-147945245D01*
X45573545Y-147831999D01*
X45706699Y-147743029D01*
X45854658Y-147681742D01*
X46011725Y-147650500D01*
X46171875Y-147650500D01*
X46328942Y-147681742D01*
G37*
G36*
X119953242Y-147446942D02*
G01*
X120101201Y-147508229D01*
X120234355Y-147597199D01*
X120347601Y-147710445D01*
X120436571Y-147843599D01*
X120497858Y-147991558D01*
X120529100Y-148148625D01*
X120529100Y-148308775D01*
X120497858Y-148465842D01*
X120436571Y-148613801D01*
X120347601Y-148746955D01*
X120234355Y-148860201D01*
X120101201Y-148949171D01*
X119953242Y-149010458D01*
X119796175Y-149041700D01*
X119636025Y-149041700D01*
X119478958Y-149010458D01*
X119330999Y-148949171D01*
X119197845Y-148860201D01*
X119084599Y-148746955D01*
X118995629Y-148613801D01*
X118934342Y-148465842D01*
X118903100Y-148308775D01*
X118903100Y-148148625D01*
X118934342Y-147991558D01*
X118995629Y-147843599D01*
X119084599Y-147710445D01*
X119197845Y-147597199D01*
X119330999Y-147508229D01*
X119478958Y-147446942D01*
X119636025Y-147415700D01*
X119796175Y-147415700D01*
X119953242Y-147446942D01*
G37*
G36*
X74060662Y-147008281D02*
G01*
X74095581Y-147018874D01*
X74127763Y-147036076D01*
X74155973Y-147059227D01*
X74179124Y-147087437D01*
X74196326Y-147119619D01*
X74206919Y-147154538D01*
X74211100Y-147196995D01*
X74211100Y-148663205D01*
X74206919Y-148705662D01*
X74196326Y-148740581D01*
X74179124Y-148772763D01*
X74155973Y-148800973D01*
X74127763Y-148824124D01*
X74095581Y-148841326D01*
X74060662Y-148851919D01*
X74018205Y-148856100D01*
X72876995Y-148856100D01*
X72834538Y-148851919D01*
X72799619Y-148841326D01*
X72767437Y-148824124D01*
X72739227Y-148800973D01*
X72716076Y-148772763D01*
X72698874Y-148740581D01*
X72688281Y-148705662D01*
X72684100Y-148663205D01*
X72684100Y-147196995D01*
X72688281Y-147154538D01*
X72698874Y-147119619D01*
X72716076Y-147087437D01*
X72739227Y-147059227D01*
X72767437Y-147036076D01*
X72799619Y-147018874D01*
X72834538Y-147008281D01*
X72876995Y-147004100D01*
X74018205Y-147004100D01*
X74060662Y-147008281D01*
G37*
G36*
X77035662Y-147008281D02*
G01*
X77070581Y-147018874D01*
X77102763Y-147036076D01*
X77130973Y-147059227D01*
X77154124Y-147087437D01*
X77171326Y-147119619D01*
X77181919Y-147154538D01*
X77186100Y-147196995D01*
X77186100Y-148663205D01*
X77181919Y-148705662D01*
X77171326Y-148740581D01*
X77154124Y-148772763D01*
X77130973Y-148800973D01*
X77102763Y-148824124D01*
X77070581Y-148841326D01*
X77035662Y-148851919D01*
X76993205Y-148856100D01*
X75851995Y-148856100D01*
X75809538Y-148851919D01*
X75774619Y-148841326D01*
X75742437Y-148824124D01*
X75714227Y-148800973D01*
X75691076Y-148772763D01*
X75673874Y-148740581D01*
X75663281Y-148705662D01*
X75659100Y-148663205D01*
X75659100Y-147196995D01*
X75663281Y-147154538D01*
X75673874Y-147119619D01*
X75691076Y-147087437D01*
X75714227Y-147059227D01*
X75742437Y-147036076D01*
X75774619Y-147018874D01*
X75809538Y-147008281D01*
X75851995Y-147004100D01*
X76993205Y-147004100D01*
X77035662Y-147008281D01*
G37*
G36*
X117413242Y-146426942D02*
G01*
X117561201Y-146488229D01*
X117694355Y-146577199D01*
X117807601Y-146690445D01*
X117896571Y-146823599D01*
X117957858Y-146971558D01*
X117989100Y-147128625D01*
X117989100Y-147288775D01*
X117957858Y-147445842D01*
X117896571Y-147593801D01*
X117807601Y-147726955D01*
X117694355Y-147840201D01*
X117561201Y-147929171D01*
X117413242Y-147990458D01*
X117256175Y-148021700D01*
X117096025Y-148021700D01*
X116938958Y-147990458D01*
X116790999Y-147929171D01*
X116657845Y-147840201D01*
X116544599Y-147726955D01*
X116455629Y-147593801D01*
X116394342Y-147445842D01*
X116363100Y-147288775D01*
X116363100Y-147128625D01*
X116394342Y-146971558D01*
X116455629Y-146823599D01*
X116544599Y-146690445D01*
X116657845Y-146577199D01*
X116790999Y-146488229D01*
X116938958Y-146426942D01*
X117096025Y-146395700D01*
X117256175Y-146395700D01*
X117413242Y-146426942D01*
G37*
G36*
X64705562Y-145840981D02*
G01*
X64740481Y-145851574D01*
X64772663Y-145868776D01*
X64800873Y-145891927D01*
X64824024Y-145920137D01*
X64841226Y-145952319D01*
X64851819Y-145987238D01*
X64856000Y-146029695D01*
X64856000Y-147170905D01*
X64851819Y-147213362D01*
X64841226Y-147248281D01*
X64824024Y-147280463D01*
X64800873Y-147308673D01*
X64772663Y-147331824D01*
X64740481Y-147349026D01*
X64705562Y-147359619D01*
X64663105Y-147363800D01*
X63196895Y-147363800D01*
X63154438Y-147359619D01*
X63119519Y-147349026D01*
X63087337Y-147331824D01*
X63059127Y-147308673D01*
X63035976Y-147280463D01*
X63018774Y-147248281D01*
X63008181Y-147213362D01*
X63004000Y-147170905D01*
X63004000Y-146029695D01*
X63008181Y-145987238D01*
X63018774Y-145952319D01*
X63035976Y-145920137D01*
X63059127Y-145891927D01*
X63087337Y-145868776D01*
X63119519Y-145851574D01*
X63154438Y-145840981D01*
X63196895Y-145836800D01*
X64663105Y-145836800D01*
X64705562Y-145840981D01*
G37*
G36*
X74060662Y-144620681D02*
G01*
X74095581Y-144631274D01*
X74127763Y-144648476D01*
X74155973Y-144671627D01*
X74179124Y-144699837D01*
X74196326Y-144732019D01*
X74206919Y-144766938D01*
X74211100Y-144809395D01*
X74211100Y-146275605D01*
X74206919Y-146318062D01*
X74196326Y-146352981D01*
X74179124Y-146385163D01*
X74155973Y-146413373D01*
X74127763Y-146436524D01*
X74095581Y-146453726D01*
X74060662Y-146464319D01*
X74018205Y-146468500D01*
X72876995Y-146468500D01*
X72834538Y-146464319D01*
X72799619Y-146453726D01*
X72767437Y-146436524D01*
X72739227Y-146413373D01*
X72716076Y-146385163D01*
X72698874Y-146352981D01*
X72688281Y-146318062D01*
X72684100Y-146275605D01*
X72684100Y-144809395D01*
X72688281Y-144766938D01*
X72698874Y-144732019D01*
X72716076Y-144699837D01*
X72739227Y-144671627D01*
X72767437Y-144648476D01*
X72799619Y-144631274D01*
X72834538Y-144620681D01*
X72876995Y-144616500D01*
X74018205Y-144616500D01*
X74060662Y-144620681D01*
G37*
G36*
X77035662Y-144620681D02*
G01*
X77070581Y-144631274D01*
X77102763Y-144648476D01*
X77130973Y-144671627D01*
X77154124Y-144699837D01*
X77171326Y-144732019D01*
X77181919Y-144766938D01*
X77186100Y-144809395D01*
X77186100Y-146275605D01*
X77181919Y-146318062D01*
X77171326Y-146352981D01*
X77154124Y-146385163D01*
X77130973Y-146413373D01*
X77102763Y-146436524D01*
X77070581Y-146453726D01*
X77035662Y-146464319D01*
X76993205Y-146468500D01*
X75851995Y-146468500D01*
X75809538Y-146464319D01*
X75774619Y-146453726D01*
X75742437Y-146436524D01*
X75714227Y-146413373D01*
X75691076Y-146385163D01*
X75673874Y-146352981D01*
X75663281Y-146318062D01*
X75659100Y-146275605D01*
X75659100Y-144809395D01*
X75663281Y-144766938D01*
X75673874Y-144732019D01*
X75691076Y-144699837D01*
X75714227Y-144671627D01*
X75742437Y-144648476D01*
X75774619Y-144631274D01*
X75809538Y-144620681D01*
X75851995Y-144616500D01*
X76993205Y-144616500D01*
X77035662Y-144620681D01*
G37*
G36*
X122330587Y-142507696D02*
G01*
X122567353Y-142605768D01*
X122567355Y-142605769D01*
X122780439Y-142748147D01*
X122961653Y-142929361D01*
X123041327Y-143048601D01*
X123104032Y-143142447D01*
X123202104Y-143379213D01*
X123252100Y-143630561D01*
X123252100Y-143886839D01*
X123202104Y-144138187D01*
X123104032Y-144374953D01*
X123104031Y-144374955D01*
X122961653Y-144588039D01*
X122780439Y-144769253D01*
X122567355Y-144911631D01*
X122567354Y-144911632D01*
X122567353Y-144911632D01*
X122330587Y-145009704D01*
X122079239Y-145059700D01*
X121822961Y-145059700D01*
X121571613Y-145009704D01*
X121334847Y-144911632D01*
X121334846Y-144911632D01*
X121334845Y-144911631D01*
X121121761Y-144769253D01*
X120940547Y-144588039D01*
X120798169Y-144374955D01*
X120798168Y-144374953D01*
X120700096Y-144138187D01*
X120650100Y-143886839D01*
X120650100Y-143630561D01*
X120700096Y-143379213D01*
X120798168Y-143142447D01*
X120860874Y-143048601D01*
X120940547Y-142929361D01*
X121121761Y-142748147D01*
X121334845Y-142605769D01*
X121334847Y-142605768D01*
X121571613Y-142507696D01*
X121822961Y-142457700D01*
X122079239Y-142457700D01*
X122330587Y-142507696D01*
G37*
G36*
X74094762Y-142094281D02*
G01*
X74129681Y-142104874D01*
X74161863Y-142122076D01*
X74190073Y-142145227D01*
X74213224Y-142173437D01*
X74230426Y-142205619D01*
X74241019Y-142240538D01*
X74245200Y-142282995D01*
X74245200Y-143749205D01*
X74241019Y-143791662D01*
X74230426Y-143826581D01*
X74213224Y-143858763D01*
X74190073Y-143886973D01*
X74161863Y-143910124D01*
X74129681Y-143927326D01*
X74094762Y-143937919D01*
X74052305Y-143942100D01*
X72911095Y-143942100D01*
X72868638Y-143937919D01*
X72833719Y-143927326D01*
X72801537Y-143910124D01*
X72773327Y-143886973D01*
X72750176Y-143858763D01*
X72732974Y-143826581D01*
X72722381Y-143791662D01*
X72718200Y-143749205D01*
X72718200Y-142282995D01*
X72722381Y-142240538D01*
X72732974Y-142205619D01*
X72750176Y-142173437D01*
X72773327Y-142145227D01*
X72801537Y-142122076D01*
X72833719Y-142104874D01*
X72868638Y-142094281D01*
X72911095Y-142090100D01*
X74052305Y-142090100D01*
X74094762Y-142094281D01*
G37*
G36*
X77069762Y-142094281D02*
G01*
X77104681Y-142104874D01*
X77136863Y-142122076D01*
X77165073Y-142145227D01*
X77188224Y-142173437D01*
X77205426Y-142205619D01*
X77216019Y-142240538D01*
X77220200Y-142282995D01*
X77220200Y-143749205D01*
X77216019Y-143791662D01*
X77205426Y-143826581D01*
X77188224Y-143858763D01*
X77165073Y-143886973D01*
X77136863Y-143910124D01*
X77104681Y-143927326D01*
X77069762Y-143937919D01*
X77027305Y-143942100D01*
X75886095Y-143942100D01*
X75843638Y-143937919D01*
X75808719Y-143927326D01*
X75776537Y-143910124D01*
X75748327Y-143886973D01*
X75725176Y-143858763D01*
X75707974Y-143826581D01*
X75697381Y-143791662D01*
X75693200Y-143749205D01*
X75693200Y-142282995D01*
X75697381Y-142240538D01*
X75707974Y-142205619D01*
X75725176Y-142173437D01*
X75748327Y-142145227D01*
X75776537Y-142122076D01*
X75808719Y-142104874D01*
X75843638Y-142094281D01*
X75886095Y-142090100D01*
X77027305Y-142090100D01*
X77069762Y-142094281D01*
G37*
G36*
X46328942Y-141881742D02*
G01*
X46476901Y-141943029D01*
X46610055Y-142031999D01*
X46723301Y-142145245D01*
X46812271Y-142278399D01*
X46873558Y-142426358D01*
X46904800Y-142583425D01*
X46904800Y-142743575D01*
X46873558Y-142900642D01*
X46812271Y-143048601D01*
X46723301Y-143181755D01*
X46610055Y-143295001D01*
X46476901Y-143383971D01*
X46328942Y-143445258D01*
X46171875Y-143476500D01*
X46011725Y-143476500D01*
X45854658Y-143445258D01*
X45706699Y-143383971D01*
X45573545Y-143295001D01*
X45460299Y-143181755D01*
X45371329Y-143048601D01*
X45310042Y-142900642D01*
X45278800Y-142743575D01*
X45278800Y-142583425D01*
X45310042Y-142426358D01*
X45371329Y-142278399D01*
X45460299Y-142145245D01*
X45573545Y-142031999D01*
X45706699Y-141943029D01*
X45854658Y-141881742D01*
X46011725Y-141850500D01*
X46171875Y-141850500D01*
X46328942Y-141881742D01*
G37*
G36*
X37544425Y-141554560D02*
G01*
X37544428Y-141554561D01*
X37544429Y-141554561D01*
X37723693Y-141608940D01*
X37723696Y-141608942D01*
X37723697Y-141608942D01*
X37888903Y-141697246D01*
X38033712Y-141816088D01*
X38152554Y-141960897D01*
X38240858Y-142126103D01*
X38240860Y-142126107D01*
X38287057Y-142278399D01*
X38295240Y-142305375D01*
X38313601Y-142491800D01*
X38295240Y-142678225D01*
X38295239Y-142678228D01*
X38295239Y-142678229D01*
X38240860Y-142857493D01*
X38240858Y-142857496D01*
X38240858Y-142857497D01*
X38152554Y-143022703D01*
X38033712Y-143167512D01*
X37888903Y-143286354D01*
X37723697Y-143374658D01*
X37723693Y-143374660D01*
X37544429Y-143429039D01*
X37544428Y-143429039D01*
X37544425Y-143429040D01*
X37404718Y-143442800D01*
X35611282Y-143442800D01*
X35471575Y-143429040D01*
X35471572Y-143429039D01*
X35471571Y-143429039D01*
X35292307Y-143374660D01*
X35292303Y-143374658D01*
X35127097Y-143286354D01*
X34982288Y-143167512D01*
X34863446Y-143022703D01*
X34775142Y-142857497D01*
X34775142Y-142857496D01*
X34775140Y-142857493D01*
X34720761Y-142678229D01*
X34720761Y-142678228D01*
X34720760Y-142678225D01*
X34702399Y-142491800D01*
X34720760Y-142305375D01*
X34728943Y-142278399D01*
X34775140Y-142126107D01*
X34775142Y-142126103D01*
X34863446Y-141960897D01*
X34982288Y-141816088D01*
X35127097Y-141697246D01*
X35292303Y-141608942D01*
X35292304Y-141608942D01*
X35292307Y-141608940D01*
X35471571Y-141554561D01*
X35471572Y-141554561D01*
X35471575Y-141554560D01*
X35611282Y-141540800D01*
X37404718Y-141540800D01*
X37544425Y-141554560D01*
G37*
G36*
X77361318Y-138006453D02*
G01*
X77579885Y-138096987D01*
X77579887Y-138096988D01*
X77776593Y-138228422D01*
X77943878Y-138395707D01*
X77985968Y-138458700D01*
X78075313Y-138592415D01*
X78165847Y-138810982D01*
X78212000Y-139043010D01*
X78212000Y-139279590D01*
X78165847Y-139511618D01*
X78118651Y-139625558D01*
X78075312Y-139730187D01*
X77943878Y-139926893D01*
X77776593Y-140094178D01*
X77579887Y-140225612D01*
X77579886Y-140225613D01*
X77579885Y-140225613D01*
X77361318Y-140316147D01*
X77129290Y-140362300D01*
X76892710Y-140362300D01*
X76660682Y-140316147D01*
X76442115Y-140225613D01*
X76442114Y-140225613D01*
X76442113Y-140225612D01*
X76245407Y-140094178D01*
X76078122Y-139926893D01*
X75946688Y-139730187D01*
X75903349Y-139625558D01*
X75856153Y-139511618D01*
X75810000Y-139279590D01*
X75810000Y-139043010D01*
X75856153Y-138810982D01*
X75946687Y-138592415D01*
X76036032Y-138458700D01*
X76078122Y-138395707D01*
X76245407Y-138228422D01*
X76442113Y-138096988D01*
X76442115Y-138096987D01*
X76660682Y-138006453D01*
X76892710Y-137960300D01*
X77129290Y-137960300D01*
X77361318Y-138006453D01*
G37*
G36*
X72281318Y-138006453D02*
G01*
X72499885Y-138096987D01*
X72499887Y-138096988D01*
X72696593Y-138228422D01*
X72863878Y-138395707D01*
X72905968Y-138458700D01*
X72995313Y-138592415D01*
X73085847Y-138810982D01*
X73132000Y-139043010D01*
X73132000Y-139279590D01*
X73085847Y-139511618D01*
X73038651Y-139625558D01*
X72995312Y-139730187D01*
X72863878Y-139926893D01*
X72696593Y-140094178D01*
X72499887Y-140225612D01*
X72499886Y-140225613D01*
X72499885Y-140225613D01*
X72281318Y-140316147D01*
X72049290Y-140362300D01*
X71812710Y-140362300D01*
X71580682Y-140316147D01*
X71362115Y-140225613D01*
X71362114Y-140225613D01*
X71362113Y-140225612D01*
X71165407Y-140094178D01*
X70998122Y-139926893D01*
X70866688Y-139730187D01*
X70823349Y-139625558D01*
X70776153Y-139511618D01*
X70730000Y-139279590D01*
X70730000Y-139043010D01*
X70776153Y-138810982D01*
X70866687Y-138592415D01*
X70956032Y-138458700D01*
X70998122Y-138395707D01*
X71165407Y-138228422D01*
X71362113Y-138096988D01*
X71362115Y-138096987D01*
X71580682Y-138006453D01*
X71812710Y-137960300D01*
X72049290Y-137960300D01*
X72281318Y-138006453D01*
G37*
G36*
X95028142Y-138062042D02*
G01*
X95176101Y-138123329D01*
X95309255Y-138212299D01*
X95422501Y-138325545D01*
X95511471Y-138458699D01*
X95572758Y-138606658D01*
X95604000Y-138763725D01*
X95604000Y-138923875D01*
X95572758Y-139080942D01*
X95511471Y-139228901D01*
X95422501Y-139362055D01*
X95309255Y-139475301D01*
X95176101Y-139564271D01*
X95028142Y-139625558D01*
X94871075Y-139656800D01*
X94710925Y-139656800D01*
X94553858Y-139625558D01*
X94405899Y-139564271D01*
X94272745Y-139475301D01*
X94159499Y-139362055D01*
X94070529Y-139228901D01*
X94009242Y-139080942D01*
X93978000Y-138923875D01*
X93978000Y-138763725D01*
X94009242Y-138606658D01*
X94070529Y-138458699D01*
X94159499Y-138325545D01*
X94272745Y-138212299D01*
X94405899Y-138123329D01*
X94553858Y-138062042D01*
X94710925Y-138030800D01*
X94871075Y-138030800D01*
X95028142Y-138062042D01*
G37*
G36*
X107728142Y-138062042D02*
G01*
X107876101Y-138123329D01*
X108009255Y-138212299D01*
X108122501Y-138325545D01*
X108211471Y-138458699D01*
X108272758Y-138606658D01*
X108304000Y-138763725D01*
X108304000Y-138923875D01*
X108272758Y-139080942D01*
X108211471Y-139228901D01*
X108122501Y-139362055D01*
X108009255Y-139475301D01*
X107876101Y-139564271D01*
X107728142Y-139625558D01*
X107571075Y-139656800D01*
X107410925Y-139656800D01*
X107253858Y-139625558D01*
X107105899Y-139564271D01*
X106972745Y-139475301D01*
X106859499Y-139362055D01*
X106770529Y-139228901D01*
X106709242Y-139080942D01*
X106678000Y-138923875D01*
X106678000Y-138763725D01*
X106709242Y-138606658D01*
X106770529Y-138458699D01*
X106859499Y-138325545D01*
X106972745Y-138212299D01*
X107105899Y-138123329D01*
X107253858Y-138062042D01*
X107410925Y-138030800D01*
X107571075Y-138030800D01*
X107728142Y-138062042D01*
G37*
G36*
X105188142Y-138062042D02*
G01*
X105336101Y-138123329D01*
X105469255Y-138212299D01*
X105582501Y-138325545D01*
X105671471Y-138458699D01*
X105732758Y-138606658D01*
X105764000Y-138763725D01*
X105764000Y-138923875D01*
X105732758Y-139080942D01*
X105671471Y-139228901D01*
X105582501Y-139362055D01*
X105469255Y-139475301D01*
X105336101Y-139564271D01*
X105188142Y-139625558D01*
X105031075Y-139656800D01*
X104870925Y-139656800D01*
X104713858Y-139625558D01*
X104565899Y-139564271D01*
X104432745Y-139475301D01*
X104319499Y-139362055D01*
X104230529Y-139228901D01*
X104169242Y-139080942D01*
X104138000Y-138923875D01*
X104138000Y-138763725D01*
X104169242Y-138606658D01*
X104230529Y-138458699D01*
X104319499Y-138325545D01*
X104432745Y-138212299D01*
X104565899Y-138123329D01*
X104713858Y-138062042D01*
X104870925Y-138030800D01*
X105031075Y-138030800D01*
X105188142Y-138062042D01*
G37*
G36*
X102648142Y-138062042D02*
G01*
X102796101Y-138123329D01*
X102929255Y-138212299D01*
X103042501Y-138325545D01*
X103131471Y-138458699D01*
X103192758Y-138606658D01*
X103224000Y-138763725D01*
X103224000Y-138923875D01*
X103192758Y-139080942D01*
X103131471Y-139228901D01*
X103042501Y-139362055D01*
X102929255Y-139475301D01*
X102796101Y-139564271D01*
X102648142Y-139625558D01*
X102491075Y-139656800D01*
X102330925Y-139656800D01*
X102173858Y-139625558D01*
X102025899Y-139564271D01*
X101892745Y-139475301D01*
X101779499Y-139362055D01*
X101690529Y-139228901D01*
X101629242Y-139080942D01*
X101598000Y-138923875D01*
X101598000Y-138763725D01*
X101629242Y-138606658D01*
X101690529Y-138458699D01*
X101779499Y-138325545D01*
X101892745Y-138212299D01*
X102025899Y-138123329D01*
X102173858Y-138062042D01*
X102330925Y-138030800D01*
X102491075Y-138030800D01*
X102648142Y-138062042D01*
G37*
G36*
X92488142Y-138062042D02*
G01*
X92636101Y-138123329D01*
X92769255Y-138212299D01*
X92882501Y-138325545D01*
X92971471Y-138458699D01*
X93032758Y-138606658D01*
X93064000Y-138763725D01*
X93064000Y-138923875D01*
X93032758Y-139080942D01*
X92971471Y-139228901D01*
X92882501Y-139362055D01*
X92769255Y-139475301D01*
X92636101Y-139564271D01*
X92488142Y-139625558D01*
X92331075Y-139656800D01*
X92170925Y-139656800D01*
X92013858Y-139625558D01*
X91865899Y-139564271D01*
X91732745Y-139475301D01*
X91619499Y-139362055D01*
X91530529Y-139228901D01*
X91469242Y-139080942D01*
X91438000Y-138923875D01*
X91438000Y-138763725D01*
X91469242Y-138606658D01*
X91530529Y-138458699D01*
X91619499Y-138325545D01*
X91732745Y-138212299D01*
X91865899Y-138123329D01*
X92013858Y-138062042D01*
X92170925Y-138030800D01*
X92331075Y-138030800D01*
X92488142Y-138062042D01*
G37*
G36*
X59839862Y-137457881D02*
G01*
X59874781Y-137468474D01*
X59906963Y-137485676D01*
X59935173Y-137508827D01*
X59958324Y-137537037D01*
X59975526Y-137569219D01*
X59986119Y-137604138D01*
X59990300Y-137646595D01*
X59990300Y-139112805D01*
X59986119Y-139155262D01*
X59975526Y-139190181D01*
X59958324Y-139222363D01*
X59935173Y-139250573D01*
X59906963Y-139273724D01*
X59874781Y-139290926D01*
X59839862Y-139301519D01*
X59797405Y-139305700D01*
X58656195Y-139305700D01*
X58613738Y-139301519D01*
X58578819Y-139290926D01*
X58546637Y-139273724D01*
X58518427Y-139250573D01*
X58495276Y-139222363D01*
X58478074Y-139190181D01*
X58467481Y-139155262D01*
X58463300Y-139112805D01*
X58463300Y-137646595D01*
X58467481Y-137604138D01*
X58478074Y-137569219D01*
X58495276Y-137537037D01*
X58518427Y-137508827D01*
X58546637Y-137485676D01*
X58578819Y-137468474D01*
X58613738Y-137457881D01*
X58656195Y-137453700D01*
X59797405Y-137453700D01*
X59839862Y-137457881D01*
G37*
G36*
X56864862Y-137457881D02*
G01*
X56899781Y-137468474D01*
X56931963Y-137485676D01*
X56960173Y-137508827D01*
X56983324Y-137537037D01*
X57000526Y-137569219D01*
X57011119Y-137604138D01*
X57015300Y-137646595D01*
X57015300Y-139112805D01*
X57011119Y-139155262D01*
X57000526Y-139190181D01*
X56983324Y-139222363D01*
X56960173Y-139250573D01*
X56931963Y-139273724D01*
X56899781Y-139290926D01*
X56864862Y-139301519D01*
X56822405Y-139305700D01*
X55681195Y-139305700D01*
X55638738Y-139301519D01*
X55603819Y-139290926D01*
X55571637Y-139273724D01*
X55543427Y-139250573D01*
X55520276Y-139222363D01*
X55503074Y-139190181D01*
X55492481Y-139155262D01*
X55488300Y-139112805D01*
X55488300Y-137646595D01*
X55492481Y-137604138D01*
X55503074Y-137569219D01*
X55520276Y-137537037D01*
X55543427Y-137508827D01*
X55571637Y-137485676D01*
X55603819Y-137468474D01*
X55638738Y-137457881D01*
X55681195Y-137453700D01*
X56822405Y-137453700D01*
X56864862Y-137457881D01*
G37*
G36*
X54658262Y-137457881D02*
G01*
X54693181Y-137468474D01*
X54725363Y-137485676D01*
X54753573Y-137508827D01*
X54776724Y-137537037D01*
X54793926Y-137569219D01*
X54804519Y-137604138D01*
X54808700Y-137646595D01*
X54808700Y-139112805D01*
X54804519Y-139155262D01*
X54793926Y-139190181D01*
X54776724Y-139222363D01*
X54753573Y-139250573D01*
X54725363Y-139273724D01*
X54693181Y-139290926D01*
X54658262Y-139301519D01*
X54615805Y-139305700D01*
X53474595Y-139305700D01*
X53432138Y-139301519D01*
X53397219Y-139290926D01*
X53365037Y-139273724D01*
X53336827Y-139250573D01*
X53313676Y-139222363D01*
X53296474Y-139190181D01*
X53285881Y-139155262D01*
X53281700Y-139112805D01*
X53281700Y-137646595D01*
X53285881Y-137604138D01*
X53296474Y-137569219D01*
X53313676Y-137537037D01*
X53336827Y-137508827D01*
X53365037Y-137485676D01*
X53397219Y-137468474D01*
X53432138Y-137457881D01*
X53474595Y-137453700D01*
X54615805Y-137453700D01*
X54658262Y-137457881D01*
G37*
G36*
X51683262Y-137457881D02*
G01*
X51718181Y-137468474D01*
X51750363Y-137485676D01*
X51778573Y-137508827D01*
X51801724Y-137537037D01*
X51818926Y-137569219D01*
X51829519Y-137604138D01*
X51833700Y-137646595D01*
X51833700Y-139112805D01*
X51829519Y-139155262D01*
X51818926Y-139190181D01*
X51801724Y-139222363D01*
X51778573Y-139250573D01*
X51750363Y-139273724D01*
X51718181Y-139290926D01*
X51683262Y-139301519D01*
X51640805Y-139305700D01*
X50499595Y-139305700D01*
X50457138Y-139301519D01*
X50422219Y-139290926D01*
X50390037Y-139273724D01*
X50361827Y-139250573D01*
X50338676Y-139222363D01*
X50321474Y-139190181D01*
X50310881Y-139155262D01*
X50306700Y-139112805D01*
X50306700Y-137646595D01*
X50310881Y-137604138D01*
X50321474Y-137569219D01*
X50338676Y-137537037D01*
X50361827Y-137508827D01*
X50390037Y-137485676D01*
X50422219Y-137468474D01*
X50457138Y-137457881D01*
X50499595Y-137453700D01*
X51640805Y-137453700D01*
X51683262Y-137457881D01*
G37*
G36*
X77361318Y-131086453D02*
G01*
X77579885Y-131176987D01*
X77579887Y-131176988D01*
X77776593Y-131308422D01*
X77943878Y-131475707D01*
X78065635Y-131657931D01*
X78075313Y-131672415D01*
X78165847Y-131890982D01*
X78212000Y-132123010D01*
X78212000Y-132359590D01*
X78165847Y-132591618D01*
X78075313Y-132810185D01*
X78075312Y-132810187D01*
X77943878Y-133006893D01*
X77776593Y-133174178D01*
X77579887Y-133305612D01*
X77579886Y-133305613D01*
X77579885Y-133305613D01*
X77361318Y-133396147D01*
X77129290Y-133442300D01*
X76892710Y-133442300D01*
X76660682Y-133396147D01*
X76442115Y-133305613D01*
X76442114Y-133305613D01*
X76442113Y-133305612D01*
X76245407Y-133174178D01*
X76078122Y-133006893D01*
X75946688Y-132810187D01*
X75946687Y-132810185D01*
X75856153Y-132591618D01*
X75810000Y-132359590D01*
X75810000Y-132123010D01*
X75856153Y-131890982D01*
X75946687Y-131672415D01*
X75956365Y-131657931D01*
X76078122Y-131475707D01*
X76245407Y-131308422D01*
X76442113Y-131176988D01*
X76442115Y-131176987D01*
X76660682Y-131086453D01*
X76892710Y-131040300D01*
X77129290Y-131040300D01*
X77361318Y-131086453D01*
G37*
G36*
X51961318Y-131086453D02*
G01*
X52179885Y-131176987D01*
X52179887Y-131176988D01*
X52376593Y-131308422D01*
X52543878Y-131475707D01*
X52665635Y-131657931D01*
X52675313Y-131672415D01*
X52765847Y-131890982D01*
X52812000Y-132123010D01*
X52812000Y-132359590D01*
X52765847Y-132591618D01*
X52675313Y-132810185D01*
X52675312Y-132810187D01*
X52543878Y-133006893D01*
X52376593Y-133174178D01*
X52179887Y-133305612D01*
X52179886Y-133305613D01*
X52179885Y-133305613D01*
X51961318Y-133396147D01*
X51729290Y-133442300D01*
X51492710Y-133442300D01*
X51260682Y-133396147D01*
X51042115Y-133305613D01*
X51042114Y-133305613D01*
X51042113Y-133305612D01*
X50845407Y-133174178D01*
X50678122Y-133006893D01*
X50546688Y-132810187D01*
X50546687Y-132810185D01*
X50456153Y-132591618D01*
X50410000Y-132359590D01*
X50410000Y-132123010D01*
X50456153Y-131890982D01*
X50546687Y-131672415D01*
X50556365Y-131657931D01*
X50678122Y-131475707D01*
X50845407Y-131308422D01*
X51042113Y-131176988D01*
X51042115Y-131176987D01*
X51260682Y-131086453D01*
X51492710Y-131040300D01*
X51729290Y-131040300D01*
X51961318Y-131086453D01*
G37*
G36*
X47582000Y-133442300D02*
G01*
X45480000Y-133442300D01*
X45480000Y-131040300D01*
X47582000Y-131040300D01*
X47582000Y-133442300D01*
G37*
G36*
X58828062Y-131446481D02*
G01*
X58862981Y-131457074D01*
X58895163Y-131474276D01*
X58923373Y-131497427D01*
X58946524Y-131525637D01*
X58963726Y-131557819D01*
X58974319Y-131592738D01*
X58978500Y-131635195D01*
X58978500Y-133101405D01*
X58974319Y-133143862D01*
X58963726Y-133178781D01*
X58946524Y-133210963D01*
X58923373Y-133239173D01*
X58895163Y-133262324D01*
X58862981Y-133279526D01*
X58828062Y-133290119D01*
X58785605Y-133294300D01*
X57644395Y-133294300D01*
X57601938Y-133290119D01*
X57567019Y-133279526D01*
X57534837Y-133262324D01*
X57506627Y-133239173D01*
X57483476Y-133210963D01*
X57466274Y-133178781D01*
X57455681Y-133143862D01*
X57451500Y-133101405D01*
X57451500Y-131635195D01*
X57455681Y-131592738D01*
X57466274Y-131557819D01*
X57483476Y-131525637D01*
X57506627Y-131497427D01*
X57534837Y-131474276D01*
X57567019Y-131457074D01*
X57601938Y-131446481D01*
X57644395Y-131442300D01*
X58785605Y-131442300D01*
X58828062Y-131446481D01*
G37*
G36*
X64670062Y-131446481D02*
G01*
X64704981Y-131457074D01*
X64737163Y-131474276D01*
X64765373Y-131497427D01*
X64788524Y-131525637D01*
X64805726Y-131557819D01*
X64816319Y-131592738D01*
X64820500Y-131635195D01*
X64820500Y-133101405D01*
X64816319Y-133143862D01*
X64805726Y-133178781D01*
X64788524Y-133210963D01*
X64765373Y-133239173D01*
X64737163Y-133262324D01*
X64704981Y-133279526D01*
X64670062Y-133290119D01*
X64627605Y-133294300D01*
X63486395Y-133294300D01*
X63443938Y-133290119D01*
X63409019Y-133279526D01*
X63376837Y-133262324D01*
X63348627Y-133239173D01*
X63325476Y-133210963D01*
X63308274Y-133178781D01*
X63297681Y-133143862D01*
X63293500Y-133101405D01*
X63293500Y-131635195D01*
X63297681Y-131592738D01*
X63308274Y-131557819D01*
X63325476Y-131525637D01*
X63348627Y-131497427D01*
X63376837Y-131474276D01*
X63409019Y-131457074D01*
X63443938Y-131446481D01*
X63486395Y-131442300D01*
X64627605Y-131442300D01*
X64670062Y-131446481D01*
G37*
G36*
X55853062Y-131446481D02*
G01*
X55887981Y-131457074D01*
X55920163Y-131474276D01*
X55948373Y-131497427D01*
X55971524Y-131525637D01*
X55988726Y-131557819D01*
X55999319Y-131592738D01*
X56003500Y-131635195D01*
X56003500Y-133101405D01*
X55999319Y-133143862D01*
X55988726Y-133178781D01*
X55971524Y-133210963D01*
X55948373Y-133239173D01*
X55920163Y-133262324D01*
X55887981Y-133279526D01*
X55853062Y-133290119D01*
X55810605Y-133294300D01*
X54669395Y-133294300D01*
X54626938Y-133290119D01*
X54592019Y-133279526D01*
X54559837Y-133262324D01*
X54531627Y-133239173D01*
X54508476Y-133210963D01*
X54491274Y-133178781D01*
X54480681Y-133143862D01*
X54476500Y-133101405D01*
X54476500Y-131635195D01*
X54480681Y-131592738D01*
X54491274Y-131557819D01*
X54508476Y-131525637D01*
X54531627Y-131497427D01*
X54559837Y-131474276D01*
X54592019Y-131457074D01*
X54626938Y-131446481D01*
X54669395Y-131442300D01*
X55810605Y-131442300D01*
X55853062Y-131446481D01*
G37*
G36*
X61695062Y-131446481D02*
G01*
X61729981Y-131457074D01*
X61762163Y-131474276D01*
X61790373Y-131497427D01*
X61813524Y-131525637D01*
X61830726Y-131557819D01*
X61841319Y-131592738D01*
X61845500Y-131635195D01*
X61845500Y-133101405D01*
X61841319Y-133143862D01*
X61830726Y-133178781D01*
X61813524Y-133210963D01*
X61790373Y-133239173D01*
X61762163Y-133262324D01*
X61729981Y-133279526D01*
X61695062Y-133290119D01*
X61652605Y-133294300D01*
X60511395Y-133294300D01*
X60468938Y-133290119D01*
X60434019Y-133279526D01*
X60401837Y-133262324D01*
X60373627Y-133239173D01*
X60350476Y-133210963D01*
X60333274Y-133178781D01*
X60322681Y-133143862D01*
X60318500Y-133101405D01*
X60318500Y-131635195D01*
X60322681Y-131592738D01*
X60333274Y-131557819D01*
X60350476Y-131525637D01*
X60373627Y-131497427D01*
X60401837Y-131474276D01*
X60434019Y-131457074D01*
X60468938Y-131446481D01*
X60511395Y-131442300D01*
X61652605Y-131442300D01*
X61695062Y-131446481D01*
G37*
G36*
X122330587Y-129807696D02*
G01*
X122567353Y-129905768D01*
X122567355Y-129905769D01*
X122659760Y-129967512D01*
X122780439Y-130048147D01*
X122961653Y-130229361D01*
X123104032Y-130442447D01*
X123202104Y-130679213D01*
X123252100Y-130930561D01*
X123252100Y-131186839D01*
X123202104Y-131438187D01*
X123131899Y-131607676D01*
X123104031Y-131674955D01*
X122961653Y-131888039D01*
X122780439Y-132069253D01*
X122567355Y-132211631D01*
X122567354Y-132211632D01*
X122567353Y-132211632D01*
X122330587Y-132309704D01*
X122079239Y-132359700D01*
X121822961Y-132359700D01*
X121571613Y-132309704D01*
X121334847Y-132211632D01*
X121334846Y-132211632D01*
X121334845Y-132211631D01*
X121121761Y-132069253D01*
X120940547Y-131888039D01*
X120798169Y-131674955D01*
X120770301Y-131607676D01*
X120700096Y-131438187D01*
X120650100Y-131186839D01*
X120650100Y-130930561D01*
X120700096Y-130679213D01*
X120798168Y-130442447D01*
X120940547Y-130229361D01*
X121121761Y-130048147D01*
X121242440Y-129967512D01*
X121334845Y-129905769D01*
X121334847Y-129905768D01*
X121571613Y-129807696D01*
X121822961Y-129757700D01*
X122079239Y-129757700D01*
X122330587Y-129807696D01*
G37*
G36*
X37544425Y-128354560D02*
G01*
X37544428Y-128354561D01*
X37544429Y-128354561D01*
X37723693Y-128408940D01*
X37723696Y-128408942D01*
X37723697Y-128408942D01*
X37888903Y-128497246D01*
X38033712Y-128616088D01*
X38152554Y-128760897D01*
X38240858Y-128926103D01*
X38240860Y-128926107D01*
X38295239Y-129105371D01*
X38295240Y-129105375D01*
X38313601Y-129291800D01*
X38295240Y-129478225D01*
X38295239Y-129478228D01*
X38295239Y-129478229D01*
X38240860Y-129657493D01*
X38240858Y-129657496D01*
X38240858Y-129657497D01*
X38152554Y-129822703D01*
X38033712Y-129967512D01*
X37888903Y-130086354D01*
X37723697Y-130174658D01*
X37723693Y-130174660D01*
X37544429Y-130229039D01*
X37544428Y-130229039D01*
X37544425Y-130229040D01*
X37404718Y-130242800D01*
X35611282Y-130242800D01*
X35471575Y-130229040D01*
X35471572Y-130229039D01*
X35471571Y-130229039D01*
X35292307Y-130174660D01*
X35292303Y-130174658D01*
X35127097Y-130086354D01*
X34982288Y-129967512D01*
X34863446Y-129822703D01*
X34775142Y-129657497D01*
X34775142Y-129657496D01*
X34775140Y-129657493D01*
X34720761Y-129478229D01*
X34720761Y-129478228D01*
X34720760Y-129478225D01*
X34702399Y-129291800D01*
X34720760Y-129105375D01*
X34720761Y-129105371D01*
X34775140Y-128926107D01*
X34775142Y-128926103D01*
X34863446Y-128760897D01*
X34982288Y-128616088D01*
X35127097Y-128497246D01*
X35292303Y-128408942D01*
X35292304Y-128408942D01*
X35292307Y-128408940D01*
X35471571Y-128354561D01*
X35471572Y-128354561D01*
X35471575Y-128354560D01*
X35611282Y-128340800D01*
X37404718Y-128340800D01*
X37544425Y-128354560D01*
G37*
G36*
X119953242Y-126826942D02*
G01*
X120101201Y-126888229D01*
X120234355Y-126977199D01*
X120347601Y-127090445D01*
X120436571Y-127223599D01*
X120497858Y-127371558D01*
X120529100Y-127528625D01*
X120529100Y-127688775D01*
X120497858Y-127845842D01*
X120436571Y-127993801D01*
X120347601Y-128126955D01*
X120234355Y-128240201D01*
X120101201Y-128329171D01*
X119953242Y-128390458D01*
X119796175Y-128421700D01*
X119636025Y-128421700D01*
X119478958Y-128390458D01*
X119330999Y-128329171D01*
X119197845Y-128240201D01*
X119084599Y-128126955D01*
X118995629Y-127993801D01*
X118934342Y-127845842D01*
X118903100Y-127688775D01*
X118903100Y-127528625D01*
X118934342Y-127371558D01*
X118995629Y-127223599D01*
X119084599Y-127090445D01*
X119197845Y-126977199D01*
X119330999Y-126888229D01*
X119478958Y-126826942D01*
X119636025Y-126795700D01*
X119796175Y-126795700D01*
X119953242Y-126826942D01*
G37*
G36*
X117413242Y-125806942D02*
G01*
X117561201Y-125868229D01*
X117694355Y-125957199D01*
X117807601Y-126070445D01*
X117896571Y-126203599D01*
X117957858Y-126351558D01*
X117989100Y-126508625D01*
X117989100Y-126668775D01*
X117957858Y-126825842D01*
X117896571Y-126973801D01*
X117807601Y-127106955D01*
X117694355Y-127220201D01*
X117561201Y-127309171D01*
X117413242Y-127370458D01*
X117256175Y-127401700D01*
X117096025Y-127401700D01*
X116938958Y-127370458D01*
X116790999Y-127309171D01*
X116657845Y-127220201D01*
X116544599Y-127106955D01*
X116455629Y-126973801D01*
X116394342Y-126825842D01*
X116363100Y-126668775D01*
X116363100Y-126508625D01*
X116394342Y-126351558D01*
X116455629Y-126203599D01*
X116544599Y-126070445D01*
X116657845Y-125957199D01*
X116790999Y-125868229D01*
X116938958Y-125806942D01*
X117096025Y-125775700D01*
X117256175Y-125775700D01*
X117413242Y-125806942D01*
G37*
G36*
X119953242Y-124786942D02*
G01*
X120101201Y-124848229D01*
X120234355Y-124937199D01*
X120347601Y-125050445D01*
X120436571Y-125183599D01*
X120497858Y-125331558D01*
X120529100Y-125488625D01*
X120529100Y-125648775D01*
X120497858Y-125805842D01*
X120436571Y-125953801D01*
X120347601Y-126086955D01*
X120234355Y-126200201D01*
X120101201Y-126289171D01*
X119953242Y-126350458D01*
X119796175Y-126381700D01*
X119636025Y-126381700D01*
X119478958Y-126350458D01*
X119330999Y-126289171D01*
X119197845Y-126200201D01*
X119084599Y-126086955D01*
X118995629Y-125953801D01*
X118934342Y-125805842D01*
X118903100Y-125648775D01*
X118903100Y-125488625D01*
X118934342Y-125331558D01*
X118995629Y-125183599D01*
X119084599Y-125050445D01*
X119197845Y-124937199D01*
X119330999Y-124848229D01*
X119478958Y-124786942D01*
X119636025Y-124755700D01*
X119796175Y-124755700D01*
X119953242Y-124786942D01*
G37*
G36*
X64705562Y-124115981D02*
G01*
X64740481Y-124126574D01*
X64772663Y-124143776D01*
X64800873Y-124166927D01*
X64824024Y-124195137D01*
X64841226Y-124227319D01*
X64851819Y-124262238D01*
X64856000Y-124304695D01*
X64856000Y-125445905D01*
X64851819Y-125488362D01*
X64841226Y-125523281D01*
X64824024Y-125555463D01*
X64800873Y-125583673D01*
X64772663Y-125606824D01*
X64740481Y-125624026D01*
X64705562Y-125634619D01*
X64663105Y-125638800D01*
X63196895Y-125638800D01*
X63154438Y-125634619D01*
X63119519Y-125624026D01*
X63087337Y-125606824D01*
X63059127Y-125583673D01*
X63035976Y-125555463D01*
X63018774Y-125523281D01*
X63008181Y-125488362D01*
X63004000Y-125445905D01*
X63004000Y-124304695D01*
X63008181Y-124262238D01*
X63018774Y-124227319D01*
X63035976Y-124195137D01*
X63059127Y-124166927D01*
X63087337Y-124143776D01*
X63119519Y-124126574D01*
X63154438Y-124115981D01*
X63196895Y-124111800D01*
X64663105Y-124111800D01*
X64705562Y-124115981D01*
G37*
G36*
X117413242Y-123766942D02*
G01*
X117561201Y-123828229D01*
X117694355Y-123917199D01*
X117807601Y-124030445D01*
X117896571Y-124163599D01*
X117957858Y-124311558D01*
X117989100Y-124468625D01*
X117989100Y-124628775D01*
X117957858Y-124785842D01*
X117896571Y-124933801D01*
X117807601Y-125066955D01*
X117694355Y-125180201D01*
X117561201Y-125269171D01*
X117413242Y-125330458D01*
X117256175Y-125361700D01*
X117096025Y-125361700D01*
X116938958Y-125330458D01*
X116790999Y-125269171D01*
X116657845Y-125180201D01*
X116544599Y-125066955D01*
X116455629Y-124933801D01*
X116394342Y-124785842D01*
X116363100Y-124628775D01*
X116363100Y-124468625D01*
X116394342Y-124311558D01*
X116455629Y-124163599D01*
X116544599Y-124030445D01*
X116657845Y-123917199D01*
X116790999Y-123828229D01*
X116938958Y-123766942D01*
X117096025Y-123735700D01*
X117256175Y-123735700D01*
X117413242Y-123766942D01*
G37*
G36*
X46328942Y-122981742D02*
G01*
X46476901Y-123043029D01*
X46610055Y-123131999D01*
X46723301Y-123245245D01*
X46812271Y-123378399D01*
X46873558Y-123526358D01*
X46904800Y-123683425D01*
X46904800Y-123843575D01*
X46873558Y-124000642D01*
X46812271Y-124148601D01*
X46723301Y-124281755D01*
X46610055Y-124395001D01*
X46476901Y-124483971D01*
X46328942Y-124545258D01*
X46171875Y-124576500D01*
X46011725Y-124576500D01*
X45854658Y-124545258D01*
X45706699Y-124483971D01*
X45573545Y-124395001D01*
X45460299Y-124281755D01*
X45371329Y-124148601D01*
X45310042Y-124000642D01*
X45278800Y-123843575D01*
X45278800Y-123683425D01*
X45310042Y-123526358D01*
X45371329Y-123378399D01*
X45460299Y-123245245D01*
X45573545Y-123131999D01*
X45706699Y-123043029D01*
X45854658Y-122981742D01*
X46011725Y-122950500D01*
X46171875Y-122950500D01*
X46328942Y-122981742D01*
G37*
G36*
X119953242Y-122746942D02*
G01*
X120101201Y-122808229D01*
X120234355Y-122897199D01*
X120347601Y-123010445D01*
X120436571Y-123143599D01*
X120497858Y-123291558D01*
X120529100Y-123448625D01*
X120529100Y-123608775D01*
X120497858Y-123765842D01*
X120436571Y-123913801D01*
X120347601Y-124046955D01*
X120234355Y-124160201D01*
X120101201Y-124249171D01*
X119953242Y-124310458D01*
X119796175Y-124341700D01*
X119636025Y-124341700D01*
X119478958Y-124310458D01*
X119330999Y-124249171D01*
X119197845Y-124160201D01*
X119084599Y-124046955D01*
X118995629Y-123913801D01*
X118934342Y-123765842D01*
X118903100Y-123608775D01*
X118903100Y-123448625D01*
X118934342Y-123291558D01*
X118995629Y-123143599D01*
X119084599Y-123010445D01*
X119197845Y-122897199D01*
X119330999Y-122808229D01*
X119478958Y-122746942D01*
X119636025Y-122715700D01*
X119796175Y-122715700D01*
X119953242Y-122746942D01*
G37*
G36*
X77035662Y-122308281D02*
G01*
X77070581Y-122318874D01*
X77102763Y-122336076D01*
X77130973Y-122359227D01*
X77154124Y-122387437D01*
X77171326Y-122419619D01*
X77181919Y-122454538D01*
X77186100Y-122496995D01*
X77186100Y-123963205D01*
X77181919Y-124005662D01*
X77171326Y-124040581D01*
X77154124Y-124072763D01*
X77130973Y-124100973D01*
X77102763Y-124124124D01*
X77070581Y-124141326D01*
X77035662Y-124151919D01*
X76993205Y-124156100D01*
X75851995Y-124156100D01*
X75809538Y-124151919D01*
X75774619Y-124141326D01*
X75742437Y-124124124D01*
X75714227Y-124100973D01*
X75691076Y-124072763D01*
X75673874Y-124040581D01*
X75663281Y-124005662D01*
X75659100Y-123963205D01*
X75659100Y-122496995D01*
X75663281Y-122454538D01*
X75673874Y-122419619D01*
X75691076Y-122387437D01*
X75714227Y-122359227D01*
X75742437Y-122336076D01*
X75774619Y-122318874D01*
X75809538Y-122308281D01*
X75851995Y-122304100D01*
X76993205Y-122304100D01*
X77035662Y-122308281D01*
G37*
G36*
X74060662Y-122308281D02*
G01*
X74095581Y-122318874D01*
X74127763Y-122336076D01*
X74155973Y-122359227D01*
X74179124Y-122387437D01*
X74196326Y-122419619D01*
X74206919Y-122454538D01*
X74211100Y-122496995D01*
X74211100Y-123963205D01*
X74206919Y-124005662D01*
X74196326Y-124040581D01*
X74179124Y-124072763D01*
X74155973Y-124100973D01*
X74127763Y-124124124D01*
X74095581Y-124141326D01*
X74060662Y-124151919D01*
X74018205Y-124156100D01*
X72876995Y-124156100D01*
X72834538Y-124151919D01*
X72799619Y-124141326D01*
X72767437Y-124124124D01*
X72739227Y-124100973D01*
X72716076Y-124072763D01*
X72698874Y-124040581D01*
X72688281Y-124005662D01*
X72684100Y-123963205D01*
X72684100Y-122496995D01*
X72688281Y-122454538D01*
X72698874Y-122419619D01*
X72716076Y-122387437D01*
X72739227Y-122359227D01*
X72767437Y-122336076D01*
X72799619Y-122318874D01*
X72834538Y-122308281D01*
X72876995Y-122304100D01*
X74018205Y-122304100D01*
X74060662Y-122308281D01*
G37*
G36*
X117413242Y-121726942D02*
G01*
X117561201Y-121788229D01*
X117694355Y-121877199D01*
X117807601Y-121990445D01*
X117896571Y-122123599D01*
X117957858Y-122271558D01*
X117989100Y-122428625D01*
X117989100Y-122588775D01*
X117957858Y-122745842D01*
X117896571Y-122893801D01*
X117807601Y-123026955D01*
X117694355Y-123140201D01*
X117561201Y-123229171D01*
X117413242Y-123290458D01*
X117256175Y-123321700D01*
X117096025Y-123321700D01*
X116938958Y-123290458D01*
X116790999Y-123229171D01*
X116657845Y-123140201D01*
X116544599Y-123026955D01*
X116455629Y-122893801D01*
X116394342Y-122745842D01*
X116363100Y-122588775D01*
X116363100Y-122428625D01*
X116394342Y-122271558D01*
X116455629Y-122123599D01*
X116544599Y-121990445D01*
X116657845Y-121877199D01*
X116790999Y-121788229D01*
X116938958Y-121726942D01*
X117096025Y-121695700D01*
X117256175Y-121695700D01*
X117413242Y-121726942D01*
G37*
G36*
X64705562Y-121140981D02*
G01*
X64740481Y-121151574D01*
X64772663Y-121168776D01*
X64800873Y-121191927D01*
X64824024Y-121220137D01*
X64841226Y-121252319D01*
X64851819Y-121287238D01*
X64856000Y-121329695D01*
X64856000Y-122470905D01*
X64851819Y-122513362D01*
X64841226Y-122548281D01*
X64824024Y-122580463D01*
X64800873Y-122608673D01*
X64772663Y-122631824D01*
X64740481Y-122649026D01*
X64705562Y-122659619D01*
X64663105Y-122663800D01*
X63196895Y-122663800D01*
X63154438Y-122659619D01*
X63119519Y-122649026D01*
X63087337Y-122631824D01*
X63059127Y-122608673D01*
X63035976Y-122580463D01*
X63018774Y-122548281D01*
X63008181Y-122513362D01*
X63004000Y-122470905D01*
X63004000Y-121329695D01*
X63008181Y-121287238D01*
X63018774Y-121252319D01*
X63035976Y-121220137D01*
X63059127Y-121191927D01*
X63087337Y-121168776D01*
X63119519Y-121151574D01*
X63154438Y-121140981D01*
X63196895Y-121136800D01*
X64663105Y-121136800D01*
X64705562Y-121140981D01*
G37*
G36*
X77035662Y-119920681D02*
G01*
X77070581Y-119931274D01*
X77102763Y-119948476D01*
X77130973Y-119971627D01*
X77154124Y-119999837D01*
X77171326Y-120032019D01*
X77181919Y-120066938D01*
X77186100Y-120109395D01*
X77186100Y-121575605D01*
X77181919Y-121618062D01*
X77171326Y-121652981D01*
X77154124Y-121685163D01*
X77130973Y-121713373D01*
X77102763Y-121736524D01*
X77070581Y-121753726D01*
X77035662Y-121764319D01*
X76993205Y-121768500D01*
X75851995Y-121768500D01*
X75809538Y-121764319D01*
X75774619Y-121753726D01*
X75742437Y-121736524D01*
X75714227Y-121713373D01*
X75691076Y-121685163D01*
X75673874Y-121652981D01*
X75663281Y-121618062D01*
X75659100Y-121575605D01*
X75659100Y-120109395D01*
X75663281Y-120066938D01*
X75673874Y-120032019D01*
X75691076Y-119999837D01*
X75714227Y-119971627D01*
X75742437Y-119948476D01*
X75774619Y-119931274D01*
X75809538Y-119920681D01*
X75851995Y-119916500D01*
X76993205Y-119916500D01*
X77035662Y-119920681D01*
G37*
G36*
X74060662Y-119920681D02*
G01*
X74095581Y-119931274D01*
X74127763Y-119948476D01*
X74155973Y-119971627D01*
X74179124Y-119999837D01*
X74196326Y-120032019D01*
X74206919Y-120066938D01*
X74211100Y-120109395D01*
X74211100Y-121575605D01*
X74206919Y-121618062D01*
X74196326Y-121652981D01*
X74179124Y-121685163D01*
X74155973Y-121713373D01*
X74127763Y-121736524D01*
X74095581Y-121753726D01*
X74060662Y-121764319D01*
X74018205Y-121768500D01*
X72876995Y-121768500D01*
X72834538Y-121764319D01*
X72799619Y-121753726D01*
X72767437Y-121736524D01*
X72739227Y-121713373D01*
X72716076Y-121685163D01*
X72698874Y-121652981D01*
X72688281Y-121618062D01*
X72684100Y-121575605D01*
X72684100Y-120109395D01*
X72688281Y-120066938D01*
X72698874Y-120032019D01*
X72716076Y-119999837D01*
X72739227Y-119971627D01*
X72767437Y-119948476D01*
X72799619Y-119931274D01*
X72834538Y-119920681D01*
X72876995Y-119916500D01*
X74018205Y-119916500D01*
X74060662Y-119920681D01*
G37*
G36*
X122330587Y-117807696D02*
G01*
X122567353Y-117905768D01*
X122567355Y-117905769D01*
X122780439Y-118048147D01*
X122961653Y-118229361D01*
X123041327Y-118348601D01*
X123104032Y-118442447D01*
X123202104Y-118679213D01*
X123252100Y-118930561D01*
X123252100Y-119186839D01*
X123202104Y-119438187D01*
X123104032Y-119674953D01*
X123104031Y-119674955D01*
X122961653Y-119888039D01*
X122780439Y-120069253D01*
X122567355Y-120211631D01*
X122567354Y-120211632D01*
X122567353Y-120211632D01*
X122330587Y-120309704D01*
X122079239Y-120359700D01*
X121822961Y-120359700D01*
X121571613Y-120309704D01*
X121334847Y-120211632D01*
X121334846Y-120211632D01*
X121334845Y-120211631D01*
X121121761Y-120069253D01*
X120940547Y-119888039D01*
X120798169Y-119674955D01*
X120798168Y-119674953D01*
X120700096Y-119438187D01*
X120650100Y-119186839D01*
X120650100Y-118930561D01*
X120700096Y-118679213D01*
X120798168Y-118442447D01*
X120860874Y-118348601D01*
X120940547Y-118229361D01*
X121121761Y-118048147D01*
X121334845Y-117905769D01*
X121334847Y-117905768D01*
X121571613Y-117807696D01*
X121822961Y-117757700D01*
X122079239Y-117757700D01*
X122330587Y-117807696D01*
G37*
G36*
X74094762Y-117394281D02*
G01*
X74129681Y-117404874D01*
X74161863Y-117422076D01*
X74190073Y-117445227D01*
X74213224Y-117473437D01*
X74230426Y-117505619D01*
X74241019Y-117540538D01*
X74245200Y-117582995D01*
X74245200Y-119049205D01*
X74241019Y-119091662D01*
X74230426Y-119126581D01*
X74213224Y-119158763D01*
X74190073Y-119186973D01*
X74161863Y-119210124D01*
X74129681Y-119227326D01*
X74094762Y-119237919D01*
X74052305Y-119242100D01*
X72911095Y-119242100D01*
X72868638Y-119237919D01*
X72833719Y-119227326D01*
X72801537Y-119210124D01*
X72773327Y-119186973D01*
X72750176Y-119158763D01*
X72732974Y-119126581D01*
X72722381Y-119091662D01*
X72718200Y-119049205D01*
X72718200Y-117582995D01*
X72722381Y-117540538D01*
X72732974Y-117505619D01*
X72750176Y-117473437D01*
X72773327Y-117445227D01*
X72801537Y-117422076D01*
X72833719Y-117404874D01*
X72868638Y-117394281D01*
X72911095Y-117390100D01*
X74052305Y-117390100D01*
X74094762Y-117394281D01*
G37*
G36*
X77069762Y-117394281D02*
G01*
X77104681Y-117404874D01*
X77136863Y-117422076D01*
X77165073Y-117445227D01*
X77188224Y-117473437D01*
X77205426Y-117505619D01*
X77216019Y-117540538D01*
X77220200Y-117582995D01*
X77220200Y-119049205D01*
X77216019Y-119091662D01*
X77205426Y-119126581D01*
X77188224Y-119158763D01*
X77165073Y-119186973D01*
X77136863Y-119210124D01*
X77104681Y-119227326D01*
X77069762Y-119237919D01*
X77027305Y-119242100D01*
X75886095Y-119242100D01*
X75843638Y-119237919D01*
X75808719Y-119227326D01*
X75776537Y-119210124D01*
X75748327Y-119186973D01*
X75725176Y-119158763D01*
X75707974Y-119126581D01*
X75697381Y-119091662D01*
X75693200Y-119049205D01*
X75693200Y-117582995D01*
X75697381Y-117540538D01*
X75707974Y-117505619D01*
X75725176Y-117473437D01*
X75748327Y-117445227D01*
X75776537Y-117422076D01*
X75808719Y-117404874D01*
X75843638Y-117394281D01*
X75886095Y-117390100D01*
X77027305Y-117390100D01*
X77069762Y-117394281D01*
G37*
G36*
X46328942Y-117181742D02*
G01*
X46476901Y-117243029D01*
X46610055Y-117331999D01*
X46723301Y-117445245D01*
X46812271Y-117578399D01*
X46873558Y-117726358D01*
X46904800Y-117883425D01*
X46904800Y-118043575D01*
X46873558Y-118200642D01*
X46812271Y-118348601D01*
X46723301Y-118481755D01*
X46610055Y-118595001D01*
X46476901Y-118683971D01*
X46328942Y-118745258D01*
X46171875Y-118776500D01*
X46011725Y-118776500D01*
X45854658Y-118745258D01*
X45706699Y-118683971D01*
X45573545Y-118595001D01*
X45460299Y-118481755D01*
X45371329Y-118348601D01*
X45310042Y-118200642D01*
X45278800Y-118043575D01*
X45278800Y-117883425D01*
X45310042Y-117726358D01*
X45371329Y-117578399D01*
X45460299Y-117445245D01*
X45573545Y-117331999D01*
X45706699Y-117243029D01*
X45854658Y-117181742D01*
X46011725Y-117150500D01*
X46171875Y-117150500D01*
X46328942Y-117181742D01*
G37*
G36*
X37544425Y-116854560D02*
G01*
X37544428Y-116854561D01*
X37544429Y-116854561D01*
X37723693Y-116908940D01*
X37723696Y-116908942D01*
X37723697Y-116908942D01*
X37888903Y-116997246D01*
X38033712Y-117116088D01*
X38152554Y-117260897D01*
X38240858Y-117426103D01*
X38240860Y-117426107D01*
X38287057Y-117578399D01*
X38295240Y-117605375D01*
X38313601Y-117791800D01*
X38295240Y-117978225D01*
X38295239Y-117978228D01*
X38295239Y-117978229D01*
X38240860Y-118157493D01*
X38240858Y-118157496D01*
X38240858Y-118157497D01*
X38152554Y-118322703D01*
X38033712Y-118467512D01*
X37888903Y-118586354D01*
X37723697Y-118674658D01*
X37723693Y-118674660D01*
X37544429Y-118729039D01*
X37544428Y-118729039D01*
X37544425Y-118729040D01*
X37404718Y-118742800D01*
X35611282Y-118742800D01*
X35471575Y-118729040D01*
X35471572Y-118729039D01*
X35471571Y-118729039D01*
X35292307Y-118674660D01*
X35292303Y-118674658D01*
X35127097Y-118586354D01*
X34982288Y-118467512D01*
X34863446Y-118322703D01*
X34775142Y-118157497D01*
X34775142Y-118157496D01*
X34775140Y-118157493D01*
X34720761Y-117978229D01*
X34720761Y-117978228D01*
X34720760Y-117978225D01*
X34702399Y-117791800D01*
X34720760Y-117605375D01*
X34728943Y-117578399D01*
X34775140Y-117426107D01*
X34775142Y-117426103D01*
X34863446Y-117260897D01*
X34982288Y-117116088D01*
X35127097Y-116997246D01*
X35292303Y-116908942D01*
X35292304Y-116908942D01*
X35292307Y-116908940D01*
X35471571Y-116854561D01*
X35471572Y-116854561D01*
X35471575Y-116854560D01*
X35611282Y-116840800D01*
X37404718Y-116840800D01*
X37544425Y-116854560D01*
G37*
G36*
X72281318Y-113306453D02*
G01*
X72499885Y-113396987D01*
X72499887Y-113396988D01*
X72696593Y-113528422D01*
X72863878Y-113695707D01*
X72905968Y-113758700D01*
X72995313Y-113892415D01*
X73085847Y-114110982D01*
X73132000Y-114343010D01*
X73132000Y-114579590D01*
X73085847Y-114811618D01*
X73038651Y-114925558D01*
X72995312Y-115030187D01*
X72863878Y-115226893D01*
X72696593Y-115394178D01*
X72499887Y-115525612D01*
X72499886Y-115525613D01*
X72499885Y-115525613D01*
X72281318Y-115616147D01*
X72049290Y-115662300D01*
X71812710Y-115662300D01*
X71580682Y-115616147D01*
X71362115Y-115525613D01*
X71362114Y-115525613D01*
X71362113Y-115525612D01*
X71165407Y-115394178D01*
X70998122Y-115226893D01*
X70866688Y-115030187D01*
X70823349Y-114925558D01*
X70776153Y-114811618D01*
X70730000Y-114579590D01*
X70730000Y-114343010D01*
X70776153Y-114110982D01*
X70866687Y-113892415D01*
X70956032Y-113758700D01*
X70998122Y-113695707D01*
X71165407Y-113528422D01*
X71362113Y-113396988D01*
X71362115Y-113396987D01*
X71580682Y-113306453D01*
X71812710Y-113260300D01*
X72049290Y-113260300D01*
X72281318Y-113306453D01*
G37*
G36*
X77361318Y-113306453D02*
G01*
X77579885Y-113396987D01*
X77579887Y-113396988D01*
X77776593Y-113528422D01*
X77943878Y-113695707D01*
X77985968Y-113758700D01*
X78075313Y-113892415D01*
X78165847Y-114110982D01*
X78212000Y-114343010D01*
X78212000Y-114579590D01*
X78165847Y-114811618D01*
X78118651Y-114925558D01*
X78075312Y-115030187D01*
X77943878Y-115226893D01*
X77776593Y-115394178D01*
X77579887Y-115525612D01*
X77579886Y-115525613D01*
X77579885Y-115525613D01*
X77361318Y-115616147D01*
X77129290Y-115662300D01*
X76892710Y-115662300D01*
X76660682Y-115616147D01*
X76442115Y-115525613D01*
X76442114Y-115525613D01*
X76442113Y-115525612D01*
X76245407Y-115394178D01*
X76078122Y-115226893D01*
X75946688Y-115030187D01*
X75903349Y-114925558D01*
X75856153Y-114811618D01*
X75810000Y-114579590D01*
X75810000Y-114343010D01*
X75856153Y-114110982D01*
X75946687Y-113892415D01*
X76036032Y-113758700D01*
X76078122Y-113695707D01*
X76245407Y-113528422D01*
X76442113Y-113396988D01*
X76442115Y-113396987D01*
X76660682Y-113306453D01*
X76892710Y-113260300D01*
X77129290Y-113260300D01*
X77361318Y-113306453D01*
G37*
G36*
X95028142Y-113362042D02*
G01*
X95176101Y-113423329D01*
X95309255Y-113512299D01*
X95422501Y-113625545D01*
X95511471Y-113758699D01*
X95572758Y-113906658D01*
X95604000Y-114063725D01*
X95604000Y-114223875D01*
X95572758Y-114380942D01*
X95511471Y-114528901D01*
X95422501Y-114662055D01*
X95309255Y-114775301D01*
X95176101Y-114864271D01*
X95028142Y-114925558D01*
X94871075Y-114956800D01*
X94710925Y-114956800D01*
X94553858Y-114925558D01*
X94405899Y-114864271D01*
X94272745Y-114775301D01*
X94159499Y-114662055D01*
X94070529Y-114528901D01*
X94009242Y-114380942D01*
X93978000Y-114223875D01*
X93978000Y-114063725D01*
X94009242Y-113906658D01*
X94070529Y-113758699D01*
X94159499Y-113625545D01*
X94272745Y-113512299D01*
X94405899Y-113423329D01*
X94553858Y-113362042D01*
X94710925Y-113330800D01*
X94871075Y-113330800D01*
X95028142Y-113362042D01*
G37*
G36*
X105188142Y-113362042D02*
G01*
X105336101Y-113423329D01*
X105469255Y-113512299D01*
X105582501Y-113625545D01*
X105671471Y-113758699D01*
X105732758Y-113906658D01*
X105764000Y-114063725D01*
X105764000Y-114223875D01*
X105732758Y-114380942D01*
X105671471Y-114528901D01*
X105582501Y-114662055D01*
X105469255Y-114775301D01*
X105336101Y-114864271D01*
X105188142Y-114925558D01*
X105031075Y-114956800D01*
X104870925Y-114956800D01*
X104713858Y-114925558D01*
X104565899Y-114864271D01*
X104432745Y-114775301D01*
X104319499Y-114662055D01*
X104230529Y-114528901D01*
X104169242Y-114380942D01*
X104138000Y-114223875D01*
X104138000Y-114063725D01*
X104169242Y-113906658D01*
X104230529Y-113758699D01*
X104319499Y-113625545D01*
X104432745Y-113512299D01*
X104565899Y-113423329D01*
X104713858Y-113362042D01*
X104870925Y-113330800D01*
X105031075Y-113330800D01*
X105188142Y-113362042D01*
G37*
G36*
X102648142Y-113362042D02*
G01*
X102796101Y-113423329D01*
X102929255Y-113512299D01*
X103042501Y-113625545D01*
X103131471Y-113758699D01*
X103192758Y-113906658D01*
X103224000Y-114063725D01*
X103224000Y-114223875D01*
X103192758Y-114380942D01*
X103131471Y-114528901D01*
X103042501Y-114662055D01*
X102929255Y-114775301D01*
X102796101Y-114864271D01*
X102648142Y-114925558D01*
X102491075Y-114956800D01*
X102330925Y-114956800D01*
X102173858Y-114925558D01*
X102025899Y-114864271D01*
X101892745Y-114775301D01*
X101779499Y-114662055D01*
X101690529Y-114528901D01*
X101629242Y-114380942D01*
X101598000Y-114223875D01*
X101598000Y-114063725D01*
X101629242Y-113906658D01*
X101690529Y-113758699D01*
X101779499Y-113625545D01*
X101892745Y-113512299D01*
X102025899Y-113423329D01*
X102173858Y-113362042D01*
X102330925Y-113330800D01*
X102491075Y-113330800D01*
X102648142Y-113362042D01*
G37*
G36*
X92488142Y-113362042D02*
G01*
X92636101Y-113423329D01*
X92769255Y-113512299D01*
X92882501Y-113625545D01*
X92971471Y-113758699D01*
X93032758Y-113906658D01*
X93064000Y-114063725D01*
X93064000Y-114223875D01*
X93032758Y-114380942D01*
X92971471Y-114528901D01*
X92882501Y-114662055D01*
X92769255Y-114775301D01*
X92636101Y-114864271D01*
X92488142Y-114925558D01*
X92331075Y-114956800D01*
X92170925Y-114956800D01*
X92013858Y-114925558D01*
X91865899Y-114864271D01*
X91732745Y-114775301D01*
X91619499Y-114662055D01*
X91530529Y-114528901D01*
X91469242Y-114380942D01*
X91438000Y-114223875D01*
X91438000Y-114063725D01*
X91469242Y-113906658D01*
X91530529Y-113758699D01*
X91619499Y-113625545D01*
X91732745Y-113512299D01*
X91865899Y-113423329D01*
X92013858Y-113362042D01*
X92170925Y-113330800D01*
X92331075Y-113330800D01*
X92488142Y-113362042D01*
G37*
G36*
X107728142Y-113362042D02*
G01*
X107876101Y-113423329D01*
X108009255Y-113512299D01*
X108122501Y-113625545D01*
X108211471Y-113758699D01*
X108272758Y-113906658D01*
X108304000Y-114063725D01*
X108304000Y-114223875D01*
X108272758Y-114380942D01*
X108211471Y-114528901D01*
X108122501Y-114662055D01*
X108009255Y-114775301D01*
X107876101Y-114864271D01*
X107728142Y-114925558D01*
X107571075Y-114956800D01*
X107410925Y-114956800D01*
X107253858Y-114925558D01*
X107105899Y-114864271D01*
X106972745Y-114775301D01*
X106859499Y-114662055D01*
X106770529Y-114528901D01*
X106709242Y-114380942D01*
X106678000Y-114223875D01*
X106678000Y-114063725D01*
X106709242Y-113906658D01*
X106770529Y-113758699D01*
X106859499Y-113625545D01*
X106972745Y-113512299D01*
X107105899Y-113423329D01*
X107253858Y-113362042D01*
X107410925Y-113330800D01*
X107571075Y-113330800D01*
X107728142Y-113362042D01*
G37*
G36*
X56864862Y-112757881D02*
G01*
X56899781Y-112768474D01*
X56931963Y-112785676D01*
X56960173Y-112808827D01*
X56983324Y-112837037D01*
X57000526Y-112869219D01*
X57011119Y-112904138D01*
X57015300Y-112946595D01*
X57015300Y-114412805D01*
X57011119Y-114455262D01*
X57000526Y-114490181D01*
X56983324Y-114522363D01*
X56960173Y-114550573D01*
X56931963Y-114573724D01*
X56899781Y-114590926D01*
X56864862Y-114601519D01*
X56822405Y-114605700D01*
X55681195Y-114605700D01*
X55638738Y-114601519D01*
X55603819Y-114590926D01*
X55571637Y-114573724D01*
X55543427Y-114550573D01*
X55520276Y-114522363D01*
X55503074Y-114490181D01*
X55492481Y-114455262D01*
X55488300Y-114412805D01*
X55488300Y-112946595D01*
X55492481Y-112904138D01*
X55503074Y-112869219D01*
X55520276Y-112837037D01*
X55543427Y-112808827D01*
X55571637Y-112785676D01*
X55603819Y-112768474D01*
X55638738Y-112757881D01*
X55681195Y-112753700D01*
X56822405Y-112753700D01*
X56864862Y-112757881D01*
G37*
G36*
X51683262Y-112757881D02*
G01*
X51718181Y-112768474D01*
X51750363Y-112785676D01*
X51778573Y-112808827D01*
X51801724Y-112837037D01*
X51818926Y-112869219D01*
X51829519Y-112904138D01*
X51833700Y-112946595D01*
X51833700Y-114412805D01*
X51829519Y-114455262D01*
X51818926Y-114490181D01*
X51801724Y-114522363D01*
X51778573Y-114550573D01*
X51750363Y-114573724D01*
X51718181Y-114590926D01*
X51683262Y-114601519D01*
X51640805Y-114605700D01*
X50499595Y-114605700D01*
X50457138Y-114601519D01*
X50422219Y-114590926D01*
X50390037Y-114573724D01*
X50361827Y-114550573D01*
X50338676Y-114522363D01*
X50321474Y-114490181D01*
X50310881Y-114455262D01*
X50306700Y-114412805D01*
X50306700Y-112946595D01*
X50310881Y-112904138D01*
X50321474Y-112869219D01*
X50338676Y-112837037D01*
X50361827Y-112808827D01*
X50390037Y-112785676D01*
X50422219Y-112768474D01*
X50457138Y-112757881D01*
X50499595Y-112753700D01*
X51640805Y-112753700D01*
X51683262Y-112757881D01*
G37*
G36*
X54658262Y-112757881D02*
G01*
X54693181Y-112768474D01*
X54725363Y-112785676D01*
X54753573Y-112808827D01*
X54776724Y-112837037D01*
X54793926Y-112869219D01*
X54804519Y-112904138D01*
X54808700Y-112946595D01*
X54808700Y-114412805D01*
X54804519Y-114455262D01*
X54793926Y-114490181D01*
X54776724Y-114522363D01*
X54753573Y-114550573D01*
X54725363Y-114573724D01*
X54693181Y-114590926D01*
X54658262Y-114601519D01*
X54615805Y-114605700D01*
X53474595Y-114605700D01*
X53432138Y-114601519D01*
X53397219Y-114590926D01*
X53365037Y-114573724D01*
X53336827Y-114550573D01*
X53313676Y-114522363D01*
X53296474Y-114490181D01*
X53285881Y-114455262D01*
X53281700Y-114412805D01*
X53281700Y-112946595D01*
X53285881Y-112904138D01*
X53296474Y-112869219D01*
X53313676Y-112837037D01*
X53336827Y-112808827D01*
X53365037Y-112785676D01*
X53397219Y-112768474D01*
X53432138Y-112757881D01*
X53474595Y-112753700D01*
X54615805Y-112753700D01*
X54658262Y-112757881D01*
G37*
G36*
X59839862Y-112757881D02*
G01*
X59874781Y-112768474D01*
X59906963Y-112785676D01*
X59935173Y-112808827D01*
X59958324Y-112837037D01*
X59975526Y-112869219D01*
X59986119Y-112904138D01*
X59990300Y-112946595D01*
X59990300Y-114412805D01*
X59986119Y-114455262D01*
X59975526Y-114490181D01*
X59958324Y-114522363D01*
X59935173Y-114550573D01*
X59906963Y-114573724D01*
X59874781Y-114590926D01*
X59839862Y-114601519D01*
X59797405Y-114605700D01*
X58656195Y-114605700D01*
X58613738Y-114601519D01*
X58578819Y-114590926D01*
X58546637Y-114573724D01*
X58518427Y-114550573D01*
X58495276Y-114522363D01*
X58478074Y-114490181D01*
X58467481Y-114455262D01*
X58463300Y-114412805D01*
X58463300Y-112946595D01*
X58467481Y-112904138D01*
X58478074Y-112869219D01*
X58495276Y-112837037D01*
X58518427Y-112808827D01*
X58546637Y-112785676D01*
X58578819Y-112768474D01*
X58613738Y-112757881D01*
X58656195Y-112753700D01*
X59797405Y-112753700D01*
X59839862Y-112757881D01*
G37*
G36*
X77361318Y-106386453D02*
G01*
X77579885Y-106476987D01*
X77579887Y-106476988D01*
X77776593Y-106608422D01*
X77943878Y-106775707D01*
X78065635Y-106957931D01*
X78075313Y-106972415D01*
X78165847Y-107190982D01*
X78212000Y-107423010D01*
X78212000Y-107659590D01*
X78165847Y-107891618D01*
X78075313Y-108110185D01*
X78075312Y-108110187D01*
X77943878Y-108306893D01*
X77776593Y-108474178D01*
X77579887Y-108605612D01*
X77579886Y-108605613D01*
X77579885Y-108605613D01*
X77361318Y-108696147D01*
X77129290Y-108742300D01*
X76892710Y-108742300D01*
X76660682Y-108696147D01*
X76442115Y-108605613D01*
X76442114Y-108605613D01*
X76442113Y-108605612D01*
X76245407Y-108474178D01*
X76078122Y-108306893D01*
X75946688Y-108110187D01*
X75946687Y-108110185D01*
X75856153Y-107891618D01*
X75810000Y-107659590D01*
X75810000Y-107423010D01*
X75856153Y-107190982D01*
X75946687Y-106972415D01*
X75956365Y-106957931D01*
X76078122Y-106775707D01*
X76245407Y-106608422D01*
X76442113Y-106476988D01*
X76442115Y-106476987D01*
X76660682Y-106386453D01*
X76892710Y-106340300D01*
X77129290Y-106340300D01*
X77361318Y-106386453D01*
G37*
G36*
X47582000Y-108742300D02*
G01*
X45480000Y-108742300D01*
X45480000Y-106340300D01*
X47582000Y-106340300D01*
X47582000Y-108742300D01*
G37*
G36*
X51961318Y-106386453D02*
G01*
X52179885Y-106476987D01*
X52179887Y-106476988D01*
X52376593Y-106608422D01*
X52543878Y-106775707D01*
X52665635Y-106957931D01*
X52675313Y-106972415D01*
X52765847Y-107190982D01*
X52812000Y-107423010D01*
X52812000Y-107659590D01*
X52765847Y-107891618D01*
X52675313Y-108110185D01*
X52675312Y-108110187D01*
X52543878Y-108306893D01*
X52376593Y-108474178D01*
X52179887Y-108605612D01*
X52179886Y-108605613D01*
X52179885Y-108605613D01*
X51961318Y-108696147D01*
X51729290Y-108742300D01*
X51492710Y-108742300D01*
X51260682Y-108696147D01*
X51042115Y-108605613D01*
X51042114Y-108605613D01*
X51042113Y-108605612D01*
X50845407Y-108474178D01*
X50678122Y-108306893D01*
X50546688Y-108110187D01*
X50546687Y-108110185D01*
X50456153Y-107891618D01*
X50410000Y-107659590D01*
X50410000Y-107423010D01*
X50456153Y-107190982D01*
X50546687Y-106972415D01*
X50556365Y-106957931D01*
X50678122Y-106775707D01*
X50845407Y-106608422D01*
X51042113Y-106476988D01*
X51042115Y-106476987D01*
X51260682Y-106386453D01*
X51492710Y-106340300D01*
X51729290Y-106340300D01*
X51961318Y-106386453D01*
G37*
G36*
X58828062Y-106746481D02*
G01*
X58862981Y-106757074D01*
X58895163Y-106774276D01*
X58923373Y-106797427D01*
X58946524Y-106825637D01*
X58963726Y-106857819D01*
X58974319Y-106892738D01*
X58978500Y-106935195D01*
X58978500Y-108401405D01*
X58974319Y-108443862D01*
X58963726Y-108478781D01*
X58946524Y-108510963D01*
X58923373Y-108539173D01*
X58895163Y-108562324D01*
X58862981Y-108579526D01*
X58828062Y-108590119D01*
X58785605Y-108594300D01*
X57644395Y-108594300D01*
X57601938Y-108590119D01*
X57567019Y-108579526D01*
X57534837Y-108562324D01*
X57506627Y-108539173D01*
X57483476Y-108510963D01*
X57466274Y-108478781D01*
X57455681Y-108443862D01*
X57451500Y-108401405D01*
X57451500Y-106935195D01*
X57455681Y-106892738D01*
X57466274Y-106857819D01*
X57483476Y-106825637D01*
X57506627Y-106797427D01*
X57534837Y-106774276D01*
X57567019Y-106757074D01*
X57601938Y-106746481D01*
X57644395Y-106742300D01*
X58785605Y-106742300D01*
X58828062Y-106746481D01*
G37*
G36*
X64670062Y-106746481D02*
G01*
X64704981Y-106757074D01*
X64737163Y-106774276D01*
X64765373Y-106797427D01*
X64788524Y-106825637D01*
X64805726Y-106857819D01*
X64816319Y-106892738D01*
X64820500Y-106935195D01*
X64820500Y-108401405D01*
X64816319Y-108443862D01*
X64805726Y-108478781D01*
X64788524Y-108510963D01*
X64765373Y-108539173D01*
X64737163Y-108562324D01*
X64704981Y-108579526D01*
X64670062Y-108590119D01*
X64627605Y-108594300D01*
X63486395Y-108594300D01*
X63443938Y-108590119D01*
X63409019Y-108579526D01*
X63376837Y-108562324D01*
X63348627Y-108539173D01*
X63325476Y-108510963D01*
X63308274Y-108478781D01*
X63297681Y-108443862D01*
X63293500Y-108401405D01*
X63293500Y-106935195D01*
X63297681Y-106892738D01*
X63308274Y-106857819D01*
X63325476Y-106825637D01*
X63348627Y-106797427D01*
X63376837Y-106774276D01*
X63409019Y-106757074D01*
X63443938Y-106746481D01*
X63486395Y-106742300D01*
X64627605Y-106742300D01*
X64670062Y-106746481D01*
G37*
G36*
X61695062Y-106746481D02*
G01*
X61729981Y-106757074D01*
X61762163Y-106774276D01*
X61790373Y-106797427D01*
X61813524Y-106825637D01*
X61830726Y-106857819D01*
X61841319Y-106892738D01*
X61845500Y-106935195D01*
X61845500Y-108401405D01*
X61841319Y-108443862D01*
X61830726Y-108478781D01*
X61813524Y-108510963D01*
X61790373Y-108539173D01*
X61762163Y-108562324D01*
X61729981Y-108579526D01*
X61695062Y-108590119D01*
X61652605Y-108594300D01*
X60511395Y-108594300D01*
X60468938Y-108590119D01*
X60434019Y-108579526D01*
X60401837Y-108562324D01*
X60373627Y-108539173D01*
X60350476Y-108510963D01*
X60333274Y-108478781D01*
X60322681Y-108443862D01*
X60318500Y-108401405D01*
X60318500Y-106935195D01*
X60322681Y-106892738D01*
X60333274Y-106857819D01*
X60350476Y-106825637D01*
X60373627Y-106797427D01*
X60401837Y-106774276D01*
X60434019Y-106757074D01*
X60468938Y-106746481D01*
X60511395Y-106742300D01*
X61652605Y-106742300D01*
X61695062Y-106746481D01*
G37*
G36*
X55853062Y-106746481D02*
G01*
X55887981Y-106757074D01*
X55920163Y-106774276D01*
X55948373Y-106797427D01*
X55971524Y-106825637D01*
X55988726Y-106857819D01*
X55999319Y-106892738D01*
X56003500Y-106935195D01*
X56003500Y-108401405D01*
X55999319Y-108443862D01*
X55988726Y-108478781D01*
X55971524Y-108510963D01*
X55948373Y-108539173D01*
X55920163Y-108562324D01*
X55887981Y-108579526D01*
X55853062Y-108590119D01*
X55810605Y-108594300D01*
X54669395Y-108594300D01*
X54626938Y-108590119D01*
X54592019Y-108579526D01*
X54559837Y-108562324D01*
X54531627Y-108539173D01*
X54508476Y-108510963D01*
X54491274Y-108478781D01*
X54480681Y-108443862D01*
X54476500Y-108401405D01*
X54476500Y-106935195D01*
X54480681Y-106892738D01*
X54491274Y-106857819D01*
X54508476Y-106825637D01*
X54531627Y-106797427D01*
X54559837Y-106774276D01*
X54592019Y-106757074D01*
X54626938Y-106746481D01*
X54669395Y-106742300D01*
X55810605Y-106742300D01*
X55853062Y-106746481D01*
G37*
G36*
X122330587Y-105107696D02*
G01*
X122567353Y-105205768D01*
X122567355Y-105205769D01*
X122659760Y-105267512D01*
X122780439Y-105348147D01*
X122961653Y-105529361D01*
X123104032Y-105742447D01*
X123202104Y-105979213D01*
X123252100Y-106230561D01*
X123252100Y-106486839D01*
X123202104Y-106738187D01*
X123131899Y-106907676D01*
X123104031Y-106974955D01*
X122961653Y-107188039D01*
X122780439Y-107369253D01*
X122567355Y-107511631D01*
X122567354Y-107511632D01*
X122567353Y-107511632D01*
X122330587Y-107609704D01*
X122079239Y-107659700D01*
X121822961Y-107659700D01*
X121571613Y-107609704D01*
X121334847Y-107511632D01*
X121334846Y-107511632D01*
X121334845Y-107511631D01*
X121121761Y-107369253D01*
X120940547Y-107188039D01*
X120798169Y-106974955D01*
X120770301Y-106907676D01*
X120700096Y-106738187D01*
X120650100Y-106486839D01*
X120650100Y-106230561D01*
X120700096Y-105979213D01*
X120798168Y-105742447D01*
X120940547Y-105529361D01*
X121121761Y-105348147D01*
X121242440Y-105267512D01*
X121334845Y-105205769D01*
X121334847Y-105205768D01*
X121571613Y-105107696D01*
X121822961Y-105057700D01*
X122079239Y-105057700D01*
X122330587Y-105107696D01*
G37*
G36*
X37544425Y-103654560D02*
G01*
X37544428Y-103654561D01*
X37544429Y-103654561D01*
X37723693Y-103708940D01*
X37723696Y-103708942D01*
X37723697Y-103708942D01*
X37888903Y-103797246D01*
X38033712Y-103916088D01*
X38152554Y-104060897D01*
X38240858Y-104226103D01*
X38240860Y-104226107D01*
X38295239Y-104405371D01*
X38295240Y-104405375D01*
X38313601Y-104591800D01*
X38295240Y-104778225D01*
X38295239Y-104778228D01*
X38295239Y-104778229D01*
X38240860Y-104957493D01*
X38240858Y-104957496D01*
X38240858Y-104957497D01*
X38152554Y-105122703D01*
X38033712Y-105267512D01*
X37888903Y-105386354D01*
X37723697Y-105474658D01*
X37723693Y-105474660D01*
X37544429Y-105529039D01*
X37544428Y-105529039D01*
X37544425Y-105529040D01*
X37404718Y-105542800D01*
X35611282Y-105542800D01*
X35471575Y-105529040D01*
X35471572Y-105529039D01*
X35471571Y-105529039D01*
X35292307Y-105474660D01*
X35292303Y-105474658D01*
X35127097Y-105386354D01*
X34982288Y-105267512D01*
X34863446Y-105122703D01*
X34775142Y-104957497D01*
X34775142Y-104957496D01*
X34775140Y-104957493D01*
X34720761Y-104778229D01*
X34720761Y-104778228D01*
X34720760Y-104778225D01*
X34702399Y-104591800D01*
X34720760Y-104405375D01*
X34720761Y-104405371D01*
X34775140Y-104226107D01*
X34775142Y-104226103D01*
X34863446Y-104060897D01*
X34982288Y-103916088D01*
X35127097Y-103797246D01*
X35292303Y-103708942D01*
X35292304Y-103708942D01*
X35292307Y-103708940D01*
X35471571Y-103654561D01*
X35471572Y-103654561D01*
X35471575Y-103654560D01*
X35611282Y-103640800D01*
X37404718Y-103640800D01*
X37544425Y-103654560D01*
G37*
G36*
X119953242Y-102126942D02*
G01*
X120101201Y-102188229D01*
X120234355Y-102277199D01*
X120347601Y-102390445D01*
X120436571Y-102523599D01*
X120497858Y-102671558D01*
X120529100Y-102828625D01*
X120529100Y-102988775D01*
X120497858Y-103145842D01*
X120436571Y-103293801D01*
X120347601Y-103426955D01*
X120234355Y-103540201D01*
X120101201Y-103629171D01*
X119953242Y-103690458D01*
X119796175Y-103721700D01*
X119636025Y-103721700D01*
X119478958Y-103690458D01*
X119330999Y-103629171D01*
X119197845Y-103540201D01*
X119084599Y-103426955D01*
X118995629Y-103293801D01*
X118934342Y-103145842D01*
X118903100Y-102988775D01*
X118903100Y-102828625D01*
X118934342Y-102671558D01*
X118995629Y-102523599D01*
X119084599Y-102390445D01*
X119197845Y-102277199D01*
X119330999Y-102188229D01*
X119478958Y-102126942D01*
X119636025Y-102095700D01*
X119796175Y-102095700D01*
X119953242Y-102126942D01*
G37*
G36*
X117413242Y-101106942D02*
G01*
X117561201Y-101168229D01*
X117694355Y-101257199D01*
X117807601Y-101370445D01*
X117896571Y-101503599D01*
X117957858Y-101651558D01*
X117989100Y-101808625D01*
X117989100Y-101968775D01*
X117957858Y-102125842D01*
X117896571Y-102273801D01*
X117807601Y-102406955D01*
X117694355Y-102520201D01*
X117561201Y-102609171D01*
X117413242Y-102670458D01*
X117256175Y-102701700D01*
X117096025Y-102701700D01*
X116938958Y-102670458D01*
X116790999Y-102609171D01*
X116657845Y-102520201D01*
X116544599Y-102406955D01*
X116455629Y-102273801D01*
X116394342Y-102125842D01*
X116363100Y-101968775D01*
X116363100Y-101808625D01*
X116394342Y-101651558D01*
X116455629Y-101503599D01*
X116544599Y-101370445D01*
X116657845Y-101257199D01*
X116790999Y-101168229D01*
X116938958Y-101106942D01*
X117096025Y-101075700D01*
X117256175Y-101075700D01*
X117413242Y-101106942D01*
G37*
G36*
X119953242Y-100086942D02*
G01*
X120101201Y-100148229D01*
X120234355Y-100237199D01*
X120347601Y-100350445D01*
X120436571Y-100483599D01*
X120497858Y-100631558D01*
X120529100Y-100788625D01*
X120529100Y-100948775D01*
X120497858Y-101105842D01*
X120436571Y-101253801D01*
X120347601Y-101386955D01*
X120234355Y-101500201D01*
X120101201Y-101589171D01*
X119953242Y-101650458D01*
X119796175Y-101681700D01*
X119636025Y-101681700D01*
X119478958Y-101650458D01*
X119330999Y-101589171D01*
X119197845Y-101500201D01*
X119084599Y-101386955D01*
X118995629Y-101253801D01*
X118934342Y-101105842D01*
X118903100Y-100948775D01*
X118903100Y-100788625D01*
X118934342Y-100631558D01*
X118995629Y-100483599D01*
X119084599Y-100350445D01*
X119197845Y-100237199D01*
X119330999Y-100148229D01*
X119478958Y-100086942D01*
X119636025Y-100055700D01*
X119796175Y-100055700D01*
X119953242Y-100086942D01*
G37*
G36*
X64705562Y-99415981D02*
G01*
X64740481Y-99426574D01*
X64772663Y-99443776D01*
X64800873Y-99466927D01*
X64824024Y-99495137D01*
X64841226Y-99527319D01*
X64851819Y-99562238D01*
X64856000Y-99604695D01*
X64856000Y-100745905D01*
X64851819Y-100788362D01*
X64841226Y-100823281D01*
X64824024Y-100855463D01*
X64800873Y-100883673D01*
X64772663Y-100906824D01*
X64740481Y-100924026D01*
X64705562Y-100934619D01*
X64663105Y-100938800D01*
X63196895Y-100938800D01*
X63154438Y-100934619D01*
X63119519Y-100924026D01*
X63087337Y-100906824D01*
X63059127Y-100883673D01*
X63035976Y-100855463D01*
X63018774Y-100823281D01*
X63008181Y-100788362D01*
X63004000Y-100745905D01*
X63004000Y-99604695D01*
X63008181Y-99562238D01*
X63018774Y-99527319D01*
X63035976Y-99495137D01*
X63059127Y-99466927D01*
X63087337Y-99443776D01*
X63119519Y-99426574D01*
X63154438Y-99415981D01*
X63196895Y-99411800D01*
X64663105Y-99411800D01*
X64705562Y-99415981D01*
G37*
G36*
X117413242Y-99066942D02*
G01*
X117561201Y-99128229D01*
X117694355Y-99217199D01*
X117807601Y-99330445D01*
X117896571Y-99463599D01*
X117957858Y-99611558D01*
X117989100Y-99768625D01*
X117989100Y-99928775D01*
X117957858Y-100085842D01*
X117896571Y-100233801D01*
X117807601Y-100366955D01*
X117694355Y-100480201D01*
X117561201Y-100569171D01*
X117413242Y-100630458D01*
X117256175Y-100661700D01*
X117096025Y-100661700D01*
X116938958Y-100630458D01*
X116790999Y-100569171D01*
X116657845Y-100480201D01*
X116544599Y-100366955D01*
X116455629Y-100233801D01*
X116394342Y-100085842D01*
X116363100Y-99928775D01*
X116363100Y-99768625D01*
X116394342Y-99611558D01*
X116455629Y-99463599D01*
X116544599Y-99330445D01*
X116657845Y-99217199D01*
X116790999Y-99128229D01*
X116938958Y-99066942D01*
X117096025Y-99035700D01*
X117256175Y-99035700D01*
X117413242Y-99066942D01*
G37*
G36*
X46328942Y-98281742D02*
G01*
X46476901Y-98343029D01*
X46610055Y-98431999D01*
X46723301Y-98545245D01*
X46812271Y-98678399D01*
X46873558Y-98826358D01*
X46904800Y-98983425D01*
X46904800Y-99143575D01*
X46873558Y-99300642D01*
X46812271Y-99448601D01*
X46723301Y-99581755D01*
X46610055Y-99695001D01*
X46476901Y-99783971D01*
X46328942Y-99845258D01*
X46171875Y-99876500D01*
X46011725Y-99876500D01*
X45854658Y-99845258D01*
X45706699Y-99783971D01*
X45573545Y-99695001D01*
X45460299Y-99581755D01*
X45371329Y-99448601D01*
X45310042Y-99300642D01*
X45278800Y-99143575D01*
X45278800Y-98983425D01*
X45310042Y-98826358D01*
X45371329Y-98678399D01*
X45460299Y-98545245D01*
X45573545Y-98431999D01*
X45706699Y-98343029D01*
X45854658Y-98281742D01*
X46011725Y-98250500D01*
X46171875Y-98250500D01*
X46328942Y-98281742D01*
G37*
G36*
X119953242Y-98046942D02*
G01*
X120101201Y-98108229D01*
X120234355Y-98197199D01*
X120347601Y-98310445D01*
X120436571Y-98443599D01*
X120497858Y-98591558D01*
X120529100Y-98748625D01*
X120529100Y-98908775D01*
X120497858Y-99065842D01*
X120436571Y-99213801D01*
X120347601Y-99346955D01*
X120234355Y-99460201D01*
X120101201Y-99549171D01*
X119953242Y-99610458D01*
X119796175Y-99641700D01*
X119636025Y-99641700D01*
X119478958Y-99610458D01*
X119330999Y-99549171D01*
X119197845Y-99460201D01*
X119084599Y-99346955D01*
X118995629Y-99213801D01*
X118934342Y-99065842D01*
X118903100Y-98908775D01*
X118903100Y-98748625D01*
X118934342Y-98591558D01*
X118995629Y-98443599D01*
X119084599Y-98310445D01*
X119197845Y-98197199D01*
X119330999Y-98108229D01*
X119478958Y-98046942D01*
X119636025Y-98015700D01*
X119796175Y-98015700D01*
X119953242Y-98046942D01*
G37*
G36*
X77035662Y-97608281D02*
G01*
X77070581Y-97618874D01*
X77102763Y-97636076D01*
X77130973Y-97659227D01*
X77154124Y-97687437D01*
X77171326Y-97719619D01*
X77181919Y-97754538D01*
X77186100Y-97796995D01*
X77186100Y-99263205D01*
X77181919Y-99305662D01*
X77171326Y-99340581D01*
X77154124Y-99372763D01*
X77130973Y-99400973D01*
X77102763Y-99424124D01*
X77070581Y-99441326D01*
X77035662Y-99451919D01*
X76993205Y-99456100D01*
X75851995Y-99456100D01*
X75809538Y-99451919D01*
X75774619Y-99441326D01*
X75742437Y-99424124D01*
X75714227Y-99400973D01*
X75691076Y-99372763D01*
X75673874Y-99340581D01*
X75663281Y-99305662D01*
X75659100Y-99263205D01*
X75659100Y-97796995D01*
X75663281Y-97754538D01*
X75673874Y-97719619D01*
X75691076Y-97687437D01*
X75714227Y-97659227D01*
X75742437Y-97636076D01*
X75774619Y-97618874D01*
X75809538Y-97608281D01*
X75851995Y-97604100D01*
X76993205Y-97604100D01*
X77035662Y-97608281D01*
G37*
G36*
X74060662Y-97608281D02*
G01*
X74095581Y-97618874D01*
X74127763Y-97636076D01*
X74155973Y-97659227D01*
X74179124Y-97687437D01*
X74196326Y-97719619D01*
X74206919Y-97754538D01*
X74211100Y-97796995D01*
X74211100Y-99263205D01*
X74206919Y-99305662D01*
X74196326Y-99340581D01*
X74179124Y-99372763D01*
X74155973Y-99400973D01*
X74127763Y-99424124D01*
X74095581Y-99441326D01*
X74060662Y-99451919D01*
X74018205Y-99456100D01*
X72876995Y-99456100D01*
X72834538Y-99451919D01*
X72799619Y-99441326D01*
X72767437Y-99424124D01*
X72739227Y-99400973D01*
X72716076Y-99372763D01*
X72698874Y-99340581D01*
X72688281Y-99305662D01*
X72684100Y-99263205D01*
X72684100Y-97796995D01*
X72688281Y-97754538D01*
X72698874Y-97719619D01*
X72716076Y-97687437D01*
X72739227Y-97659227D01*
X72767437Y-97636076D01*
X72799619Y-97618874D01*
X72834538Y-97608281D01*
X72876995Y-97604100D01*
X74018205Y-97604100D01*
X74060662Y-97608281D01*
G37*
G36*
X117413242Y-97026942D02*
G01*
X117561201Y-97088229D01*
X117694355Y-97177199D01*
X117807601Y-97290445D01*
X117896571Y-97423599D01*
X117957858Y-97571558D01*
X117989100Y-97728625D01*
X117989100Y-97888775D01*
X117957858Y-98045842D01*
X117896571Y-98193801D01*
X117807601Y-98326955D01*
X117694355Y-98440201D01*
X117561201Y-98529171D01*
X117413242Y-98590458D01*
X117256175Y-98621700D01*
X117096025Y-98621700D01*
X116938958Y-98590458D01*
X116790999Y-98529171D01*
X116657845Y-98440201D01*
X116544599Y-98326955D01*
X116455629Y-98193801D01*
X116394342Y-98045842D01*
X116363100Y-97888775D01*
X116363100Y-97728625D01*
X116394342Y-97571558D01*
X116455629Y-97423599D01*
X116544599Y-97290445D01*
X116657845Y-97177199D01*
X116790999Y-97088229D01*
X116938958Y-97026942D01*
X117096025Y-96995700D01*
X117256175Y-96995700D01*
X117413242Y-97026942D01*
G37*
G36*
X64705562Y-96440981D02*
G01*
X64740481Y-96451574D01*
X64772663Y-96468776D01*
X64800873Y-96491927D01*
X64824024Y-96520137D01*
X64841226Y-96552319D01*
X64851819Y-96587238D01*
X64856000Y-96629695D01*
X64856000Y-97770905D01*
X64851819Y-97813362D01*
X64841226Y-97848281D01*
X64824024Y-97880463D01*
X64800873Y-97908673D01*
X64772663Y-97931824D01*
X64740481Y-97949026D01*
X64705562Y-97959619D01*
X64663105Y-97963800D01*
X63196895Y-97963800D01*
X63154438Y-97959619D01*
X63119519Y-97949026D01*
X63087337Y-97931824D01*
X63059127Y-97908673D01*
X63035976Y-97880463D01*
X63018774Y-97848281D01*
X63008181Y-97813362D01*
X63004000Y-97770905D01*
X63004000Y-96629695D01*
X63008181Y-96587238D01*
X63018774Y-96552319D01*
X63035976Y-96520137D01*
X63059127Y-96491927D01*
X63087337Y-96468776D01*
X63119519Y-96451574D01*
X63154438Y-96440981D01*
X63196895Y-96436800D01*
X64663105Y-96436800D01*
X64705562Y-96440981D01*
G37*
G36*
X74060662Y-95220681D02*
G01*
X74095581Y-95231274D01*
X74127763Y-95248476D01*
X74155973Y-95271627D01*
X74179124Y-95299837D01*
X74196326Y-95332019D01*
X74206919Y-95366938D01*
X74211100Y-95409395D01*
X74211100Y-96875605D01*
X74206919Y-96918062D01*
X74196326Y-96952981D01*
X74179124Y-96985163D01*
X74155973Y-97013373D01*
X74127763Y-97036524D01*
X74095581Y-97053726D01*
X74060662Y-97064319D01*
X74018205Y-97068500D01*
X72876995Y-97068500D01*
X72834538Y-97064319D01*
X72799619Y-97053726D01*
X72767437Y-97036524D01*
X72739227Y-97013373D01*
X72716076Y-96985163D01*
X72698874Y-96952981D01*
X72688281Y-96918062D01*
X72684100Y-96875605D01*
X72684100Y-95409395D01*
X72688281Y-95366938D01*
X72698874Y-95332019D01*
X72716076Y-95299837D01*
X72739227Y-95271627D01*
X72767437Y-95248476D01*
X72799619Y-95231274D01*
X72834538Y-95220681D01*
X72876995Y-95216500D01*
X74018205Y-95216500D01*
X74060662Y-95220681D01*
G37*
G36*
X77035662Y-95220681D02*
G01*
X77070581Y-95231274D01*
X77102763Y-95248476D01*
X77130973Y-95271627D01*
X77154124Y-95299837D01*
X77171326Y-95332019D01*
X77181919Y-95366938D01*
X77186100Y-95409395D01*
X77186100Y-96875605D01*
X77181919Y-96918062D01*
X77171326Y-96952981D01*
X77154124Y-96985163D01*
X77130973Y-97013373D01*
X77102763Y-97036524D01*
X77070581Y-97053726D01*
X77035662Y-97064319D01*
X76993205Y-97068500D01*
X75851995Y-97068500D01*
X75809538Y-97064319D01*
X75774619Y-97053726D01*
X75742437Y-97036524D01*
X75714227Y-97013373D01*
X75691076Y-96985163D01*
X75673874Y-96952981D01*
X75663281Y-96918062D01*
X75659100Y-96875605D01*
X75659100Y-95409395D01*
X75663281Y-95366938D01*
X75673874Y-95332019D01*
X75691076Y-95299837D01*
X75714227Y-95271627D01*
X75742437Y-95248476D01*
X75774619Y-95231274D01*
X75809538Y-95220681D01*
X75851995Y-95216500D01*
X76993205Y-95216500D01*
X77035662Y-95220681D01*
G37*
G36*
X122330587Y-93107696D02*
G01*
X122567353Y-93205768D01*
X122567355Y-93205769D01*
X122780439Y-93348147D01*
X122961653Y-93529361D01*
X123041327Y-93648601D01*
X123104032Y-93742447D01*
X123202104Y-93979213D01*
X123252100Y-94230561D01*
X123252100Y-94486839D01*
X123202104Y-94738187D01*
X123104032Y-94974953D01*
X123104031Y-94974955D01*
X122961653Y-95188039D01*
X122780439Y-95369253D01*
X122567355Y-95511631D01*
X122567354Y-95511632D01*
X122567353Y-95511632D01*
X122330587Y-95609704D01*
X122079239Y-95659700D01*
X121822961Y-95659700D01*
X121571613Y-95609704D01*
X121334847Y-95511632D01*
X121334846Y-95511632D01*
X121334845Y-95511631D01*
X121121761Y-95369253D01*
X120940547Y-95188039D01*
X120798169Y-94974955D01*
X120798168Y-94974953D01*
X120700096Y-94738187D01*
X120650100Y-94486839D01*
X120650100Y-94230561D01*
X120700096Y-93979213D01*
X120798168Y-93742447D01*
X120860874Y-93648601D01*
X120940547Y-93529361D01*
X121121761Y-93348147D01*
X121334845Y-93205769D01*
X121334847Y-93205768D01*
X121571613Y-93107696D01*
X121822961Y-93057700D01*
X122079239Y-93057700D01*
X122330587Y-93107696D01*
G37*
G36*
X77069762Y-92694281D02*
G01*
X77104681Y-92704874D01*
X77136863Y-92722076D01*
X77165073Y-92745227D01*
X77188224Y-92773437D01*
X77205426Y-92805619D01*
X77216019Y-92840538D01*
X77220200Y-92882995D01*
X77220200Y-94349205D01*
X77216019Y-94391662D01*
X77205426Y-94426581D01*
X77188224Y-94458763D01*
X77165073Y-94486973D01*
X77136863Y-94510124D01*
X77104681Y-94527326D01*
X77069762Y-94537919D01*
X77027305Y-94542100D01*
X75886095Y-94542100D01*
X75843638Y-94537919D01*
X75808719Y-94527326D01*
X75776537Y-94510124D01*
X75748327Y-94486973D01*
X75725176Y-94458763D01*
X75707974Y-94426581D01*
X75697381Y-94391662D01*
X75693200Y-94349205D01*
X75693200Y-92882995D01*
X75697381Y-92840538D01*
X75707974Y-92805619D01*
X75725176Y-92773437D01*
X75748327Y-92745227D01*
X75776537Y-92722076D01*
X75808719Y-92704874D01*
X75843638Y-92694281D01*
X75886095Y-92690100D01*
X77027305Y-92690100D01*
X77069762Y-92694281D01*
G37*
G36*
X74094762Y-92694281D02*
G01*
X74129681Y-92704874D01*
X74161863Y-92722076D01*
X74190073Y-92745227D01*
X74213224Y-92773437D01*
X74230426Y-92805619D01*
X74241019Y-92840538D01*
X74245200Y-92882995D01*
X74245200Y-94349205D01*
X74241019Y-94391662D01*
X74230426Y-94426581D01*
X74213224Y-94458763D01*
X74190073Y-94486973D01*
X74161863Y-94510124D01*
X74129681Y-94527326D01*
X74094762Y-94537919D01*
X74052305Y-94542100D01*
X72911095Y-94542100D01*
X72868638Y-94537919D01*
X72833719Y-94527326D01*
X72801537Y-94510124D01*
X72773327Y-94486973D01*
X72750176Y-94458763D01*
X72732974Y-94426581D01*
X72722381Y-94391662D01*
X72718200Y-94349205D01*
X72718200Y-92882995D01*
X72722381Y-92840538D01*
X72732974Y-92805619D01*
X72750176Y-92773437D01*
X72773327Y-92745227D01*
X72801537Y-92722076D01*
X72833719Y-92704874D01*
X72868638Y-92694281D01*
X72911095Y-92690100D01*
X74052305Y-92690100D01*
X74094762Y-92694281D01*
G37*
G36*
X46328942Y-92481742D02*
G01*
X46476901Y-92543029D01*
X46610055Y-92631999D01*
X46723301Y-92745245D01*
X46812271Y-92878399D01*
X46873558Y-93026358D01*
X46904800Y-93183425D01*
X46904800Y-93343575D01*
X46873558Y-93500642D01*
X46812271Y-93648601D01*
X46723301Y-93781755D01*
X46610055Y-93895001D01*
X46476901Y-93983971D01*
X46328942Y-94045258D01*
X46171875Y-94076500D01*
X46011725Y-94076500D01*
X45854658Y-94045258D01*
X45706699Y-93983971D01*
X45573545Y-93895001D01*
X45460299Y-93781755D01*
X45371329Y-93648601D01*
X45310042Y-93500642D01*
X45278800Y-93343575D01*
X45278800Y-93183425D01*
X45310042Y-93026358D01*
X45371329Y-92878399D01*
X45460299Y-92745245D01*
X45573545Y-92631999D01*
X45706699Y-92543029D01*
X45854658Y-92481742D01*
X46011725Y-92450500D01*
X46171875Y-92450500D01*
X46328942Y-92481742D01*
G37*
G36*
X37544425Y-92154560D02*
G01*
X37544428Y-92154561D01*
X37544429Y-92154561D01*
X37723693Y-92208940D01*
X37723696Y-92208942D01*
X37723697Y-92208942D01*
X37888903Y-92297246D01*
X38033712Y-92416088D01*
X38152554Y-92560897D01*
X38240858Y-92726103D01*
X38240860Y-92726107D01*
X38287057Y-92878399D01*
X38295240Y-92905375D01*
X38313601Y-93091800D01*
X38295240Y-93278225D01*
X38295239Y-93278228D01*
X38295239Y-93278229D01*
X38240860Y-93457493D01*
X38240858Y-93457496D01*
X38240858Y-93457497D01*
X38152554Y-93622703D01*
X38033712Y-93767512D01*
X37888903Y-93886354D01*
X37723697Y-93974658D01*
X37723693Y-93974660D01*
X37544429Y-94029039D01*
X37544428Y-94029039D01*
X37544425Y-94029040D01*
X37404718Y-94042800D01*
X35611282Y-94042800D01*
X35471575Y-94029040D01*
X35471572Y-94029039D01*
X35471571Y-94029039D01*
X35292307Y-93974660D01*
X35292303Y-93974658D01*
X35127097Y-93886354D01*
X34982288Y-93767512D01*
X34863446Y-93622703D01*
X34775142Y-93457497D01*
X34775142Y-93457496D01*
X34775140Y-93457493D01*
X34720761Y-93278229D01*
X34720761Y-93278228D01*
X34720760Y-93278225D01*
X34702399Y-93091800D01*
X34720760Y-92905375D01*
X34728943Y-92878399D01*
X34775140Y-92726107D01*
X34775142Y-92726103D01*
X34863446Y-92560897D01*
X34982288Y-92416088D01*
X35127097Y-92297246D01*
X35292303Y-92208942D01*
X35292304Y-92208942D01*
X35292307Y-92208940D01*
X35471571Y-92154561D01*
X35471572Y-92154561D01*
X35471575Y-92154560D01*
X35611282Y-92140800D01*
X37404718Y-92140800D01*
X37544425Y-92154560D01*
G37*
G36*
X72281318Y-88606453D02*
G01*
X72499885Y-88696987D01*
X72499887Y-88696988D01*
X72696593Y-88828422D01*
X72863878Y-88995707D01*
X72905968Y-89058700D01*
X72995313Y-89192415D01*
X73085847Y-89410982D01*
X73132000Y-89643010D01*
X73132000Y-89879590D01*
X73085847Y-90111618D01*
X73038651Y-90225558D01*
X72995312Y-90330187D01*
X72863878Y-90526893D01*
X72696593Y-90694178D01*
X72499887Y-90825612D01*
X72499886Y-90825613D01*
X72499885Y-90825613D01*
X72281318Y-90916147D01*
X72049290Y-90962300D01*
X71812710Y-90962300D01*
X71580682Y-90916147D01*
X71362115Y-90825613D01*
X71362114Y-90825613D01*
X71362113Y-90825612D01*
X71165407Y-90694178D01*
X70998122Y-90526893D01*
X70866688Y-90330187D01*
X70823349Y-90225558D01*
X70776153Y-90111618D01*
X70730000Y-89879590D01*
X70730000Y-89643010D01*
X70776153Y-89410982D01*
X70866687Y-89192415D01*
X70956032Y-89058700D01*
X70998122Y-88995707D01*
X71165407Y-88828422D01*
X71362113Y-88696988D01*
X71362115Y-88696987D01*
X71580682Y-88606453D01*
X71812710Y-88560300D01*
X72049290Y-88560300D01*
X72281318Y-88606453D01*
G37*
G36*
X77361318Y-88606453D02*
G01*
X77579885Y-88696987D01*
X77579887Y-88696988D01*
X77776593Y-88828422D01*
X77943878Y-88995707D01*
X77985968Y-89058700D01*
X78075313Y-89192415D01*
X78165847Y-89410982D01*
X78212000Y-89643010D01*
X78212000Y-89879590D01*
X78165847Y-90111618D01*
X78118651Y-90225558D01*
X78075312Y-90330187D01*
X77943878Y-90526893D01*
X77776593Y-90694178D01*
X77579887Y-90825612D01*
X77579886Y-90825613D01*
X77579885Y-90825613D01*
X77361318Y-90916147D01*
X77129290Y-90962300D01*
X76892710Y-90962300D01*
X76660682Y-90916147D01*
X76442115Y-90825613D01*
X76442114Y-90825613D01*
X76442113Y-90825612D01*
X76245407Y-90694178D01*
X76078122Y-90526893D01*
X75946688Y-90330187D01*
X75903349Y-90225558D01*
X75856153Y-90111618D01*
X75810000Y-89879590D01*
X75810000Y-89643010D01*
X75856153Y-89410982D01*
X75946687Y-89192415D01*
X76036032Y-89058700D01*
X76078122Y-88995707D01*
X76245407Y-88828422D01*
X76442113Y-88696988D01*
X76442115Y-88696987D01*
X76660682Y-88606453D01*
X76892710Y-88560300D01*
X77129290Y-88560300D01*
X77361318Y-88606453D01*
G37*
G36*
X92488142Y-88662042D02*
G01*
X92636101Y-88723329D01*
X92769255Y-88812299D01*
X92882501Y-88925545D01*
X92971471Y-89058699D01*
X93032758Y-89206658D01*
X93064000Y-89363725D01*
X93064000Y-89523875D01*
X93032758Y-89680942D01*
X92971471Y-89828901D01*
X92882501Y-89962055D01*
X92769255Y-90075301D01*
X92636101Y-90164271D01*
X92488142Y-90225558D01*
X92331075Y-90256800D01*
X92170925Y-90256800D01*
X92013858Y-90225558D01*
X91865899Y-90164271D01*
X91732745Y-90075301D01*
X91619499Y-89962055D01*
X91530529Y-89828901D01*
X91469242Y-89680942D01*
X91438000Y-89523875D01*
X91438000Y-89363725D01*
X91469242Y-89206658D01*
X91530529Y-89058699D01*
X91619499Y-88925545D01*
X91732745Y-88812299D01*
X91865899Y-88723329D01*
X92013858Y-88662042D01*
X92170925Y-88630800D01*
X92331075Y-88630800D01*
X92488142Y-88662042D01*
G37*
G36*
X95028142Y-88662042D02*
G01*
X95176101Y-88723329D01*
X95309255Y-88812299D01*
X95422501Y-88925545D01*
X95511471Y-89058699D01*
X95572758Y-89206658D01*
X95604000Y-89363725D01*
X95604000Y-89523875D01*
X95572758Y-89680942D01*
X95511471Y-89828901D01*
X95422501Y-89962055D01*
X95309255Y-90075301D01*
X95176101Y-90164271D01*
X95028142Y-90225558D01*
X94871075Y-90256800D01*
X94710925Y-90256800D01*
X94553858Y-90225558D01*
X94405899Y-90164271D01*
X94272745Y-90075301D01*
X94159499Y-89962055D01*
X94070529Y-89828901D01*
X94009242Y-89680942D01*
X93978000Y-89523875D01*
X93978000Y-89363725D01*
X94009242Y-89206658D01*
X94070529Y-89058699D01*
X94159499Y-88925545D01*
X94272745Y-88812299D01*
X94405899Y-88723329D01*
X94553858Y-88662042D01*
X94710925Y-88630800D01*
X94871075Y-88630800D01*
X95028142Y-88662042D01*
G37*
G36*
X107728142Y-88662042D02*
G01*
X107876101Y-88723329D01*
X108009255Y-88812299D01*
X108122501Y-88925545D01*
X108211471Y-89058699D01*
X108272758Y-89206658D01*
X108304000Y-89363725D01*
X108304000Y-89523875D01*
X108272758Y-89680942D01*
X108211471Y-89828901D01*
X108122501Y-89962055D01*
X108009255Y-90075301D01*
X107876101Y-90164271D01*
X107728142Y-90225558D01*
X107571075Y-90256800D01*
X107410925Y-90256800D01*
X107253858Y-90225558D01*
X107105899Y-90164271D01*
X106972745Y-90075301D01*
X106859499Y-89962055D01*
X106770529Y-89828901D01*
X106709242Y-89680942D01*
X106678000Y-89523875D01*
X106678000Y-89363725D01*
X106709242Y-89206658D01*
X106770529Y-89058699D01*
X106859499Y-88925545D01*
X106972745Y-88812299D01*
X107105899Y-88723329D01*
X107253858Y-88662042D01*
X107410925Y-88630800D01*
X107571075Y-88630800D01*
X107728142Y-88662042D01*
G37*
G36*
X105188142Y-88662042D02*
G01*
X105336101Y-88723329D01*
X105469255Y-88812299D01*
X105582501Y-88925545D01*
X105671471Y-89058699D01*
X105732758Y-89206658D01*
X105764000Y-89363725D01*
X105764000Y-89523875D01*
X105732758Y-89680942D01*
X105671471Y-89828901D01*
X105582501Y-89962055D01*
X105469255Y-90075301D01*
X105336101Y-90164271D01*
X105188142Y-90225558D01*
X105031075Y-90256800D01*
X104870925Y-90256800D01*
X104713858Y-90225558D01*
X104565899Y-90164271D01*
X104432745Y-90075301D01*
X104319499Y-89962055D01*
X104230529Y-89828901D01*
X104169242Y-89680942D01*
X104138000Y-89523875D01*
X104138000Y-89363725D01*
X104169242Y-89206658D01*
X104230529Y-89058699D01*
X104319499Y-88925545D01*
X104432745Y-88812299D01*
X104565899Y-88723329D01*
X104713858Y-88662042D01*
X104870925Y-88630800D01*
X105031075Y-88630800D01*
X105188142Y-88662042D01*
G37*
G36*
X102648142Y-88662042D02*
G01*
X102796101Y-88723329D01*
X102929255Y-88812299D01*
X103042501Y-88925545D01*
X103131471Y-89058699D01*
X103192758Y-89206658D01*
X103224000Y-89363725D01*
X103224000Y-89523875D01*
X103192758Y-89680942D01*
X103131471Y-89828901D01*
X103042501Y-89962055D01*
X102929255Y-90075301D01*
X102796101Y-90164271D01*
X102648142Y-90225558D01*
X102491075Y-90256800D01*
X102330925Y-90256800D01*
X102173858Y-90225558D01*
X102025899Y-90164271D01*
X101892745Y-90075301D01*
X101779499Y-89962055D01*
X101690529Y-89828901D01*
X101629242Y-89680942D01*
X101598000Y-89523875D01*
X101598000Y-89363725D01*
X101629242Y-89206658D01*
X101690529Y-89058699D01*
X101779499Y-88925545D01*
X101892745Y-88812299D01*
X102025899Y-88723329D01*
X102173858Y-88662042D01*
X102330925Y-88630800D01*
X102491075Y-88630800D01*
X102648142Y-88662042D01*
G37*
G36*
X51683262Y-88057881D02*
G01*
X51718181Y-88068474D01*
X51750363Y-88085676D01*
X51778573Y-88108827D01*
X51801724Y-88137037D01*
X51818926Y-88169219D01*
X51829519Y-88204138D01*
X51833700Y-88246595D01*
X51833700Y-89712805D01*
X51829519Y-89755262D01*
X51818926Y-89790181D01*
X51801724Y-89822363D01*
X51778573Y-89850573D01*
X51750363Y-89873724D01*
X51718181Y-89890926D01*
X51683262Y-89901519D01*
X51640805Y-89905700D01*
X50499595Y-89905700D01*
X50457138Y-89901519D01*
X50422219Y-89890926D01*
X50390037Y-89873724D01*
X50361827Y-89850573D01*
X50338676Y-89822363D01*
X50321474Y-89790181D01*
X50310881Y-89755262D01*
X50306700Y-89712805D01*
X50306700Y-88246595D01*
X50310881Y-88204138D01*
X50321474Y-88169219D01*
X50338676Y-88137037D01*
X50361827Y-88108827D01*
X50390037Y-88085676D01*
X50422219Y-88068474D01*
X50457138Y-88057881D01*
X50499595Y-88053700D01*
X51640805Y-88053700D01*
X51683262Y-88057881D01*
G37*
G36*
X54658262Y-88057881D02*
G01*
X54693181Y-88068474D01*
X54725363Y-88085676D01*
X54753573Y-88108827D01*
X54776724Y-88137037D01*
X54793926Y-88169219D01*
X54804519Y-88204138D01*
X54808700Y-88246595D01*
X54808700Y-89712805D01*
X54804519Y-89755262D01*
X54793926Y-89790181D01*
X54776724Y-89822363D01*
X54753573Y-89850573D01*
X54725363Y-89873724D01*
X54693181Y-89890926D01*
X54658262Y-89901519D01*
X54615805Y-89905700D01*
X53474595Y-89905700D01*
X53432138Y-89901519D01*
X53397219Y-89890926D01*
X53365037Y-89873724D01*
X53336827Y-89850573D01*
X53313676Y-89822363D01*
X53296474Y-89790181D01*
X53285881Y-89755262D01*
X53281700Y-89712805D01*
X53281700Y-88246595D01*
X53285881Y-88204138D01*
X53296474Y-88169219D01*
X53313676Y-88137037D01*
X53336827Y-88108827D01*
X53365037Y-88085676D01*
X53397219Y-88068474D01*
X53432138Y-88057881D01*
X53474595Y-88053700D01*
X54615805Y-88053700D01*
X54658262Y-88057881D01*
G37*
G36*
X56864862Y-88057881D02*
G01*
X56899781Y-88068474D01*
X56931963Y-88085676D01*
X56960173Y-88108827D01*
X56983324Y-88137037D01*
X57000526Y-88169219D01*
X57011119Y-88204138D01*
X57015300Y-88246595D01*
X57015300Y-89712805D01*
X57011119Y-89755262D01*
X57000526Y-89790181D01*
X56983324Y-89822363D01*
X56960173Y-89850573D01*
X56931963Y-89873724D01*
X56899781Y-89890926D01*
X56864862Y-89901519D01*
X56822405Y-89905700D01*
X55681195Y-89905700D01*
X55638738Y-89901519D01*
X55603819Y-89890926D01*
X55571637Y-89873724D01*
X55543427Y-89850573D01*
X55520276Y-89822363D01*
X55503074Y-89790181D01*
X55492481Y-89755262D01*
X55488300Y-89712805D01*
X55488300Y-88246595D01*
X55492481Y-88204138D01*
X55503074Y-88169219D01*
X55520276Y-88137037D01*
X55543427Y-88108827D01*
X55571637Y-88085676D01*
X55603819Y-88068474D01*
X55638738Y-88057881D01*
X55681195Y-88053700D01*
X56822405Y-88053700D01*
X56864862Y-88057881D01*
G37*
G36*
X59839862Y-88057881D02*
G01*
X59874781Y-88068474D01*
X59906963Y-88085676D01*
X59935173Y-88108827D01*
X59958324Y-88137037D01*
X59975526Y-88169219D01*
X59986119Y-88204138D01*
X59990300Y-88246595D01*
X59990300Y-89712805D01*
X59986119Y-89755262D01*
X59975526Y-89790181D01*
X59958324Y-89822363D01*
X59935173Y-89850573D01*
X59906963Y-89873724D01*
X59874781Y-89890926D01*
X59839862Y-89901519D01*
X59797405Y-89905700D01*
X58656195Y-89905700D01*
X58613738Y-89901519D01*
X58578819Y-89890926D01*
X58546637Y-89873724D01*
X58518427Y-89850573D01*
X58495276Y-89822363D01*
X58478074Y-89790181D01*
X58467481Y-89755262D01*
X58463300Y-89712805D01*
X58463300Y-88246595D01*
X58467481Y-88204138D01*
X58478074Y-88169219D01*
X58495276Y-88137037D01*
X58518427Y-88108827D01*
X58546637Y-88085676D01*
X58578819Y-88068474D01*
X58613738Y-88057881D01*
X58656195Y-88053700D01*
X59797405Y-88053700D01*
X59839862Y-88057881D01*
G37*
M02*
