M48
; DRILL file {KiCad (5.1.5)-3} date 20.11.2020 20:52:40
; FORMAT={2:4/ absolute / inch / keep zeros}
; #@! TF.CreationDate,2020-11-20T20:52:40+01:00
; #@! TF.GenerationSoftware,Kicad,Pcbnew,(5.1.5)-3
FMAT,2
INCH
T1C0.0157
T2C0.0299
T3C0.0300
T4C0.0315
T5C0.0354
T6C0.0472
T7C0.0945
%
G90
G05
T1
X026000Y-039439
X026000Y-049164
X026000Y-058888
X026000Y-068612
X026019Y-038289
X026019Y-048014
X026019Y-057738
X026019Y-067462
X028169Y-042439
X028169Y-052164
X028169Y-061888
X028169Y-071612
X030569Y-036114
X030569Y-045839
X030569Y-055563
X030569Y-065287
X032213Y-038379
X032213Y-048104
X032213Y-057828
X032213Y-067553
X032500Y-043025
X032500Y-052749
X032500Y-062474
X032500Y-072198
X034496Y-042986
X034496Y-052710
X034496Y-062435
X034496Y-072159
X043784Y-042950
X043784Y-052675
X043784Y-062399
X043784Y-072124
X044219Y-037314
X044219Y-047039
X044219Y-056763
X044219Y-066487
X044334Y-036599
X044334Y-046324
X044334Y-056048
X044334Y-065772
X044873Y-037155
X044873Y-046879
X044873Y-056603
X044873Y-066328
T2
X028319Y-045064
X030319Y-045064
X030319Y-052064
X028319Y-035339
X030319Y-035339
X030319Y-042339
X028319Y-054788
X030319Y-054788
X030319Y-061788
X028319Y-064512
X030319Y-064512
X030319Y-071512
T3
X036319Y-054663
X037319Y-054663
X040319Y-054663
X041319Y-054663
X042319Y-054663
X018146Y-046442
X018146Y-048726
X036319Y-044939
X037319Y-044939
X040319Y-044939
X041319Y-044939
X042319Y-044939
X018146Y-065891
X018146Y-068175
X036319Y-035214
X037319Y-035214
X040319Y-035214
X041319Y-035214
X042319Y-035214
X018146Y-036718
X018146Y-039001
X036319Y-064387
X037319Y-064387
X040319Y-064387
X041319Y-064387
X042319Y-064387
X018146Y-056167
X018146Y-058450
T4
X018319Y-071512
X020319Y-071512
X018319Y-052064
X020319Y-052064
X018319Y-042339
X020319Y-042339
X018319Y-061788
X020319Y-061788
T5
X046132Y-038507
X046132Y-039311
X046132Y-040114
X047132Y-038909
X047132Y-039712
X047132Y-040515
X046132Y-057956
X046132Y-058759
X046132Y-059562
X047132Y-058358
X047132Y-059161
X047132Y-059964
X046132Y-067681
X046132Y-068484
X046132Y-069287
X047132Y-068082
X047132Y-068885
X047132Y-069688
X046132Y-048232
X046132Y-049035
X046132Y-049838
X047132Y-048633
X047132Y-049436
X047132Y-050240
T7
X048012Y-037149
X048012Y-041874
X048012Y-056598
X048012Y-061322
X048012Y-066322
X048012Y-071047
X048012Y-046874
X048012Y-051598
T6
G00X014649Y-056099
M15
G01X014098Y-056099
M16
G05
G00X014649Y-060627
M15
G01X014098Y-060627
M16
G05
G00X014649Y-046375
M15
G01X014098Y-046375
M16
G05
G00X014649Y-050902
M15
G01X014098Y-050902
M16
G05
G00X014649Y-036650
M15
G01X014098Y-036650
M16
G05
G00X014649Y-041178
M15
G01X014098Y-041178
M16
G05
G00X014649Y-065824
M15
G01X014098Y-065824
M16
G05
G00X014649Y-070351
M15
G01X014098Y-070351
M16
G05
T0
M30
